<?xml version="1.0" encoding="UTF-8" standalone="no"?>
<!-- Created with Inkscape (http://www.inkscape.org/) -->

<svg
   xmlns:dc="http://purl.org/dc/elements/1.1/"
   xmlns:cc="http://creativecommons.org/ns#"
   xmlns:rdf="http://www.w3.org/1999/02/22-rdf-syntax-ns#"
   xmlns:svg="http://www.w3.org/2000/svg"
   xmlns="http://www.w3.org/2000/svg"
   xmlns:sodipodi="http://sodipodi.sourceforge.net/DTD/sodipodi-0.dtd"
   xmlns:inkscape="http://www.inkscape.org/namespaces/inkscape"
   width="24"
   height="24"
   viewBox="0 0 6.3499999 6.3500002"
   version="1.1"
   id="svg8"
   inkscape:version="0.92.2 2405546, 2018-03-11"
   sodipodi:docname="home.svg">
  <defs
     id="defs2" />
  <sodipodi:namedview
     id="base"
     pagecolor="#ffffff"
     bordercolor="#666666"
     borderopacity="1.0"
     inkscape:pageopacity="0.0"
     inkscape:pageshadow="2"
     inkscape:zoom="15.999999"
     inkscape:cx="6.4233478"
     inkscape:cy="4.4430994"
     inkscape:document-units="px"
     inkscape:current-layer="layer1"
     showgrid="true"
     units="px"
     showguides="true"
     inkscape:guide-bbox="true"
     inkscape:window-width="1600"
     inkscape:window-height="836"
     inkscape:window-x="0"
     inkscape:window-y="27"
     inkscape:window-maximized="1"
     inkscape:snap-grids="true"
     inkscape:snap-to-guides="false"
     inkscape:snap-global="true">
    <inkscape:grid
       type="xygrid"
       id="grid815"
       empcolor="#3f3fff"
       empopacity="0.16862745"
       color="#3f3fff"
       opacity="0.05490196" />
    <sodipodi:guide
       position="1.0583333,7.6729167"
       orientation="1,0"
       id="guide817"
       inkscape:locked="false"
       inkscape:label=""
       inkscape:color="rgb(0,0,255)" />
    <sodipodi:guide
       position="5.55625,5.2916667"
       orientation="0,1"
       id="guide819"
       inkscape:locked="false"
       inkscape:label=""
       inkscape:color="rgb(0,0,255)" />
    <sodipodi:guide
       position="5.2916667,2.38125"
       orientation="1,0"
       id="guide821"
       inkscape:locked="false"
       inkscape:label=""
       inkscape:color="rgb(0,0,255)" />
    <sodipodi:guide
       position="6.0854165,1.0583333"
       orientation="0,1"
       id="guide823"
       inkscape:locked="false"
       inkscape:label=""
       inkscape:color="rgb(0,0,255)" />
  </sodipodi:namedview>
  <metadata
     id="metadata5">
    <rdf:RDF>
      <cc:Work
         rdf:about="">
        <dc:format>image/svg+xml</dc:format>
        <dc:type
           rdf:resource="http://purl.org/dc/dcmitype/StillImage" />
        <dc:title />
      </cc:Work>
    </rdf:RDF>
  </metadata>
  <g
     inkscape:label="Layer 1"
     inkscape:groupmode="layer"
     id="layer1"
     transform="translate(0,-290.64999)">
    <path
       sodipodi:nodetypes="cc"
       inkscape:connector-curvature="0"
       id="path830"
       d="m -15.08125,296.20625 v -2.91042"
       style="fill:none;stroke:#000000;stroke-width:0.5291667;stroke-linecap:round;stroke-linejoin:round;stroke-miterlimit:4;stroke-dasharray:none;stroke-opacity:1" />
    <path
       sodipodi:nodetypes="cc"
       inkscape:connector-curvature="0"
       id="path832"
       d="m -13.229167,291.17916 -1.852083,2.11667"
       style="fill:none;stroke:#000000;stroke-width:0.5291667;stroke-linecap:round;stroke-linejoin:round;stroke-miterlimit:4;stroke-dasharray:none;stroke-opacity:1" />
    <path
       style="fill:none;stroke:#000000;stroke-width:0.5291667;stroke-linecap:round;stroke-linejoin:round;stroke-miterlimit:4;stroke-dasharray:none;stroke-opacity:1"
       d="m -13.229167,291.17916 1.852084,2.11667"
       id="path834"
       inkscape:connector-curvature="0"
       sodipodi:nodetypes="cc" />
    <path
       style="fill:none;stroke:#000000;stroke-width:0.5291667;stroke-linecap:round;stroke-linejoin:round;stroke-miterlimit:4;stroke-dasharray:none;stroke-opacity:1"
       d="m -11.377083,296.20625 v -2.91042"
       id="path836"
       inkscape:connector-curvature="0"
       sodipodi:nodetypes="cc" />
    <path
       sodipodi:nodetypes="cccc"
       inkscape:connector-curvature="0"
       id="path838"
       d="m -12.7,296.20625 v -1.85209 h -1.058333 v 1.85209"
       style="fill:none;stroke:#000000;stroke-width:0.5291667;stroke-linecap:round;stroke-linejoin:round;stroke-miterlimit:4;stroke-dasharray:none;stroke-opacity:1" />
    <path
       inkscape:connector-curvature="0"
       id="path840"
       d="m -15.08125,296.20625 h 3.704166"
       style="fill:none;stroke:#000000;stroke-width:0.5291667;stroke-linecap:round;stroke-linejoin:round;stroke-miterlimit:4;stroke-dasharray:none;stroke-opacity:1" />
    <g
       id="g856"
       transform="translate(23.77736)">
      <path
         id="path850"
         transform="matrix(0.26458334,0,0,0.26458334,0,290.64999)"
         d="m 12.025391,3.9863281 c -0.03715,-7.672e-4 -0.07432,5.332e-4 -0.111329,0.00391 -0.04077,0.00467 -0.08121,0.011845 -0.121093,0.021484 -0.27629,0.056208 -0.516017,0.2264294 -0.660157,0.46875 L 5.3125,10.261719 c -0.094808,0.08979 -0.1711139,0.197286 -0.2246094,0.316406 -0.00548,0.01291 -0.010691,0.02593 -0.015625,0.03906 -0.00554,0.0142 -0.010745,0.02853 -0.015625,0.04297 -0.052256,0.143607 -0.070963,0.297269 -0.054687,0.449219 v 9.802734 c -0.01113,0.130476 0.00347,0.261868 0.042969,0.386719 0.019473,0.06224 0.044984,0.122418 0.076172,0.179688 0.00129,0.0026 0.00259,0.0052 0.00391,0.0078 0.011086,0.01927 0.022811,0.03816 0.035156,0.05664 0.00694,0.01121 0.014105,0.02228 0.021484,0.0332 0.00258,0.0039 0.00518,0.0078 0.00781,0.01172 0.014887,0.02011 0.030523,0.03965 0.046875,0.05859 0.01443,0.01677 0.029412,0.03305 0.044922,0.04883 0.00767,0.0086 0.015479,0.01706 0.023437,0.02539 0.0058,0.0053 0.011658,0.01048 0.017578,0.01563 0.023714,0.02202 0.048483,0.04288 0.074219,0.0625 0.00195,0.002 0.0039,0.0039 0.00586,0.0059 0.025875,0.01818 0.052598,0.03513 0.080078,0.05078 0.02846,0.01774 0.057794,0.03404 0.087891,0.04883 0.090231,0.04272 0.1863482,0.07168 0.2851563,0.08594 0.066558,0.01002 0.1339567,0.01326 0.2011718,0.0098 h 3.8710938 c 0.024065,0.0015 0.048166,2.35e-4 0.072266,0 v -7 h 4 v 7 c 0.01824,-1.42e-4 0.03647,0.0011 0.05469,0 h 3.871093 c 0.09161,0.0061 0.18362,-5.03e-4 0.273438,-0.01953 0.03296,-0.0068 0.06555,-0.01529 0.09766,-0.02539 0.06365,-0.01986 0.125153,-0.04603 0.183594,-0.07813 0.02951,-0.01612 0.0582,-0.03372 0.08594,-0.05273 0.02702,-0.01888 0.05309,-0.03909 0.07813,-0.06055 0.01677,-0.01443 0.03305,-0.02941 0.04883,-0.04492 0.0086,-0.0077 0.01706,-0.01548 0.02539,-0.02344 0.0053,-0.0058 0.01048,-0.01166 0.01563,-0.01758 0.02202,-0.02371 0.04288,-0.04848 0.0625,-0.07422 0,0 0.002,-0.002 0.002,-0.002 0.01511,-0.02028 0.02944,-0.04113 0.04297,-0.0625 0.004,-0.0065 0.0079,-0.01298 0.01172,-0.01953 6.54e-4,-0.0013 0.0013,-0.0026 0.002,-0.0039 0.01702,-0.02786 0.03267,-0.05654 0.04687,-0.08594 0.04272,-0.09023 0.07168,-0.186349 0.08594,-0.285157 0.0099,-0.06592 0.01313,-0.132652 0.0098,-0.199219 v -9.857421 c 0.01172,-0.130348 -0.0022,-0.261729 -0.04102,-0.386719 -0.05109,-0.172092 -0.147568,-0.32726 -0.279297,-0.449219 L 12.886719,4.4941406 C 12.710902,4.1831944 12.382586,3.9896298 12.025391,3.9863281 Z"
         style="color:#000000;font-style:normal;font-variant:normal;font-weight:normal;font-stretch:normal;font-size:medium;line-height:normal;font-family:sans-serif;font-variant-ligatures:normal;font-variant-position:normal;font-variant-caps:normal;font-variant-numeric:normal;font-variant-alternates:normal;font-feature-settings:normal;text-indent:0;text-align:start;text-decoration:none;text-decoration-line:none;text-decoration-style:solid;text-decoration-color:#000000;letter-spacing:normal;word-spacing:normal;text-transform:none;writing-mode:lr-tb;direction:ltr;text-orientation:mixed;dominant-baseline:auto;baseline-shift:baseline;text-anchor:start;white-space:normal;shape-padding:0;clip-rule:nonzero;display:inline;overflow:visible;visibility:visible;opacity:1;isolation:auto;mix-blend-mode:normal;color-interpolation:sRGB;color-interpolation-filters:linearRGB;solid-color:#000000;solid-opacity:1;vector-effect:none;fill:#000000;fill-opacity:1;fill-rule:nonzero;stroke:none;stroke-width:2;stroke-linecap:round;stroke-linejoin:round;stroke-miterlimit:4;stroke-dasharray:none;stroke-dashoffset:0;stroke-opacity:1;color-rendering:auto;image-rendering:auto;shape-rendering:auto;text-rendering:auto;enable-background:accumulate"
         inkscape:connector-curvature="0" />
      <path
         style="fill:none;stroke:#020000;stroke-width:0.5291667;stroke-linecap:round;stroke-linejoin:round;stroke-miterlimit:4;stroke-dasharray:none;stroke-opacity:1"
         d="m 3.1750001,291.44374 -2.1166668,2.38125"
         id="path852"
         inkscape:connector-curvature="0"
         sodipodi:nodetypes="cc" />
      <path
         sodipodi:nodetypes="cc"
         inkscape:connector-curvature="0"
         id="path854"
         d="m 3.175,291.44374 2.1166667,2.38125"
         style="fill:none;stroke:#020000;stroke-width:0.5291667;stroke-linecap:round;stroke-linejoin:round;stroke-miterlimit:4;stroke-dasharray:none;stroke-opacity:1" />
    </g>
    <path
       inkscape:connector-curvature="0"
       style="color:#000000;font-style:normal;font-variant:normal;font-weight:normal;font-stretch:normal;font-size:medium;line-height:normal;font-family:sans-serif;font-variant-ligatures:normal;font-variant-position:normal;font-variant-caps:normal;font-variant-numeric:normal;font-variant-alternates:normal;font-feature-settings:normal;text-indent:0;text-align:start;text-decoration:none;text-decoration-line:none;text-decoration-style:solid;text-decoration-color:#000000;letter-spacing:normal;word-spacing:normal;text-transform:none;writing-mode:lr-tb;direction:ltr;text-orientation:mixed;dominant-baseline:auto;baseline-shift:baseline;text-anchor:start;white-space:normal;shape-padding:0;clip-rule:nonzero;display:inline;overflow:visible;visibility:visible;opacity:1;isolation:auto;mix-blend-mode:normal;color-interpolation:sRGB;color-interpolation-filters:linearRGB;solid-color:#000000;solid-opacity:1;vector-effect:none;fill:#000000;fill-opacity:1;fill-rule:nonzero;stroke:none;stroke-width:0.5291667;stroke-linecap:round;stroke-linejoin:round;stroke-miterlimit:4;stroke-dasharray:none;stroke-dashoffset:0;stroke-opacity:1;color-rendering:auto;image-rendering:auto;shape-rendering:auto;text-rendering:auto;enable-background:accumulate"
       d="m 17.998389,291.44011 c -0.0098,-2.1e-4 -0.01966,1.4e-4 -0.02946,10e-4 -0.01079,0.001 -0.02149,0.003 -0.03204,0.006 -0.0731,0.0149 -0.136529,0.0599 -0.174666,0.12403 l -1.547712,1.52962 c -0.02509,0.0238 -0.04527,0.0522 -0.05943,0.0837 -0.0015,0.003 -0.0028,0.007 -0.0041,0.0103 -0.0015,0.004 -0.0028,0.008 -0.0041,0.0114 -0.01383,0.038 -0.01878,0.0786 -0.01447,0.11886 v 2.59364 c -0.0029,0.0345 9.18e-4,0.0693 0.01137,0.10231 0.0051,0.0165 0.0119,0.0324 0.02015,0.0476 3.41e-4,6.9e-4 6.85e-4,10e-4 0.001,0.002 0.0029,0.005 0.006,0.0101 0.0093,0.015 0.0018,0.003 0.0037,0.006 0.0057,0.009 6.83e-4,0.001 0.0014,0.002 0.0021,0.003 0.0039,0.005 0.0081,0.0105 0.0124,0.0155 0.0038,0.004 0.0078,0.009 0.01189,0.0129 0.002,0.002 0.0041,0.005 0.0062,0.007 0.0015,10e-4 0.0031,0.003 0.0047,0.004 0.0063,0.006 0.01283,0.0113 0.01964,0.0165 5.16e-4,5.3e-4 0.001,10e-4 0.0016,0.002 0.0069,0.005 0.01392,0.009 0.02119,0.0134 0.0075,0.005 0.01529,0.009 0.02325,0.0129 0.02387,0.0113 0.04931,0.019 0.07545,0.0227 0.01761,0.003 0.03544,0.004 0.05323,0.003 h 1.031982 c 0.0064,4e-4 0.01274,6e-5 0.01912,0 v -1.85208 h 1.058333 v 1.85208 c 0.0048,-4e-5 0.0097,2.9e-4 0.01447,0 h 1.034284 c 0.02424,0.002 0.04858,-1.3e-4 0.07235,-0.005 0.0087,-0.002 0.01734,-0.004 0.02584,-0.007 0.01684,-0.005 0.03311,-0.0122 0.04858,-0.0207 0.0078,-0.004 0.0154,-0.009 0.02274,-0.0139 0.0072,-0.005 0.01405,-0.0103 0.02067,-0.016 0.0044,-0.004 0.0087,-0.008 0.01292,-0.0119 0.0023,-0.002 0.0045,-0.004 0.0067,-0.006 0.0014,-0.002 0.0028,-0.003 0.0041,-0.005 0.0058,-0.006 0.01135,-0.0128 0.01654,-0.0196 l 5.29e-4,-5.3e-4 c 0.004,-0.005 0.0078,-0.0109 0.01137,-0.0165 0.0011,-0.002 0.0021,-0.003 0.0031,-0.005 1.73e-4,-3.4e-4 3.44e-4,-6.8e-4 5.29e-4,-10e-4 0.0045,-0.007 0.0086,-0.015 0.0124,-0.0227 0.0113,-0.0239 0.01896,-0.0493 0.02274,-0.0754 0.0026,-0.0174 0.0035,-0.0351 0.0026,-0.0527 v -2.60811 c 0.0031,-0.0345 -5.82e-4,-0.0693 -0.01085,-0.10232 -0.01352,-0.0455 -0.03904,-0.0866 -0.0739,-0.11886 l -1.542302,-1.52343 c -0.04652,-0.0823 -0.133385,-0.13348 -0.227893,-0.13435 z"
       id="path850-6"
       sodipodi:nodetypes="ccccccccccccccccccccccccccccccccccccccccccccccccccccccc" />
    <path
       style="fill:none;stroke:#000000;stroke-width:0.5291667;stroke-linecap:round;stroke-linejoin:round;stroke-miterlimit:4;stroke-dasharray:none;stroke-opacity:1"
       d="M 1.3229167,301.41523 H 5.0270834"
       id="path860"
       inkscape:connector-curvature="0"
       sodipodi:nodetypes="cc" />
    <path
       style="fill:none;stroke:#020000;stroke-width:0.5291667;stroke-linecap:round;stroke-linejoin:round;stroke-miterlimit:4;stroke-dasharray:none;stroke-opacity:1"
       d="m 3.1749994,275.3982 -1.8520827,1.8521"
       id="path896"
       inkscape:connector-curvature="0"
       sodipodi:nodetypes="cc" />
    <path
       sodipodi:nodetypes="cc"
       inkscape:connector-curvature="0"
       id="path898"
       d="m 3.1749993,275.3982 1.8520841,1.8521"
       style="fill:none;stroke:#020000;stroke-width:0.5291667;stroke-linecap:round;stroke-linejoin:round;stroke-miterlimit:4;stroke-dasharray:none;stroke-opacity:1" />
    <rect
       y="278.31131"
       x="2.6458335"
       height="2.1166873"
       width="1.0583332"
       id="rect900"
       style="opacity:1;fill:#fffff9;fill-opacity:1;stroke:none;stroke-width:1.0583334;stroke-linecap:round;stroke-linejoin:round;stroke-miterlimit:4;stroke-dasharray:none;stroke-dashoffset:0;stroke-opacity:1" />
    <path
       sodipodi:nodetypes="cc"
       inkscape:connector-curvature="0"
       id="path902"
       d="M 1.5875,279.89881 H 1.8520833"
       style="fill:none;stroke:#000000;stroke-width:1.0583334;stroke-linecap:round;stroke-linejoin:miter;stroke-miterlimit:4;stroke-dasharray:none;stroke-opacity:1" />
    <path
       sodipodi:nodetypes="cc"
       inkscape:connector-curvature="0"
       id="path904"
       d="M 1.8558517,280.16336 H 4.501685"
       style="fill:none;stroke:#000000;stroke-width:0.5291667;stroke-linecap:round;stroke-linejoin:miter;stroke-miterlimit:4;stroke-dasharray:none;stroke-opacity:1" />
    <path
       style="fill:none;stroke:#000000;stroke-width:1.0583334;stroke-linecap:round;stroke-linejoin:miter;stroke-miterlimit:4;stroke-dasharray:none;stroke-opacity:1"
       d="M 4.5054534,279.89875 H 4.7700367"
       id="path906"
       inkscape:connector-curvature="0"
       sodipodi:nodetypes="cc" />
    <path
       sodipodi:nodetypes="cc"
       inkscape:connector-curvature="0"
       id="path908"
       d="m 1.3229167,279.89881 v -2.64584"
       style="fill:none;stroke:#000000;stroke-width:0.5291667;stroke-linecap:round;stroke-linejoin:miter;stroke-miterlimit:4;stroke-dasharray:none;stroke-opacity:1" />
    <path
       sodipodi:nodetypes="cc"
       style="fill:none;stroke:#000000;stroke-width:0.5291667;stroke-linecap:round;stroke-linejoin:miter;stroke-miterlimit:4;stroke-dasharray:none;stroke-opacity:1"
       d="m 5.0270834,279.89881 v -2.64584"
       id="path910"
       inkscape:connector-curvature="0" />
    <rect
       rx="0.26458335"
       ry="0.26458335"
       y="279.10507"
       x="1.5875001"
       height="0.79373562"
       width="1.322917"
       id="rect912"
       style="opacity:1;fill:#ffffff;fill-opacity:1;stroke:none;stroke-width:0.26458335;stroke-linecap:round;stroke-linejoin:round;stroke-miterlimit:4;stroke-dasharray:none;stroke-dashoffset:0;stroke-opacity:1" />
    <path
       sodipodi:nodetypes="cc"
       style="fill:none;stroke:#000000;stroke-width:0.5291667;stroke-linecap:round;stroke-linejoin:miter;stroke-miterlimit:4;stroke-dasharray:none;stroke-opacity:1"
       d="m 2.9104167,279.8988 v -1.58749"
       id="path914"
       inkscape:connector-curvature="0" />
    <path
       inkscape:connector-curvature="0"
       id="path916"
       d="M 2.9104167,278.31131 H 3.4395834"
       style="fill:none;stroke:#000000;stroke-width:0.5291667;stroke-linecap:round;stroke-linejoin:miter;stroke-miterlimit:4;stroke-dasharray:none;stroke-opacity:1"
       sodipodi:nodetypes="cc" />
    <path
       sodipodi:nodetypes="cc"
       style="fill:none;stroke:#000000;stroke-width:0.5291667;stroke-linecap:round;stroke-linejoin:miter;stroke-miterlimit:4;stroke-dasharray:none;stroke-opacity:1"
       d="m 3.4395834,278.31132 v 1.58749"
       id="path918"
       inkscape:connector-curvature="0" />
    <rect
       style="opacity:1;fill:#ffffff;fill-opacity:1;stroke:none;stroke-width:0.26458335;stroke-linecap:round;stroke-linejoin:round;stroke-miterlimit:4;stroke-dasharray:none;stroke-dashoffset:0;stroke-opacity:1"
       id="rect920"
       width="0.79375005"
       height="0.79373562"
       x="3.96875"
       y="279.10507"
       ry="0" />
    <rect
       ry="0.26458335"
       rx="0.26458335"
       y="278.31131"
       x="2.9104168"
       height="1.8520833"
       width="0.5291667"
       id="rect922"
       style="opacity:1;fill:#000000;fill-opacity:1;stroke:none;stroke-width:0.5291667;stroke-linecap:round;stroke-linejoin:round;stroke-miterlimit:4;stroke-dasharray:none;stroke-dashoffset:0;stroke-opacity:1" />
    <path
       inkscape:connector-curvature="0"
       id="path924"
       d="m 3.1749471,275.75024 c 0,0.79375 0,0.79375 0,0.79375"
       style="fill:none;stroke:#b70000;stroke-width:1.0583334;stroke-linecap:round;stroke-linejoin:miter;stroke-miterlimit:4;stroke-dasharray:none;stroke-opacity:1" />
    <path
       inkscape:connector-curvature="0"
       style="color:#000000;font-style:normal;font-variant:normal;font-weight:normal;font-stretch:normal;font-size:medium;line-height:normal;font-family:sans-serif;font-variant-ligatures:normal;font-variant-position:normal;font-variant-caps:normal;font-variant-numeric:normal;font-variant-alternates:normal;font-feature-settings:normal;text-indent:0;text-align:start;text-decoration:none;text-decoration-line:none;text-decoration-style:solid;text-decoration-color:#000000;letter-spacing:normal;word-spacing:normal;text-transform:none;writing-mode:lr-tb;direction:ltr;text-orientation:mixed;dominant-baseline:auto;baseline-shift:baseline;text-anchor:start;white-space:normal;shape-padding:0;clip-rule:nonzero;display:inline;overflow:visible;visibility:visible;opacity:1;isolation:auto;mix-blend-mode:normal;color-interpolation:sRGB;color-interpolation-filters:linearRGB;solid-color:#000000;solid-opacity:1;vector-effect:none;fill:#212121;fill-opacity:0.94117647;fill-rule:nonzero;stroke:none;stroke-width:0.5291667;stroke-linecap:round;stroke-linejoin:round;stroke-miterlimit:4;stroke-dasharray:none;stroke-dashoffset:0;stroke-opacity:1;color-rendering:auto;image-rendering:auto;shape-rendering:auto;text-rendering:auto;enable-background:accumulate"
       d="m 3.1757999,291.17915 a 0.26460982,0.26460982 0 0 0 -0.0062,5.2e-4 0.26460982,0.26460982 0 0 0 -0.2077392,0.11213 l -1.8190104,1.81902 a 0.26460982,0.26460982 0 0 0 -0.083715,0.21445 v 0.23978 0.25993 2.11719 a 0.53084233,0.52916725 0 0 0 0.5307169,0.52865 h 0.2588989 a 0.26458048,0.26464501 0 0 0 0.00413,0 h 2.6458318 a 0.52955704,0.52916667 0 0 0 5.291e-4,0 h 0.2635499 a 0.52955712,0.52916675 0 0 0 0.5291667,-0.5178 0.26454156,0.26424724 0 0 0 5.027e-4,-0.0108 v -0.0155 -2.10168 -0.26044 -0.0207 -0.1912 a 0.26516505,0.26516505 0 0 0 -0.071829,-0.24184 l -1.817977,-1.81591 a 0.26460982,0.26460982 0 0 0 -0.2268555,-0.11576 z m 0.00206,0.90434 1.5854363,1.58181 v 1.74718 0.26459 c 0,0.14658 -0.1180042,0.26458 -0.2645833,0.26458 H 3.9690333 3.7049667 v -1.58491 a 0.26137457,0.26428001 0 0 0 -0.00103,-0.0264 0.26452751,0.26417327 0 0 0 -5.292e-4,-0.004 0.26137457,0.26428001 0 0 0 -0.0031,-0.0227 0.26452751,0.26417327 0 0 0 -0.00103,-0.005 0.26137457,0.26428001 0 0 0 -0.00517,-0.0207 0.26452751,0.26417327 0 0 0 -0.00156,-0.004 0.26137457,0.26428001 0 0 0 -0.00723,-0.0207 0.26452751,0.26417327 0 0 0 -0.00156,-0.004 0.26137457,0.26428001 0 0 0 -0.00982,-0.0207 0.26452751,0.26417327 0 0 0 -0.00103,-0.002 0.26137457,0.26428001 0 0 0 -0.012401,-0.0207 0.26452751,0.26417327 0 0 0 -0.00206,-0.003 0.26137457,0.26428001 0 0 0 -0.1632977,-0.10852 0.26452751,0.26417327 0 0 0 -0.01447,-0.003 0.26137457,0.26428001 0 0 0 -0.018603,-0.002 0.26452751,0.26417327 0 0 0 -0.026355,-10e-4 0.26452751,0.26417327 0 0 0 -0.00672,5.3e-4 H 2.9210351 a 0.26452759,0.26416421 0 0 0 -0.014469,-5.3e-4 0.26452759,0.26416421 0 0 0 -0.00672,5.3e-4 0.26133469,0.26423969 0 0 0 -0.00414,0 0.26167513,0.26458392 0 0 0 -0.039274,0.005 0.26452759,0.26416421 0 0 0 -0.00362,0.001 0.26167513,0.26458392 0 0 0 -0.1658813,0.1173 0.26452759,0.26416421 0 0 0 -0.00156,0.003 0.26167513,0.26458392 0 0 0 -0.018603,0.0372 0.26452759,0.26416421 0 0 0 -0.00568,0.0145 0.26167513,0.26458392 0 0 0 -0.00259,0.008 0.26452759,0.26416421 0 0 0 -0.0093,0.0429 0.26167513,0.26458392 0 0 0 -0.00156,0.015 0.26452759,0.26416421 0 0 0 -5.291e-4,0.009 0.26167513,0.26458392 0 0 0 -5.292e-4,0.009 0.26452759,0.26416421 0 0 0 0,0.005 v 1.58489 H 2.3799829 1.8528832 c -0.146579,0 -0.2645833,-0.118 -0.2645833,-0.26458 v -0.26458 -1.74305 z"
       id="path852-7" />
  </g>
</svg>
