<?xml version="1.0" encoding="UTF-8" standalone="no"?>
<!-- Created with Inkscape (http://www.inkscape.org/) -->

<svg
   xmlns:dc="http://purl.org/dc/elements/1.1/"
   xmlns:cc="http://creativecommons.org/ns#"
   xmlns:rdf="http://www.w3.org/1999/02/22-rdf-syntax-ns#"
   xmlns:svg="http://www.w3.org/2000/svg"
   xmlns="http://www.w3.org/2000/svg"
   xmlns:sodipodi="http://sodipodi.sourceforge.net/DTD/sodipodi-0.dtd"
   xmlns:inkscape="http://www.inkscape.org/namespaces/inkscape"
   width="24"
   height="24"
   viewBox="0 0 6.3499999 6.3500002"
   version="1.1"
   id="svg8"
   inkscape:version="0.92.2 2405546, 2018-03-11"
   sodipodi:docname="home_blue.svg">
  <defs
     id="defs2" />
  <sodipodi:namedview
     id="base"
     pagecolor="#ffffff"
     bordercolor="#666666"
     borderopacity="1.0"
     inkscape:pageopacity="0.0"
     inkscape:pageshadow="2"
     inkscape:zoom="22.4"
     inkscape:cx="1.3809625"
     inkscape:cy="12.237463"
     inkscape:document-units="px"
     inkscape:current-layer="layer1"
     showgrid="true"
     units="px"
     showguides="true"
     inkscape:guide-bbox="true"
     inkscape:window-width="1600"
     inkscape:window-height="836"
     inkscape:window-x="0"
     inkscape:window-y="27"
     inkscape:window-maximized="1">
    <inkscape:grid
       type="xygrid"
       id="grid815"
       empcolor="#3f3fff"
       empopacity="0.16862745"
       color="#3f3fff"
       opacity="0.05490196" />
    <sodipodi:guide
       position="1.0583333,7.6729167"
       orientation="1,0"
       id="guide817"
       inkscape:locked="false"
       inkscape:label=""
       inkscape:color="rgb(0,0,255)" />
    <sodipodi:guide
       position="5.55625,5.2916667"
       orientation="0,1"
       id="guide819"
       inkscape:locked="false"
       inkscape:label=""
       inkscape:color="rgb(0,0,255)" />
    <sodipodi:guide
       position="5.2916667,2.38125"
       orientation="1,0"
       id="guide821"
       inkscape:locked="false"
       inkscape:label=""
       inkscape:color="rgb(0,0,255)" />
    <sodipodi:guide
       position="6.0854165,1.0583333"
       orientation="0,1"
       id="guide823"
       inkscape:locked="false"
       inkscape:label=""
       inkscape:color="rgb(0,0,255)" />
  </sodipodi:namedview>
  <metadata
     id="metadata5">
    <rdf:RDF>
      <cc:Work
         rdf:about="">
        <dc:format>image/svg+xml</dc:format>
        <dc:type
           rdf:resource="http://purl.org/dc/dcmitype/StillImage" />
        <dc:title />
      </cc:Work>
    </rdf:RDF>
  </metadata>
  <g
     inkscape:label="Layer 1"
     inkscape:groupmode="layer"
     id="layer1"
     transform="translate(0,-290.64999)">
    <g
       id="g829"
       transform="translate(-18.25625,0.79375667)"
       style="stroke:#007aff;stroke-opacity:1">
      <path
         sodipodi:nodetypes="cc"
         inkscape:connector-curvature="0"
         id="path844"
         d="m 2.38125,295.41249 v -2.91042"
         style="fill:none;stroke:#007aff;stroke-width:0.5291667;stroke-linecap:round;stroke-linejoin:round;stroke-miterlimit:4;stroke-dasharray:none;stroke-opacity:1" />
      <path
         sodipodi:nodetypes="cc"
         inkscape:connector-curvature="0"
         id="path846"
         d="M 4.2333333,290.3854 2.38125,292.50207"
         style="fill:none;stroke:#007aff;stroke-width:0.5291667;stroke-linecap:round;stroke-linejoin:round;stroke-miterlimit:4;stroke-dasharray:none;stroke-opacity:1" />
      <path
         style="fill:none;stroke:#007aff;stroke-width:0.5291667;stroke-linecap:round;stroke-linejoin:round;stroke-miterlimit:4;stroke-dasharray:none;stroke-opacity:1"
         d="m 4.2333333,290.3854 1.8520834,2.11667"
         id="path850"
         inkscape:connector-curvature="0"
         sodipodi:nodetypes="cc" />
      <path
         style="fill:none;stroke:#007aff;stroke-width:0.5291667;stroke-linecap:round;stroke-linejoin:round;stroke-miterlimit:4;stroke-dasharray:none;stroke-opacity:1"
         d="m 6.0854167,295.41249 v -2.91042"
         id="path852"
         inkscape:connector-curvature="0"
         sodipodi:nodetypes="cc" />
      <path
         sodipodi:nodetypes="cccc"
         inkscape:connector-curvature="0"
         id="path854"
         d="M 4.7625,295.41249 V 293.5604 H 3.7041667 v 1.85209"
         style="fill:none;stroke:#007aff;stroke-width:0.5291667;stroke-linecap:round;stroke-linejoin:round;stroke-miterlimit:4;stroke-dasharray:none;stroke-opacity:1" />
      <path
         inkscape:connector-curvature="0"
         id="path856"
         d="M 2.38125,295.41249 H 6.0854166"
         style="fill:none;stroke:#007aff;stroke-width:0.5291667;stroke-linecap:round;stroke-linejoin:round;stroke-miterlimit:4;stroke-dasharray:none;stroke-opacity:1" />
    </g>
    <g
       transform="translate(-5.9333335e-7,-1.753125e-5)"
       id="g896">
      <path
         inkscape:connector-curvature="0"
         style="color:#000000;font-style:normal;font-variant:normal;font-weight:normal;font-stretch:normal;font-size:medium;line-height:normal;font-family:sans-serif;font-variant-ligatures:normal;font-variant-position:normal;font-variant-caps:normal;font-variant-numeric:normal;font-variant-alternates:normal;font-feature-settings:normal;text-indent:0;text-align:start;text-decoration:none;text-decoration-line:none;text-decoration-style:solid;text-decoration-color:#000000;letter-spacing:normal;word-spacing:normal;text-transform:none;writing-mode:lr-tb;direction:ltr;text-orientation:mixed;dominant-baseline:auto;baseline-shift:baseline;text-anchor:start;white-space:normal;shape-padding:0;clip-rule:nonzero;display:inline;overflow:visible;visibility:visible;opacity:1;isolation:auto;mix-blend-mode:normal;color-interpolation:sRGB;color-interpolation-filters:linearRGB;solid-color:#000000;solid-opacity:1;vector-effect:none;fill:#007aff;fill-opacity:1;fill-rule:nonzero;stroke:none;stroke-width:2;stroke-linecap:round;stroke-linejoin:round;stroke-miterlimit:4;stroke-dasharray:none;stroke-dashoffset:0;stroke-opacity:1;color-rendering:auto;image-rendering:auto;shape-rendering:auto;text-rendering:auto;enable-background:accumulate"
         d="m 11.951172,1.9863281 a 1.0001001,1.0001001 0 0 0 -0.0332,0.00391 1.0001001,1.0001001 0 0 0 -0.78125,0.4707031 L 3.2558594,11.332031 a 1.0001001,1.0001001 0 1 0 1.4902344,1.330078 L 5.0019531,12.375 v 8.537109 c -0.01113,0.130476 0.00347,0.261868 0.042969,0.386719 0.019473,0.06224 0.044984,0.122418 0.076172,0.179688 0.00129,0.0026 0.00259,0.0052 0.00391,0.0078 0.011086,0.01927 0.022811,0.03816 0.035156,0.05664 0.00694,0.01121 0.014105,0.02228 0.021484,0.0332 0.00258,0.0039 0.00518,0.0078 0.00781,0.01172 0.014887,0.02011 0.030523,0.03965 0.046875,0.05859 0.01443,0.01677 0.029412,0.03305 0.044922,0.04883 0.00767,0.0086 0.015479,0.01706 0.023437,0.02539 0.0058,0.0053 0.011658,0.01048 0.017578,0.01563 0.023714,0.02202 0.048483,0.04288 0.074219,0.0625 0.00195,0.002 0.0039,0.0039 0.00586,0.0059 0.025875,0.01818 0.052598,0.03513 0.080078,0.05078 0.02846,0.01774 0.057794,0.03404 0.087891,0.04883 0.090231,0.04272 0.1863481,0.07168 0.2851563,0.08594 0.066558,0.01002 0.1339567,0.01326 0.2011718,0.0098 H 9.927736 c 0.024065,0.0015 0.048166,2.35e-4 0.072266,0 v -7 h 4 v 7 c 0.01824,-1.42e-4 0.03647,0.0011 0.05469,0 h 3.871093 c 0.09161,0.0061 0.18362,-5.03e-4 0.273438,-0.01953 0.03296,-0.0068 0.06555,-0.01529 0.09766,-0.02539 0.06365,-0.01986 0.125153,-0.04603 0.183594,-0.07813 0.02951,-0.01612 0.0582,-0.03372 0.08594,-0.05273 0.02702,-0.01888 0.05309,-0.03909 0.07813,-0.06055 0.01677,-0.01443 0.03305,-0.02941 0.04883,-0.04492 0.0086,-0.0077 0.01706,-0.01548 0.02539,-0.02344 0.0053,-0.0058 0.01048,-0.01166 0.01563,-0.01758 0.02202,-0.02371 0.04288,-0.04848 0.0625,-0.07422 l 0.002,-0.002 c 0.01511,-0.02028 0.02944,-0.04113 0.04297,-0.0625 0.004,-0.0065 0.0079,-0.01298 0.01172,-0.01953 6.54e-4,-0.0013 0.0013,-0.0026 0.002,-0.0039 0.01702,-0.02786 0.03267,-0.05654 0.04687,-0.08594 0.04272,-0.09023 0.07168,-0.186349 0.08594,-0.285157 0.0099,-0.06592 0.01313,-0.132651 0.0098,-0.199219 v -8.568359 l 0.253906,0.285156 A 1.0016552,1.0016552 0 1 0 20.75,11.332031 L 12.863281,2.4628906 a 1.0001001,1.0001001 0 0 0 -0.808593,-0.4746094 1.0001001,1.0001001 0 0 0 -0.0039,0 1.0001001,1.0001001 0 0 0 -0.0039,0 1.0001001,1.0001001 0 0 0 -0.0293,-0.00195 1.0001001,1.0001001 0 0 0 -0.02148,0 1.0001001,1.0001001 0 0 0 -0.04492,0 z"
         transform="matrix(0.26458334,0,0,0.26458334,0,290.64999)"
         id="path860" />
    </g>
  </g>
</svg>
