<?xml version="1.0" encoding="UTF-8" standalone="no"?>
<!-- Created with Inkscape (http://www.inkscape.org/) -->

<svg
   xmlns:dc="http://purl.org/dc/elements/1.1/"
   xmlns:cc="http://creativecommons.org/ns#"
   xmlns:rdf="http://www.w3.org/1999/02/22-rdf-syntax-ns#"
   xmlns:svg="http://www.w3.org/2000/svg"
   xmlns="http://www.w3.org/2000/svg"
   xmlns:sodipodi="http://sodipodi.sourceforge.net/DTD/sodipodi-0.dtd"
   xmlns:inkscape="http://www.inkscape.org/namespaces/inkscape"
   width="24"
   height="24"
   viewBox="0 0 6.3499999 6.3500002"
   version="1.1"
   id="svg8"
   inkscape:version="0.92.2 2405546, 2018-03-11"
   sodipodi:docname="kit.svg">
  <defs
     id="defs2" />
  <sodipodi:namedview
     id="base"
     pagecolor="#ffffff"
     bordercolor="#666666"
     borderopacity="1.0"
     inkscape:pageopacity="0.0"
     inkscape:pageshadow="2"
     inkscape:zoom="32"
     inkscape:cx="27.007262"
     inkscape:cy="10.017589"
     inkscape:document-units="px"
     inkscape:current-layer="layer1"
     showgrid="true"
     units="px"
     showguides="true"
     inkscape:guide-bbox="true"
     inkscape:window-width="1600"
     inkscape:window-height="836"
     inkscape:window-x="0"
     inkscape:window-y="27"
     inkscape:window-maximized="1"
     inkscape:snap-smooth-nodes="true"
     inkscape:snap-intersection-paths="true"
     inkscape:object-paths="true"
     inkscape:snap-grids="true"
     inkscape:snap-to-guides="false"
     inkscape:snap-global="true"
     inkscape:measure-start="0,0"
     inkscape:measure-end="0,0">
    <inkscape:grid
       type="xygrid"
       id="grid815"
       empcolor="#3f3fff"
       empopacity="0.16862745"
       color="#3f3fff"
       opacity="0.05490196" />
    <sodipodi:guide
       position="1.0583333,7.6729167"
       orientation="1,0"
       id="guide817"
       inkscape:locked="false"
       inkscape:label=""
       inkscape:color="rgb(0,0,255)" />
    <sodipodi:guide
       position="5.55625,5.2916667"
       orientation="0,1"
       id="guide819"
       inkscape:locked="false"
       inkscape:label=""
       inkscape:color="rgb(0,0,255)" />
    <sodipodi:guide
       position="5.2916667,1.8520833"
       orientation="1,0"
       id="guide821"
       inkscape:locked="false"
       inkscape:label=""
       inkscape:color="rgb(0,0,255)" />
  </sodipodi:namedview>
  <metadata
     id="metadata5">
    <rdf:RDF>
      <cc:Work
         rdf:about="">
        <dc:format>image/svg+xml</dc:format>
        <dc:type
           rdf:resource="http://purl.org/dc/dcmitype/StillImage" />
        <dc:title />
      </cc:Work>
    </rdf:RDF>
  </metadata>
  <g
     inkscape:label="Layer 1"
     inkscape:groupmode="layer"
     id="layer1"
     transform="translate(0,-290.64999)">
    <path
       style="color:#000000;font-style:normal;font-variant:normal;font-weight:normal;font-stretch:normal;font-size:medium;line-height:normal;font-family:sans-serif;font-variant-ligatures:normal;font-variant-position:normal;font-variant-caps:normal;font-variant-numeric:normal;font-variant-alternates:normal;font-feature-settings:normal;text-indent:0;text-align:start;text-decoration:none;text-decoration-line:none;text-decoration-style:solid;text-decoration-color:#000000;letter-spacing:normal;word-spacing:normal;text-transform:none;writing-mode:lr-tb;direction:ltr;text-orientation:mixed;dominant-baseline:auto;baseline-shift:baseline;text-anchor:start;white-space:normal;shape-padding:0;clip-rule:nonzero;display:inline;overflow:visible;visibility:visible;opacity:1;isolation:auto;mix-blend-mode:normal;color-interpolation:sRGB;color-interpolation-filters:linearRGB;solid-color:#000000;solid-opacity:1;vector-effect:none;fill:#212121;fill-opacity:1;fill-rule:nonzero;stroke:none;stroke-width:0.5291667;stroke-linecap:round;stroke-linejoin:round;stroke-miterlimit:4;stroke-dasharray:none;stroke-dashoffset:0;stroke-opacity:1;color-rendering:auto;image-rendering:auto;shape-rendering:auto;text-rendering:auto;enable-background:accumulate"
       d="m 2.3807333,268.24304 c -0.4409722,0 -0.9140643,0.21117 -1.2867432,0.41445 -0.3726789,0.20328 -0.6449219,0.40617 -0.6449219,0.40617 a 0.13320302,0.13320302 0 0 0 -0.0449585,0.0615 l -0.0775147,0.13539 a 0.26460982,0.26460982 0 0 0 -0.0630452,0.17415 v 3.34812 a 0.26500292,0.26500292 0 0 0 0.26199951,0.35708 H 2.9724285 a 0.26465002,0.26465002 0 0 0 0.1937866,-0.0847 0.26495434,0.26495434 0 0 0 0.2067058,0.0847 h 2.4473958 a 0.26465002,0.26465002 0 0 0 0.1565797,-0.0517 0.26464845,0.26464845 0 0 0 0.00413,-0.004 0.26465002,0.26465002 0 0 0 0.016536,-0.0134 0.26464845,0.26464845 0 0 0 0.012402,-0.0119 0.26465002,0.26465002 0 0 0 0.00103,-0.002 0.26464845,0.26464845 0 0 0 0.016536,-0.0181 0.26465002,0.26465002 0 0 0 0.00155,-0.003 0.26464845,0.26464845 0 0 0 0.056844,-0.16278 v -3.43958 a 0.26460982,0.26460982 0 0 0 -0.064596,-0.1757 l -0.073897,-0.12971 a 0.13261823,0.13261823 0 0 0 -0.047026,-0.0656 c 0,0 -0.271726,-0.20289 -0.6444051,-0.40617 -0.3726789,-0.20328 -0.8462876,-0.41445 -1.2872599,-0.41445 -0.2278356,0 -0.4132948,0.0808 -0.5467366,0.19947 -0.1160243,0.10313 -0.1926341,0.2311 -0.2470134,0.35864 -0.054383,-0.1276 -0.1309325,-0.25546 -0.2470134,-0.35864 -0.1334421,-0.11862 -0.3194178,-0.19947 -0.5472534,-0.19947 z m 0,0.26562 c 0.1690394,0 0.2812368,0.0509 0.3710369,0.13074 0.067623,0.0601 0.1173337,0.14212 0.1586465,0.22841 v 0.28215 a 0.26460982,0.26460982 0 0 0 -5.167e-4,0.0212 v 2.69751 c -0.132049,-0.11051 -0.3107163,-0.18397 -0.5291667,-0.18397 -0.4409722,0 -0.9140643,0.20858 -1.2867432,0.41186 -0.1127523,0.0615 -0.2117156,0.1209 -0.3012736,0.17674 v -2.83859 a 0.26460982,0.26460982 0 0 0 0,-10e-4 l 0.001034,10e-4 v -0.2868 c 0.10775527,-0.0717 0.254857,-0.16457 0.4268473,-0.25839 0.3549254,-0.19359 0.8073583,-0.38085 1.160136,-0.38085 z m 1.5880168,0 c 0.3527777,0 0.8052107,0.18726 1.160136,0.38085 0.1737096,0.0948 0.3230198,0.18903 0.4314982,0.26097 l -0.00207,0.25218 a 0.26460982,0.26460982 0 0 0 -0.00155,0.032 v 2.83859 c -0.089558,-0.0558 -0.1880045,-0.11524 -0.3007569,-0.17674 -0.3726789,-0.20328 -0.8462876,-0.41186 -1.2872599,-0.41186 -0.2187236,0 -0.3970719,0.0737 -0.5291667,0.18449 v -2.69803 a 0.26460982,0.26460982 0 0 0 0,-10e-4 v -0.30334 c 0.041244,-0.0859 0.09078,-0.16752 0.1581298,-0.22738 0.0898,-0.0798 0.2019975,-0.13074 0.3710369,-0.13074 z m -1.5880168,3.43958 c 0.1690394,0 0.2812368,0.053 0.3710369,0.13281 0.067405,0.0599 0.116872,0.14041 0.1581298,0.22583 v 0.0114 c -0.1337498,-0.0635 -0.3062725,-0.10646 -0.5291667,-0.10646 -0.5690567,0 -1.2044968,0.23697 -1.58078211,0.39843 h -0.007235 v -0.0217 c 0.10783602,-0.0718 0.25533991,-0.1653 0.42788081,-0.25941 0.3549254,-0.19359 0.8073583,-0.38086 1.160136,-0.38086 z m 1.5880168,0 c 0.3527777,0 0.8052107,0.18727 1.160136,0.38086 0.1720006,0.0938 0.3196511,0.18671 0.4278808,0.25838 v 0.0227 h -0.00568 c -0.3768411,-0.16146 -1.0132077,-0.39843 -1.5823325,-0.39843 -0.2228943,0 -0.3954169,0.043 -0.5291667,0.10646 v -0.0114 c 0.041258,-0.0854 0.090725,-0.16592 0.1581298,-0.22583 0.0898,-0.0798 0.2019975,-0.13281 0.3710369,-0.13281 z m -1.5880168,0.52917 c 0.2706063,0 0.4213622,0.0613 0.5121135,0.13281 H 1.6009359 c 0.2625228,-0.0749 0.5380312,-0.13281 0.7797974,-0.13281 z m 1.5880168,0 c 0.2417662,0 0.5172747,0.0579 0.7797975,0.13281 H 3.4581868 c 0.090195,-0.0715 0.2399737,-0.13281 0.5105633,-0.13281 z"
       id="path824"
       inkscape:connector-curvature="0" />
    <path
       sodipodi:nodetypes="cc"
       inkscape:connector-curvature="0"
       id="path856"
       d="m 20.6375,295.94166 v -3.43959"
       style="fill:none;stroke:#000000;stroke-width:0.5291667;stroke-linecap:round;stroke-linejoin:round;stroke-miterlimit:4;stroke-dasharray:none;stroke-opacity:1" />
    <path
       sodipodi:nodetypes="czc"
       inkscape:connector-curvature="0"
       id="path858"
       d="m 20.6375,292.50207 c 0,0 0.529167,-0.76378 1.322917,-0.76378 0.79375,0 1.322917,0.76378 1.322917,0.76378"
       style="fill:none;stroke:#000000;stroke-width:0.5291667;stroke-linecap:round;stroke-linejoin:round;stroke-miterlimit:4;stroke-dasharray:none;stroke-opacity:1" />
    <path
       style="fill:none;stroke:#000000;stroke-width:0.5291667;stroke-linecap:round;stroke-linejoin:round;stroke-miterlimit:4;stroke-dasharray:none;stroke-opacity:1"
       d="m 23.283334,295.94166 v -3.43959"
       id="path860"
       inkscape:connector-curvature="0"
       sodipodi:nodetypes="cc" />
    <path
       style="fill:none;stroke:#000000;stroke-width:0.5291667;stroke-linecap:round;stroke-linejoin:round;stroke-miterlimit:4;stroke-dasharray:none;stroke-opacity:1"
       d="m 20.6375,295.94166 c 0,0 0.529167,-0.76378 1.322917,-0.76378 0.79375,0 1.322917,0.76378 1.322917,0.76378"
       id="path862"
       inkscape:connector-curvature="0"
       sodipodi:nodetypes="czc" />
    <path
       style="fill:none;stroke:#000000;stroke-width:0.5291667;stroke-linecap:round;stroke-linejoin:round;stroke-miterlimit:4;stroke-dasharray:none;stroke-opacity:1"
       d="m 20.6375,292.50207 c 0,0 -0.529167,-0.76378 -1.322916,-0.76378 -0.79375,0 -1.322917,0.76378 -1.322917,0.76378"
       id="path864"
       inkscape:connector-curvature="0"
       sodipodi:nodetypes="czc" />
    <path
       sodipodi:nodetypes="cc"
       inkscape:connector-curvature="0"
       id="path866"
       d="m 17.991667,295.94166 v -3.43959"
       style="fill:none;stroke:#000000;stroke-width:0.5291667;stroke-linecap:round;stroke-linejoin:round;stroke-miterlimit:4;stroke-dasharray:none;stroke-opacity:1" />
    <path
       sodipodi:nodetypes="czc"
       inkscape:connector-curvature="0"
       id="path868"
       d="m 19.84375,292.95512 c 0,0 -0.211667,-0.18846 -0.529167,-0.18846 -0.3175,0 -0.529166,0.18846 -0.529166,0.18846"
       style="fill:none;stroke:#000000;stroke-width:0.26458335;stroke-linecap:round;stroke-linejoin:round;stroke-miterlimit:4;stroke-dasharray:none;stroke-opacity:1" />
    <path
       style="fill:none;stroke:#000000;stroke-width:0.26458335;stroke-linecap:round;stroke-linejoin:round;stroke-miterlimit:4;stroke-dasharray:none;stroke-opacity:1"
       d="m 19.84375,293.82499 c 0,0 -0.211667,-0.18846 -0.529167,-0.18846 -0.3175,0 -0.529166,0.18846 -0.529166,0.18846"
       id="path870"
       inkscape:connector-curvature="0"
       sodipodi:nodetypes="czc" />
    <path
       sodipodi:nodetypes="czc"
       inkscape:connector-curvature="0"
       id="path872"
       d="m 19.84375,294.61874 c 0,0 -0.211667,-0.18846 -0.529167,-0.18846 -0.3175,0 -0.529166,0.18846 -0.529166,0.18846"
       style="fill:none;stroke:#000000;stroke-width:0.26458335;stroke-linecap:round;stroke-linejoin:round;stroke-miterlimit:4;stroke-dasharray:none;stroke-opacity:1" />
    <path
       sodipodi:nodetypes="czc"
       inkscape:connector-curvature="0"
       id="path874"
       d="m 20.6375,295.94166 c 0,0 -0.529166,-0.26459 -1.322916,-0.26459 -0.79375,0 -1.322917,0.26459 -1.322917,0.26459"
       style="fill:none;stroke:#000000;stroke-width:0.5291667;stroke-linecap:round;stroke-linejoin:round;stroke-miterlimit:4;stroke-dasharray:none;stroke-opacity:1" />
    <path
       sodipodi:nodetypes="czc"
       inkscape:connector-curvature="0"
       id="path876"
       d="m 20.6375,295.94166 c 0,0 -0.529167,-0.76378 -1.322916,-0.76378 -0.79375,0 -1.058334,0.23461 -1.058334,0.23461"
       style="fill:none;stroke:#000000;stroke-width:0.26458335;stroke-linecap:round;stroke-linejoin:round;stroke-miterlimit:4;stroke-dasharray:none;stroke-opacity:1" />
    <path
       sodipodi:nodetypes="cc"
       inkscape:connector-curvature="0"
       id="path890"
       d="m -23.8125,296.20624 v -3.70417"
       style="fill:none;stroke:#000000;stroke-width:0.5291667;stroke-linecap:round;stroke-linejoin:round;stroke-miterlimit:4;stroke-dasharray:none;stroke-opacity:1" />
    <path
       sodipodi:nodetypes="czc"
       inkscape:connector-curvature="0"
       id="path892"
       d="m -23.8125,292.50207 c 0,0 0.529167,-0.76378 1.322917,-0.76378 0.793749,0 1.322916,0.76378 1.322916,0.76378"
       style="fill:none;stroke:#000000;stroke-width:0.5291667;stroke-linecap:round;stroke-linejoin:round;stroke-miterlimit:4;stroke-dasharray:none;stroke-opacity:1" />
    <path
       style="fill:none;stroke:#000000;stroke-width:0.5291667;stroke-linecap:round;stroke-linejoin:round;stroke-miterlimit:4;stroke-dasharray:none;stroke-opacity:1"
       d="m -21.166667,295.94166 v -3.43959"
       id="path894"
       inkscape:connector-curvature="0"
       sodipodi:nodetypes="cc" />
    <path
       style="fill:none;stroke:#000000;stroke-width:0.5291667;stroke-linecap:round;stroke-linejoin:round;stroke-miterlimit:4;stroke-dasharray:none;stroke-opacity:1"
       d="m -23.8125,292.50207 c 0,0 -0.529167,-0.76378 -1.322917,-0.76378 -0.79375,0 -1.322917,0.76378 -1.322917,0.76378"
       id="path896"
       inkscape:connector-curvature="0"
       sodipodi:nodetypes="czc" />
    <path
       sodipodi:nodetypes="cc"
       inkscape:connector-curvature="0"
       id="path898"
       d="m -26.458334,296.20624 v -3.70417"
       style="fill:none;stroke:#000000;stroke-width:0.5291667;stroke-linecap:round;stroke-linejoin:round;stroke-miterlimit:4;stroke-dasharray:none;stroke-opacity:1" />
    <path
       sodipodi:nodetypes="cc"
       inkscape:connector-curvature="0"
       id="path900"
       d="m -23.8125,296.20624 h -2.645834"
       style="fill:none;stroke:#000000;stroke-width:0.5291667;stroke-linecap:round;stroke-linejoin:round;stroke-miterlimit:4;stroke-dasharray:none;stroke-opacity:1" />
    <path
       sodipodi:nodetypes="czc"
       inkscape:connector-curvature="0"
       id="path902"
       d="m -23.8125,296.20624 c 0,0 0,-0.52917 -0.79375,-0.52917 -0.79375,0 -1.852084,0.26458 -1.852084,0.26458"
       style="fill:none;stroke:#000000;stroke-width:0.26458335;stroke-linecap:round;stroke-linejoin:round;stroke-miterlimit:4;stroke-dasharray:none;stroke-opacity:1" />
    <path
       style="fill:none;stroke:#000000;stroke-width:0.26458335;stroke-linecap:round;stroke-linejoin:round;stroke-miterlimit:4;stroke-dasharray:none;stroke-opacity:1"
       d="m -23.8125,296.20624 c 0,0 0,-1.05833 -0.79375,-1.05833 -0.79375,0 -1.852084,0.79375 -1.852084,0.79375"
       id="path904"
       inkscape:connector-curvature="0"
       sodipodi:nodetypes="czc" />
    <path
       style="fill:none;stroke:#000000;stroke-width:0.5291667;stroke-linecap:round;stroke-linejoin:round;stroke-miterlimit:4;stroke-dasharray:none;stroke-opacity:1"
       d="m -23.8125,296.20624 h 2.645833"
       id="path906"
       inkscape:connector-curvature="0"
       sodipodi:nodetypes="cc" />
    <path
       style="fill:none;stroke:#000000;stroke-width:0.26458335;stroke-linecap:round;stroke-linejoin:round;stroke-miterlimit:4;stroke-dasharray:none;stroke-opacity:1"
       d="m -23.8125,296.20624 c 0,0 0,-0.52917 0.79375,-0.52917 0.79375,0 1.852083,0.26458 1.852083,0.26458"
       id="path908"
       inkscape:connector-curvature="0"
       sodipodi:nodetypes="czc" />
    <path
       sodipodi:nodetypes="czc"
       inkscape:connector-curvature="0"
       id="path910"
       d="m -23.8125,296.20624 c 0,0 0,-1.05833 0.79375,-1.05833 0.79375,0 1.852083,0.79375 1.852083,0.79375"
       style="fill:none;stroke:#000000;stroke-width:0.26458335;stroke-linecap:round;stroke-linejoin:round;stroke-miterlimit:4;stroke-dasharray:none;stroke-opacity:1" />
    <path
       sodipodi:nodetypes="cc"
       inkscape:connector-curvature="0"
       id="path948"
       d="m -15.345833,295.94165 v -3.70417"
       style="fill:none;stroke:#000000;stroke-width:0.5291667;stroke-linecap:round;stroke-linejoin:round;stroke-miterlimit:4;stroke-dasharray:none;stroke-opacity:1" />
    <path
       style="fill:none;stroke:#000000;stroke-width:0.5291667;stroke-linecap:round;stroke-linejoin:round;stroke-miterlimit:4;stroke-dasharray:none;stroke-opacity:1"
       d="m -12.7,295.94165 v -3.43958"
       id="path950"
       inkscape:connector-curvature="0"
       sodipodi:nodetypes="cc" />
    <path
       sodipodi:nodetypes="cc"
       inkscape:connector-curvature="0"
       id="path952"
       d="m -17.991667,295.94165 v -3.43958"
       style="fill:none;stroke:#000000;stroke-width:0.5291667;stroke-linecap:round;stroke-linejoin:round;stroke-miterlimit:4;stroke-dasharray:none;stroke-opacity:1" />
    <path
       sodipodi:nodetypes="cc"
       inkscape:connector-curvature="0"
       id="path954"
       d="m -15.345833,295.94165 h -2.645834"
       style="fill:none;stroke:#000000;stroke-width:0.5291667;stroke-linecap:round;stroke-linejoin:round;stroke-miterlimit:4;stroke-dasharray:none;stroke-opacity:1" />
    <path
       sodipodi:nodetypes="czc"
       inkscape:connector-curvature="0"
       id="path956"
       d="m -15.345833,295.94165 c 0,0 0,-0.52917 -0.79375,-0.52917 -0.79375,0 -1.852084,0.26458 -1.852084,0.26458"
       style="fill:none;stroke:#000000;stroke-width:0.26458335;stroke-linecap:round;stroke-linejoin:round;stroke-miterlimit:4;stroke-dasharray:none;stroke-opacity:1" />
    <path
       style="fill:none;stroke:#000000;stroke-width:0.26458335;stroke-linecap:round;stroke-linejoin:round;stroke-miterlimit:4;stroke-dasharray:none;stroke-opacity:1"
       d="m -15.345833,295.94165 c 0,0 0,-1.05833 -0.79375,-1.05833 -0.79375,0 -1.852084,0.79375 -1.852084,0.79375"
       id="path958"
       inkscape:connector-curvature="0"
       sodipodi:nodetypes="czc" />
    <path
       style="fill:none;stroke:#000000;stroke-width:0.5291667;stroke-linecap:round;stroke-linejoin:round;stroke-miterlimit:4;stroke-dasharray:none;stroke-opacity:1"
       d="M -15.345833,295.94165 H -12.7"
       id="path960"
       inkscape:connector-curvature="0"
       sodipodi:nodetypes="cc" />
    <path
       style="fill:none;stroke:#000000;stroke-width:0.26458335;stroke-linecap:round;stroke-linejoin:round;stroke-miterlimit:4;stroke-dasharray:none;stroke-opacity:1"
       d="m -15.345833,295.94165 c 0,0 0,-0.52917 0.79375,-0.52917 0.79375,0 1.852083,0.26458 1.852083,0.26458"
       id="path962"
       inkscape:connector-curvature="0"
       sodipodi:nodetypes="czc" />
    <path
       sodipodi:nodetypes="czc"
       inkscape:connector-curvature="0"
       id="path964"
       d="m -15.345833,295.94165 c 0,0 0,-1.05833 0.79375,-1.05833 0.79375,0 1.852083,0.79375 1.852083,0.79375"
       style="fill:none;stroke:#000000;stroke-width:0.26458335;stroke-linecap:round;stroke-linejoin:round;stroke-miterlimit:4;stroke-dasharray:none;stroke-opacity:1" />
    <path
       style="fill:none;stroke:#000000;stroke-width:0.26458335;stroke-linecap:round;stroke-linejoin:round;stroke-miterlimit:4;stroke-dasharray:none;stroke-opacity:1"
       d="m -15.345833,292.50206 c 0,0 0,-1.05833 0.79375,-1.05833 0.79375,0 1.852083,0.79375 1.852083,0.79375"
       id="path966"
       inkscape:connector-curvature="0"
       sodipodi:nodetypes="czc" />
    <path
       sodipodi:nodetypes="czc"
       inkscape:connector-curvature="0"
       id="path968"
       d="m -15.345833,292.50207 c 0,0 0,-1.05833 -0.79375,-1.05833 -0.79375,0 -1.852084,0.79375 -1.852084,0.79375"
       style="fill:none;stroke:#000000;stroke-width:0.26458335;stroke-linecap:round;stroke-linejoin:round;stroke-miterlimit:4;stroke-dasharray:none;stroke-opacity:1" />
    <path
       inkscape:connector-curvature="0"
       id="path970"
       d="m -17.727083,292.50207 v -0.52917 l -0.264584,0.26458 z"
       style="fill:#000000;stroke:none;stroke-width:0.26458335px;stroke-linecap:butt;stroke-linejoin:miter;stroke-opacity:1" />
    <path
       inkscape:connector-curvature="0"
       id="path972"
       d="m -15.08125,292.23748 v -0.52916 l -0.264583,0.52916 z"
       style="fill:#000000;stroke:none;stroke-width:0.26458335px;stroke-linecap:butt;stroke-linejoin:miter;stroke-opacity:1" />
    <path
       inkscape:connector-curvature="0"
       id="path974"
       d="m -15.610417,292.23748 h 0.264584 l -0.264584,-0.52916 z"
       style="fill:#000000;stroke:none;stroke-width:0.26458335px;stroke-linecap:butt;stroke-linejoin:miter;stroke-opacity:1" />
    <path
       sodipodi:nodetypes="ccccc"
       inkscape:connector-curvature="0"
       id="path976"
       d="m -18.11259,292.18477 -0.09302,0.1633 0.106453,0.0238 0.08785,-0.16433 z"
       style="fill:#000000;stroke:none;stroke-width:0.26458335px;stroke-linecap:butt;stroke-linejoin:miter;stroke-opacity:1" />
    <path
       style="fill:#000000;stroke:none;stroke-width:0.26458335px;stroke-linecap:butt;stroke-linejoin:miter;stroke-opacity:1"
       d="m -12.580111,292.18477 0.09302,0.1633 -0.106453,0.0238 -0.08785,-0.16433 z"
       id="path978"
       inkscape:connector-curvature="0"
       sodipodi:nodetypes="ccccc" />
    <path
       inkscape:connector-curvature="0"
       id="path980"
       d="m -12.962516,292.5 0.0036,-0.43969 0.258905,0.44176 z"
       style="fill:#000000;stroke:none;stroke-width:0.26458335px;stroke-linecap:butt;stroke-linejoin:miter;stroke-opacity:1" />
    <path
       style="fill:none;stroke:#000000;stroke-width:0.26458334;stroke-linecap:round;stroke-linejoin:round;stroke-miterlimit:4;stroke-dasharray:none;stroke-opacity:1"
       d="m -15.345833,306.52499 v -3.43958"
       id="path865"
       inkscape:connector-curvature="0"
       sodipodi:nodetypes="cc" />
    <path
       sodipodi:nodetypes="cc"
       inkscape:connector-curvature="0"
       id="path867"
       d="m -12.7,306.65539 0,-3.30539"
       style="fill:none;stroke:#000000;stroke-width:0.5291667;stroke-linecap:round;stroke-linejoin:round;stroke-miterlimit:4;stroke-dasharray:none;stroke-opacity:1" />
    <path
       style="fill:none;stroke:#000000;stroke-width:0.5291667;stroke-linecap:round;stroke-linejoin:round;stroke-miterlimit:4;stroke-dasharray:none;stroke-opacity:1"
       d="m -17.991667,306.6554 0,-3.3054"
       id="path869"
       inkscape:connector-curvature="0"
       sodipodi:nodetypes="cc" />
    <path
       style="fill:none;stroke:#000000;stroke-width:0.26458335;stroke-linecap:round;stroke-linejoin:round;stroke-miterlimit:4;stroke-dasharray:none;stroke-opacity:1"
       d="m -15.345833,306.78956 h -2.645834"
       id="path871"
       inkscape:connector-curvature="0"
       sodipodi:nodetypes="cc" />
    <path
       style="fill:none;stroke:#000000;stroke-width:0.26458332;stroke-linecap:round;stroke-linejoin:round;stroke-miterlimit:4;stroke-dasharray:none;stroke-opacity:1"
       d="m -15.345823,306.78769 c 0,0 0,-0.52917 -0.793752,-0.52917 -0.793753,0 -1.852091,0.26458 -1.852091,0.26458"
       id="path873"
       inkscape:connector-curvature="0"
       sodipodi:nodetypes="czc" />
    <path
       sodipodi:nodetypes="czc"
       inkscape:connector-curvature="0"
       id="path875"
       d="m -15.345833,306.78769 c 0,0 0,-1.05833 -0.79375,-1.05833 -0.79375,0 -1.852084,0.79375 -1.852084,0.79375"
       style="fill:none;stroke:#000000;stroke-width:0.26458335;stroke-linecap:round;stroke-linejoin:round;stroke-miterlimit:4;stroke-dasharray:none;stroke-opacity:1" />
    <path
       sodipodi:nodetypes="cc"
       inkscape:connector-curvature="0"
       id="path877"
       d="M -15.345833,306.78956 H -12.7"
       style="fill:none;stroke:#000000;stroke-width:0.26458335;stroke-linecap:round;stroke-linejoin:round;stroke-miterlimit:4;stroke-dasharray:none;stroke-opacity:1" />
    <path
       sodipodi:nodetypes="czc"
       inkscape:connector-curvature="0"
       id="path879"
       d="m -15.345833,306.78769 c 0,0 0,-0.52917 0.79375,-0.52917 0.79375,0 1.852083,0.26458 1.852083,0.26458"
       style="fill:none;stroke:#000000;stroke-width:0.26458335;stroke-linecap:round;stroke-linejoin:round;stroke-miterlimit:4;stroke-dasharray:none;stroke-opacity:1" />
    <path
       style="fill:none;stroke:#000000;stroke-width:0.26458335;stroke-linecap:round;stroke-linejoin:round;stroke-miterlimit:4;stroke-dasharray:none;stroke-opacity:1"
       d="m -15.345833,306.78769 c 0,0 0,-1.05833 0.79375,-1.05833 0.79375,0 1.852083,0.79375 1.852083,0.79375"
       id="path881"
       inkscape:connector-curvature="0"
       sodipodi:nodetypes="czc" />
    <path
       sodipodi:nodetypes="czc"
       inkscape:connector-curvature="0"
       id="path883"
       d="m -15.345833,303.34999 c 0,0 0,-1.05833 0.79375,-1.05833 0.79375,0 1.852083,0.79375 1.852083,0.79375"
       style="fill:none;stroke:#000000;stroke-width:0.26458335;stroke-linecap:round;stroke-linejoin:round;stroke-miterlimit:4;stroke-dasharray:none;stroke-opacity:1" />
    <path
       style="fill:none;stroke:#000000;stroke-width:0.26458335;stroke-linecap:round;stroke-linejoin:round;stroke-miterlimit:4;stroke-dasharray:none;stroke-opacity:1"
       d="m -15.345833,303.35 c 0,0 0,-1.05833 -0.79375,-1.05833 -0.79375,0 -1.852084,0.79375 -1.852084,0.79375"
       id="path885"
       inkscape:connector-curvature="0"
       sodipodi:nodetypes="czc" />
    <path
       style="fill:#000000;stroke:none;stroke-width:0.26458335px;stroke-linecap:butt;stroke-linejoin:miter;stroke-opacity:1"
       d="m -17.727083,303.35 v -0.52917 l -0.264584,0.26458 z"
       id="path887"
       inkscape:connector-curvature="0" />
    <path
       style="fill:#000000;stroke:none;stroke-width:0.26458335px;stroke-linecap:butt;stroke-linejoin:miter;stroke-opacity:1"
       d="m -15.08125,303.08541 v -0.52916 l -0.264583,0.52916 z"
       id="path889"
       inkscape:connector-curvature="0" />
    <path
       style="fill:#000000;stroke:none;stroke-width:0.26458335px;stroke-linecap:butt;stroke-linejoin:miter;stroke-opacity:1"
       d="m -15.610417,303.08541 h 0.264584 l -0.264584,-0.52916 z"
       id="path891"
       inkscape:connector-curvature="0" />
    <path
       style="fill:#000000;stroke:none;stroke-width:0.26458335px;stroke-linecap:butt;stroke-linejoin:miter;stroke-opacity:1"
       d="m -18.11259,303.0327 -0.09302,0.1633 0.106453,0.0238 0.08785,-0.16433 z"
       id="path893"
       inkscape:connector-curvature="0"
       sodipodi:nodetypes="ccccc" />
    <path
       sodipodi:nodetypes="ccccc"
       inkscape:connector-curvature="0"
       id="path895"
       d="m -12.580111,303.0327 0.09302,0.1633 -0.106453,0.0238 -0.08785,-0.16433 z"
       style="fill:#000000;stroke:none;stroke-width:0.26458335px;stroke-linecap:butt;stroke-linejoin:miter;stroke-opacity:1" />
    <path
       style="fill:#000000;stroke:none;stroke-width:0.26458335px;stroke-linecap:butt;stroke-linejoin:miter;stroke-opacity:1"
       d="m -12.962516,303.34793 0.0036,-0.43969 0.258905,0.44176 z"
       id="path897"
       inkscape:connector-curvature="0" />
    <path
       style="fill:none;stroke:#000000;stroke-width:0.26458334;stroke-linecap:round;stroke-linejoin:round;stroke-miterlimit:4;stroke-dasharray:none;stroke-opacity:1"
       d="m -15.345833,321.07708 v -3.70417"
       id="path899"
       inkscape:connector-curvature="0"
       sodipodi:nodetypes="cc" />
    <path
       sodipodi:nodetypes="cc"
       inkscape:connector-curvature="0"
       id="path901"
       d="m -12.7,321.07708 v -3.17501"
       style="fill:none;stroke:#000000;stroke-width:0.5291667;stroke-linecap:round;stroke-linejoin:round;stroke-miterlimit:4;stroke-dasharray:none;stroke-opacity:1" />
    <path
       style="fill:none;stroke:#000000;stroke-width:0.5291667;stroke-linecap:round;stroke-linejoin:round;stroke-miterlimit:4;stroke-dasharray:none;stroke-opacity:1"
       d="m -17.991667,321.07708 v -3.17501"
       id="path903"
       inkscape:connector-curvature="0"
       sodipodi:nodetypes="cc" />
    <path
       style="fill:none;stroke:#000000;stroke-width:0.5291667;stroke-linecap:round;stroke-linejoin:round;stroke-miterlimit:4;stroke-dasharray:none;stroke-opacity:1"
       d="m -15.345833,321.07708 h -2.645834"
       id="path905"
       inkscape:connector-curvature="0"
       sodipodi:nodetypes="cc" />
    <path
       style="fill:none;stroke:#000000;stroke-width:0.26458335;stroke-linecap:round;stroke-linejoin:round;stroke-miterlimit:4;stroke-dasharray:none;stroke-opacity:1"
       d="m -15.345833,321.07708 c 0,0 0,-0.52917 -0.79375,-0.52917 -0.79375,0 -1.852084,0.26458 -1.852084,0.26458"
       id="path907"
       inkscape:connector-curvature="0"
       sodipodi:nodetypes="czc" />
    <path
       sodipodi:nodetypes="czc"
       inkscape:connector-curvature="0"
       id="path909"
       d="m -15.345833,321.07708 c 0,0 0,-1.05833 -0.79375,-1.05833 -0.79375,0 -1.852084,0.79375 -1.852084,0.79375"
       style="fill:none;stroke:#000000;stroke-width:0.26458335;stroke-linecap:round;stroke-linejoin:round;stroke-miterlimit:4;stroke-dasharray:none;stroke-opacity:1" />
    <path
       sodipodi:nodetypes="cc"
       inkscape:connector-curvature="0"
       id="path911"
       d="M -15.345833,321.07708 H -12.7"
       style="fill:none;stroke:#000000;stroke-width:0.5291667;stroke-linecap:round;stroke-linejoin:round;stroke-miterlimit:4;stroke-dasharray:none;stroke-opacity:1" />
    <path
       sodipodi:nodetypes="czc"
       inkscape:connector-curvature="0"
       id="path913"
       d="m -15.345833,321.07708 c 0,0 0,-0.52917 0.79375,-0.52917 0.79375,0 1.852083,0.26458 1.852083,0.26458"
       style="fill:none;stroke:#000000;stroke-width:0.26458335;stroke-linecap:round;stroke-linejoin:round;stroke-miterlimit:4;stroke-dasharray:none;stroke-opacity:1" />
    <path
       style="fill:none;stroke:#000000;stroke-width:0.26458335;stroke-linecap:round;stroke-linejoin:round;stroke-miterlimit:4;stroke-dasharray:none;stroke-opacity:1"
       d="m -15.345833,321.07708 c 0,0 0,-1.05833 0.79375,-1.05833 0.79375,0 1.852083,0.79375 1.852083,0.79375"
       id="path915"
       inkscape:connector-curvature="0"
       sodipodi:nodetypes="czc" />
    <path
       sodipodi:nodetypes="czc"
       inkscape:connector-curvature="0"
       id="path917"
       d="m -15.345833,317.90207 c 0,0 0,-1.05833 0.79375,-1.05833 0.79375,0 1.852083,0.79375 1.852083,0.79375"
       style="fill:none;stroke:#000000;stroke-width:0.26458335;stroke-linecap:round;stroke-linejoin:round;stroke-miterlimit:4;stroke-dasharray:none;stroke-opacity:1" />
    <path
       style="fill:none;stroke:#000000;stroke-width:0.26458335;stroke-linecap:round;stroke-linejoin:round;stroke-miterlimit:4;stroke-dasharray:none;stroke-opacity:1"
       d="m -15.345833,317.90207 c 0,0 0,-1.05833 -0.79375,-1.05833 -0.79375,0 -1.852084,0.79375 -1.852084,0.79375"
       id="path919"
       inkscape:connector-curvature="0"
       sodipodi:nodetypes="czc" />
    <path
       style="fill:#000000;stroke:none;stroke-width:0.26458335px;stroke-linecap:butt;stroke-linejoin:miter;stroke-opacity:1"
       d="m -17.727083,317.90207 v -0.52917 l -0.264584,0.26458 z"
       id="path921"
       inkscape:connector-curvature="0" />
    <path
       style="fill:#000000;stroke:none;stroke-width:0.26458335px;stroke-linecap:butt;stroke-linejoin:miter;stroke-opacity:1"
       d="m -18.11259,317.58268 -0.09302,0.1633 0.106453,0.0238 0.08785,-0.16433 z"
       id="path927"
       inkscape:connector-curvature="0"
       sodipodi:nodetypes="ccccc" />
    <path
       sodipodi:nodetypes="ccccc"
       inkscape:connector-curvature="0"
       id="path929"
       d="m -12.580111,317.58268 0.09302,0.1633 -0.106453,0.0238 -0.08785,-0.16433 z"
       style="fill:#000000;stroke:none;stroke-width:0.26458335px;stroke-linecap:butt;stroke-linejoin:miter;stroke-opacity:1" />
    <path
       style="fill:#000000;stroke:none;stroke-width:0.26458335px;stroke-linecap:butt;stroke-linejoin:miter;stroke-opacity:1"
       d="m -12.962516,317.9 0.0036,-0.43969 0.258905,0.44176 z"
       id="path931"
       inkscape:connector-curvature="0" />
    <path
       sodipodi:nodetypes="cc"
       inkscape:connector-curvature="0"
       id="path1857"
       d="m -15.345833,328.88229 v -3.70417"
       style="fill:none;stroke:#000000;stroke-width:0.26458335;stroke-linecap:round;stroke-linejoin:round;stroke-miterlimit:4;stroke-dasharray:none;stroke-opacity:1" />
    <path
       style="fill:none;stroke:#000000;stroke-width:0.5291667;stroke-linecap:round;stroke-linejoin:round;stroke-miterlimit:4;stroke-dasharray:none;stroke-opacity:1"
       d="m -12.7,328.88229 v -3.17501"
       id="path1859"
       inkscape:connector-curvature="0"
       sodipodi:nodetypes="cc" />
    <path
       sodipodi:nodetypes="cc"
       inkscape:connector-curvature="0"
       id="path1861"
       d="m -17.991667,328.88229 v -3.17501"
       style="fill:none;stroke:#000000;stroke-width:0.5291667;stroke-linecap:round;stroke-linejoin:round;stroke-miterlimit:4;stroke-dasharray:none;stroke-opacity:1" />
    <path
       sodipodi:nodetypes="cc"
       inkscape:connector-curvature="0"
       id="path1863"
       d="m -15.345833,328.88229 h -2.645834"
       style="fill:none;stroke:#000000;stroke-width:0.5291667;stroke-linecap:round;stroke-linejoin:round;stroke-miterlimit:4;stroke-dasharray:none;stroke-opacity:1" />
    <path
       sodipodi:nodetypes="czc"
       inkscape:connector-curvature="0"
       id="path1865"
       d="m -15.345833,328.74811 c 0,0 0,-0.52917 -0.79375,-0.52917 -0.79375,0 -1.852084,0.39876 -1.852084,0.39876"
       style="fill:none;stroke:#000000;stroke-width:0.26458335;stroke-linecap:round;stroke-linejoin:round;stroke-miterlimit:4;stroke-dasharray:none;stroke-opacity:1" />
    <path
       style="fill:none;stroke:#000000;stroke-width:0.26458335;stroke-linecap:round;stroke-linejoin:round;stroke-miterlimit:4;stroke-dasharray:none;stroke-opacity:1"
       d="m -15.345833,328.74811 c 0,0 0,-1.05833 -0.79375,-1.05833 -0.79375,0 -1.852084,0.79375 -1.852084,0.79375"
       id="path1867"
       inkscape:connector-curvature="0"
       sodipodi:nodetypes="czc" />
    <path
       style="fill:none;stroke:#000000;stroke-width:0.5291667;stroke-linecap:round;stroke-linejoin:round;stroke-miterlimit:4;stroke-dasharray:none;stroke-opacity:1"
       d="M -15.345833,328.88229 H -12.7"
       id="path1869"
       inkscape:connector-curvature="0"
       sodipodi:nodetypes="cc" />
    <path
       style="fill:none;stroke:#000000;stroke-width:0.26458335;stroke-linecap:round;stroke-linejoin:round;stroke-miterlimit:4;stroke-dasharray:none;stroke-opacity:1"
       d="m -15.345833,328.74811 c 0,0 0,-0.52917 0.79375,-0.52917 0.79375,0 1.852083,0.39876 1.852083,0.39876"
       id="path1871"
       inkscape:connector-curvature="0"
       sodipodi:nodetypes="czc" />
    <path
       sodipodi:nodetypes="czc"
       inkscape:connector-curvature="0"
       id="path1873"
       d="m -15.345833,328.74811 c 0,0 0,-1.05833 0.79375,-1.05833 0.79375,0 1.852083,0.79375 1.852083,0.79375"
       style="fill:none;stroke:#000000;stroke-width:0.26458335;stroke-linecap:round;stroke-linejoin:round;stroke-miterlimit:4;stroke-dasharray:none;stroke-opacity:1" />
    <path
       style="fill:none;stroke:#000000;stroke-width:0.26458335;stroke-linecap:round;stroke-linejoin:round;stroke-miterlimit:4;stroke-dasharray:none;stroke-opacity:1"
       d="m -15.345833,325.70728 c 0,0 0,-1.05833 0.79375,-1.05833 0.79375,0 1.852083,0.79375 1.852083,0.79375"
       id="path1875"
       inkscape:connector-curvature="0"
       sodipodi:nodetypes="czc" />
    <path
       sodipodi:nodetypes="czc"
       inkscape:connector-curvature="0"
       id="path1877"
       d="m -15.345833,325.70728 c 0,0 0,-1.05833 -0.79375,-1.05833 -0.79375,0 -1.852084,0.79375 -1.852084,0.79375"
       style="fill:none;stroke:#000000;stroke-width:0.26458335;stroke-linecap:round;stroke-linejoin:round;stroke-miterlimit:4;stroke-dasharray:none;stroke-opacity:1" />
    <path
       inkscape:connector-curvature="0"
       id="path1879"
       d="m -17.727083,325.70728 v -0.52917 l -0.264584,0.26458 z"
       style="fill:#000000;stroke:none;stroke-width:0.26458335px;stroke-linecap:butt;stroke-linejoin:miter;stroke-opacity:1" />
    <path
       sodipodi:nodetypes="ccccc"
       inkscape:connector-curvature="0"
       id="path1881"
       d="m -18.11259,325.38789 -0.09302,0.1633 0.106453,0.0238 0.08785,-0.16433 z"
       style="fill:#000000;stroke:none;stroke-width:0.26458335px;stroke-linecap:butt;stroke-linejoin:miter;stroke-opacity:1" />
    <path
       style="fill:#000000;stroke:none;stroke-width:0.26458335px;stroke-linecap:butt;stroke-linejoin:miter;stroke-opacity:1"
       d="m -12.580111,325.38789 0.09302,0.1633 -0.106453,0.0238 -0.08785,-0.16433 z"
       id="path1883"
       inkscape:connector-curvature="0"
       sodipodi:nodetypes="ccccc" />
    <path
       inkscape:connector-curvature="0"
       id="path1885"
       d="m -12.962516,325.70521 0.0036,-0.43969 0.258905,0.44176 z"
       style="fill:#000000;stroke:none;stroke-width:0.26458335px;stroke-linecap:butt;stroke-linejoin:miter;stroke-opacity:1" />
    <g
       id="g1011"
       transform="translate(0,-16.66875)">
      <path
         style="fill:none;stroke:#000000;stroke-width:0.26458335;stroke-linecap:round;stroke-linejoin:round;stroke-miterlimit:4;stroke-dasharray:none;stroke-opacity:1"
         d="m 3.175,295.93789 v -3.70417"
         id="path977"
         inkscape:connector-curvature="0"
         sodipodi:nodetypes="cc" />
      <path
         sodipodi:nodetypes="cc"
         inkscape:connector-curvature="0"
         id="path979"
         d="m 5.820833,295.93789 v -3.17123"
         style="fill:none;stroke:#000000;stroke-width:0.5291667;stroke-linecap:round;stroke-linejoin:round;stroke-miterlimit:4;stroke-dasharray:none;stroke-opacity:1" />
      <path
         style="fill:none;stroke:#000000;stroke-width:0.5291667;stroke-linecap:round;stroke-linejoin:round;stroke-miterlimit:4;stroke-dasharray:none;stroke-opacity:1"
         d="m 0.529166,295.93789 v -3.17501"
         id="path981"
         inkscape:connector-curvature="0"
         sodipodi:nodetypes="cc" />
      <path
         style="fill:none;stroke:#000000;stroke-width:0.5291667;stroke-linecap:round;stroke-linejoin:round;stroke-miterlimit:4;stroke-dasharray:none;stroke-opacity:1"
         d="M 3.175,295.93789 H 0.529166"
         id="path983"
         inkscape:connector-curvature="0"
         sodipodi:nodetypes="cc" />
      <path
         style="fill:none;stroke:#000000;stroke-width:0.26458335;stroke-linecap:round;stroke-linejoin:round;stroke-miterlimit:4;stroke-dasharray:none;stroke-opacity:1"
         d="m 3.175,295.80371 c 0,0 0,-0.52917 -0.79375,-0.52917 -0.79375,0 -1.852084,0.39876 -1.852084,0.39876"
         id="path985"
         inkscape:connector-curvature="0"
         sodipodi:nodetypes="czc" />
      <path
         sodipodi:nodetypes="czc"
         inkscape:connector-curvature="0"
         id="path987"
         d="m 3.175,295.80371 c 0,0 0,-1.05833 -0.79375,-1.05833 -0.79375,0 -1.852084,0.79375 -1.852084,0.79375"
         style="fill:none;stroke:#000000;stroke-width:0.26458335;stroke-linecap:round;stroke-linejoin:round;stroke-miterlimit:4;stroke-dasharray:none;stroke-opacity:1" />
      <path
         sodipodi:nodetypes="cc"
         inkscape:connector-curvature="0"
         id="path989"
         d="M 3.175,295.93789 H 5.820833"
         style="fill:none;stroke:#000000;stroke-width:0.5291667;stroke-linecap:round;stroke-linejoin:round;stroke-miterlimit:4;stroke-dasharray:none;stroke-opacity:1" />
      <path
         sodipodi:nodetypes="czc"
         inkscape:connector-curvature="0"
         id="path991"
         d="m 3.175,295.80371 c 0,0 0,-0.52917 0.79375,-0.52917 0.79375,0 1.852083,0.39876 1.852083,0.39876"
         style="fill:none;stroke:#000000;stroke-width:0.26458335;stroke-linecap:round;stroke-linejoin:round;stroke-miterlimit:4;stroke-dasharray:none;stroke-opacity:1" />
      <path
         style="fill:none;stroke:#000000;stroke-width:0.26458335;stroke-linecap:round;stroke-linejoin:round;stroke-miterlimit:4;stroke-dasharray:none;stroke-opacity:1"
         d="m 3.175,295.80371 c 0,0 0,-1.05833 0.79375,-1.05833 0.79375,0 1.852083,0.79375 1.852083,0.79375"
         id="path993"
         inkscape:connector-curvature="0"
         sodipodi:nodetypes="czc" />
      <path
         sodipodi:nodetypes="czc"
         inkscape:connector-curvature="0"
         id="path995"
         d="m 3.175,292.63248 c 0,0 0,-1.05833 0.79375,-1.05833 0.79375,0 1.852083,0.79375 1.852083,0.79375"
         style="fill:none;stroke:#000000;stroke-width:0.26458335;stroke-linecap:round;stroke-linejoin:round;stroke-miterlimit:4;stroke-dasharray:none;stroke-opacity:1" />
      <path
         style="fill:none;stroke:#000000;stroke-width:0.26458335;stroke-linecap:round;stroke-linejoin:round;stroke-miterlimit:4;stroke-dasharray:none;stroke-opacity:1"
         d="m 3.175,292.63248 c 0,0 0,-1.05833 -0.79375,-1.05833 -0.79375,0 -1.852084,0.79375 -1.852084,0.79375"
         id="path997"
         inkscape:connector-curvature="0"
         sodipodi:nodetypes="czc" />
      <g
         id="g1003"
         transform="translate(0,0.00374668)">
        <path
           style="fill:#000000;stroke:none;stroke-width:0.26458335px;stroke-linecap:butt;stroke-linejoin:miter;stroke-opacity:1"
           d="m 5.944039,292.32519 0.1310224,0.36939 -0.3461603,-0.0113 0.1021619,-0.36165 z"
           id="path999"
           inkscape:connector-curvature="0"
           sodipodi:nodetypes="ccccc" />
        <path
           sodipodi:nodetypes="ccccc"
           inkscape:connector-curvature="0"
           id="path1001"
           d="m 5.5562499,292.76081 0.0036,-0.43969 0.2589164,-0.0836 -1.14e-5,0.52539 z"
           style="fill:#000000;stroke:none;stroke-width:0.26458335px;stroke-linecap:butt;stroke-linejoin:miter;stroke-opacity:1" />
      </g>
      <g
         id="g1009"
         transform="matrix(-1,0,0,1,6.3479129,0.00167962)">
        <path
           sodipodi:nodetypes="ccccc"
           inkscape:connector-curvature="0"
           id="path1005"
           d="m 5.944039,292.32519 0.1310224,0.36939 -0.3461603,-0.0113 0.1021619,-0.36165 z"
           style="fill:#000000;stroke:none;stroke-width:0.26458335px;stroke-linecap:butt;stroke-linejoin:miter;stroke-opacity:1" />
        <path
           style="fill:#000000;stroke:none;stroke-width:0.26458335px;stroke-linecap:butt;stroke-linejoin:miter;stroke-opacity:1"
           d="m 5.5541828,292.76081 0.0036,-0.43969 0.2589164,-0.0836 -1.14e-5,0.52539 z"
           id="path1007"
           inkscape:connector-curvature="0"
           sodipodi:nodetypes="ccccc" />
      </g>
    </g>
    <path
       id="path1057"
       d="m 2.3807333,303.39145 c -0.4409722,0 -0.9140641,0.21116 -1.2867432,0.41444 -0.37267906,0.20328 -0.6449219,0.40618 -0.6449219,0.40618 a 0.13320302,0.13320302 0 0 0 -0.0501261,0.0801 l -0.10386963,0.29197 a 0.26460982,0.26460982 0 0 0 -0.0315226,0.1297 v 3.09336 a 0.26499792,0.26499792 0 0 0 0.26561687,0.34623 H 3.1512289 a 0.26499792,0.26499792 0 0 0 0.024805,0 h 2.6442832 a 0.26464501,0.26464501 0 0 0 0.1772502,-0.0682 0.26464845,0.26464845 0 0 0 0.012402,-0.0119 0.26464501,0.26464501 0 0 0 0.00103,-10e-4 0.26464845,0.26464845 0 0 0 0.016536,-0.0191 0.26464501,0.26464501 0 0 0 0.00568,-0.007 0.26464845,0.26464845 0 0 0 0.00982,-0.0139 0.26464501,0.26464501 0 0 0 5.167e-4,-0.002 0.26464845,0.26464845 0 0 0 0.042375,-0.14263 v -3.16983 a 0.26460982,0.26460982 0 0 0 -0.034106,-0.13436 l -0.098702,-0.27854 a 0.13261823,0.13261823 0 0 0 -0.05271,-0.093 c 0,0 -0.2717263,-0.2029 -0.6444051,-0.40618 -0.3726786,-0.20328 -0.8462876,-0.41444 -1.2872599,-0.41444 -0.2278356,0 -0.4132948,0.0809 -0.5467366,0.19947 -0.1160243,0.10313 -0.1926341,0.23109 -0.2470134,0.35863 -0.054383,-0.1276 -0.1309325,-0.25545 -0.2470134,-0.35863 -0.1334421,-0.11861 -0.3194178,-0.19947 -0.5472534,-0.19947 z m 0,0.26561 c 0.1690394,0 0.2812368,0.0514 0.3710369,0.13126 0.0898,0.0798 0.1549519,0.19341 0.199471,0.31213 0.089038,0.23743 0.091984,0.48265 0.091984,0.48265 a 0.1323049,0.1323049 0 0 0 0,0.0264 v 2.28203 c -0.034072,-0.0453 -0.070884,-0.0892 -0.1152384,-0.12867 -0.1334421,-0.11861 -0.3194178,-0.19948 -0.5472534,-0.19948 -0.4409722,0 -0.9140641,0.2091 -1.2867432,0.41238 -0.11272987,0.0615 -0.2117279,0.12066 -0.3012736,0.17674 v -2.43862 a 0.26460982,0.26460982 0 0 0 0,-0.001 h 0.001034 l -0.003617,-0.41444 c 0.10798496,-0.0719 0.2568695,-0.16525 0.4304646,-0.25994 0.3549256,-0.19359 0.8073582,-0.38137 1.160136,-0.38137 z m 1.5880168,0 c 0.3527777,0 0.8052107,0.18778 1.160136,0.38137 0.1734349,0.0946 0.3225417,0.18804 0.4309814,0.25994 l -0.00362,0.41651 h 5.168e-4 a 0.26460982,0.26460982 0 0 0 0,0.003 v 2.43448 c -0.089546,-0.0561 -0.188027,-0.11525 -0.3007569,-0.17674 -0.3726786,-0.20328 -0.8462876,-0.41238 -1.2872599,-0.41238 -0.2278356,0 -0.4132948,0.0809 -0.5467366,0.19948 -0.044218,0.0393 -0.081242,0.083 -0.1152385,0.12815 v -2.28668 a 0.1323049,0.1323049 0 0 0 0,-0.0196 0.1323049,0.1323049 0 0 0 0,-0.002 c 0,0 0.00243,-0.24522 0.091467,-0.48265 0.044519,-0.11872 0.1096708,-0.23231 0.1994709,-0.31213 0.0898,-0.0798 0.2019975,-0.13126 0.3710369,-0.13126 z m -1.5880168,3.17035 c 0.1690394,0 0.2812368,0.053 0.3710369,0.13281 0.071906,0.0639 0.1241025,0.15077 0.166398,0.24288 -0.1349338,-0.0655 -0.3092793,-0.11007 -0.5374349,-0.11007 -0.4658043,0 -0.9823724,0.1226 -1.3652914,0.23409 0.06421,-0.0387 0.1308648,-0.0783 0.2051554,-0.11885 0.3549256,-0.19359 0.8073582,-0.38086 1.160136,-0.38086 z m 1.5880168,0 c 0.3527777,0 0.8052107,0.18727 1.160136,0.38086 0.074394,0.0406 0.1412531,0.0806 0.205672,0.11937 -0.3829589,-0.11154 -0.8997688,-0.23461 -1.365808,-0.23461 -0.2281555,0 -0.4025011,0.0446 -0.5374349,0.11007 0.042296,-0.0921 0.094492,-0.17897 0.166398,-0.24288 0.0898,-0.0798 0.2019975,-0.13281 0.3710369,-0.13281 z m -1.5880168,0.52917 c 0.3674767,0 0.516326,0.11447 0.590145,0.2129 0.014389,0.0192 0.023842,0.0371 0.033073,0.0548 H 0.95808109 c 0.37406531,-0.11498 0.94705921,-0.2677 1.42265221,-0.2677 z m 1.5880168,0 c 0.4756849,0 1.0491182,0.15271 1.4231689,0.26768 H 3.3475994 c 0.00935,-0.0176 0.018684,-0.0356 0.033073,-0.0548 0.073819,-0.0984 0.2206011,-0.2129 0.5880777,-0.2129 z"
       style="color:#000000;font-style:normal;font-variant:normal;font-weight:normal;font-stretch:normal;font-size:medium;line-height:normal;font-family:sans-serif;font-variant-ligatures:normal;font-variant-position:normal;font-variant-caps:normal;font-variant-numeric:normal;font-variant-alternates:normal;font-feature-settings:normal;text-indent:0;text-align:start;text-decoration:none;text-decoration-line:none;text-decoration-style:solid;text-decoration-color:#000000;letter-spacing:normal;word-spacing:normal;text-transform:none;writing-mode:lr-tb;direction:ltr;text-orientation:mixed;dominant-baseline:auto;baseline-shift:baseline;text-anchor:start;white-space:normal;shape-padding:0;clip-rule:nonzero;display:inline;overflow:visible;visibility:visible;opacity:1;isolation:auto;mix-blend-mode:normal;color-interpolation:sRGB;color-interpolation-filters:linearRGB;solid-color:#000000;solid-opacity:1;vector-effect:none;fill:#000000;fill-opacity:1;fill-rule:nonzero;stroke:none;stroke-width:0.26458335;stroke-linecap:round;stroke-linejoin:round;stroke-miterlimit:4;stroke-dasharray:none;stroke-dashoffset:0;stroke-opacity:1;color-rendering:auto;image-rendering:auto;shape-rendering:auto;text-rendering:auto;enable-background:accumulate"
       inkscape:connector-curvature="0" />
    <path
       style="opacity:1;fill:#9a21af;fill-opacity:0.49173554;stroke:none;stroke-width:0.26458335;stroke-linecap:round;stroke-linejoin:round;stroke-miterlimit:4;stroke-dasharray:none;stroke-dashoffset:0;stroke-opacity:1"
       d="m -2.687018,303.16135 a 0.52916671,0.52916671 0 0 0 -0.037207,0.002 0.52916671,0.52916671 0 0 0 -0.05271,0.006 0.52916671,0.52916671 0 0 0 -0.051676,0.0114 0.52916671,0.52916671 0 0 0 -0.050126,0.0171 0.52916671,0.52916671 0 0 0 -0.048059,0.0212 0.52916671,0.52916671 0 0 0 -0.045992,0.0264 0.52916671,0.52916671 0 0 0 -0.043408,0.031 0.52916671,0.52916671 0 0 0 -0.039274,0.0346 0.52916671,0.52916671 0 0 0 -0.036174,0.0387 0.52916671,0.52916671 0 0 0 -0.032039,0.0424 0.52916671,0.52916671 0 0 0 -0.027905,0.045 0.52916671,0.52916671 0 0 0 -0.022738,0.0475 0.52916671,0.52916671 0 0 0 -0.018087,0.0496 0.52916671,0.52916671 0 0 0 -0.013436,0.0517 0.52916671,0.52916671 0 0 0 -0.00775,0.0522 0.52916671,0.52916671 0 0 0 -0.00258,0.0527 0.52916671,0.52916671 0 0 0 0.00155,0.0372 0.52916671,0.52916671 0 0 0 0.0062,0.0527 0.52916671,0.52916671 0 0 0 0.011369,0.0517 0.52916671,0.52916671 0 0 0 0.017053,0.0501 0.52916671,0.52916671 0 0 0 0.021187,0.0481 0.52916671,0.52916671 0 0 0 0.026355,0.046 0.52916671,0.52916671 0 0 0 0.031006,0.0434 0.52916671,0.52916671 0 0 0 0.034623,0.0393 0.52916671,0.52916671 0 0 0 0.038757,0.0362 0.52916671,0.52916671 0 0 0 0.042375,0.032 0.52916671,0.52916671 0 0 0 0.044959,0.0279 0.52916671,0.52916671 0 0 0 0.047542,0.0227 0.52916671,0.52916671 0 0 0 0.049609,0.0181 0.52916671,0.52916671 0 0 0 0.051676,0.0134 0.52916671,0.52916671 0 0 0 0.052193,0.008 0.52916671,0.52916671 0 0 0 0.05271,0.003 0.52916671,0.52916671 0 0 0 0.037207,-0.002 0.52916671,0.52916671 0 0 0 0.05271,-0.006 0.52916671,0.52916671 0 0 0 0.051676,-0.0114 0.52916671,0.52916671 0 0 0 0.050126,-0.017 0.52916671,0.52916671 0 0 0 0.048059,-0.0212 0.52916671,0.52916671 0 0 0 0.045992,-0.0263 0.52916671,0.52916671 0 0 0 0.043408,-0.031 0.52916671,0.52916671 0 0 0 0.039274,-0.0346 0.52916671,0.52916671 0 0 0 0.036174,-0.0388 0.52916671,0.52916671 0 0 0 0.032039,-0.0424 0.52916671,0.52916671 0 0 0 0.027905,-0.045 0.52916671,0.52916671 0 0 0 0.022738,-0.0475 0.52916671,0.52916671 0 0 0 0.018087,-0.0496 0.52916671,0.52916671 0 0 0 0.013436,-0.0517 0.52916671,0.52916671 0 0 0 0.00775,-0.0522 0.52916671,0.52916671 0 0 0 0.00258,-0.0527 0.52916671,0.52916671 0 0 0 -0.00155,-0.0372 0.52916671,0.52916671 0 0 0 -0.0062,-0.0527 0.52916671,0.52916671 0 0 0 -0.011369,-0.0517 0.52916671,0.52916671 0 0 0 -0.017053,-0.0501 0.52916671,0.52916671 0 0 0 -0.021187,-0.0481 0.52916671,0.52916671 0 0 0 -0.026355,-0.046 0.52916671,0.52916671 0 0 0 -0.031006,-0.0434 0.52916671,0.52916671 0 0 0 -0.034623,-0.0393 0.52916671,0.52916671 0 0 0 -0.038757,-0.0362 0.52916671,0.52916671 0 0 0 -0.042375,-0.032 0.52916671,0.52916671 0 0 0 -0.044958,-0.0279 0.52916671,0.52916671 0 0 0 -0.047542,-0.0227 0.52916671,0.52916671 0 0 0 -0.049609,-0.0181 0.52916671,0.52916671 0 0 0 -0.051676,-0.0134 0.52916671,0.52916671 0 0 0 -0.052193,-0.008 0.52916671,0.52916671 0 0 0 -0.05271,-0.003 z"
       id="path1088"
       inkscape:connector-curvature="0" />
    <path
       style="opacity:1;fill:#9a21af;fill-opacity:0.49173554;stroke:none;stroke-width:0.26458335;stroke-linecap:round;stroke-linejoin:round;stroke-miterlimit:4;stroke-dasharray:none;stroke-dashoffset:0;stroke-opacity:1"
       d="m -2.5738466,303.45332 a 0.52916671,0.52916671 0 0 1 0.05271,0.003 0.52916671,0.52916671 0 0 1 0.052193,0.008 0.52916671,0.52916671 0 0 1 0.051676,0.0134 0.52916671,0.52916671 0 0 1 0.049609,0.0181 0.52916671,0.52916671 0 0 1 0.047542,0.0227 0.52916671,0.52916671 0 0 1 0.044958,0.0279 0.52916671,0.52916671 0 0 1 0.042375,0.032 0.52916671,0.52916671 0 0 1 0.038757,0.0362 0.52916671,0.52916671 0 0 1 0.034623,0.0393 0.52916671,0.52916671 0 0 1 0.031006,0.0434 0.52916671,0.52916671 0 0 1 0.026355,0.046 0.52916671,0.52916671 0 0 1 0.021187,0.0481 0.52916671,0.52916671 0 0 1 0.017053,0.0501 0.52916671,0.52916671 0 0 1 0.011369,0.0517 0.52916671,0.52916671 0 0 1 0.0062,0.0527 0.52916671,0.52916671 0 0 1 0.00155,0.0372 v -0.52917 z"
       id="path1086"
       inkscape:connector-curvature="0" />
    <path
       style="opacity:1;fill:#9a21af;fill-opacity:0.49173554;stroke:none;stroke-width:0.26458335;stroke-linecap:round;stroke-linejoin:round;stroke-miterlimit:4;stroke-dasharray:none;stroke-dashoffset:0;stroke-opacity:1"
       d="m -2.2732389,303.90322 v 2.38125 H -4.654489 v -1.85208 a 0.52916671,0.52916671 0 0 0 0.00258,0.0527 0.52916671,0.52916671 0 0 0 0.00775,0.0522 0.52916671,0.52916671 0 0 0 0.013436,0.0517 0.52916671,0.52916671 0 0 0 0.018087,0.0496 0.52916671,0.52916671 0 0 0 0.022738,0.0475 0.52916671,0.52916671 0 0 0 0.027905,0.045 0.52916671,0.52916671 0 0 0 0.032039,0.0424 0.52916671,0.52916671 0 0 0 0.036173,0.0388 0.52916671,0.52916671 0 0 0 0.039274,0.0346 0.52916671,0.52916671 0 0 0 0.043408,0.031 0.52916671,0.52916671 0 0 0 0.045992,0.0263 0.52916671,0.52916671 0 0 0 0.048059,0.0212 0.52916671,0.52916671 0 0 0 0.050126,0.0171 0.52916671,0.52916671 0 0 0 0.051676,0.0114 0.52916671,0.52916671 0 0 0 0.05271,0.006 0.52916671,0.52916671 0 0 0 0.037207,0.002 0.52916671,0.52916671 0 0 0 0.05271,-0.003 0.52916671,0.52916671 0 0 0 0.052193,-0.008 0.52916671,0.52916671 0 0 0 0.051676,-0.0134 0.52916671,0.52916671 0 0 0 0.049609,-0.0181 0.52916671,0.52916671 0 0 0 0.047542,-0.0227 0.52916671,0.52916671 0 0 0 0.044959,-0.0279 0.52916671,0.52916671 0 0 0 0.042375,-0.032 0.52916671,0.52916671 0 0 0 0.038757,-0.0362 0.52916671,0.52916671 0 0 0 0.034623,-0.0393 0.52916671,0.52916671 0 0 0 0.031006,-0.0434 0.52916671,0.52916671 0 0 0 0.026355,-0.046 0.52916671,0.52916671 0 0 0 0.021187,-0.0481 0.52916671,0.52916671 0 0 0 0.017053,-0.0501 0.52916671,0.52916671 0 0 0 0.011369,-0.0517 0.52916671,0.52916671 0 0 0 0.0062,-0.0527 0.52916671,0.52916671 0 0 0 0.00155,-0.0372 0.52916671,0.52916671 0 0 0 -0.00258,-0.0527 0.52916671,0.52916671 0 0 0 -0.00775,-0.0522 0.52916671,0.52916671 0 0 0 -0.013436,-0.0517 0.52916671,0.52916671 0 0 0 -0.018087,-0.0496 0.52916671,0.52916671 0 0 0 -0.022738,-0.0475 0.52916671,0.52916671 0 0 0 -0.027905,-0.045 0.52916671,0.52916671 0 0 0 -0.032039,-0.0424 0.52916671,0.52916671 0 0 0 -0.036174,-0.0387 0.52916671,0.52916671 0 0 0 -0.039274,-0.0346 0.52916671,0.52916671 0 0 0 -0.043408,-0.031 0.52916671,0.52916671 0 0 0 -0.045992,-0.0264 0.52916671,0.52916671 0 0 0 -0.048059,-0.0212 0.52916671,0.52916671 0 0 0 -0.050126,-0.0171 0.52916671,0.52916671 0 0 0 -0.051676,-0.0114 0.52916671,0.52916671 0 0 0 -0.05271,-0.006 0.52916671,0.52916671 0 0 0 -0.037207,-0.002 z"
       id="rect1062"
       inkscape:connector-curvature="0" />
    <path
       id="path1118"
       d="m 19.181258,311.65646 v 5.2e-4 c -0.440972,0 -0.914064,0.21116 -1.286743,0.41444 -0.372679,0.20328 -0.644922,0.40618 -0.644922,0.40618 a 0.13320303,0.13320303 0 0 0 -0.05013,0.0801 l -0.103869,0.29197 a 0.26460982,0.26460982 0 0 0 -0.03152,0.12971 v 2.09599 0.28836 h 5.17e-4 l 5.16e-4,0.50539 h 10e-4 a 0.52916671,0.52916671 0 0 0 -10e-4,0.0243 0.52916671,0.52916671 0 0 0 0.0016,0.0372 0.52916671,0.52916671 0 0 0 0.0062,0.0522 0.52916671,0.52916671 0 0 0 0.01137,0.0522 0.52916671,0.52916671 0 0 0 0.01705,0.0496 0.52916671,0.52916671 0 0 0 0.02119,0.0486 0.52916671,0.52916671 0 0 0 0.02636,0.046 0.52916671,0.52916671 0 0 0 0.03101,0.0434 0.52916671,0.52916671 0 0 0 0.03462,0.0393 0.52916671,0.52916671 0 0 0 0.03876,0.0362 0.52916671,0.52916671 0 0 0 0.04237,0.032 0.52916671,0.52916671 0 0 0 0.04496,0.0279 0.52916671,0.52916671 0 0 0 0.04754,0.0222 0.52916671,0.52916671 0 0 0 0.04961,0.0186 0.52916671,0.52916671 0 0 0 0.05168,0.0129 0.52916671,0.52916671 0 0 0 0.04858,0.007 h 0.05529 0.05168 a 0.52916671,0.52916671 0 0 0 5.17e-4,0 l 0.478007,-5.2e-4 h 1.828312 a 0.26499792,0.26499792 0 0 0 0.02481,0 h 1.585433 v 5.2e-4 h 0.79375 v -5.2e-4 h 0.01757 a 0.52916671,0.52916671 0 0 0 0.03514,-0.002 0.52916671,0.52916671 0 0 0 0.05219,-0.008 0.52916671,0.52916671 0 0 0 0.05168,-0.0134 0.52916671,0.52916671 0 0 0 0.04961,-0.0181 0.52916671,0.52916671 0 0 0 0.04754,-0.0227 0.52916671,0.52916671 0 0 0 0.04496,-0.0279 0.52916671,0.52916671 0 0 0 0.04237,-0.0315 0.52916671,0.52916671 0 0 0 0.03876,-0.0362 0.52916671,0.52916671 0 0 0 0.03462,-0.0398 0.52916671,0.52916671 0 0 0 0.03101,-0.0434 0.52916671,0.52916671 0 0 0 0.02635,-0.046 0.52916671,0.52916671 0 0 0 0.02119,-0.0481 0.52916671,0.52916671 0 0 0 0.01705,-0.0501 0.52916671,0.52916671 0 0 0 0.01137,-0.0517 0.52916671,0.52916671 0 0 0 0.0062,-0.0527 0.52916671,0.52916671 0 0 0 0.0015,-0.0372 v -0.52917 h 0.0016 v -2.37712 a 0.26460982,0.26460982 0 0 0 -0.03411,-0.13435 l -0.0987,-0.27854 a 0.13261824,0.13261824 0 0 0 -0.05271,-0.093 c 0,0 -0.271726,-0.2029 -0.644405,-0.40618 -0.372678,-0.20328 -0.846288,-0.41444 -1.28726,-0.41444 -0.227836,0 -0.413295,0.0809 -0.546736,0.19947 -0.116025,0.10313 -0.192635,0.2311 -0.247014,0.35864 -0.05438,-0.1276 -0.130932,-0.25546 -0.247013,-0.35864 -0.133442,-0.11861 -0.319418,-0.19947 -0.547254,-0.19947 z m 1.588017,0.26562 v 5.1e-4 c 0.352778,0 0.805211,0.18779 1.160136,0.38138 0.173435,0.0946 0.322542,0.18803 0.430982,0.25993 l -0.0036,0.41651 h 5.17e-4 a 0.26460982,0.26460982 0 0 0 0,0.003 v 2.11253 h -0.0016 v 0.32091 c -0.08916,-0.0558 -0.187078,-0.11453 -0.299207,-0.1757 -0.372678,-0.20328 -0.846288,-0.41237 -1.28726,-0.41237 -0.227836,0 -0.413295,0.0809 -0.546736,0.19947 -0.04422,0.0393 -0.08124,0.083 -0.115239,0.12815 v -2.28668 a 0.13230491,0.13230491 0 0 0 0,-0.0196 0.13230491,0.13230491 0 0 0 0,-0.002 c 0,0 0.0024,-0.24523 0.09147,-0.48266 0.04452,-0.11872 0.109671,-0.23231 0.199471,-0.31213 0.0898,-0.0798 0.201998,-0.13125 0.371037,-0.13125 z m -1.588017,5.1e-4 c 0.16904,0 0.281237,0.0514 0.371037,0.13126 0.0898,0.0798 0.154952,0.19341 0.199471,0.31213 0.08904,0.23743 0.09198,0.48266 0.09198,0.48266 a 0.13230491,0.13230491 0 0 0 0,0.0264 v 2.28203 c -0.03407,-0.0453 -0.07088,-0.0892 -0.115238,-0.12867 -0.133442,-0.11861 -0.319418,-0.19947 -0.547254,-0.19947 -0.440972,0 -0.914064,0.20909 -1.286743,0.41237 -0.11273,0.0615 -0.211728,0.12066 -0.301273,0.17674 v -0.0543 -0.29042 -2.09393 a 0.26460982,0.26460982 0 0 0 0,-0.001 h 0.001 l -0.0036,-0.41444 c 0.107985,-0.0719 0.256869,-0.16524 0.430464,-0.25993 0.354926,-0.19359 0.807359,-0.38138 1.160136,-0.38138 z m 0,3.17035 c 0.16904,0 0.281237,0.053 0.371037,0.13281 0.07191,0.0639 0.124103,0.15077 0.166398,0.24288 -0.134934,-0.0655 -0.309279,-0.11007 -0.537435,-0.11007 -0.465804,0 -0.982372,0.1226 -1.365291,0.23409 0.06421,-0.0387 0.130865,-0.0783 0.205155,-0.11885 0.354926,-0.19359 0.807359,-0.38086 1.160136,-0.38086 z m 1.588017,0 c 0.352778,0 0.805211,0.18727 1.160136,0.38086 0.07439,0.0406 0.141254,0.0806 0.205672,0.11937 -0.382959,-0.11153 -0.899769,-0.23461 -1.365808,-0.23461 -0.228155,0 -0.402501,0.0446 -0.537435,0.11007 0.0423,-0.0921 0.09449,-0.17896 0.166398,-0.24288 0.0898,-0.0798 0.201998,-0.13281 0.371037,-0.13281 z m -1.588017,0.52917 c 0.367477,0 0.516326,0.11448 0.590145,0.21291 0.01439,0.0192 0.02384,0.0371 0.03307,0.0548 h -1.396814 -0.649056 c 0.374065,-0.11499 0.947059,-0.26768 1.422652,-0.26768 z m 1.588017,0 c 0.475685,0 1.049119,0.15271 1.423169,0.26768 h -0.365869 -0.264583 -1.413868 c 0.0094,-0.0176 0.01868,-0.0356 0.03307,-0.0548 0.07382,-0.0984 0.220601,-0.21291 0.588078,-0.21291 z"
       style="color:#000000;font-style:normal;font-variant:normal;font-weight:normal;font-stretch:normal;font-size:medium;line-height:normal;font-family:sans-serif;font-variant-ligatures:normal;font-variant-position:normal;font-variant-caps:normal;font-variant-numeric:normal;font-variant-alternates:normal;font-feature-settings:normal;text-indent:0;text-align:start;text-decoration:none;text-decoration-line:none;text-decoration-style:solid;text-decoration-color:#000000;letter-spacing:normal;word-spacing:normal;text-transform:none;writing-mode:lr-tb;direction:ltr;text-orientation:mixed;dominant-baseline:auto;baseline-shift:baseline;text-anchor:start;white-space:normal;shape-padding:0;clip-rule:nonzero;display:inline;overflow:visible;visibility:visible;opacity:1;isolation:auto;mix-blend-mode:normal;color-interpolation:sRGB;color-interpolation-filters:linearRGB;solid-color:#000000;solid-opacity:1;vector-effect:none;fill:#000000;fill-opacity:1;fill-rule:nonzero;stroke:none;stroke-width:0.26458335;stroke-linecap:round;stroke-linejoin:round;stroke-miterlimit:4;stroke-dasharray:none;stroke-dashoffset:0;stroke-opacity:1;color-rendering:auto;image-rendering:auto;shape-rendering:auto;text-rendering:auto;enable-background:accumulate"
       inkscape:connector-curvature="0" />
    <path
       style="color:#000000;font-style:normal;font-variant:normal;font-weight:normal;font-stretch:normal;font-size:medium;line-height:normal;font-family:sans-serif;font-variant-ligatures:normal;font-variant-position:normal;font-variant-caps:normal;font-variant-numeric:normal;font-variant-alternates:normal;font-feature-settings:normal;text-indent:0;text-align:start;text-decoration:none;text-decoration-line:none;text-decoration-style:solid;text-decoration-color:#000000;letter-spacing:normal;word-spacing:normal;text-transform:none;writing-mode:lr-tb;direction:ltr;text-orientation:mixed;dominant-baseline:auto;baseline-shift:baseline;text-anchor:start;white-space:normal;shape-padding:0;clip-rule:nonzero;display:inline;overflow:visible;visibility:visible;opacity:1;isolation:auto;mix-blend-mode:normal;color-interpolation:sRGB;color-interpolation-filters:linearRGB;solid-color:#000000;solid-opacity:1;vector-effect:none;fill:#000000;fill-opacity:1;fill-rule:nonzero;stroke:none;stroke-width:0.26458335;stroke-linecap:round;stroke-linejoin:round;stroke-miterlimit:4;stroke-dasharray:none;stroke-dashoffset:0;stroke-opacity:1;color-rendering:auto;image-rendering:auto;shape-rendering:auto;text-rendering:auto;enable-background:accumulate"
       d="m 2.3818031,291.44398 v 5.2e-4 c -0.4409722,0 -0.9140641,0.21116 -1.2867431,0.41444 -0.37267919,0.20328 -0.64492196,0.40618 -0.64492196,0.40618 -0.0259354,0.0197 -0.0437669,0.0482 -0.0501261,0.0801 l -0.10386965,0.29197 c -0.0214193,0.0398 -0.0322722,0.0845 -0.0315226,0.12971 v 2.09599 0.28836 h 5.1591e-4 l 5.1594e-4,0.50539 h 0.001035 c -5.2917e-4,0.008 -8.7577e-4,0.0162 -0.001035,0.0243 8.006e-5,0.0124 5.9796e-4,0.0248 0.00155,0.0372 0.001201,0.0175 0.003271,0.0349 0.006201,0.0522 0.002909,0.0176 0.006703,0.035 0.0113689,0.0522 0.004861,0.0168 0.0105521,0.0334 0.0170532,0.0496 0.006247,0.0165 0.0133181,0.0327 0.0211873,0.0486 0.008011,0.0158 0.0168071,0.0311 0.0263549,0.046 0.009599,0.015 0.0199475,0.0295 0.0310059,0.0434 0.010886,0.0137 0.0224412,0.0268 0.0346232,0.0393 0.0123066,0.0127 0.025242,0.0248 0.0387573,0.0362 0.0135795,0.0114 0.0277223,0.0221 0.0423747,0.032 0.014511,0.01 0.029516,0.0194 0.044959,0.0279 0.01547,0.008 0.031337,0.0156 0.047542,0.0222 0.016215,0.007 0.032773,0.0132 0.049609,0.0186 0.016998,0.005 0.034245,0.009 0.051676,0.0129 0.016071,0.003 0.032281,0.006 0.048576,0.007 h 0.055296 0.051676 5.159e-4 l 0.47800696,-5.3e-4 h 1.828312 c 0.00826,4e-4 0.016542,4e-4 0.024805,0 h 1.5854337 v 5.3e-4 h 0.79375 v -5.3e-4 h 0.017571 c 0.011732,-2.9e-4 0.023453,-9.8e-4 0.03514,-0.002 0.017523,-0.002 0.034944,-0.005 0.052193,-0.008 0.017441,-0.004 0.034688,-0.008 0.051677,-0.0134 0.016827,-0.005 0.033384,-0.0112 0.049609,-0.0181 0.016216,-0.007 0.032082,-0.0144 0.047542,-0.0227 0.015441,-0.009 0.030447,-0.0179 0.044958,-0.0279 0.014639,-0.01 0.028783,-0.0203 0.042375,-0.0315 0.013515,-0.0114 0.02645,-0.0235 0.038758,-0.0362 0.012195,-0.0127 0.023752,-0.026 0.034623,-0.0398 0.01106,-0.0139 0.021408,-0.0284 0.031006,-0.0434 0.00955,-0.0149 0.018344,-0.0302 0.026355,-0.046 0.00785,-0.0157 0.014925,-0.0317 0.021188,-0.0481 0.00652,-0.0164 0.012208,-0.0332 0.017052,-0.0501 0.00465,-0.017 0.00844,-0.0343 0.011369,-0.0517 0.00295,-0.0174 0.00502,-0.035 0.0062,-0.0527 9.525e-4,-0.0124 0.00148,-0.0248 0.00156,-0.0372 v -0.52917 h 0.00156 v -2.37711 c 7.673e-4,-0.047 -0.011001,-0.0934 -0.034106,-0.13435 l -0.098726,-0.27854 c -0.00374,-0.037 -0.022865,-0.0708 -0.05271,-0.093 0,0 -0.2717266,-0.20289 -0.6444052,-0.40618 -0.3726786,-0.20328 -0.8462878,-0.41444 -1.2872601,-0.41444 -0.2278356,0 -0.4132948,0.0809 -0.5467366,0.19947 -0.1160243,0.10313 -0.1926341,0.2311 -0.2470134,0.35864 -0.054383,-0.1276 -0.130932,-0.25546 -0.2470134,-0.35864 -0.133442,-0.11861 -0.3194176,-0.19947 -0.5472532,-0.19947 z m 1.5880166,0.26562 v 5.1e-4 c 0.3527777,0 0.8052107,0.18778 1.160136,0.38137 0.1734349,0.0946 0.3225417,0.18804 0.4309814,0.25994 l -0.00362,0.41651 h 5.292e-4 c -6.1e-6,0.001 -6.1e-6,0.002 0,0.003 v 2.11253 h -0.00156 v 0.26459 c -0.5292029,-0.26473 -1.0761864,-0.52286 -1.5864666,-0.53175 -0.2278356,0 -0.4132948,0.0809 -0.5467366,0.19947 -0.044218,0.0393 -0.081242,0.083 -0.1152384,0.12815 v -2.28668 c 4.762e-4,-0.007 4.762e-4,-0.0131 0,-0.0196 5.2e-6,-6.9e-4 5.2e-6,-10e-4 0,-0.002 0,0 0.00243,-0.24523 0.091467,-0.48266 0.044517,-0.11872 0.109669,-0.2323 0.1994689,-0.31212 0.089801,-0.0798 0.2019974,-0.13126 0.3710368,-0.13126 z m -1.5880166,5.1e-4 c 0.1690394,0 0.2812367,0.0514 0.3710368,0.13126 0.0898,0.0798 0.1549519,0.19341 0.1994709,0.31213 0.089038,0.23743 0.091984,0.48265 0.091984,0.48265 -8.732e-4,0.009 -8.732e-4,0.0176 0,0.0264 v 2.28203 c -0.034072,-0.0453 -0.070883,-0.0892 -0.1152385,-0.12867 -0.133442,-0.11861 -0.3194176,-0.19947 -0.5472532,-0.19947 -0.6160428,0.013 -1.0588864,0.26688 -1.58801694,0.53481 v -0.29042 -2.09393 -0.001 h 0.00103 l -0.00362,-0.41444 c 0.107985,-0.0719 0.25686974,-0.16524 0.43046484,-0.25993 0.3549256,-0.19359 0.8073581,-0.38138 1.1601359,-0.38138 z m 0,3.17035 c 0.1690394,0 0.2812367,0.053 0.3710368,0.13281 0.071906,0.0639 0.1241026,0.15077 0.166398,0.24288 -0.1349337,-0.0655 -0.3092792,-0.11007 -0.5374348,-0.11007 -0.4658043,0 -1.2051341,0.15492 -1.58805309,0.26641 0.52916669,-0.26458 1.07071509,-0.52199 1.58805309,-0.53203 z m 1.5880166,0 c 0.6069835,0.0648 1.0572637,0.26745 1.5864666,0.53227 -0.382959,-0.11153 -1.1204274,-0.26665 -1.5864666,-0.26665 -0.2281555,0 -0.4025011,0.0446 -0.5374349,0.11007 0.042296,-0.0921 0.094492,-0.17896 0.1663981,-0.24288 0.089801,-0.0798 0.2019974,-0.13281 0.3710368,-0.13281 z m -1.5880166,0.52917 c 0.3674766,0 0.5163259,0.11448 0.5901448,0.21291 0.014388,0.0192 0.023842,0.0371 0.033073,0.0548 h -1.396814 l -0.81445689,-2.7e-4 c 0.37406529,-0.11499 1.11246009,-0.26741 1.58805309,-0.26741 z m 1.5880166,0 c 0.4756849,0 1.2124161,0.15271 1.5864666,0.26768 H 5.0271196 4.7625363 3.3486691 c 0.00935,-0.0176 0.018685,-0.0356 0.033073,-0.0548 0.073819,-0.0984 0.2206011,-0.21291 0.5880777,-0.21291 z"
       id="path1093-3"
       inkscape:connector-curvature="0"
       sodipodi:nodetypes="ccsccccccccccccccccccccccccccccccccccccccccccccccccccccccccccsscccccccccccccccccccccccsccccccscccccccsssccccsccccssccccsscscccscsccc" />
  </g>
</svg>
