<?xml version="1.0" encoding="UTF-8" standalone="no"?>
<!-- Created with Inkscape (http://www.inkscape.org/) -->

<svg
   xmlns:dc="http://purl.org/dc/elements/1.1/"
   xmlns:cc="http://creativecommons.org/ns#"
   xmlns:rdf="http://www.w3.org/1999/02/22-rdf-syntax-ns#"
   xmlns:svg="http://www.w3.org/2000/svg"
   xmlns="http://www.w3.org/2000/svg"
   xmlns:sodipodi="http://sodipodi.sourceforge.net/DTD/sodipodi-0.dtd"
   xmlns:inkscape="http://www.inkscape.org/namespaces/inkscape"
   width="24"
   height="24"
   viewBox="0 0 6.3499999 6.3500002"
   version="1.1"
   id="svg8"
   inkscape:version="0.92.2 2405546, 2018-03-11"
   sodipodi:docname="kit_blue.svg">
  <defs
     id="defs2" />
  <sodipodi:namedview
     id="base"
     pagecolor="#ffffff"
     bordercolor="#666666"
     borderopacity="1.0"
     inkscape:pageopacity="0.0"
     inkscape:pageshadow="2"
     inkscape:zoom="15.999999"
     inkscape:cx="19.082484"
     inkscape:cy="16.021067"
     inkscape:document-units="px"
     inkscape:current-layer="layer1"
     showgrid="true"
     units="px"
     showguides="true"
     inkscape:guide-bbox="true"
     inkscape:window-width="1600"
     inkscape:window-height="836"
     inkscape:window-x="0"
     inkscape:window-y="27"
     inkscape:window-maximized="1"
     inkscape:snap-smooth-nodes="true"
     inkscape:snap-intersection-paths="true"
     inkscape:object-paths="true"
     inkscape:snap-grids="true"
     inkscape:snap-to-guides="false">
    <inkscape:grid
       type="xygrid"
       id="grid815"
       empcolor="#3f3fff"
       empopacity="0.16862745"
       color="#3f3fff"
       opacity="0.05490196" />
    <sodipodi:guide
       position="1.0583333,7.6729167"
       orientation="1,0"
       id="guide817"
       inkscape:locked="false"
       inkscape:label=""
       inkscape:color="rgb(0,0,255)" />
    <sodipodi:guide
       position="5.55625,5.2916667"
       orientation="0,1"
       id="guide819"
       inkscape:locked="false"
       inkscape:label=""
       inkscape:color="rgb(0,0,255)" />
    <sodipodi:guide
       position="5.2916667,1.8520833"
       orientation="1,0"
       id="guide821"
       inkscape:locked="false"
       inkscape:label=""
       inkscape:color="rgb(0,0,255)" />
    <sodipodi:guide
       position="6.0854165,1.0583333"
       orientation="0,1"
       id="guide823"
       inkscape:locked="false"
       inkscape:label=""
       inkscape:color="rgb(0,0,255)" />
  </sodipodi:namedview>
  <metadata
     id="metadata5">
    <rdf:RDF>
      <cc:Work
         rdf:about="">
        <dc:format>image/svg+xml</dc:format>
        <dc:type
           rdf:resource="http://purl.org/dc/dcmitype/StillImage" />
        <dc:title />
      </cc:Work>
    </rdf:RDF>
  </metadata>
  <g
     inkscape:label="Layer 1"
     inkscape:groupmode="layer"
     id="layer1"
     transform="translate(0,-290.64999)">
    <path
       style="color:#000000;font-style:normal;font-variant:normal;font-weight:normal;font-stretch:normal;font-size:medium;line-height:normal;font-family:sans-serif;font-variant-ligatures:normal;font-variant-position:normal;font-variant-caps:normal;font-variant-numeric:normal;font-variant-alternates:normal;font-feature-settings:normal;text-indent:0;text-align:start;text-decoration:none;text-decoration-line:none;text-decoration-style:solid;text-decoration-color:#000000;letter-spacing:normal;word-spacing:normal;text-transform:none;writing-mode:lr-tb;direction:ltr;text-orientation:mixed;dominant-baseline:auto;baseline-shift:baseline;text-anchor:start;white-space:normal;shape-padding:0;clip-rule:nonzero;display:inline;overflow:visible;visibility:visible;opacity:1;isolation:auto;mix-blend-mode:normal;color-interpolation:sRGB;color-interpolation-filters:linearRGB;solid-color:#000000;solid-opacity:1;vector-effect:none;fill:#007aff;fill-opacity:1;fill-rule:nonzero;stroke:none;stroke-width:0.26458335;stroke-linecap:round;stroke-linejoin:round;stroke-miterlimit:4;stroke-dasharray:none;stroke-dashoffset:0;stroke-opacity:1;color-rendering:auto;image-rendering:auto;shape-rendering:auto;text-rendering:auto;enable-background:accumulate"
       d="m 2.3818032,291.44398 v 5.2e-4 c -0.4409721,0 -0.9140641,0.21116 -1.286743,0.41444 -0.37267916,0.20328 -0.64492196,0.40618 -0.64492196,0.40618 -0.025935,0.0197 -0.043767,0.0482 -0.050126,0.0801 l -0.1038696,0.29197 c -0.021419,0.0398 -0.032272,0.0845 -0.031523,0.12971 v 2.09599 0.28836 h 5.159e-4 l 5.159e-4,0.50539 h 0.00103 c -5.292e-4,0.008 -8.758e-4,0.0162 -0.00103,0.0243 8.01e-5,0.0124 5.98e-4,0.0248 0.00155,0.0372 0.0012,0.0175 0.00327,0.0349 0.0062,0.0522 0.00291,0.0176 0.0067,0.035 0.011369,0.0522 0.00486,0.0168 0.010552,0.0334 0.017053,0.0496 0.00625,0.0165 0.013318,0.0327 0.021187,0.0486 0.00801,0.0158 0.016807,0.0311 0.026355,0.046 0.0096,0.015 0.019948,0.0295 0.031006,0.0434 0.010886,0.0137 0.022441,0.0268 0.034623,0.0393 0.012307,0.0127 0.025242,0.0248 0.038757,0.0362 0.01358,0.0114 0.027722,0.0221 0.042375,0.032 0.014511,0.01 0.029516,0.0194 0.044959,0.0279 0.01547,0.008 0.031337,0.0156 0.047542,0.0222 0.016215,0.007 0.032773,0.0132 0.049609,0.0186 0.016998,0.005 0.034245,0.009 0.051676,0.0129 0.016071,0.003 0.032281,0.006 0.048576,0.007 h 0.055296 0.051676 5.16e-4 l 0.47800686,-5.3e-4 h 1.8283118 c 0.00826,4e-4 0.016542,4e-4 0.024805,0 h 1.5854336 v 5.3e-4 h 0.79375 v -5.3e-4 h 0.017571 c 0.011732,-2.9e-4 0.023453,-9.8e-4 0.03514,-0.002 0.017523,-0.002 0.034944,-0.005 0.052193,-0.008 0.017441,-0.004 0.034688,-0.008 0.051677,-0.0134 0.016828,-0.005 0.033384,-0.0112 0.049609,-0.0181 0.016216,-0.007 0.032082,-0.0144 0.047542,-0.0227 0.015441,-0.009 0.030447,-0.0179 0.044958,-0.0279 0.014639,-0.01 0.028783,-0.0203 0.042375,-0.0315 0.013515,-0.0114 0.02645,-0.0235 0.038758,-0.0362 0.012195,-0.0127 0.023752,-0.026 0.034623,-0.0398 0.01106,-0.0139 0.021407,-0.0284 0.031006,-0.0434 0.00955,-0.0149 0.018344,-0.0302 0.026355,-0.046 0.00785,-0.0157 0.014925,-0.0317 0.021188,-0.0481 0.00652,-0.0164 0.012208,-0.0332 0.017052,-0.0501 0.00465,-0.017 0.00844,-0.0343 0.011369,-0.0517 0.00295,-0.0174 0.00502,-0.035 0.0062,-0.0527 9.525e-4,-0.0124 0.00148,-0.0248 0.00156,-0.0372 v -0.52917 h 0.00156 v -2.3771 c 7.673e-4,-0.047 -0.011001,-0.0934 -0.034106,-0.13435 l -0.098727,-0.27854 c -0.00374,-0.037 -0.022865,-0.0708 -0.05271,-0.093 0,0 -0.2717266,-0.20289 -0.6444051,-0.40618 -0.3726786,-0.20328 -0.8462878,-0.41444 -1.2872601,-0.41444 -0.2278357,0 -0.4132948,0.0809 -0.5467366,0.19947 -0.1160243,0.10313 -0.1926342,0.2311 -0.2470135,0.35864 -0.054383,-0.1276 -0.1309319,-0.25546 -0.2470134,-0.35864 -0.1334402,-0.11861 -0.3194158,-0.19947 -0.5472515,-0.19947 z m 1.5880167,0.26562 v 5.1e-4 c 0.3527777,0 0.8052107,0.18778 1.160136,0.38137 0.1734349,0.0946 0.3225417,0.18804 0.4309814,0.25994 l -0.00362,0.41651 h 5.292e-4 c -6.1e-6,0.001 -6.1e-6,0.002 0,0.003 v 2.11253 h -0.00156 v 0.26459 c -0.529203,-0.26473 -1.0761864,-0.52286 -1.5864666,-0.53175 -0.2278356,0 -0.4132948,0.0809 -0.5467366,0.19947 -0.044218,0.0393 -0.081242,0.083 -0.1152385,0.12815 v -2.28668 c 4.763e-4,-0.007 4.763e-4,-0.0131 0,-0.0196 5.3e-6,-6.9e-4 5.3e-6,-10e-4 0,-0.002 0,0 0.00243,-0.24523 0.091467,-0.48266 0.044517,-0.11872 0.109669,-0.2323 0.1994689,-0.31212 0.089801,-0.0798 0.2019974,-0.13126 0.3710368,-0.13126 z m -1.5880167,5.1e-4 c 0.1690395,0 0.2812368,0.0514 0.3710368,0.13126 0.0898,0.0798 0.1549519,0.19341 0.199471,0.31213 0.089038,0.23743 0.091984,0.48265 0.091984,0.48265 -8.732e-4,0.009 -8.732e-4,0.0176 0,0.0264 v 2.28203 c -0.034072,-0.0453 -0.070883,-0.0892 -0.1152385,-0.12867 -0.1334421,-0.11861 -0.3194177,-0.19947 -0.5472533,-0.19947 -0.6160428,0.013 -1.0588863,0.26688 -1.58801686,0.53481 v -0.29042 -2.09393 -0.001 h 0.00103 l -0.00362,-0.41444 c 0.107985,-0.0719 0.25686966,-0.16524 0.43046476,-0.25993 0.3549256,-0.19359 0.8073582,-0.38138 1.160136,-0.38138 z m 0,3.17035 c 0.1690395,0 0.2812368,0.053 0.3710368,0.13281 0.071906,0.0639 0.1241026,0.15077 0.1663981,0.24288 -0.1349338,-0.0655 -0.3092793,-0.11007 -0.5374349,-0.11007 -0.4658042,0 -1.205134,0.15492 -1.58805296,0.26641 0.52916666,-0.26458 1.07071496,-0.52199 1.58805296,-0.53203 z m 1.5880167,0 c 0.6069835,0.0648 1.0572636,0.26745 1.5864666,0.53227 -0.382959,-0.11153 -1.1204274,-0.26665 -1.5864666,-0.26665 -0.2281555,0 -0.4025011,0.0446 -0.5374349,0.11007 0.042296,-0.0921 0.094492,-0.17896 0.1663981,-0.24288 0.089801,-0.0798 0.2019974,-0.13281 0.3710368,-0.13281 z m -1.5880167,0.52917 c 0.3674766,0 0.516326,0.11448 0.5901449,0.21291 0.014388,0.0192 0.023842,0.0371 0.033073,0.0548 h -1.396814 l -0.81445686,-2.7e-4 c 0.37406526,-0.11499 1.11246006,-0.26741 1.58805296,-0.26741 z m 1.5880167,0 c 0.4756849,0 1.2124161,0.15271 1.5864666,0.26768 H 5.0271198 4.7625365 3.3486693 c 0.00935,-0.0176 0.018685,-0.0356 0.033073,-0.0548 0.073819,-0.0984 0.2206011,-0.21291 0.5880777,-0.21291 z"
       id="path1093-3"
       inkscape:connector-curvature="0"
       sodipodi:nodetypes="ccsccccccccccccccccccccccccccccccccccccccccccccccccccccccccccsscccccccccccccccccccccccsccccccscccccccsssccccsccccssccccsscscccscsccc" />
  </g>
</svg>
