<?xml version="1.0" encoding="UTF-8" standalone="no"?>
<!-- Created with Inkscape (http://www.inkscape.org/) -->

<svg
   xmlns:dc="http://purl.org/dc/elements/1.1/"
   xmlns:cc="http://creativecommons.org/ns#"
   xmlns:rdf="http://www.w3.org/1999/02/22-rdf-syntax-ns#"
   xmlns:svg="http://www.w3.org/2000/svg"
   xmlns="http://www.w3.org/2000/svg"
   xmlns:xlink="http://www.w3.org/1999/xlink"
   xmlns:sodipodi="http://sodipodi.sourceforge.net/DTD/sodipodi-0.dtd"
   xmlns:inkscape="http://www.inkscape.org/namespaces/inkscape"
   width="75.775154mm"
   height="17.319216mm"
   viewBox="0 0 75.775154 17.319216"
   version="1.1"
   id="svg2158"
   inkscape:version="0.92.4 5da689c313, 2019-01-14"
   sodipodi:docname="brand.svg">
  <defs
     id="defs2152">
    <linearGradient
       inkscape:collect="always"
       xlink:href="#linearGradient1800"
       id="linearGradient1872"
       gradientUnits="userSpaceOnUse"
       gradientTransform="matrix(1.0656168,0,0,1.0656168,437.81223,237.37874)"
       x1="1202.8456"
       y1="1616.8445"
       x2="1212.9313"
       y2="1599.3756" />
    <linearGradient
       id="linearGradient1800"
       inkscape:collect="always">
      <stop
         id="stop1796"
         offset="0"
         style="stop-color:#0068d9;stop-opacity:1" />
      <stop
         id="stop1798"
         offset="1"
         style="stop-color:#187aff;stop-opacity:1" />
    </linearGradient>
    <linearGradient
       inkscape:collect="always"
       xlink:href="#linearGradient1597"
       id="linearGradient1874"
       gradientUnits="userSpaceOnUse"
       gradientTransform="matrix(1.5355462,-0.20872025,0.20872025,1.5355462,27.386817,419.17845)"
       x1="951.22632"
       y1="1118.3276"
       x2="954.56744"
       y2="1132.2797" />
    <linearGradient
       id="linearGradient1597"
       inkscape:collect="always">
      <stop
         id="stop1593"
         offset="0"
         style="stop-color:#406eff;stop-opacity:1" />
      <stop
         id="stop1595"
         offset="1"
         style="stop-color:#4fc3ff;stop-opacity:1" />
    </linearGradient>
    <linearGradient
       inkscape:collect="always"
       xlink:href="#linearGradient1777"
       id="linearGradient1876"
       gradientUnits="userSpaceOnUse"
       gradientTransform="matrix(0.28194445,0,0,0.28194445,437.81223,360.87045)"
       x1="4569.4365"
       y1="5651.4922"
       x2="4567.5679"
       y2="5658.4663" />
    <linearGradient
       id="linearGradient1777"
       inkscape:collect="always">
      <stop
         id="stop1772"
         offset="0"
         style="stop-color:#0068d9;stop-opacity:1" />
      <stop
         id="stop1774"
         offset="1"
         style="stop-color:#007aff;stop-opacity:0.117" />
    </linearGradient>
  </defs>
  <sodipodi:namedview
     id="base"
     pagecolor="#ffffff"
     bordercolor="#666666"
     borderopacity="1.0"
     inkscape:pageopacity="0.0"
     inkscape:pageshadow="2"
     inkscape:zoom="2.8"
     inkscape:cx="174.4604"
     inkscape:cy="46.468207"
     inkscape:document-units="mm"
     inkscape:current-layer="layer1"
     showgrid="false"
     inkscape:window-width="1600"
     inkscape:window-height="836"
     inkscape:window-x="0"
     inkscape:window-y="27"
     inkscape:window-maximized="1"
     fit-margin-top="0"
     fit-margin-left="0"
     fit-margin-right="0"
     fit-margin-bottom="0" />
  <metadata
     id="metadata2155">
    <rdf:RDF>
      <cc:Work
         rdf:about="">
        <dc:format>image/svg+xml</dc:format>
        <dc:type
           rdf:resource="http://purl.org/dc/dcmitype/StillImage" />
        <dc:title></dc:title>
      </cc:Work>
    </rdf:RDF>
  </metadata>
  <g
     inkscape:label="Layer 1"
     inkscape:groupmode="layer"
     id="layer1"
     transform="translate(11.702477,-100.96276)">
    <g
       id="g881"
       transform="translate(60.854167,32.883929)">
      <g
         id="g1863"
         transform="matrix(1.0076724,0,0,1.0076724,-1636.5613,-1883.1464)">
        <g
           id="g1861"
           transform="translate(-164.04216,-4.7625006)">
          <path
             style="color:#000000;font-style:normal;font-variant:normal;font-weight:normal;font-stretch:normal;font-size:medium;line-height:normal;font-family:sans-serif;font-variant-ligatures:normal;font-variant-position:normal;font-variant-caps:normal;font-variant-numeric:normal;font-variant-alternates:normal;font-feature-settings:normal;text-indent:0;text-align:start;text-decoration:none;text-decoration-line:none;text-decoration-style:solid;text-decoration-color:#000000;letter-spacing:normal;word-spacing:normal;text-transform:none;writing-mode:lr-tb;direction:ltr;text-orientation:mixed;dominant-baseline:auto;baseline-shift:baseline;text-anchor:start;white-space:normal;shape-padding:0;clip-rule:nonzero;display:inline;overflow:visible;visibility:visible;opacity:1;isolation:auto;mix-blend-mode:normal;color-interpolation:sRGB;color-interpolation-filters:linearRGB;solid-color:#000000;solid-opacity:1;vector-effect:none;fill:url(#linearGradient1872);fill-opacity:1;fill-rule:nonzero;stroke:none;stroke-width:1.17894626;stroke-linecap:round;stroke-linejoin:miter;stroke-miterlimit:4;stroke-dasharray:none;stroke-dashoffset:0;stroke-opacity:1;color-rendering:auto;image-rendering:auto;shape-rendering:auto;text-rendering:auto;enable-background:accumulate"
             d="m 1724.4831,1941.6603 c -0.3048,0.06 -1.7398,0.012 -2.0275,0.096 1.3059,0.1596 3.2129,0.3254 3.6469,1.4554 0.064,-0.1873 0.012,-0.2952 0,-0.5093 -0.042,-0.5287 -0.756,-0.8599 -1.619,-1.0462 z m 0.3579,1.5182 c -0.098,0.1206 -0.2218,0.2371 -0.3667,0.3386 -1.0196,0.7143 -2.682,0.722 -4.031,0.7891 -0.2566,0 -0.3034,0.4805 -0.2177,0.5103 1.3542,0.098 2.8507,0.1989 4.245,-0.5594 0.5366,-0.2918 0.7711,-0.9618 0.4851,-1.306 -0.015,-0.012 -0.099,0.2391 -0.1138,0.2274 z m 4.638,0.022 c -0.096,0.5706 -0.4501,1.5742 -0.7062,2.0178 -0.5906,0.078 -0.2578,0.6623 -0.047,0.6136 0.6426,-0.9403 1.0293,-1.546 0.7532,-2.6314 z m -13.3267,2.9245 c -0.09,0.6701 0.2715,1.2553 0.7665,1.5929 0.559,0.3814 1.6417,0.7746 2.3508,0.8605 0.9895,0.1199 2.5117,0.1277 2.9346,0.025 0.4276,-0.1023 0.122,-0.2971 -0.085,-0.3525 -0.2072,-0.056 -1.3249,0.1422 -2.8062,-0.1095 -1.4813,-0.2517 -2.2282,-0.7145 -2.5628,-1.0386 -0.239,-0.2725 -0.5201,-0.7081 -0.5991,-0.9774 z m 15.2103,0.8761 c -0.044,1.0629 -0.2535,2.1641 -0.6817,3.1669 -0.6419,1.5031 -1.9306,2.8317 -3.5095,3.5754 -0.4026,0.1895 -0.4036,0.1517 -0.4526,0.5287 -0.015,0.1215 -0.032,0.3335 -0.016,0.6755 0.039,-0.2717 0.092,-0.2731 0.4544,-0.4438 1.5788,-0.7437 2.8831,-1.9857 3.525,-3.4889 0.5435,-1.2727 0.7358,-2.7037 0.6817,-4.0138 z m -14.524,1.5711 c 0.7688,2.7703 2.0424,4.4805 3.3223,5.2555 1.2799,0.775 2.5411,0.9486 3.8988,1.1711 1.0087,0.1791 0.8585,0.3 1.042,0.6212 0.1805,0.3056 0.3044,1.5418 0.5516,2.0311 0.247,0.4893 1.1324,0.4253 1.1734,-0.2848 0.011,-0.1341 0,0.1586 -0.018,-0.153 -0.1351,0.5859 -0.9243,0.048 -1.1553,-0.4092 -0.2472,-0.4892 -0.477,-1.3797 -0.6575,-1.6853 -0.1804,-0.3056 -0.1891,-0.763 -1.1978,-0.942 -1.3577,-0.2225 -2.2152,-0.3518 -3.6371,-1.1966 -1.2263,-0.7569 -2.2698,-1.9381 -3.0266,-4.0947 -0.1116,-0.034 -0.2248,-0.2834 -0.2957,-0.3133 z"
             id="path1855"
             inkscape:connector-curvature="0"
             sodipodi:nodetypes="ccccccccccscccccccccsssccccccccccccccczccccccccccc" />
          <path
             sodipodi:nodetypes="cssscssssczzzzzczczcccsscsssscc"
             style="color:#000000;font-style:normal;font-variant:normal;font-weight:normal;font-stretch:normal;font-size:medium;line-height:normal;font-family:sans-serif;font-variant-ligatures:normal;font-variant-position:normal;font-variant-caps:normal;font-variant-numeric:normal;font-variant-alternates:normal;font-feature-settings:normal;text-indent:0;text-align:start;text-decoration:none;text-decoration-line:none;text-decoration-style:solid;text-decoration-color:#000000;letter-spacing:normal;word-spacing:normal;text-transform:none;writing-mode:lr-tb;direction:ltr;text-orientation:mixed;dominant-baseline:auto;baseline-shift:baseline;text-anchor:start;white-space:normal;shape-padding:0;clip-rule:nonzero;display:inline;overflow:visible;visibility:visible;opacity:1;isolation:auto;mix-blend-mode:normal;color-interpolation:sRGB;color-interpolation-filters:linearRGB;solid-color:#000000;solid-opacity:1;vector-effect:none;fill:url(#linearGradient1874);fill-opacity:1;fill-rule:nonzero;stroke:none;stroke-width:1.17894626;stroke-linecap:round;stroke-linejoin:miter;stroke-miterlimit:4;stroke-dasharray:none;stroke-dashoffset:0;stroke-opacity:1;color-rendering:auto;image-rendering:auto;shape-rendering:auto;text-rendering:auto;enable-background:accumulate"
             d="m 1722.4546,1941.7562 c 1.409,-0.036 3.5742,0.2977 3.6472,1.2339 0.09,1.1458 -1.1712,1.9298 -1.7516,2.1185 -1.7979,0.5846 -3.4426,0.2543 -3.9518,0.078 -0.085,-0.03 -0.2119,-0.3602 0.045,-0.3602 1.349,-0.067 3.0118,-0.075 4.0314,-0.7889 0.4905,-0.3434 0.781,-0.8513 0.414,-1.1519 -0.4609,-0.3774 -1.0947,-0.6824 -1.5093,-0.7997 -0.6259,-0.1771 -1.3604,-0.4686 -2.8264,-0.07 -1.6576,0.4503 -4.2002,2.2083 -4.3991,4.0558 -0.02,0.7241 0.2626,0.9915 0.5972,1.3156 0.3346,0.324 1.0818,0.7868 2.5631,1.0385 1.4813,0.2517 2.5988,0.053 2.8061,0.1093 0.2073,0.055 0.011,0.3557 -0.4169,0.4583 -0.4228,0.1023 -1.4691,0.1623 -2.4621,0.076 -0.9929,-0.086 -2.0221,-0.3386 -2.4025,-0.4958 0.7688,2.7703 2.1853,4.352 3.3221,5.0403 1.1368,0.6883 2.2797,0.9739 3.6374,1.1964 1.0087,0.1791 1.0173,0.2876 1.1977,0.5932 0.1805,0.3056 0.4103,2.1088 0.6575,2.5981 0.247,0.4893 1.1325,0.4252 1.1735,-0.2849 0.031,-0.4629 -0.1551,-2.4281 -0.1082,-2.8107 0.049,-0.3771 0.05,-0.3391 0.4526,-0.5286 1.5788,-0.7437 2.8678,-2.0727 3.5097,-3.5759 1.0198,-2.3879 0.8105,-5.3374 0.037,-6.9882 -0.5594,0.858 -0.944,1.4937 -1.6399,1.8475 -0.1447,0.073 -0.485,0.051 -0.3052,-0.158 0.4403,-0.5126 0.7781,-1.1068 0.7781,-1.9432 0,-0.8885 -0.9921,-1.7923 -1.8944,-2.1863 -0.7799,-0.3405 -2.7127,-0.411 -5.2012,0.3836 z"
             id="path1857"
             inkscape:connector-curvature="0" />
          <path
             id="path1859"
             d="m 1727.1714,1954.3764 c -0.3313,0.1485 -1.1753,0.3507 -1.4702,0.3976 -0.2948,0.047 -1.2933,0.1461 -1.5673,0.1001 l 0.011,0.011 c 0.6328,0.1401 0.7,0.2588 0.854,0.5198 0.053,0.091 0.1124,0.3261 0.1735,0.6057 0.011,0 0.5887,-0.1367 0.8491,-0.2825 0.2619,-0.1466 0.69,-0.581 0.69,-0.581 v -0.011 c -10e-4,-0.1002 9e-4,-0.1835 0.011,-0.2347 0.049,-0.3771 0.089,-0.2728 0.4526,-0.5286 z"
             style="opacity:1;fill:url(#linearGradient1876);fill-opacity:1;stroke:none;stroke-width:0.28194445px;stroke-linecap:butt;stroke-linejoin:miter;stroke-opacity:1"
             inkscape:connector-curvature="0" />
        </g>
      </g>
      <g
         aria-label="Flamous"
         style="font-style:normal;font-variant:normal;font-weight:500;font-stretch:normal;font-size:14.32174587px;line-height:1.25;font-family:inter;-inkscape-font-specification:'inter Medium';letter-spacing:-0.34395832px;word-spacing:0px;fill:#000000;fill-opacity:1;stroke:none;stroke-width:0.71974331"
         id="text1867">
        <path
           d="M -50.448454,81.413078 V 70.997263 h 6.459026 v 1.352835 h -4.887499 v 3.173569 h 4.424687 v 1.34775 h -4.424687 v 4.541661 z"
           style="font-style:normal;font-variant:normal;font-weight:500;font-stretch:normal;font-family:inter;-inkscape-font-specification:'inter Medium';letter-spacing:-0.34395832px;word-spacing:0px;stroke-width:0.71974331"
           id="path883" />
        <path
           d="m -41.002156,70.997263 v 10.415815 h -1.520668 V 70.997263 Z"
           style="font-style:normal;font-variant:normal;font-weight:500;font-stretch:normal;font-family:inter;-inkscape-font-specification:'inter Medium';letter-spacing:-0.34395832px;word-spacing:0px;stroke-width:0.71974331"
           id="path885" />
        <path
           d="m -37.040945,81.585997 q -0.742533,0 -1.342663,-0.274636 -0.60013,-0.279721 -0.951054,-0.808649 -0.345837,-0.528928 -0.345837,-1.296891 0,-0.661161 0.254292,-1.088372 0.254292,-0.427211 0.686589,-0.676417 0.432297,-0.249207 0.966311,-0.376353 0.534014,-0.127146 1.088372,-0.193262 0.701847,-0.08137 1.13923,-0.132232 0.437382,-0.05595 0.63573,-0.178005 0.198348,-0.12206 0.198348,-0.396696 v -0.0356 q 0,-0.666246 -0.376352,-1.032427 -0.371267,-0.366181 -1.108715,-0.366181 -0.767963,0 -1.210432,0.340752 -0.437382,0.335666 -0.605215,0.747619 l -1.429123,-0.325494 q 0.254292,-0.712019 0.742533,-1.149401 0.493327,-0.442469 1.134144,-0.640817 0.640817,-0.203434 1.34775,-0.203434 0.467898,0 0.99174,0.111889 0.528928,0.106802 0.986654,0.396696 0.462812,0.289893 0.757792,0.828993 0.294979,0.534014 0.294979,1.388436 v 5.187564 H -34.67094 V 80.34505 h -0.06103 q -0.147489,0.29498 -0.442469,0.579787 -0.294979,0.284807 -0.757791,0.472984 -0.462812,0.188176 -1.108715,0.188176 z m 0.33058,-1.220603 q 0.630646,0 1.0782,-0.249207 0.452641,-0.249206 0.686589,-0.650988 0.239035,-0.406868 0.239035,-0.86968 v -1.006998 q -0.08137,0.08137 -0.315322,0.152576 -0.228863,0.06612 -0.523842,0.116974 -0.29498,0.04577 -0.574701,0.08646 -0.279722,0.0356 -0.467898,0.06103 -0.442469,0.05594 -0.80865,0.188176 -0.361095,0.132232 -0.579786,0.381439 -0.213606,0.24412 -0.213606,0.650988 0,0.564529 0.417039,0.854422 0.41704,0.284808 1.062942,0.284808 z"
           style="font-style:normal;font-variant:normal;font-weight:500;font-stretch:normal;font-family:inter;-inkscape-font-specification:'inter Medium';letter-spacing:-0.34395832px;word-spacing:0px;stroke-width:0.71974331"
           id="path887" />
        <path
           d="m -31.518379,81.413078 v -7.811861 h 1.459638 v 1.271462 h 0.09663 q 0.244121,-0.645903 0.798478,-1.006998 0.554358,-0.366181 1.327407,-0.366181 0.78322,0 1.312148,0.366181 0.534014,0.366181 0.788306,1.006998 h 0.08137 q 0.279722,-0.625559 0.890023,-0.996826 0.610302,-0.376353 1.454553,-0.376353 1.062942,0 1.734274,0.666246 0.676417,0.666246 0.676417,2.00891 v 5.238422 h -1.520668 v -5.096019 q 0,-0.793392 -0.432297,-1.149401 -0.432297,-0.356009 -1.032427,-0.356009 -0.742534,0 -1.154487,0.457726 -0.411954,0.45264 -0.411954,1.164659 v 4.979044 h -1.515583 v -5.19265 q 0,-0.635731 -0.396696,-1.022255 -0.396696,-0.386524 -1.032427,-0.386524 -0.432297,0 -0.798478,0.228863 -0.361095,0.223777 -0.584872,0.625559 -0.218692,0.401782 -0.218692,0.93071 v 4.816297 z"
           style="font-style:normal;font-variant:normal;font-weight:500;font-stretch:normal;font-family:inter;-inkscape-font-specification:'inter Medium';letter-spacing:-0.34395832px;word-spacing:0px;stroke-width:0.71974331"
           id="path889" />
        <path
           d="m -15.928378,81.57074 q -1.098543,0 -1.917365,-0.503499 -0.818821,-0.503499 -1.271461,-1.40878 -0.452641,-0.905281 -0.452641,-2.115712 0,-1.215518 0.452641,-2.125885 0.45264,-0.910366 1.271461,-1.413865 0.818822,-0.503499 1.917365,-0.503499 1.098543,0 1.917364,0.503499 0.818822,0.503499 1.271462,1.413865 0.452641,0.910367 0.452641,2.125885 0,1.210431 -0.452641,2.115712 -0.45264,0.905281 -1.271462,1.40878 -0.818821,0.503499 -1.917364,0.503499 z m 0.0051,-1.276548 q 0.712018,0 1.179916,-0.376353 0.467898,-0.376352 0.691676,-1.001912 0.228863,-0.625559 0.228863,-1.378264 0,-0.74762 -0.228863,-1.373179 -0.223778,-0.630645 -0.691676,-1.012084 -0.467898,-0.381438 -1.179916,-0.381438 -0.717105,0 -1.190089,0.381438 -0.467897,0.381439 -0.696761,1.012084 -0.223777,0.625559 -0.223777,1.373179 0,0.752705 0.223777,1.378264 0.228864,0.62556 0.696761,1.001912 0.472984,0.376353 1.190089,0.376353 z"
           style="font-style:normal;font-variant:normal;font-weight:500;font-stretch:normal;font-family:inter;-inkscape-font-specification:'inter Medium';letter-spacing:-0.34395832px;word-spacing:0px;stroke-width:0.71974331"
           id="path891" />
        <path
           d="m -5.9989228,78.173394 v -4.572177 h 1.5257542 v 7.811861 h -1.4952391 v -1.352835 h -0.081374 q -0.2695499,0.625559 -0.864594,1.042599 -0.5899583,0.411953 -1.4698099,0.411953 -0.7527054,0 -1.332492,-0.33058 -0.5747008,-0.335666 -0.9052808,-0.99174 -0.325494,-0.656074 -0.325494,-1.622385 v -4.968873 h 1.5206681 v 4.785782 q 0,0.798478 0.4424688,1.271462 0.4424687,0.472984 1.1494014,0.472984 0.4272112,0 0.8493365,-0.213606 0.4272112,-0.213605 0.7069328,-0.645902 0.2848074,-0.432297 0.2797216,-1.098543 z"
           style="font-style:normal;font-variant:normal;font-weight:500;font-stretch:normal;font-family:inter;-inkscape-font-specification:'inter Medium';letter-spacing:-0.34395832px;word-spacing:0px;stroke-width:0.71974331"
           id="path893" />
        <path
           d="M 3.0659344,75.50841 1.6876698,75.75253 Q 1.5554378,75.355834 1.1943426,75.03034 0.83833332,74.704846 0.1263147,74.704846 q -0.6459026,0 -1.07819962,0.289893 -0.43229698,0.284808 -0.43229698,0.737448 0,0.39161 0.2898933,0.630645 0.28989326,0.239035 0.93579586,0.39161 L 1.082454,77.03925 q 1.0781996,0.249206 1.6071277,0.767963 0.5289281,0.518756 0.5289281,1.347749 0,0.701847 -0.4068677,1.251119 -0.401782,0.544185 -1.1239723,0.854422 -0.71710445,0.310237 -1.66307204,0.310237 -1.31214856,0 -2.14114166,-0.559444 -0.8289931,-0.564529 -1.0171695,-1.602042 l 1.4698099,-0.223777 q 0.1373178,0.574701 0.564529,0.86968 0.42721118,0.289893 1.11380056,0.289893 0.74761955,0 1.19517414,-0.310236 0.4475545,-0.315323 0.4475545,-0.767963 0,-0.742534 -1.10362883,-0.99174 L -0.76879441,77.985217 Q -1.8622516,77.736011 -2.3860938,77.191825 -2.9048503,76.647639 -2.9048503,75.81356 q 0,-0.691675 0.3865244,-1.210431 0.3865244,-0.518757 1.068028,-0.80865 0.68150349,-0.294979 1.56135506,-0.294979 1.26637594,0 1.99365214,0.549271 0.7272761,0.544186 0.9612251,1.459639 z"
           style="font-style:normal;font-variant:normal;font-weight:500;font-stretch:normal;font-family:inter;-inkscape-font-specification:'inter Medium';letter-spacing:-0.34395832px;word-spacing:0px;stroke-width:0.71974331"
           id="path895" />
      </g>
    </g>
  </g>
</svg>
