<?xml version="1.0" encoding="UTF-8" standalone="no"?>
<!-- Created with Inkscape (http://www.inkscape.org/) -->

<svg
   xmlns:dc="http://purl.org/dc/elements/1.1/"
   xmlns:cc="http://creativecommons.org/ns#"
   xmlns:rdf="http://www.w3.org/1999/02/22-rdf-syntax-ns#"
   xmlns:svg="http://www.w3.org/2000/svg"
   xmlns="http://www.w3.org/2000/svg"
   xmlns:xlink="http://www.w3.org/1999/xlink"
   xmlns:sodipodi="http://sodipodi.sourceforge.net/DTD/sodipodi-0.dtd"
   xmlns:inkscape="http://www.inkscape.org/namespaces/inkscape"
   width="48"
   height="48"
   viewBox="0 0 48.000001 48.000001"
   version="1.1"
   id="svg8"
   inkscape:version="0.92.4 5da689c313, 2019-01-14"
   sodipodi:docname="artist_placeholder.svg">
  <defs
     id="defs2">
    <linearGradient
       inkscape:collect="always"
       id="linearGradient866">
      <stop
         style="stop-color:#00c489;stop-opacity:1"
         offset="0"
         id="stop862" />
      <stop
         style="stop-color:#ff893b;stop-opacity:1"
         offset="1"
         id="stop864" />
    </linearGradient>
    <linearGradient
       inkscape:collect="always"
       xlink:href="#linearGradient866"
       id="linearGradient868"
       x1="-89.378906"
       y1="8.3632812"
       x2="-35.914619"
       y2="61.827568"
       gradientUnits="userSpaceOnUse" />
  </defs>
  <sodipodi:namedview
     id="base"
     pagecolor="#ffffff"
     bordercolor="#666666"
     borderopacity="1.0"
     inkscape:pageopacity="0.0"
     inkscape:pageshadow="2"
     inkscape:zoom="5.6000001"
     inkscape:cx="11.855126"
     inkscape:cy="23.703333"
     inkscape:document-units="px"
     inkscape:current-layer="layer1"
     showgrid="false"
     units="px"
     inkscape:window-width="1600"
     inkscape:window-height="836"
     inkscape:window-x="0"
     inkscape:window-y="27"
     inkscape:window-maximized="1"
     inkscape:pagecheckerboard="false"
     borderlayer="true"
     fit-margin-top="0"
     fit-margin-left="0"
     fit-margin-right="0"
     fit-margin-bottom="0" />
  <metadata
     id="metadata5">
    <rdf:RDF>
      <cc:Work
         rdf:about="">
        <dc:format>image/svg+xml</dc:format>
        <dc:type
           rdf:resource="http://purl.org/dc/dcmitype/StillImage" />
        <dc:title />
      </cc:Work>
    </rdf:RDF>
  </metadata>
  <g
     inkscape:label="Layer 1"
     inkscape:groupmode="layer"
     id="layer1"
     transform="translate(231.29647,-326.85314)">
    <path
       style="opacity:0.57700004;fill:url(#linearGradient868);fill-opacity:1;stroke:none;stroke-width:2.03182101;stroke-linecap:round;stroke-linejoin:bevel;stroke-miterlimit:1;stroke-dasharray:none;stroke-dashoffset:0;stroke-opacity:1"
       d="M -75.003906,-1.2617188 V 46.738281 h 48 V -1.2617188 Z m 24,13.9921878 c 2.74958,0 5,2.25042 5,5 0,2.74958 -2.25042,5 -5,5 -2.74957,0 -5,-2.25042 -5,-5 1e-5,-2.74958 2.25043,-5 5,-5 z m 0,2 c -1.66869,0 -3,1.3313 -3,3 0,1.6687 1.33131,3 3,3 1.6687,0 3,-1.3313 3,-3 1e-5,-1.6687 -1.3313,-3 -3,-3 z m -4,10 h 8 c 2.74958,0 5,2.25042 5,5 v 2 a 1.0001,1.0001 0 1 1 -2,0 v -2 c 1e-5,-1.6687 -1.3313,-3 -3,-3 h -8 c -1.66869,0 -3,1.3313 -3,3 v 2 a 1.0001,1.0001 0 1 1 -2,0 v -2 c 1e-5,-2.74958 2.25043,-5 5,-5 z"
       transform="translate(-156.29256,328.11486)"
       id="rect827"
       inkscape:connector-curvature="0" />
  </g>
</svg>
