<?xml version="1.0" encoding="UTF-8" standalone="no"?>
<svg
   xmlns:dc="http://purl.org/dc/elements/1.1/"
   xmlns:cc="http://creativecommons.org/ns#"
   xmlns:rdf="http://www.w3.org/1999/02/22-rdf-syntax-ns#"
   xmlns:svg="http://www.w3.org/2000/svg"
   xmlns="http://www.w3.org/2000/svg"
   id="svg8"
   version="1.1"
   viewBox="0 0 6.3499999 6.3500002"
   height="24"
   width="24">
  <defs
     id="defs2" />
  <metadata
     id="metadata5">
    <rdf:RDF>
      <cc:Work
         rdf:about="">
        <dc:format>image/svg+xml</dc:format>
        <dc:type
           rdf:resource="http://purl.org/dc/dcmitype/StillImage" />
        <dc:title></dc:title>
      </cc:Work>
    </rdf:RDF>
  </metadata>
  <g
     transform="translate(0,-290.64999)"
     id="layer1">
    <path
       style="fill:currentColor;stroke-width:0.00930175"
       d="m 5.2585934,294.79237 v -3.12539 c 0,-0.12371 -0.099528,-0.22324 -0.223242,-0.22324 h -3.050976 c -0.492993,0 -0.8929688,0.39997 -0.8929688,0.89296 v 2.97657 c 0,0.49299 0.3999758,0.89297 0.8929688,0.89297 h 3.050976 c 0.123714,0 0.223242,-0.0995 0.223242,-0.22325 v -0.14882 c 0,-0.0697 -0.032558,-0.13302 -0.082785,-0.17395 -0.039067,-0.14324 -0.039067,-0.55159 0,-0.69483 0.050228,-0.04 0.082785,-0.10326 0.082785,-0.17302 z m -2.9765618,-2.1022 c 0,-0.0307 0.025117,-0.0558 0.055808,-0.0558 h 1.9719728 c 0.030698,0 0.055808,0.0251 0.055808,0.0558 v 0.18604 c 0,0.0307 -0.025118,0.0558 -0.055808,0.0558 H 2.3378391 c -0.030698,0 -0.055808,-0.0251 -0.055808,-0.0558 z m 0,0.59531 c 0,-0.0307 0.025117,-0.0558 0.055808,-0.0558 h 1.9719728 c 0.030698,0 0.055808,0.0251 0.055808,0.0558 v 0.18604 c 0,0.0307 -0.025118,0.0558 -0.055808,0.0558 H 2.3378391 c -0.030698,0 -0.055808,-0.0251 -0.055808,-0.0558 z m 2.3570648,2.32545 h -2.654721 c -0.1646415,0 -0.2976563,-0.13302 -0.2976563,-0.29766 0,-0.16371 0.1339455,-0.29766 0.2976563,-0.29766 h 2.654721 c -0.01767,0.15906 -0.01767,0.43626 0,0.59532 z"
       id="path815" />
  </g>
</svg>
