<?xml version="1.0" encoding="UTF-8" standalone="no"?>
<svg
   xmlns:dc="http://purl.org/dc/elements/1.1/"
   xmlns:cc="http://creativecommons.org/ns#"
   xmlns:rdf="http://www.w3.org/1999/02/22-rdf-syntax-ns#"
   xmlns:svg="http://www.w3.org/2000/svg"
   xmlns="http://www.w3.org/2000/svg"
   xmlns:sodipodi="http://sodipodi.sourceforge.net/DTD/sodipodi-0.dtd"
   xmlns:inkscape="http://www.inkscape.org/namespaces/inkscape"
   id="svg1428"
   version="1.1"
   viewBox="0 0 30.513156 8.7725682"
   height="33.156162"
   width="115.32532"
   sodipodi:docname="flamous_logo_new.svg"
   inkscape:version="0.92.2 2405546, 2018-03-11">
  <sodipodi:namedview
     pagecolor="#ffffff"
     bordercolor="#666666"
     borderopacity="1"
     objecttolerance="10"
     gridtolerance="10"
     guidetolerance="10"
     inkscape:pageopacity="0"
     inkscape:pageshadow="2"
     inkscape:window-width="1600"
     inkscape:window-height="836"
     id="namedview1632"
     showgrid="false"
     inkscape:zoom="4.1542524"
     inkscape:cx="62.91866"
     inkscape:cy="26.772634"
     inkscape:window-x="0"
     inkscape:window-y="27"
     inkscape:window-maximized="1"
     inkscape:current-layer="svg1428"
     fit-margin-top="0"
     fit-margin-left="0"
     fit-margin-right="0"
     fit-margin-bottom="0" />
  <defs
     id="defs1422" />
  <metadata
     id="metadata1425">
    <rdf:RDF>
      <cc:Work
         rdf:about="">
        <dc:format>image/svg+xml</dc:format>
        <dc:type
           rdf:resource="http://purl.org/dc/dcmitype/StillImage" />
        <dc:title />
      </cc:Work>
    </rdf:RDF>
  </metadata>
  <g
     aria-label="Flamous"
     style="font-style:normal;font-variant:normal;font-weight:normal;font-stretch:normal;font-size:5.56675053px;line-height:1.25;font-family:'Roboto Condensed';-inkscape-font-specification:'Roboto Condensed, ';letter-spacing:0.12789884px;word-spacing:0px;fill:#000000;fill-opacity:1;stroke:none;stroke-width:0.71974331"
     id="text1442">
    <path
       d="m 13.450515,4.9013697 h -1.337324 v 1.747764 h -0.49742 V 2.691522 h 2.06035 v 0.4294661 h -1.56293 v 1.3536337 h 1.337324 z"
       style="font-style:normal;font-variant:normal;font-weight:normal;font-stretch:normal;font-family:'Roboto Condensed';-inkscape-font-specification:'Roboto Condensed, ';letter-spacing:0.12789884px;word-spacing:0px;stroke-width:0.71974331"
       id="path2069" />
    <path
       d="M 14.869531,6.6491337 H 14.38842 V 2.4740708 h 0.481111 z"
       style="font-style:normal;font-variant:normal;font-weight:normal;font-stretch:normal;font-family:'Roboto Condensed';-inkscape-font-specification:'Roboto Condensed, ';letter-spacing:0.12789884px;word-spacing:0px;stroke-width:0.71974331"
       id="path2071" />
    <path
       d="m 17.264358,6.6491337 q -0.04349,-0.095135 -0.06252,-0.3207405 -0.255505,0.3751033 -0.652353,0.3751033 -0.399567,0 -0.625173,-0.2228875 -0.222887,-0.2256056 -0.222887,-0.6333266 0,-0.4484931 0.304432,-0.7121526 0.304431,-0.2636596 0.834469,-0.2690959 h 0.353358 V 4.5534478 q 0,-0.2636596 -0.11688,-0.3751033 -0.11688,-0.1114437 -0.356077,-0.1114437 -0.217451,0 -0.353358,0.1304707 -0.135907,0.1277526 -0.135907,0.3261768 h -0.48111 q 0,-0.2256056 0.133188,-0.4294661 0.133189,-0.2065787 0.358795,-0.3234587 0.225605,-0.11688 0.502856,-0.11688 0.451211,0 0.684971,0.2256056 0.236478,0.2228875 0.241914,0.6523536 v 1.4841044 q 0.0027,0.3397675 0.09242,0.5898363 v 0.04349 z M 16.622877,6.265876 q 0.17668,0 0.33705,-0.097853 0.16037,-0.097853 0.23376,-0.2446326 V 5.2221102 h -0.271814 q -0.342486,0.00544 -0.54091,0.154934 -0.198424,0.1467796 -0.198424,0.4131573 0,0.2500688 0.100571,0.3642307 0.100571,0.1114438 0.339767,0.1114438 z"
       style="font-style:normal;font-variant:normal;font-weight:normal;font-stretch:normal;font-family:'Roboto Condensed';-inkscape-font-specification:'Roboto Condensed, ';letter-spacing:0.12789884px;word-spacing:0px;stroke-width:0.71974331"
       id="path2073" />
    <path
       d="m 18.995959,3.7081063 0.01087,0.271814 q 0.269096,-0.3261768 0.709435,-0.3261768 0.491983,0 0.687689,0.426748 0.27725,-0.426748 0.771952,-0.426748 0.812724,0 0.83175,1.0138662 v 1.981524 H 21.529266 V 4.7138181 q 0,-0.3207405 -0.114162,-0.4756745 -0.114162,-0.1576521 -0.385976,-0.1576521 -0.217451,0 -0.353358,0.1685246 -0.135907,0.1685247 -0.157652,0.4294662 V 6.6491337 H 20.034289 V 4.692073 q -0.0082,-0.6115815 -0.49742,-0.6115815 -0.36423,0 -0.513728,0.3642307 V 6.6491337 H 18.544748 V 3.7081063 Z"
       style="font-style:normal;font-variant:normal;font-weight:normal;font-stretch:normal;font-family:'Roboto Condensed';-inkscape-font-specification:'Roboto Condensed, ';letter-spacing:0.12789884px;word-spacing:0px;stroke-width:0.71974331"
       id="path2075" />
    <path
       d="m 22.755294,5.042713 q 0,-0.641481 0.309868,-1.0138662 0.312586,-0.3751033 0.823596,-0.3751033 0.51101,0 0.820878,0.3642308 0.312586,0.3642307 0.320741,0.992121 v 0.309868 q 0,0.6387628 -0.309868,1.011148 -0.309868,0.3723852 -0.826315,0.3723852 -0.51101,0 -0.820878,-0.3615126 -0.30715,-0.3615126 -0.318022,-0.9785304 z m 0.48111,0.2772503 q 0,0.4539293 0.176679,0.7148708 0.179398,0.2582233 0.481111,0.2582233 0.636045,0 0.655072,-0.9187313 V 5.042713 q 0,-0.4512112 -0.179397,-0.7121527 -0.179398,-0.2636595 -0.481111,-0.2636595 -0.296277,0 -0.475675,0.2636595 -0.176679,0.2609415 -0.176679,0.7094346 z"
       style="font-style:normal;font-variant:normal;font-weight:normal;font-stretch:normal;font-family:'Roboto Condensed';-inkscape-font-specification:'Roboto Condensed, ';letter-spacing:0.12789884px;word-spacing:0px;stroke-width:0.71974331"
       id="path2077" />
    <path
       d="m 27.278425,6.3909104 q -0.239197,0.3125861 -0.698562,0.3125861 -0.399567,0 -0.603427,-0.2745322 Q 25.772575,6.1517141 25.769857,5.6243949 V 3.7081063 h 0.478393 v 1.8809528 q 0,0.6876894 0.413157,0.6876894 0.437621,0 0.603427,-0.3914121 V 3.7081063 h 0.481111 v 2.9410274 h -0.456648 z"
       style="font-style:normal;font-variant:normal;font-weight:normal;font-stretch:normal;font-family:'Roboto Condensed';-inkscape-font-specification:'Roboto Condensed, ';letter-spacing:0.12789884px;word-spacing:0px;stroke-width:0.71974331"
       id="path2079" />
    <path
       d="m 30.032046,5.8962089 q 0,-0.1549339 -0.11688,-0.2663777 Q 29.798286,5.5183875 29.463955,5.3688898 29.075261,5.2085195 28.914891,5.0943577 28.757239,4.9801958 28.678413,4.8361344 q -0.07883,-0.1467796 -0.07883,-0.3479219 0,-0.3587945 0.260941,-0.5952727 0.26366,-0.2391963 0.671381,-0.2391963 0.429466,0 0.690407,0.2500689 0.260942,0.2500688 0.260942,0.641481 h -0.478393 q 0,-0.1984242 -0.133189,-0.3370494 -0.133189,-0.1413432 -0.339767,-0.1413432 -0.212015,0 -0.334332,0.1114437 -0.119598,0.1087256 -0.119598,0.2935591 0,0.1467796 0.08698,0.2364782 0.0897,0.089699 0.426748,0.2364782 0.535473,0.2092967 0.728461,0.4104391 0.192988,0.1984242 0.192988,0.505574 0,0.3832577 -0.26366,0.6142996 -0.263659,0.2283238 -0.706716,0.2283238 -0.459366,0 -0.74477,-0.2636596 -0.285405,-0.2636596 -0.285405,-0.6686624 h 0.483829 q 0.0082,0.2446326 0.149498,0.3832577 0.141343,0.1386252 0.396848,0.1386252 0.239196,0 0.364231,-0.1060075 0.125034,-0.1087256 0.125034,-0.290841 z"
       style="font-style:normal;font-variant:normal;font-weight:normal;font-stretch:normal;font-family:'Roboto Condensed';-inkscape-font-specification:'Roboto Condensed, ';letter-spacing:0.12789884px;word-spacing:0px;stroke-width:0.71974331"
       id="path2081" />
  </g>
  <path
     style="opacity:1;fill:#007aff;fill-opacity:1;stroke:none;stroke-width:1.85208333;stroke-linecap:round;stroke-linejoin:round;stroke-miterlimit:4;stroke-dasharray:none;stroke-dashoffset:0;stroke-opacity:1"
     d="M 4.3862955,0 C 1.9638007,-2.5439193e-5 -2.5505337e-5,1.9638009 0,4.3862957 6.5352132e-4,6.6509207 1.7252222,8.5427519 3.9801189,8.7524373 3.9872547,8.5996209 3.9925728,8.4420771 3.9925199,8.3214557 3.9954197,7.8675942 3.9784308,7.159702 3.9764994,7.1437498 3.9655271,6.9240993 3.9551739,6.7003766 3.9532451,6.6466226 c 0,0 -0.013031,-0.2516421 -0.026872,-0.344165 C 3.9125332,6.2099347 3.8238012,6.0842687 3.7687604,5.976896 3.7266515,5.8947188 3.6209028,5.8993289 3.4085755,5.8611408 2.8756785,5.7591924 2.3505522,5.5542625 1.9993594,5.1376708 1.552193,4.6071907 1.4682105,4.2078173 1.4769106,3.5139972 c 2.91e-4,-0.023879 0.00991,-0.047393 0.023254,-0.067696 0.027413,-0.038527 0.048441,-0.0736 0.074931,-0.114205 -0.01972,-0.079325 -0.043974,-0.1773063 -0.02222,-0.2904215 0.021869,-0.1136949 0.09679,-0.2273866 0.2227254,-0.3188435 l 0.0031,-0.00465 0.00155,-0.00517 C 2.2235139,2.4164001 2.5865439,2.2404326 3.4369994,2.1326863 c 0.00214,-9.71e-4 0.00433,-8.546e-4 0.00723,-0.00568 0.00435,-0.042249 0.015425,-0.082418 0.046509,-0.1235066 0.027911,-0.037367 0.070242,-0.056295 0.1116211,-0.070797 0.019534,-0.0058 0.042559,-0.00861 0.067696,-0.013436 v 0.00827 c 0.025069,-0.00145 0.052028,-0.00601 0.079582,-0.0062 0.068758,-0.00198 1.0619624,0.015883 1.4789796,0.2025716 0.3557754,0.1592309 0.6422559,0.4243913 0.8263059,0.8004679 h 5.292e-4 c 0.00198,-0.00241 0.0033,-0.00292 0.0062,-0.00775 l 5.292e-4,-5.292e-4 c 0.00459,-0.00532 0.00949,-0.00809 0.01447,-0.01292 0.0058,-0.00435 0.012173,-0.00861 0.018603,-0.013435 h 0.00103 c 0.00648,-0.00387 0.013145,-0.00499 0.020153,-0.00982 0.00807,-9.789e-4 0.016018,-0.00568 0.024289,-0.00568 0.00368,0 0.00696,-0.00487 0.010335,-0.00517 0.00193,-0.00483 0.00372,1.408e-4 0.00517,0 0.021206,-0.00193 0.042791,4.763e-4 0.063045,0.00723 0.00146,1.407e-4 0.00268,4.84e-5 0.0031,0 0.070122,0.025911 0.110078,0.1009782 0.091467,0.1736328 -0.02738,0.1721379 0.07375,0.2633189 0.028939,0.7720459 -0.04483,0.5086789 -0.030273,0.613075 -0.5431192,1.1234457 -0.5128072,0.5105157 -1.2196736,0.7159233 -1.3379029,0.772046 -0.1182098,0.056122 -0.1157719,0.080294 -0.1452107,0.1834512 -0.025445,0.088541 -0.037726,0.1558356 -0.036745,0.3653303 9.789e-4,0.2094947 0.035874,0.6386743 0.056898,0.9612037 0.00435,0.035578 0.00606,0.077065 0.00414,0.093018 -0.00618,0.050955 0.026292,0.05139 0.095085,0 0.080181,-0.05999 0.1641875,-0.1076264 0.2206581,-0.1245455 0.037811,-0.011356 0.041694,-0.019939 0.062528,-0.1343586 C 4.7315072,6.9934125 4.761172,6.8984898 4.7857769,6.8471143 4.837558,6.7389251 4.9939823,6.4954891 5.1025533,6.3546379 5.1445072,6.3002026 5.2098662,6.2121082 5.2477641,6.1587841 5.5184132,5.7778238 5.8786355,5.5145771 6.1877585,5.4725211 c 0.035428,-0.00527 0.069536,-0.00517 0.1059365,-0.00517 l -0.00156,0.00103 c 0.036385,0.00151 0.075194,0.00617 0.1209228,0.013951 0.157626,0.027447 0.2169416,0.067796 0.3209107,0.2180744 0.1533626,0.2216523 0.2938629,0.2399217 0.6304523,0.082682 0.1298308,-0.060932 0.2137014,-0.050952 0.2439128,0.028422 0.029468,0.077827 0.012544,0.1377842 -0.063045,0.2211753 -0.071533,0.078837 -0.1741225,0.1352883 -0.3364135,0.1855184 -0.05868,0.018172 -0.1061365,0.047545 -0.1524455,0.092501 -0.036999,0.036206 -0.09119,0.084801 -0.1193725,0.1080037 -0.031614,0.026104 -0.063818,0.074561 -0.08475,0.1260907 -0.066085,0.1624166 -0.270233,0.357873 -0.6056477,0.578776 C 5.9562386,7.314972 5.8070771,7.3837708 5.5774489,7.4346726 5.4438187,7.4646433 5.1597427,7.4902844 5.0761876,7.4806646 5.0044612,7.4724467 4.8011535,7.4918856 4.7475253,7.5121874 4.63297,7.5556348 4.5100449,7.6957132 4.4100784,7.8951095 L 4.3511671,8.0124152 V 8.262529 c -3.704e-4,0.1377683 -0.00443,0.3220244 -0.00878,0.4092774 -0.00193,0.0496 -1.706e-4,0.066087 0,0.098702 0.014637,7.673e-4 0.02928,0.00146 0.043925,0.00206 2.4224904,2.91e-5 4.3863168,-1.963797 4.3862914,-4.3862915 C 8.7726165,1.9638009 6.8087904,-2.5425964e-5 4.3862955,0 Z m 0.073897,2.2169189 c 0.062483,0.031759 0.123599,0.068767 0.1808673,0.1152385 C 4.8651488,2.5131897 4.9409577,2.7675762 4.861202,2.9703613 4.781451,3.1731464 4.5597715,3.3012394 4.3077474,3.2809366 3.8846202,3.2469054 3.5817606,3.1146865 3.4814412,3.0793985 c -0.1002953,-0.03524 -0.019513,-0.2014543 0.088884,-0.192753 0.1083871,0.0087 0.5708229,0.07708 0.6914306,0.05581 C 4.3823628,2.9213316 4.5061198,2.8627436 4.5351237,2.788977 4.5641516,2.7152106 4.5247388,2.6412805 4.371826,2.5176757 4.0576711,2.2636506 3.6580114,2.3602302 3.2323609,2.5528157 3.0342356,2.6424859 2.9823659,2.7263715 2.9631267,2.8375529 2.9441137,2.9488308 3.1439913,3.2097237 3.4070271,3.3646524 3.6539463,3.5100584 3.8773304,3.5753435 3.9945881,3.58066 4.2548299,3.5925028 4.1673896,3.8098046 3.9770171,3.8354247 3.7276519,3.8696009 3.6443724,3.8353059 3.4938425,3.7961507 3.3053755,3.7469409 2.7294144,3.4166446 2.6639189,3.1651814 2.6143225,2.9748679 2.7216494,2.6309615 2.7719226,2.5585 2.4534074,2.653101 2.2187683,2.7709065 2.058788,2.8804442 1.7996968,3.0579479 1.966533,3.3333823 2.004528,3.3744711 2.059374,3.4337351 2.1610293,3.5430268 2.26291,3.613216 c 0.1633448,0.1125834 0.3192629,0.1977064 0.4847249,0.2687177 0.1654622,0.071011 0.2117457,0.087733 0.4428672,0.1369425 0.3603482,0.074733 0.8004128,-0.035771 1.1156942,0 0.2099006,0.023831 0.1955882,0.3720822 0.3333128,0.2899047 0.147818,-0.088172 0.3576259,-0.197322 0.5053955,-0.33538 C 5.4499764,3.6883896 5.6733784,3.4214992 5.7712229,2.9993001 5.7384979,2.7518975 5.3970785,2.5098003 5.1087321,2.3807332 4.9215071,2.2969141 4.7019271,2.2450563 4.4601925,2.2169189 Z m 1.5063679,1.398881 0.00103,0.00517 c -0.013147,-0.00146 -0.024426,0.00499 -0.036173,0.00982 -0.00585,0.0029 -0.011012,0.00827 -0.017052,0.00827 -0.00401,0.0029 -0.00754,0.00447 -0.011885,0.0093 C 5.8059134,3.8126636 5.7303736,3.9015639 5.5939735,4.0369636 5.559053,4.0594426 5.4724699,4.1427515 5.4363604,4.1630543 5.4001537,4.1834536 5.3334938,4.226141 5.2554928,4.2813931 5.1774772,4.3366939 4.7770939,4.5767568 4.470011,4.6865363 4.3153772,4.7417888 4.2183918,4.8025247 4.1584022,4.8643033 c -0.1214101,0.2128882 -0.097267,0.06779 -0.074931,0.4020425 9.525e-4,0.00532 0.00466,0.040155 0.00465,0.045475 C 4.3321851,5.2689438 5.1378678,5.0766002 5.510775,4.7495815 5.8836869,4.4226118 6.0564233,4.2522461 6.0316734,3.6690274 c -4.763e-4,0 -0.00266,-0.00517 -0.0031,-0.00517 -4.763e-4,-0.00628 -0.00272,-0.011806 -0.00465,-0.018087 -0.00124,-0.00532 -0.00388,-0.010184 -0.00775,-0.015502 -0.00228,-0.00483 -0.00378,-0.00517 -0.0062,-0.00517 -0.00164,-0.00483 -0.00372,-0.00479 -0.00517,-0.00465 h -0.00362 c -0.011168,-0.00483 -0.022746,-0.00465 -0.034107,-0.00465 z m -4.1635701,0.066663 -5.159e-4,0.00414 c -0.011985,0.013536 -0.014073,0.01565 -0.014469,0.025321 -0.00401,0.6096606 0.2397347,0.9313389 0.6542238,1.2454022 0.276392,0.2011897 0.7811789,0.2872174 1.2407511,0.2780192 0.00653,-0.0058 0.01366,-0.010284 0.019121,-0.017052 0.010538,-0.013536 0.020114,-0.02849 0.026355,-0.044442 0.00739,-0.019143 0.00885,-0.040159 0.00982,-0.060462 -6.35e-4,-0.00309 0.027288,-0.084749 0.025839,-0.084749 0.023011,-0.1338043 0.081745,-0.2637493 0.1834515,-0.3684529 0.045903,-0.047276 0.1005729,-0.088936 0.1622639,-0.1271241 0.00561,-0.0087 0.011417,-0.017619 0.018087,-0.025839 -4.762e-4,-0.00435 -9.525e-4,-0.00654 -0.00103,-0.011369 0,0 0.00151,-0.00517 0.00156,-0.00517 -2.276e-4,0 -4.233e-4,-0.00465 -5.292e-4,-0.00465 -0.00391,-0.00435 -0.00754,-0.00757 -0.011885,-0.012401 -0.00415,-0.00339 -0.0075,-0.00344 -0.011369,-0.00827 -0.012615,-0.00774 -0.026564,-0.013951 -0.040824,-0.013951 -0.011263,-0.00483 -0.022746,-0.00517 -0.034106,-0.00517 -0.00774,-4.762e-4 -0.012703,-0.00292 -0.017052,-0.00775 C 3.4114449,4.503554 2.7524506,4.4153712 2.1052978,3.9584147 2.0403002,3.912492 1.9496871,3.8239047 1.8029903,3.6824629 Z M 6.33243,5.7965454 C 6.1714972,5.7779876 5.8295032,5.9816776 5.6482339,6.2042723 5.4083481,6.4987578 5.1365165,6.8004907 5.1257853,6.9515136 c -0.00797,0.1125783 0.011097,0.1413049 0.077514,0.1715659 0.050442,0.022913 0.09586,0.02032 0.2263428,-0.00723 C 5.6617023,7.0668825 5.8002656,7.0050785 6.0585447,6.8362762 6.3015243,6.6774754 6.4160108,6.5860639 6.5484374,6.4445687 6.6185155,6.369739 6.7016317,6.2838204 6.7334391,6.253366 6.7825529,6.206607 6.7842563,6.1812345 6.7680622,6.1753346 6.7518486,6.1695005 6.5311255,5.9839755 6.4869425,5.9278044 6.4427697,5.8716289 6.3796579,5.8028132 6.33243,5.7970632 Z"
     id="circle1444"
     inkscape:connector-curvature="0"
     sodipodi:nodetypes="cccccczccccccccccccccccccccccccccsccccccccczccccccccccccccccccccccccccccccccccccccccccccccccccccccccccccccccccccccccccccccccsccccccccccccccccccccccccccccccccccc" />
</svg>
