<?xml version="1.0" encoding="UTF-8" standalone="no"?>
<svg
   xmlns:dc="http://purl.org/dc/elements/1.1/"
   xmlns:cc="http://creativecommons.org/ns#"
   xmlns:rdf="http://www.w3.org/1999/02/22-rdf-syntax-ns#"
   xmlns:svg="http://www.w3.org/2000/svg"
   xmlns="http://www.w3.org/2000/svg"
   xmlns:sodipodi="http://sodipodi.sourceforge.net/DTD/sodipodi-0.dtd"
   xmlns:inkscape="http://www.inkscape.org/namespaces/inkscape"
   id="svg1428"
   version="1.1"
   viewBox="0 0 40.857038 9.4135336"
   height="35.578709"
   width="154.4203"
   sodipodi:docname="flamous_logo_new_small.svg"
   inkscape:version="0.92.2 2405546, 2018-03-11">
  <sodipodi:namedview
     pagecolor="#ffffff"
     bordercolor="#666666"
     borderopacity="1"
     objecttolerance="10"
     gridtolerance="10"
     guidetolerance="10"
     inkscape:pageopacity="0"
     inkscape:pageshadow="2"
     inkscape:window-width="1600"
     inkscape:window-height="836"
     id="namedview1632"
     showgrid="false"
     inkscape:zoom="5.875"
     inkscape:cx="38.719072"
     inkscape:cy="49.44655"
     inkscape:window-x="0"
     inkscape:window-y="27"
     inkscape:window-maximized="1"
     inkscape:current-layer="g1537"
     fit-margin-top="0"
     fit-margin-left="0"
     fit-margin-right="0"
     fit-margin-bottom="0" />
  <defs
     id="defs1422" />
  <metadata
     id="metadata1425">
    <rdf:RDF>
      <cc:Work
         rdf:about="">
        <dc:format>image/svg+xml</dc:format>
        <dc:type
           rdf:resource="http://purl.org/dc/dcmitype/StillImage" />
        <dc:title />
      </cc:Work>
    </rdf:RDF>
  </metadata>
  <g
     transform="matrix(0.51873154,0,0,0.51873154,-265.53253,-399.55976)"
     id="g1537">
    <g
       aria-label="Flamous"
       style="font-style:normal;font-variant:normal;font-weight:normal;font-stretch:normal;font-size:11.51589298px;line-height:1.25;font-family:Roboto;-inkscape-font-specification:Roboto;letter-spacing:0.26458335px;word-spacing:0px;fill:#000000;fill-opacity:1;stroke:none;stroke-width:0.71974331"
       id="text1489"
       transform="matrix(1.2678437,0,0,1.2678437,-141.11696,-209.46901)">
      <path
         d="m 537.24491,780.75869 h -3.43565 v 3.61559 h -1.07962 v -8.18708 h 5.07195 v 0.88843 h -3.99233 v 2.80025 h 3.43565 z"
         style="font-style:normal;font-variant:normal;font-weight:normal;font-stretch:normal;font-family:Roboto;-inkscape-font-specification:Roboto;letter-spacing:0.26458335px;word-spacing:0px;stroke-width:0.71974331"
         id="path2206"
         inkscape:connector-curvature="0" />
      <path
         d="m 540.32661,784.37428 h -1.04025 v -8.63692 h 1.04025 z"
         style="font-style:normal;font-variant:normal;font-weight:normal;font-stretch:normal;font-family:Roboto;-inkscape-font-specification:Roboto;letter-spacing:0.26458335px;word-spacing:0px;stroke-width:0.71974331"
         id="path2208"
         inkscape:connector-curvature="0" />
      <path
         d="m 546.00614,784.37428 q -0.09,-0.17994 -0.1462,-0.64102 -0.72536,0.75348 -1.73188,0.75348 -0.89968,0 -1.47885,-0.50607 -0.57354,-0.51169 -0.57354,-1.29329 0,-0.95029 0.71974,-1.47322 0.72537,-0.52857 2.03552,-0.52857 h 1.01214 v -0.47795 q 0,-0.54543 -0.32613,-0.86594 -0.32613,-0.32614 -0.96153,-0.32614 -0.55668,0 -0.93342,0.28115 -0.37674,0.28115 -0.37674,0.68039 h -1.04588 q 0,-0.45547 0.32051,-0.87719 0.32614,-0.42735 0.87719,-0.67476 0.55668,-0.24741 1.22019,-0.24741 1.0515,0 1.64754,0.52856 0.59603,0.52294 0.61853,1.44511 v 2.80025 q 0,0.83783 0.21367,1.33265 v 0.09 z m -1.72626,-0.79284 q 0.4892,0 0.92779,-0.25304 0.4386,-0.25303 0.6354,-0.65789 v -1.2483 h -0.81533 q -1.91182,0 -1.91182,1.11897 0,0.4892 0.32613,0.76473 0.32614,0.27553 0.83783,0.27553 z"
         style="font-style:normal;font-variant:normal;font-weight:normal;font-stretch:normal;font-family:Roboto;-inkscape-font-specification:Roboto;letter-spacing:0.26458335px;word-spacing:0px;stroke-width:0.71974331"
         id="path2210"
         inkscape:connector-curvature="0" />
      <path
         d="m 549.76823,778.2902 0.0281,0.67476 q 0.66914,-0.78722 1.80498,-0.78722 1.27642,0 1.73751,0.9784 0.30364,-0.43859 0.78722,-0.7085 0.4892,-0.2699 1.15271,-0.2699 2.00179,0 2.03552,2.11987 v 4.07667 h -1.04025 v -4.01482 q 0,-0.65227 -0.29802,-0.97278 -0.29802,-0.32613 -1.00089,-0.32613 -0.57917,0 -0.96153,0.34862 -0.38237,0.34301 -0.44422,0.9278 v 4.03731 h -1.04588 v -3.9867 q 0,-1.32703 -1.29891,-1.32703 -1.02338,0 -1.40012,0.87156 v 4.44217 h -1.04026 v -6.08408 z"
         style="font-style:normal;font-variant:normal;font-weight:normal;font-stretch:normal;font-family:Roboto;-inkscape-font-specification:Roboto;letter-spacing:0.26458335px;word-spacing:0px;stroke-width:0.71974331"
         id="path2212"
         inkscape:connector-curvature="0" />
      <path
         d="m 558.87778,781.27601 q 0,-0.89406 0.34863,-1.60818 0.35424,-0.71412 0.9784,-1.1021 0.62977,-0.38799 1.43386,-0.38799 1.24268,0 2.00741,0.86032 0.77035,0.86031 0.77035,2.28856 v 0.0731 q 0,0.88844 -0.343,1.59693 -0.33738,0.70288 -0.97278,1.09649 -0.62978,0.39361 -1.45073,0.39361 -1.23706,0 -2.00741,-0.86032 -0.76473,-0.86032 -0.76473,-2.27731 z m 1.04588,0.1237 q 0,1.01214 0.46671,1.62505 0.47233,0.61291 1.25955,0.61291 0.79284,0 1.25955,-0.61853 0.46671,-0.62416 0.46671,-1.74313 0,-1.00089 -0.47796,-1.61942 -0.47233,-0.62416 -1.25955,-0.62416 -0.77035,0 -1.24268,0.61291 -0.47233,0.61291 -0.47233,1.75437 z"
         style="font-style:normal;font-variant:normal;font-weight:normal;font-stretch:normal;font-family:Roboto;-inkscape-font-specification:Roboto;letter-spacing:0.26458335px;word-spacing:0px;stroke-width:0.71974331"
         id="path2214"
         inkscape:connector-curvature="0" />
      <path
         d="m 569.74171,783.77262 q -0.60729,0.71412 -1.78249,0.71412 -0.97278,0 -1.48447,-0.5623 -0.50607,-0.56792 -0.5117,-1.67565 v -3.95859 h 1.04026 v 3.93047 q 0,1.38326 1.1246,1.38326 1.19207,0 1.58568,-0.88843 v -4.4253 h 1.04025 v 6.08408 h -0.98964 z"
         style="font-style:normal;font-variant:normal;font-weight:normal;font-stretch:normal;font-family:Roboto;-inkscape-font-specification:Roboto;letter-spacing:0.26458335px;word-spacing:0px;stroke-width:0.71974331"
         id="path2216"
         inkscape:connector-curvature="0" />
      <path
         d="m 576.13535,782.76048 q 0,-0.42173 -0.32051,-0.65227 -0.31488,-0.23616 -1.10773,-0.40485 -0.78722,-0.16869 -1.25392,-0.40486 -0.46109,-0.23617 -0.68601,-0.5623 -0.2193,-0.32613 -0.2193,-0.77597 0,-0.74786 0.62978,-1.26518 0.6354,-0.51731 1.61942,-0.51731 1.03463,0 1.67565,0.53418 0.64665,0.53419 0.64665,1.36639 h -1.04588 q 0,-0.42735 -0.36549,-0.73661 -0.35987,-0.30927 -0.91093,-0.30927 -0.56792,0 -0.88843,0.24742 -0.32051,0.24741 -0.32051,0.64664 0,0.37674 0.29802,0.56792 0.29802,0.19118 1.07399,0.3655 0.7816,0.17431 1.26517,0.4161 0.48358,0.24179 0.71412,0.58479 0.23617,0.33738 0.23617,0.82658 0,0.81533 -0.65227,1.31016 -0.65227,0.4892 -1.69252,0.4892 -0.73099,0 -1.29329,-0.25866 -0.5623,-0.25866 -0.88281,-0.71974 -0.31489,-0.46671 -0.31489,-1.00652 h 1.04026 q 0.0281,0.52294 0.4161,0.8322 0.39361,0.30365 1.03463,0.30365 0.59041,0 0.94466,-0.23617 0.35987,-0.24179 0.35987,-0.64102 z"
         style="font-style:normal;font-variant:normal;font-weight:normal;font-stretch:normal;font-family:Roboto;-inkscape-font-specification:Roboto;letter-spacing:0.26458335px;word-spacing:0px;stroke-width:0.71974331"
         id="path2218"
         inkscape:connector-curvature="0" />
    </g>
    <path
       style="color:#000000;font-style:normal;font-variant:normal;font-weight:normal;font-stretch:normal;font-size:medium;line-height:normal;font-family:sans-serif;font-variant-ligatures:normal;font-variant-position:normal;font-variant-caps:normal;font-variant-numeric:normal;font-variant-alternates:normal;font-feature-settings:normal;text-indent:0;text-align:start;text-decoration:none;text-decoration-line:none;text-decoration-style:solid;text-decoration-color:#000000;letter-spacing:normal;word-spacing:normal;text-transform:none;writing-mode:lr-tb;direction:ltr;text-orientation:mixed;dominant-baseline:auto;baseline-shift:baseline;text-anchor:start;white-space:normal;shape-padding:0;clip-rule:nonzero;display:inline;overflow:visible;visibility:visible;opacity:1;isolation:auto;mix-blend-mode:normal;color-interpolation:sRGB;color-interpolation-filters:linearRGB;solid-color:#000000;solid-opacity:1;vector-effect:none;fill:#000000;fill-opacity:1;fill-rule:nonzero;stroke:none;stroke-width:0.70552635;stroke-linecap:round;stroke-linejoin:miter;stroke-miterlimit:4;stroke-dasharray:none;stroke-dashoffset:0;stroke-opacity:1;color-rendering:auto;image-rendering:auto;shape-rendering:auto;text-rendering:auto;enable-background:accumulate"
       d="m 522.33962,771.84981 c -0.49707,-0.0138 -1.02828,0.005 -1.5213,0.0358 -0.49304,0.0313 -0.94701,0.0762 -1.29297,0.11546 -0.34598,0.0392 -0.57492,0.0699 -0.64137,0.0821 -0.0687,0.0109 -0.12964,0.0279 -0.18983,0.0436 -0.0514,-0.0221 -0.11109,-0.004 -0.14111,0.0436 -0.0529,0.0174 -0.10648,0.0351 -0.15136,0.0565 -0.001,8.3e-4 -0.004,0.001 -0.005,0.002 -0.12898,0.0692 -0.2751,0.1609 -0.36172,0.32324 -0.0737,0.13709 -0.0907,0.26758 -0.0924,0.39251 -2.57693,0.74489 -3.6587,1.48518 -4.89998,2.62445 -0.007,0.007 -0.015,0.0178 -0.0205,0.0283 l 0.007,-0.005 -0.0109,0.0109 -0.002,0.002 c -10e-6,8.8e-4 -10e-6,10e-4 0,0.002 -10e-4,0.004 -0.004,0.006 -0.005,0.0109 v -0.005 c -0.35419,0.35899 -0.54459,0.76864 -0.55927,1.16213 -0.0137,0.37043 0.0996,0.66843 0.19754,0.90304 -0.0543,0.12202 -0.0993,0.22993 -0.15649,0.34376 -4e-5,10e-4 -4e-5,0.004 0,0.005 -0.0382,0.0839 -0.0663,0.18161 -0.0514,0.28732 0.30934,2.19119 1.27256,4.47921 2.96719,5.95837 1.32966,1.16045 2.88307,1.46411 4.61623,1.91751 8.9e-4,10e-6 10e-4,10e-6 0.002,0 0.34577,0.007 0.60096,-10e-4 0.77733,0.0131 0.17634,0.0147 0.25555,0.0444 0.3181,0.13082 0.11995,0.16552 0.34544,0.43095 0.57723,0.85173 0.14722,0.26717 0.46593,0.37027 0.7491,0.3181 0.28248,-0.052 0.54694,-0.27936 0.56697,-0.64391 v -0.002 c 0.0261,-0.42999 -0.0481,-0.75904 -0.007,-1.07492 0.0217,-0.17182 0.0311,-0.26505 0.0616,-0.32838 0.0305,-0.0633 0.0905,-0.12596 0.25653,-0.23859 0.0716,-0.0486 0.27451,-0.15837 0.54388,-0.31299 0.26935,-0.1546 0.61079,-0.35798 0.98511,-0.61312 0.74868,-0.51033 1.02022,-0.79266 1.71144,-1.73114 1.38637,-1.88151 1.59691,-4.04734 1.4928,-5.64961 -0.053,-0.81577 -0.17014,-1.29289 -0.27451,-1.62906 -0.10441,-0.33615 -0.18849,-0.51814 -0.18727,-0.76962 0.0225,-0.28205 -0.16643,-0.53325 -0.43869,-0.60032 -0.002,-10e-4 -0.006,-0.004 -0.0109,-0.005 -0.004,-8.6e-4 -0.006,-0.004 -0.0109,-0.005 -0.004,-2.5e-4 -0.01,-2.5e-4 -0.0131,0 -8.7e-4,-8.9e-4 -10e-4,-10e-4 -0.002,-0.002 -0.0109,-10e-4 -0.0222,0.004 -0.0334,0.002 -0.0548,-0.006 -0.10963,-0.004 -0.16419,0.005 -10e-4,-3.5e-4 -0.005,-2e-5 -0.005,0 -0.007,-10e-4 -0.0223,-0.005 -0.0231,-0.005 -8e-4,-8e-5 -0.0352,0.002 -0.0358,0.002 -10e-4,-3e-5 -0.004,-3e-5 -0.005,0 -0.0336,0.007 -0.0424,0.0202 -0.0487,0.0256 -9.3e-4,8e-4 -0.006,0.002 -0.007,0.002 -0.0233,0.01 -0.0495,0.017 -0.059,0.0205 -0.007,0.004 -0.0159,0.007 -0.0231,0.0131 -0.0158,0.0109 -0.0395,0.025 -0.0692,0.0513 -0.001,8.3e-4 -0.004,10e-4 -0.005,0.002 l -0.002,0.002 c -0.0109,0.0109 -0.0205,0.0209 -0.0307,0.0307 -0.76387,-1.04091 -1.77505,-1.7207 -2.94512,-2.04209 -0.36475,-0.10016 -0.82926,-0.14529 -1.32632,-0.15907 z m -0.51053,1.0775 c 0.54733,0.0121 1.06758,0.0585 1.52644,0.1847 0.47338,0.13004 1.00435,0.34174 1.43663,0.61058 0.42544,0.26456 0.7457,0.58402 0.84917,0.9133 -0.10575,1.32897 -0.65384,2.24068 -1.46229,3.26835 -0.38169,0.48514 -0.97812,0.92632 -1.4033,1.27759 -0.0356,0.0294 -0.0555,0.0331 -0.0668,0.0334 -0.0121,2.7e-4 -0.026,-0.004 -0.0514,-0.0231 -0.0506,-0.0374 -0.12281,-0.13513 -0.20524,-0.25142 -0.0823,-0.11619 -0.17865,-0.24986 -0.30528,-0.35659 -0.12661,-0.10684 -0.2914,-0.18488 -0.48999,-0.17701 -1.04276,0.0413 -2.35821,0.59796 -3.48129,0.54643 -0.74573,-0.0426 -0.8826,-0.0705 -1.43407,-0.21293 -0.54589,-0.14094 -1.06937,-0.32947 -1.62906,-0.60031 -0.33515,-0.16214 -0.70011,-0.45146 -0.90046,-0.61057 -0.0175,-0.0138 -0.0845,-0.0799 -0.14881,-0.17189 -0.0643,-0.0919 -0.13095,-0.21352 -0.17186,-0.34633 -0.0817,-0.26561 -0.0782,-0.57123 0.25653,-0.88508 0.42355,-0.39719 1.59507,-1.11533 2.05235,-1.33146 0.47106,-0.22262 0.80073,-0.33383 1.47255,-0.58747 0.33742,-0.12742 0.93026,-0.36419 1.57262,-0.48744 0.64235,-0.1232 1.32644,-0.1307 1.84198,0.16932 0.26384,0.15357 0.42638,0.28363 0.51051,0.38737 0.0841,0.10381 0.098,0.76662 0.077,0.85948 -0.0179,0.0792 -0.10089,0.69439 -0.23088,0.79233 -0.13004,0.098 -0.30156,0.18514 -0.47461,0.24371 -0.0703,0.0238 -0.23053,0.0485 -0.4233,0.0668 -0.19276,0.0182 -0.42293,0.0334 -0.65161,0.0436 -0.4574,0.0204 -1.57769,0.0278 -1.76049,0.041 -0.23222,0.0169 -0.39238,0.20065 -0.44896,0.38995 -0.0283,0.0946 -0.0324,0.19622 0.005,0.28989 0.0375,0.0936 0.12846,0.17339 0.24371,0.19498 0.31469,0.059 2.02313,0.3298 3.3844,0.23088 0.84292,-0.0612 1.52373,-0.59803 1.68806,-1.32633 0.16463,-0.72959 -0.22869,-2.64021 -1.05183,-3.11922 -0.0413,-0.024 -0.084,-0.0347 -0.1257,-0.0565 z m 4.93333,3.64034 c 0.004,0.01 0.0146,0.0307 0.0154,0.0334 10e-4,0.004 0.004,0.004 0.005,0.007 0.3527,1.79135 -0.20965,4.0357 -1.1834,5.19615 -0.93831,1.1183 -2.81111,1.77722 -3.62678,2.06659 -10e-4,-0.005 -0.004,-0.0159 -0.005,-0.018 -8.7e-4,-8.9e-4 -10e-4,-10e-4 -0.002,-0.002 -0.17577,-0.56261 -0.29516,-0.9059 -0.36942,-1.17241 -0.0742,-0.26647 -0.10466,-0.45344 -0.10005,-0.72857 0.005,-0.26945 0.0565,-0.44836 0.20267,-0.65418 0.1443,-0.2031 0.40397,-0.43238 0.85173,-0.67471 0.92799,-0.50226 2.05305,-1.43722 2.29092,-1.66753 0.21563,-0.2088 0.40045,-0.37253 0.4977,-0.44896 8.9e-4,2e-5 10e-4,2e-5 0.002,0 0.073,-0.0577 0.14994,-0.15155 0.23346,-0.24883 0.0835,-0.0974 0.16917,-0.19864 0.20266,-0.22834 0.006,-0.005 0.0131,-0.0121 0.018,-0.018 0.35775,-0.48412 0.55836,-0.81421 0.77989,-1.3648 0.005,-0.006 0.0121,-0.0122 0.0154,-0.0154 0.0131,-0.007 0.0249,-0.0157 0.0358,-0.0231 l 0.002,-0.002 c 0.0349,-0.0214 0.0517,-0.0308 0.0514,-0.0307 0.007,-7e-5 0.0155,-9.7e-4 0.0231,-0.002 8.7e-4,10e-6 10e-4,10e-6 0.002,0 0.0211,-0.001 0.0419,-0.002 0.0565,-0.002 z m 0.0359,0.0616 c 0.0121,0.0141 0.0225,0.0335 0.0256,0.0358 l -0.0131,-0.0131 c 3.6e-4,4.1e-4 -0.006,-0.0121 -0.0131,-0.0231 z m -13.03496,2.25501 c 0.39195,0.27662 0.7167,0.5114 0.92099,0.61314 2.26737,1.1291 4.40254,1.08961 6.26992,0.59519 0.0208,0.006 0.0324,0.0154 0.059,0.0131 10e-4,-1.1e-4 10e-4,1.3e-4 0.002,0 0.0405,-0.002 0.0716,-0.007 0.0924,-0.007 0.0362,9.9e-4 0.0642,0.006 0.0924,0.018 8.8e-4,8.9e-4 10e-4,0.001 0.002,0.002 5.8e-4,2.3e-4 0.005,0.004 0.007,0.005 -0.004,0.01 -0.01,0.0193 -0.0131,0.0283 -0.17042,0.14784 -0.32204,0.30332 -0.44382,0.47459 -0.28256,0.39749 -0.41283,0.85733 -0.42074,1.30838 -0.01,0.54197 -0.006,0.45877 0.13082,0.99794 0.0237,0.092 0.0453,0.21822 0.0668,0.31557 0.0246,0.11205 0.0433,0.22492 0.0565,0.33863 0.006,0.0636 0.007,0.11776 0,0.15904 -0.007,0.0361 -0.025,0.0765 -0.0487,0.12056 -3.9e-4,5.8e-4 -0.006,0.006 -0.007,0.007 -0.61041,0.0662 -2.06269,0.47754 -3.74065,-0.48327 -1.67795,-0.96082 -2.71351,-2.65829 -3.02639,-4.50593 z"
       id="path1493"
       inkscape:connector-curvature="0"
       sodipodi:nodetypes="ccccccccccccccccccccccccccccccccccccccccccccccccccccccccccscccccccccccccccccccccccccccccccccccccccccccccccccccccccccccccccccccccccccccccccccccccccccczcc" />
    <g
       transform="matrix(1.2678437,0,0,1.2678437,-141.11696,-300.45473)"
       id="g862"
       style="font-style:normal;font-variant:normal;font-weight:normal;font-stretch:normal;font-size:11.51589298px;line-height:1.25;font-family:Roboto;-inkscape-font-specification:Roboto;letter-spacing:0.26458335px;word-spacing:0px;fill:#000000;fill-opacity:1;stroke:none;stroke-width:0.71974331"
       aria-label="Flamous">
      <path
         inkscape:connector-curvature="0"
         id="path848"
         style="font-style:normal;font-variant:normal;font-weight:normal;font-stretch:normal;font-family:Roboto;-inkscape-font-specification:Roboto;letter-spacing:0.26458335px;word-spacing:0px;stroke-width:0.71974331"
         d="m 537.24491,780.75869 h -3.43565 v 3.61559 h -1.07962 v -8.18708 h 5.07195 v 0.88843 h -3.99233 v 2.80025 h 3.43565 z" />
      <path
         inkscape:connector-curvature="0"
         id="path850"
         style="font-style:normal;font-variant:normal;font-weight:normal;font-stretch:normal;font-family:Roboto;-inkscape-font-specification:Roboto;letter-spacing:0.26458335px;word-spacing:0px;stroke-width:0.71974331"
         d="m 540.32661,784.37428 h -1.04025 v -8.63692 h 1.04025 z" />
      <path
         inkscape:connector-curvature="0"
         id="path852"
         style="font-style:normal;font-variant:normal;font-weight:normal;font-stretch:normal;font-family:Roboto;-inkscape-font-specification:Roboto;letter-spacing:0.26458335px;word-spacing:0px;stroke-width:0.71974331"
         d="m 546.00614,784.37428 q -0.09,-0.17994 -0.1462,-0.64102 -0.72536,0.75348 -1.73188,0.75348 -0.89968,0 -1.47885,-0.50607 -0.57354,-0.51169 -0.57354,-1.29329 0,-0.95029 0.71974,-1.47322 0.72537,-0.52857 2.03552,-0.52857 h 1.01214 v -0.47795 q 0,-0.54543 -0.32613,-0.86594 -0.32613,-0.32614 -0.96153,-0.32614 -0.55668,0 -0.93342,0.28115 -0.37674,0.28115 -0.37674,0.68039 h -1.04588 q 0,-0.45547 0.32051,-0.87719 0.32614,-0.42735 0.87719,-0.67476 0.55668,-0.24741 1.22019,-0.24741 1.0515,0 1.64754,0.52856 0.59603,0.52294 0.61853,1.44511 v 2.80025 q 0,0.83783 0.21367,1.33265 v 0.09 z m -1.72626,-0.79284 q 0.4892,0 0.92779,-0.25304 0.4386,-0.25303 0.6354,-0.65789 v -1.2483 h -0.81533 q -1.91182,0 -1.91182,1.11897 0,0.4892 0.32613,0.76473 0.32614,0.27553 0.83783,0.27553 z" />
      <path
         inkscape:connector-curvature="0"
         id="path854"
         style="font-style:normal;font-variant:normal;font-weight:normal;font-stretch:normal;font-family:Roboto;-inkscape-font-specification:Roboto;letter-spacing:0.26458335px;word-spacing:0px;stroke-width:0.71974331"
         d="m 549.76823,778.2902 0.0281,0.67476 q 0.66914,-0.78722 1.80498,-0.78722 1.27642,0 1.73751,0.9784 0.30364,-0.43859 0.78722,-0.7085 0.4892,-0.2699 1.15271,-0.2699 2.00179,0 2.03552,2.11987 v 4.07667 h -1.04025 v -4.01482 q 0,-0.65227 -0.29802,-0.97278 -0.29802,-0.32613 -1.00089,-0.32613 -0.57917,0 -0.96153,0.34862 -0.38237,0.34301 -0.44422,0.9278 v 4.03731 h -1.04588 v -3.9867 q 0,-1.32703 -1.29891,-1.32703 -1.02338,0 -1.40012,0.87156 v 4.44217 h -1.04026 v -6.08408 z" />
      <path
         inkscape:connector-curvature="0"
         id="path856"
         style="font-style:normal;font-variant:normal;font-weight:normal;font-stretch:normal;font-family:Roboto;-inkscape-font-specification:Roboto;letter-spacing:0.26458335px;word-spacing:0px;stroke-width:0.71974331"
         d="m 558.87778,781.27601 q 0,-0.89406 0.34863,-1.60818 0.35424,-0.71412 0.9784,-1.1021 0.62977,-0.38799 1.43386,-0.38799 1.24268,0 2.00741,0.86032 0.77035,0.86031 0.77035,2.28856 v 0.0731 q 0,0.88844 -0.343,1.59693 -0.33738,0.70288 -0.97278,1.09649 -0.62978,0.39361 -1.45073,0.39361 -1.23706,0 -2.00741,-0.86032 -0.76473,-0.86032 -0.76473,-2.27731 z m 1.04588,0.1237 q 0,1.01214 0.46671,1.62505 0.47233,0.61291 1.25955,0.61291 0.79284,0 1.25955,-0.61853 0.46671,-0.62416 0.46671,-1.74313 0,-1.00089 -0.47796,-1.61942 -0.47233,-0.62416 -1.25955,-0.62416 -0.77035,0 -1.24268,0.61291 -0.47233,0.61291 -0.47233,1.75437 z" />
      <path
         inkscape:connector-curvature="0"
         id="path858"
         style="font-style:normal;font-variant:normal;font-weight:normal;font-stretch:normal;font-family:Roboto;-inkscape-font-specification:Roboto;letter-spacing:0.26458335px;word-spacing:0px;stroke-width:0.71974331"
         d="m 569.74171,783.77262 q -0.60729,0.71412 -1.78249,0.71412 -0.97278,0 -1.48447,-0.5623 -0.50607,-0.56792 -0.5117,-1.67565 v -3.95859 h 1.04026 v 3.93047 q 0,1.38326 1.1246,1.38326 1.19207,0 1.58568,-0.88843 v -4.4253 h 1.04025 v 6.08408 h -0.98964 z" />
      <path
         inkscape:connector-curvature="0"
         id="path860"
         style="font-style:normal;font-variant:normal;font-weight:normal;font-stretch:normal;font-family:Roboto;-inkscape-font-specification:Roboto;letter-spacing:0.26458335px;word-spacing:0px;stroke-width:0.71974331"
         d="m 576.13535,782.76048 q 0,-0.42173 -0.32051,-0.65227 -0.31488,-0.23616 -1.10773,-0.40485 -0.78722,-0.16869 -1.25392,-0.40486 -0.46109,-0.23617 -0.68601,-0.5623 -0.2193,-0.32613 -0.2193,-0.77597 0,-0.74786 0.62978,-1.26518 0.6354,-0.51731 1.61942,-0.51731 1.03463,0 1.67565,0.53418 0.64665,0.53419 0.64665,1.36639 h -1.04588 q 0,-0.42735 -0.36549,-0.73661 -0.35987,-0.30927 -0.91093,-0.30927 -0.56792,0 -0.88843,0.24742 -0.32051,0.24741 -0.32051,0.64664 0,0.37674 0.29802,0.56792 0.29802,0.19118 1.07399,0.3655 0.7816,0.17431 1.26517,0.4161 0.48358,0.24179 0.71412,0.58479 0.23617,0.33738 0.23617,0.82658 0,0.81533 -0.65227,1.31016 -0.65227,0.4892 -1.69252,0.4892 -0.73099,0 -1.29329,-0.25866 -0.5623,-0.25866 -0.88281,-0.71974 -0.31489,-0.46671 -0.31489,-1.00652 h 1.04026 q 0.0281,0.52294 0.4161,0.8322 0.39361,0.30365 1.03463,0.30365 0.59041,0 0.94466,-0.23617 0.35987,-0.24179 0.35987,-0.64102 z" />
    </g>
    <path
       sodipodi:nodetypes="ccccccccccccccccccccccccccccccccccccccccccccccccccccccccccscccccccccccccccccccccccczccccccccccccccccccccccccccccccccccccccccccccccccccczcc"
       inkscape:connector-curvature="0"
       id="path864"
       d="m 522.33962,680.86409 c -0.49707,-0.0138 -1.02828,0.005 -1.5213,0.0358 -0.49304,0.0313 -0.94701,0.0762 -1.29297,0.11546 -0.34598,0.0392 -0.57492,0.0699 -0.64137,0.0821 -0.0687,0.0109 -0.12964,0.0279 -0.18983,0.0436 -0.0514,-0.0221 -0.11109,-0.004 -0.14111,0.0436 -0.0529,0.0174 -0.10648,0.0351 -0.15136,0.0565 -0.001,8.3e-4 -0.004,0.001 -0.005,0.002 -0.12898,0.0692 -0.2751,0.1609 -0.36172,0.32324 -0.0737,0.13709 -0.0907,0.26758 -0.0924,0.39251 -2.57693,0.74489 -3.6587,1.48518 -4.89998,2.62445 -0.007,0.007 -0.015,0.0178 -0.0205,0.0283 l 0.007,-0.005 -0.0109,0.0109 -0.002,0.002 c -10e-6,8.8e-4 -10e-6,10e-4 0,0.002 -10e-4,0.004 -0.004,0.006 -0.005,0.0109 v -0.005 c -0.35419,0.35899 -0.54459,0.76864 -0.55927,1.16213 -0.0137,0.37043 0.0996,0.66843 0.19754,0.90304 -0.0543,0.12202 -0.0993,0.22993 -0.15649,0.34376 -4e-5,10e-4 -4e-5,0.004 0,0.005 -0.0382,0.0839 -0.0663,0.18161 -0.0514,0.28732 0.30934,2.19119 1.27256,4.47921 2.96719,5.95837 1.32966,1.16045 2.88307,1.46411 4.61623,1.91751 8.9e-4,1e-5 10e-4,1e-5 0.002,0 0.34577,0.007 0.60096,-10e-4 0.77733,0.0131 0.17634,0.0147 0.25555,0.0444 0.3181,0.13082 0.11995,0.16552 0.34544,0.43095 0.57723,0.85173 0.14722,0.26717 0.46593,0.37027 0.7491,0.3181 0.28248,-0.052 0.54694,-0.27936 0.56697,-0.64391 v -0.002 c 0.0261,-0.42999 -0.0481,-0.75904 -0.007,-1.07492 0.0217,-0.17182 0.0311,-0.26505 0.0616,-0.32838 0.0305,-0.0633 0.0905,-0.12596 0.25653,-0.23859 0.0716,-0.0486 0.27451,-0.15837 0.54388,-0.31299 0.26935,-0.1546 0.61079,-0.35798 0.98511,-0.61312 0.74868,-0.51033 1.02022,-0.79266 1.71144,-1.73114 1.38637,-1.88151 1.59691,-4.04734 1.4928,-5.64961 -0.053,-0.81577 -0.17014,-1.29289 -0.27451,-1.62906 -0.10441,-0.33615 -0.18849,-0.51814 -0.18727,-0.76962 0.0225,-0.28205 -0.16643,-0.53325 -0.43869,-0.60032 -0.002,-10e-4 -0.006,-0.004 -0.0109,-0.005 -0.004,-8.6e-4 -0.006,-0.004 -0.0109,-0.005 -0.004,-2.5e-4 -0.01,-2.5e-4 -0.0131,0 -8.7e-4,-8.9e-4 -10e-4,-10e-4 -0.002,-0.002 -0.0109,-0.001 -0.0222,0.004 -0.0334,0.002 -0.0548,-0.006 -0.10963,-0.004 -0.16419,0.005 -10e-4,-3.5e-4 -0.005,-2e-5 -0.005,0 -0.007,-10e-4 -0.0223,-0.005 -0.0231,-0.005 -8e-4,-8e-5 -0.0352,0.002 -0.0358,0.002 -10e-4,-3e-5 -0.004,-3e-5 -0.005,0 -0.0336,0.007 -0.0424,0.0202 -0.0487,0.0256 -9.3e-4,8e-4 -0.006,0.002 -0.007,0.002 -0.0233,0.01 -0.0495,0.017 -0.059,0.0205 -0.007,0.004 -0.0159,0.007 -0.0231,0.0131 -0.0158,0.0109 -0.0395,0.025 -0.0692,0.0513 -0.001,8.3e-4 -0.004,10e-4 -0.005,0.002 l -0.002,0.002 c -0.0109,0.0109 -0.0205,0.0209 -0.0307,0.0307 -0.76387,-1.04091 -1.77505,-1.7207 -2.94512,-2.04209 -0.36475,-0.10016 -0.82926,-0.14529 -1.32632,-0.15907 z m -0.51053,1.0775 c 0.54733,0.0121 1.06758,0.0585 1.52644,0.1847 0.47338,0.13004 1.00435,0.34174 1.43663,0.61058 0.42544,0.26456 0.7457,0.58402 0.84917,0.9133 -0.10575,1.32897 -0.65384,2.24068 -1.46229,3.26835 -0.38169,0.48514 -0.97812,0.92632 -1.4033,1.27759 -0.0356,0.0294 -0.0555,0.0331 -0.0668,0.0334 -0.0121,2.7e-4 -0.026,-0.004 -0.0514,-0.0231 -0.0506,-0.0374 -0.12281,-0.13513 -0.20524,-0.25142 -0.0823,-0.11619 -0.17865,-0.24986 -0.30528,-0.35659 -0.12661,-0.10684 -0.2914,-0.18488 -0.48999,-0.17701 -1.04276,0.0413 -2.35821,0.59796 -3.48129,0.54643 -0.74573,-0.0426 -0.8826,-0.0705 -1.43407,-0.21293 -0.54589,-0.14094 -1.06937,-0.32947 -1.62906,-0.60031 -0.33515,-0.16214 -0.70011,-0.45146 -0.90046,-0.61057 -0.0175,-0.0138 -0.0845,-0.0799 -0.14881,-0.17189 -0.0643,-0.0919 -0.13095,-0.21352 -0.17186,-0.34633 -0.0817,-0.26561 -0.0782,-0.57123 0.25653,-0.88508 0.42355,-0.39719 1.59507,-1.11533 2.05235,-1.33146 0.47106,-0.22262 0.80073,-0.33383 1.47255,-0.58747 0.33742,-0.12742 1.25144,-0.42581 1.57262,-0.48744 0.32118,-0.0616 2.58328,-0.79274 2.58328,-0.79274 z m 4.93333,3.64034 c 0.004,0.01 0.0146,0.0307 0.0154,0.0334 10e-4,0.004 0.004,0.004 0.005,0.007 0.3527,1.79135 -0.20965,4.0357 -1.1834,5.19615 -0.93831,1.1183 -2.81111,1.77722 -3.62678,2.06659 -10e-4,-0.005 -0.004,-0.0159 -0.005,-0.018 -8.7e-4,-8.9e-4 -10e-4,-10e-4 -0.002,-0.002 -0.17577,-0.56261 -0.29516,-0.9059 -0.36942,-1.17241 -0.0742,-0.26647 -0.10466,-0.45344 -0.10005,-0.72857 0.005,-0.26945 0.0565,-0.44836 0.20267,-0.65418 0.1443,-0.2031 0.40397,-0.43238 0.85173,-0.67471 0.92799,-0.50226 2.05305,-1.43722 2.29092,-1.66753 0.21563,-0.2088 0.40045,-0.37253 0.4977,-0.44896 8.9e-4,2e-5 10e-4,2e-5 0.002,0 0.073,-0.0577 0.14994,-0.15155 0.23346,-0.24883 0.0835,-0.0974 0.16917,-0.19864 0.20266,-0.22834 0.006,-0.005 0.0131,-0.0121 0.018,-0.018 0.35775,-0.48412 0.55836,-0.81421 0.77989,-1.3648 0.005,-0.006 0.0121,-0.0122 0.0154,-0.0154 0.0131,-0.007 0.0249,-0.0157 0.0358,-0.0231 l 0.002,-0.002 c 0.0349,-0.0214 0.0517,-0.0308 0.0514,-0.0307 0.007,-7e-5 0.0155,-9.7e-4 0.0231,-0.002 8.7e-4,10e-6 10e-4,10e-6 0.002,0 0.0211,-0.001 0.0419,-0.002 0.0565,-0.002 z m 0.0359,0.0616 c 0.0121,0.0141 0.0225,0.0335 0.0256,0.0358 l -0.0131,-0.0131 c 3.6e-4,4.1e-4 -0.006,-0.0121 -0.0131,-0.0231 z m -13.03496,2.25501 c 0.39195,0.27662 0.7167,0.5114 0.92099,0.61314 2.26737,1.1291 4.40254,1.08961 6.26992,0.59519 0.0208,0.006 0.0324,0.0154 0.059,0.0131 10e-4,-1.1e-4 10e-4,1.3e-4 0.002,0 0.0405,-0.002 0.0716,-0.007 0.0924,-0.007 0.0362,9.9e-4 0.0642,0.006 0.0924,0.018 8.8e-4,8.9e-4 10e-4,10e-4 0.002,0.002 5.8e-4,2.3e-4 0.005,0.004 0.007,0.005 -0.004,0.01 -0.01,0.0193 -0.0131,0.0283 -0.17042,0.14784 -0.32204,0.30332 -0.44382,0.47459 -0.28256,0.39749 -0.41283,0.85733 -0.42074,1.30838 -0.01,0.54197 -0.006,0.45877 0.13082,0.99794 0.0237,0.092 0.0453,0.21822 0.0668,0.31557 0.0246,0.11205 0.0433,0.22492 0.0565,0.33863 0.006,0.0636 0.007,0.11776 0,0.15904 -0.007,0.0361 -0.025,0.0765 -0.0487,0.12056 -3.9e-4,5.8e-4 -0.006,0.006 -0.007,0.007 -0.61041,0.0662 -2.06269,0.47754 -3.74065,-0.48327 -1.67795,-0.96082 -2.71351,-2.65829 -3.02639,-4.50593 z"
       style="color:#000000;font-style:normal;font-variant:normal;font-weight:normal;font-stretch:normal;font-size:medium;line-height:normal;font-family:sans-serif;font-variant-ligatures:normal;font-variant-position:normal;font-variant-caps:normal;font-variant-numeric:normal;font-variant-alternates:normal;font-feature-settings:normal;text-indent:0;text-align:start;text-decoration:none;text-decoration-line:none;text-decoration-style:solid;text-decoration-color:#000000;letter-spacing:normal;word-spacing:normal;text-transform:none;writing-mode:lr-tb;direction:ltr;text-orientation:mixed;dominant-baseline:auto;baseline-shift:baseline;text-anchor:start;white-space:normal;shape-padding:0;clip-rule:nonzero;display:inline;overflow:visible;visibility:visible;opacity:1;isolation:auto;mix-blend-mode:normal;color-interpolation:sRGB;color-interpolation-filters:linearRGB;solid-color:#000000;solid-opacity:1;vector-effect:none;fill:#000000;fill-opacity:1;fill-rule:nonzero;stroke:none;stroke-width:0.70552635;stroke-linecap:round;stroke-linejoin:miter;stroke-miterlimit:4;stroke-dasharray:none;stroke-dashoffset:0;stroke-opacity:1;color-rendering:auto;image-rendering:auto;shape-rendering:auto;text-rendering:auto;enable-background:accumulate" />
    <path
       style="opacity:1;fill:#000000;fill-opacity:1;stroke:none;stroke-width:1.02011657;stroke-linecap:round;stroke-linejoin:round;stroke-miterlimit:4;stroke-dasharray:none;stroke-dashoffset:0;stroke-opacity:1"
       id="path870"
       d="m 520.05834,774.10393 c -0.20413,0.12929 -0.38243,0.29146 -0.56172,0.45202 -0.96213,0.85809 -2.17565,-0.50256 -1.21352,-1.36065 v 0 c 0.24353,-0.2165 0.48893,-0.43176 0.76392,-0.60835 1.07267,-0.71512 2.08399,0.80187 1.01132,1.51698 z"
       inkscape:connector-curvature="0" />
  </g>
</svg>
