<?xml version="1.0" encoding="UTF-8" standalone="no"?>
<svg
   xmlns:dc="http://purl.org/dc/elements/1.1/"
   xmlns:cc="http://creativecommons.org/ns#"
   xmlns:rdf="http://www.w3.org/1999/02/22-rdf-syntax-ns#"
   xmlns:svg="http://www.w3.org/2000/svg"
   xmlns="http://www.w3.org/2000/svg"
   xmlns:sodipodi="http://sodipodi.sourceforge.net/DTD/sodipodi-0.dtd"
   xmlns:inkscape="http://www.inkscape.org/namespaces/inkscape"
   id="svg1428"
   version="1.1"
   viewBox="0 0 33.866666 9.4135336"
   height="35.578709"
   width="128"
   sodipodi:docname="flamous_logo_new.svg"
   inkscape:version="0.92.2 2405546, 2018-03-11">
  <sodipodi:namedview
     pagecolor="#ffffff"
     bordercolor="#666666"
     borderopacity="1"
     objecttolerance="10"
     gridtolerance="10"
     guidetolerance="10"
     inkscape:pageopacity="0"
     inkscape:pageshadow="2"
     inkscape:window-width="1600"
     inkscape:window-height="836"
     id="namedview1632"
     showgrid="false"
     inkscape:zoom="1.0385631"
     inkscape:cx="29.603666"
     inkscape:cy="-184.71937"
     inkscape:window-x="0"
     inkscape:window-y="27"
     inkscape:window-maximized="1"
     inkscape:current-layer="svg1428"
     fit-margin-top="0"
     fit-margin-left="0"
     fit-margin-right="0"
     fit-margin-bottom="0" />
  <defs
     id="defs1422" />
  <metadata
     id="metadata1425">
    <rdf:RDF>
      <cc:Work
         rdf:about="">
        <dc:format>image/svg+xml</dc:format>
        <dc:type
           rdf:resource="http://purl.org/dc/dcmitype/StillImage" />
        <dc:title />
      </cc:Work>
    </rdf:RDF>
  </metadata>
  <g
     transform="matrix(0.51873154,0,0,0.51873154,-265.53253,-399.55976)"
     id="g1537">
    <g
       aria-label="Flamous"
       style="font-style:normal;font-variant:normal;font-weight:normal;font-stretch:normal;font-size:11.51589298px;line-height:1.25;font-family:Roboto;-inkscape-font-specification:Roboto;letter-spacing:0.26458335px;word-spacing:0px;fill:#000000;fill-opacity:1;stroke:none;stroke-width:0.71974331"
       id="text1489">
      <path
         d="m 537.24491,780.75869 h -3.43565 v 3.61559 h -1.07962 v -8.18708 h 5.07195 v 0.88843 h -3.99233 v 2.80025 h 3.43565 z"
         style="font-style:normal;font-variant:normal;font-weight:normal;font-stretch:normal;font-family:Roboto;-inkscape-font-specification:Roboto;letter-spacing:0.26458335px;word-spacing:0px;stroke-width:0.71974331"
         id="path2206"
         inkscape:connector-curvature="0" />
      <path
         d="m 540.32661,784.37428 h -1.04025 v -8.63692 h 1.04025 z"
         style="font-style:normal;font-variant:normal;font-weight:normal;font-stretch:normal;font-family:Roboto;-inkscape-font-specification:Roboto;letter-spacing:0.26458335px;word-spacing:0px;stroke-width:0.71974331"
         id="path2208"
         inkscape:connector-curvature="0" />
      <path
         d="m 546.00614,784.37428 q -0.09,-0.17994 -0.1462,-0.64102 -0.72536,0.75348 -1.73188,0.75348 -0.89968,0 -1.47885,-0.50607 -0.57354,-0.51169 -0.57354,-1.29329 0,-0.95029 0.71974,-1.47322 0.72537,-0.52857 2.03552,-0.52857 h 1.01214 v -0.47795 q 0,-0.54543 -0.32613,-0.86594 -0.32613,-0.32614 -0.96153,-0.32614 -0.55668,0 -0.93342,0.28115 -0.37674,0.28115 -0.37674,0.68039 h -1.04588 q 0,-0.45547 0.32051,-0.87719 0.32614,-0.42735 0.87719,-0.67476 0.55668,-0.24741 1.22019,-0.24741 1.0515,0 1.64754,0.52856 0.59603,0.52294 0.61853,1.44511 v 2.80025 q 0,0.83783 0.21367,1.33265 v 0.09 z m -1.72626,-0.79284 q 0.4892,0 0.92779,-0.25304 0.4386,-0.25303 0.6354,-0.65789 v -1.2483 h -0.81533 q -1.91182,0 -1.91182,1.11897 0,0.4892 0.32613,0.76473 0.32614,0.27553 0.83783,0.27553 z"
         style="font-style:normal;font-variant:normal;font-weight:normal;font-stretch:normal;font-family:Roboto;-inkscape-font-specification:Roboto;letter-spacing:0.26458335px;word-spacing:0px;stroke-width:0.71974331"
         id="path2210"
         inkscape:connector-curvature="0" />
      <path
         d="m 549.76823,778.2902 0.0281,0.67476 q 0.66914,-0.78722 1.80498,-0.78722 1.27642,0 1.73751,0.9784 0.30364,-0.43859 0.78722,-0.7085 0.4892,-0.2699 1.15271,-0.2699 2.00179,0 2.03552,2.11987 v 4.07667 h -1.04025 v -4.01482 q 0,-0.65227 -0.29802,-0.97278 -0.29802,-0.32613 -1.00089,-0.32613 -0.57917,0 -0.96153,0.34862 -0.38237,0.34301 -0.44422,0.9278 v 4.03731 h -1.04588 v -3.9867 q 0,-1.32703 -1.29891,-1.32703 -1.02338,0 -1.40012,0.87156 v 4.44217 h -1.04026 v -6.08408 z"
         style="font-style:normal;font-variant:normal;font-weight:normal;font-stretch:normal;font-family:Roboto;-inkscape-font-specification:Roboto;letter-spacing:0.26458335px;word-spacing:0px;stroke-width:0.71974331"
         id="path2212"
         inkscape:connector-curvature="0" />
      <path
         d="m 558.87778,781.27601 q 0,-0.89406 0.34863,-1.60818 0.35424,-0.71412 0.9784,-1.1021 0.62977,-0.38799 1.43386,-0.38799 1.24268,0 2.00741,0.86032 0.77035,0.86031 0.77035,2.28856 v 0.0731 q 0,0.88844 -0.343,1.59693 -0.33738,0.70288 -0.97278,1.09649 -0.62978,0.39361 -1.45073,0.39361 -1.23706,0 -2.00741,-0.86032 -0.76473,-0.86032 -0.76473,-2.27731 z m 1.04588,0.1237 q 0,1.01214 0.46671,1.62505 0.47233,0.61291 1.25955,0.61291 0.79284,0 1.25955,-0.61853 0.46671,-0.62416 0.46671,-1.74313 0,-1.00089 -0.47796,-1.61942 -0.47233,-0.62416 -1.25955,-0.62416 -0.77035,0 -1.24268,0.61291 -0.47233,0.61291 -0.47233,1.75437 z"
         style="font-style:normal;font-variant:normal;font-weight:normal;font-stretch:normal;font-family:Roboto;-inkscape-font-specification:Roboto;letter-spacing:0.26458335px;word-spacing:0px;stroke-width:0.71974331"
         id="path2214"
         inkscape:connector-curvature="0" />
      <path
         d="m 569.74171,783.77262 q -0.60729,0.71412 -1.78249,0.71412 -0.97278,0 -1.48447,-0.5623 -0.50607,-0.56792 -0.5117,-1.67565 v -3.95859 h 1.04026 v 3.93047 q 0,1.38326 1.1246,1.38326 1.19207,0 1.58568,-0.88843 v -4.4253 h 1.04025 v 6.08408 h -0.98964 z"
         style="font-style:normal;font-variant:normal;font-weight:normal;font-stretch:normal;font-family:Roboto;-inkscape-font-specification:Roboto;letter-spacing:0.26458335px;word-spacing:0px;stroke-width:0.71974331"
         id="path2216"
         inkscape:connector-curvature="0" />
      <path
         d="m 576.13535,782.76048 q 0,-0.42173 -0.32051,-0.65227 -0.31488,-0.23616 -1.10773,-0.40485 -0.78722,-0.16869 -1.25392,-0.40486 -0.46109,-0.23617 -0.68601,-0.5623 -0.2193,-0.32613 -0.2193,-0.77597 0,-0.74786 0.62978,-1.26518 0.6354,-0.51731 1.61942,-0.51731 1.03463,0 1.67565,0.53418 0.64665,0.53419 0.64665,1.36639 h -1.04588 q 0,-0.42735 -0.36549,-0.73661 -0.35987,-0.30927 -0.91093,-0.30927 -0.56792,0 -0.88843,0.24742 -0.32051,0.24741 -0.32051,0.64664 0,0.37674 0.29802,0.56792 0.29802,0.19118 1.07399,0.3655 0.7816,0.17431 1.26517,0.4161 0.48358,0.24179 0.71412,0.58479 0.23617,0.33738 0.23617,0.82658 0,0.81533 -0.65227,1.31016 -0.65227,0.4892 -1.69252,0.4892 -0.73099,0 -1.29329,-0.25866 -0.5623,-0.25866 -0.88281,-0.71974 -0.31489,-0.46671 -0.31489,-1.00652 h 1.04026 q 0.0281,0.52294 0.4161,0.8322 0.39361,0.30365 1.03463,0.30365 0.59041,0 0.94466,-0.23617 0.35987,-0.24179 0.35987,-0.64102 z"
         style="font-style:normal;font-variant:normal;font-weight:normal;font-stretch:normal;font-family:Roboto;-inkscape-font-specification:Roboto;letter-spacing:0.26458335px;word-spacing:0px;stroke-width:0.71974331"
         id="path2218"
         inkscape:connector-curvature="0" />
    </g>
    <path
       inkscape:connector-curvature="0"
       style="opacity:1;fill:#007aff;fill-opacity:1;stroke:none;stroke-width:7;stroke-linecap:round;stroke-linejoin:round;stroke-miterlimit:4;stroke-dasharray:none;stroke-dashoffset:0;stroke-opacity:1"
       d="m 1968.9902,2911.2305 a 34.294677,34.294677 0 0 0 -34.2949,34.2949 34.294677,34.294677 0 0 0 34.2949,34.293 34.294677,34.294677 0 0 0 2.3282,-0.082 c 0.015,-0.4233 0.039,-0.8469 0.039,-1.2715 0.051,-2.8301 0.079,-5.677 -0.2773,-8.4902 -0.2813,-1.6173 -0.6036,-3.2264 -0.9981,-4.8203 -0.6924,-2.9913 3.5381,-3.9699 4.2305,-0.9785 0.4123,1.6706 0.7475,3.3562 1.0449,5.0508 0.4203,3.0841 0.3981,6.2103 0.3418,9.3164 -4e-4,0.195 -0.016,0.3891 -0.02,0.584 a 34.294677,34.294677 0 0 0 27.6055,-33.6016 34.294677,34.294677 0 0 0 -34.295,-34.2949 z"
       id="circle1485"
       transform="scale(0.26458334)" />
    <path
       sodipodi:nodetypes="cccccccccccccccccccszcssccccscccscccccccccccccccsssczcccccsscsccccccccsccccccccccccccccccccccccccccccccscccsccccccccccccccc"
       inkscape:connector-curvature="0"
       d="m 519.12219,773.58711 8.9e-4,0.006 8.7e-4,-2.4e-4 z m 0.004,0.0128 0.001,0.004 c -0.0589,0.0162 -0.11226,0.0363 -0.15664,0.0575 -0.0934,0.0501 -0.18695,0.11045 -0.23984,0.20957 -0.059,0.10971 -0.0713,0.20955 -0.0662,0.31193 -0.005,0.008 -0.0109,0.0102 -0.0152,0.0165 -1.98906,0.56951 -2.79018,1.12279 -3.73857,1.99324 l -0.002,0.007 -0.005,0.008 c -0.26681,0.26438 -0.40411,0.56306 -0.41452,0.84221 -0.0104,0.27785 0.0828,0.50293 0.15938,0.68485 -0.0484,0.10645 -0.0851,0.19763 -0.13637,0.29957 -0.0243,0.0534 -0.039,0.11335 -0.0309,0.17048 0.2341,1.65828 0.80348,3.61419 2.06502,4.71532 0.99073,0.86465 2.31856,1.16075 3.62715,1.20811 0.52043,0.0126 0.77119,-0.036 0.9018,0.14443 0.0866,0.11951 0.26496,0.32983 0.44548,0.65753 0.18056,0.32769 0.81544,0.26831 0.84029,-0.21366 0.0195,-0.31486 -0.0393,-0.56496 -0.006,-0.82564 0.0324,-0.25682 0.0172,-0.31372 0.27856,-0.49104 0.2614,-0.17738 1.87255,-0.92716 2.90826,-2.33336 1.03586,-1.40581 0.73944,-2.68449 0.65952,-3.91438 -0.08,-1.22987 -0.35516,-1.40972 -0.35313,-1.83039 0.0177,-0.18012 -0.10434,-0.3442 -0.28113,-0.38025 l -8.7e-4,2.3e-4 c -9.6e-4,2.6e-4 -0.003,7.9e-4 -0.008,-0.002 -0.0508,-0.009 -0.10288,-0.007 -0.15262,0.006 -0.003,7.7e-4 -0.009,-0.005 -0.0136,-0.004 -0.008,0.002 -0.0145,0.0111 -0.0231,0.0134 -0.0195,0.005 -0.0368,0.0161 -0.0554,0.0231 -0.0156,0.0104 -0.0305,0.0185 -0.0443,0.0307 l -0.003,8.1e-4 c -0.0138,0.013 -0.0263,0.0267 -0.0386,0.0386 -0.0102,0.0131 -0.0214,0.0226 -0.0305,0.036 l -9.6e-4,2.6e-4 c -0.005,0.008 -0.009,0.0139 -0.0122,0.021 l -9.7e-4,2.6e-4 c -0.57717,-0.82947 -1.3581,-1.35683 -2.26526,-1.606 -1.06329,-0.29203 -3.43878,0.0302 -3.60206,0.0602 -0.0657,0.0104 -0.12931,0.0274 -0.18815,0.0432 z m 1.98587,0.42016 c 0.5905,-0.0224 1.13545,0.0202 1.61533,0.15204 0.73523,0.20194 1.63884,0.65478 1.80776,1.23286 -0.0783,1.04306 -0.51264,1.76117 -1.13566,2.55312 -0.30177,0.38356 -0.76212,0.7208 -1.08234,0.98536 -0.29833,0.24666 -0.3928,-0.58901 -0.90225,-0.56881 -0.76524,0.0303 -1.77385,0.45563 -2.66016,0.41427 -0.56939,-0.0325 -0.68597,-0.0554 -1.10674,-0.16402 -0.42077,-0.10863 -0.8244,-0.25396 -1.25539,-0.46251 -0.26883,-0.13005 -0.55148,-0.3535 -0.70408,-0.47469 -0.10561,-0.0839 -0.60474,-0.68024 -0.0519,-1.19873 0.34137,-0.32014 0.85812,-0.68697 1.58314,-1.02963 -0.0933,0.19134 -0.22311,1.05106 -0.0349,1.48679 0.2486,0.5758 1.74318,1.1516 2.21082,1.19976 0.37351,0.0385 0.58577,0.0901 1.16807,-0.0829 0.44467,-0.13126 0.57276,-0.68187 -0.0524,-0.61457 -0.28168,0.0302 -0.83838,-0.0427 -1.4808,-0.29882 -0.68432,-0.27287 -1.25627,-0.82216 -1.25179,-1.09457 0.005,-0.27234 0.0973,-0.49117 0.53696,-0.77784 0.94459,-0.61581 1.86243,-0.99328 2.70509,-0.50283 0.41017,0.23873 0.53103,0.40018 0.48889,0.58676 -0.0421,0.18672 -0.31533,0.37238 -0.59525,0.46712 -0.27994,0.0947 -1.40813,0.10139 -1.6699,0.12022 -0.26179,0.0189 -0.39367,0.44632 -0.14148,0.49355 0.25226,0.0473 1.02346,0.25021 2.04528,0.17595 0.60861,-0.0442 1.09008,-0.43063 1.20583,-0.94368 0.11576,-0.51299 -0.15898,-1.09105 -0.7596,-1.44057 -0.15661,-0.0912 -0.31848,-0.15983 -0.48241,-0.21313 z m -5.79201,4.472 c 0.40188,0.28353 0.65057,0.46168 0.82248,0.54731 1.71154,0.85231 3.31586,0.82057 4.72615,0.44462 0.0122,0.007 0.0254,0.0137 0.044,0.0116 0.0276,-10e-4 0.0547,-0.006 0.0821,-0.006 0.035,9.7e-4 0.0701,0.005 0.10289,0.0181 0.0105,0.004 0.018,0.009 0.0291,0.0156 0.0123,0.007 0.0227,0.0165 0.0336,0.0257 1.9e-4,-7e-5 0.002,0.009 0.003,0.01 8.6e-4,0.006 -10e-4,0.008 -0.003,0.0112 0.002,0.0118 0.004,0.0174 0.007,0.0274 -0.013,0.0218 -0.0234,0.0446 -0.0336,0.0678 -0.13318,0.11344 -0.24834,0.2336 -0.34048,0.36318 -0.20414,0.28718 -0.29714,0.61835 -0.30288,0.94604 -0.007,0.41293 -0.008,0.32292 0.0974,0.73624 0.0195,0.0761 0.0343,0.17337 0.0497,0.24348 0.0194,0.0881 0.0353,0.17714 0.0456,0.26682 0.005,0.0487 0.009,0.0997 -0.001,0.14841 -0.009,0.0408 -0.026,0.0779 -0.0459,0.11478 -0.0104,0.0187 -0.0262,0.0326 -0.0397,0.0481 -1.09288,0.19066 -2.32814,0.1707 -3.06134,-0.20775 -1.10407,-0.59689 -2.02665,-2.30916 -2.24103,-3.76491 -0.003,-0.0232 4.6e-4,-0.0292 0.025,-0.0664 z m 9.90737,-1.68819 v 0 l 8.4e-4,-2.2e-4 8.4e-4,-2.3e-4 c 0.0276,-0.001 0.0548,-0.004 0.0823,-0.002 l 0.009,-0.002 c 0.004,-10e-4 0.009,0.004 0.0129,0.005 0.007,0.004 0.0102,0.003 0.0158,0.005 0.0102,0.0109 0.0199,0.0212 0.0249,0.0344 0.006,0.0142 0.0136,0.0274 0.0174,0.0418 0.002,0.006 0.008,0.005 0.009,0.01 0.27334,1.38217 0.1463,2.88695 -0.62313,3.8039 -0.76941,0.91701 -2.62009,1.67204 -3.18651,1.86399 -0.002,-0.0131 -0.0242,-0.0942 -0.0276,-0.1066 -0.26685,-0.85411 -0.36856,-1.04129 -0.36117,-1.47425 0.004,-0.21653 0.0497,-0.37726 0.17002,-0.54668 0.1204,-0.16946 0.32907,-0.35047 0.67763,-0.53912 0.69219,-0.37463 1.55856,-1.09415 1.72435,-1.25466 0.16576,-0.16051 0.30907,-0.28712 0.38794,-0.34909 0.0787,-0.0622 0.25507,-0.29209 0.3301,-0.35861 0.27564,-0.373 0.42254,-0.61224 0.59253,-1.0397 0.008,-0.009 0.0165,-0.0185 0.0248,-0.0272 0.0135,-0.008 0.0255,-0.0172 0.0386,-0.0261 0.0261,-0.0163 0.051,-0.0346 0.0828,-0.0363 z"
       style="color:#000000;font-style:normal;font-variant:normal;font-weight:normal;font-stretch:normal;font-size:medium;line-height:normal;font-family:sans-serif;font-variant-ligatures:normal;font-variant-position:normal;font-variant-caps:normal;font-variant-numeric:normal;font-variant-alternates:normal;font-feature-settings:normal;text-indent:0;text-align:start;text-decoration:none;text-decoration-line:none;text-decoration-style:solid;text-decoration-color:#000000;letter-spacing:normal;word-spacing:normal;text-transform:none;writing-mode:lr-tb;direction:ltr;text-orientation:mixed;dominant-baseline:auto;baseline-shift:baseline;text-anchor:start;white-space:normal;shape-padding:0;clip-rule:nonzero;display:inline;overflow:visible;visibility:visible;opacity:1;isolation:auto;mix-blend-mode:normal;color-interpolation:sRGB;color-interpolation-filters:linearRGB;solid-color:#000000;solid-opacity:1;vector-effect:none;fill:#ffffff;fill-opacity:1;fill-rule:nonzero;stroke:none;stroke-width:0.70552635;stroke-linecap:round;stroke-linejoin:miter;stroke-miterlimit:4;stroke-dasharray:none;stroke-dashoffset:0;stroke-opacity:1;color-rendering:auto;image-rendering:auto;shape-rendering:auto;text-rendering:auto;enable-background:accumulate"
       id="path1493" />
  </g>
</svg>
