<?xml version="1.0" encoding="UTF-8" standalone="no"?>
<!-- Created with Inkscape (http://www.inkscape.org/) -->

<svg
   xmlns:dc="http://purl.org/dc/elements/1.1/"
   xmlns:cc="http://creativecommons.org/ns#"
   xmlns:rdf="http://www.w3.org/1999/02/22-rdf-syntax-ns#"
   xmlns:svg="http://www.w3.org/2000/svg"
   xmlns="http://www.w3.org/2000/svg"
   xmlns:xlink="http://www.w3.org/1999/xlink"
   xmlns:sodipodi="http://sodipodi.sourceforge.net/DTD/sodipodi-0.dtd"
   xmlns:inkscape="http://www.inkscape.org/namespaces/inkscape"
   width="76.220963mm"
   height="15.212494mm"
   viewBox="0 0 76.220963 15.212494"
   version="1.1"
   id="svg1818"
   inkscape:version="0.92.4 5da689c313, 2019-01-14"
   sodipodi:docname="logo_draft_2.svg">
  <defs
     id="defs1812">
    <linearGradient
       inkscape:collect="always"
       xlink:href="#linearGradient1597"
       id="linearGradient1780"
       gradientUnits="userSpaceOnUse"
       gradientTransform="matrix(1.4409929,-0.19586802,0.19586802,1.4409929,-1548.8113,-1283.0224)"
       x1="951.22632"
       y1="1118.3276"
       x2="954.56744"
       y2="1132.2797" />
    <linearGradient
       id="linearGradient1597"
       inkscape:collect="always">
      <stop
         id="stop1593"
         offset="0"
         style="stop-color:#406eff;stop-opacity:1" />
      <stop
         id="stop1595"
         offset="1"
         style="stop-color:#4fc3ff;stop-opacity:1" />
    </linearGradient>
  </defs>
  <sodipodi:namedview
     id="base"
     pagecolor="#ffffff"
     bordercolor="#666666"
     borderopacity="1.0"
     inkscape:pageopacity="0.0"
     inkscape:pageshadow="2"
     inkscape:zoom="0.98994949"
     inkscape:cx="9.8596549"
     inkscape:cy="33.75075"
     inkscape:document-units="mm"
     inkscape:current-layer="layer1"
     showgrid="false"
     inkscape:window-width="1600"
     inkscape:window-height="836"
     inkscape:window-x="0"
     inkscape:window-y="27"
     inkscape:window-maximized="1"
     fit-margin-top="0"
     fit-margin-left="0"
     fit-margin-right="0"
     fit-margin-bottom="0" />
  <metadata
     id="metadata1815">
    <rdf:RDF>
      <cc:Work
         rdf:about="">
        <dc:format>image/svg+xml</dc:format>
        <dc:type
           rdf:resource="http://purl.org/dc/dcmitype/StillImage" />
        <dc:title></dc:title>
      </cc:Work>
    </rdf:RDF>
  </metadata>
  <g
     inkscape:label="Layer 1"
     inkscape:groupmode="layer"
     id="layer1"
     transform="translate(-35.972851,-145.00685)">
    <g
       id="g2384">
      <path
         sodipodi:nodetypes="cccccssccccsccccccssccccccsszcszszczccccsczcsssssscc"
         style="color:#000000;font-style:normal;font-variant:normal;font-weight:normal;font-stretch:normal;font-size:medium;line-height:normal;font-family:sans-serif;font-variant-ligatures:normal;font-variant-position:normal;font-variant-caps:normal;font-variant-numeric:normal;font-variant-alternates:normal;font-feature-settings:normal;text-indent:0;text-align:start;text-decoration:none;text-decoration-line:none;text-decoration-style:solid;text-decoration-color:#000000;letter-spacing:normal;word-spacing:normal;text-transform:none;writing-mode:lr-tb;direction:ltr;text-orientation:mixed;dominant-baseline:auto;baseline-shift:baseline;text-anchor:start;white-space:normal;shape-padding:0;clip-rule:nonzero;display:inline;overflow:visible;visibility:visible;opacity:1;isolation:auto;mix-blend-mode:normal;color-interpolation:sRGB;color-interpolation-filters:linearRGB;solid-color:#000000;solid-opacity:1;vector-effect:none;fill:url(#linearGradient1780);fill-opacity:1;fill-rule:nonzero;stroke:none;stroke-width:1.10635102;stroke-linecap:round;stroke-linejoin:miter;stroke-miterlimit:4;stroke-dasharray:none;stroke-dashoffset:0;stroke-opacity:1;color-rendering:auto;image-rendering:auto;shape-rendering:auto;text-rendering:auto;enable-background:accumulate"
         d="m 42.548512,145.18013 h 0.0209 c 0.11969,0.026 0.23278,0.059 0.34419,0.089 0.001,-1e-4 0.002,-3e-4 0.003,-4e-4 0.005,2e-4 0.0102,2e-4 0.0153,0 0.90944,0.3142 2.34131,0.4304 2.3735,1.689 0.0276,1.0782 -1.24565,1.8587 -1.64365,1.9881 -0.92757,0.3016 -4.00418,0.2009 -3.6667,-0.2651 1.38793,-0.015 2.26266,-0.154 2.85276,-0.3388 0.46784,-0.1624 0.55799,-0.2215 0.93032,-0.4015 h -3.18e-4 c 0.39723,-0.3194 0.77496,-0.7776 0.38876,-1.081 -0.43956,-0.3453 -1.03995,-0.4679 -1.49901,-0.6099 -0.004,-1e-4 -0.008,-1e-4 -0.0116,0 h -0.015 c -0.0115,-0.001 -0.0231,-0.001 -0.0346,0 -0.002,-5e-4 -0.004,0 -0.006,0 -0.281693,-0.064 -0.537933,-0.08 -0.773343,-0.1048 -0.5079,-0.031 -0.93234,0.076 -1.45972,0.2291 -1.01134,0.2943 -2.84591,1.2246 -3.82872,2.2914 -0.30975,0.3362 -0.53127,0.7874 -0.5641,1.1838 -0.0171,0.3836 0.10384,0.6978 0.19993,0.952 -0.009,0.019 -0.0155,0.033 -0.0232,0.053 0.0603,0.051 0.12333,0.099 0.19069,0.1366 0.0714,0.039 0.11779,0.051 0.17985,0.079 0.004,0 0.009,0.01 0.0131,0.014 0.58479,0.2218 1.33536,0.5162 1.96101,0.6121 0.74735,0.1146 1.33293,0.1918 1.76314,0.2403 0.48976,0.055 1.15523,0.096 1.30203,0.1461 0.1468,0.05 -0.19123,0.2719 -0.32046,0.2948 -0.26162,0.051 -1.60715,0.042 -2.56777,-0.042 -0.35893,-0.031 -1.99647,-0.2549 -2.08893,-0.204 -0.0924,0.051 0.0664,0.6169 0.0879,0.8098 0.19193,1.7208 1.2654,3.1604 2.59975,3.9531 1.33435,0.7927 2.60229,0.9471 3.87637,1.1559 0.94665,0.168 0.95461,0.2698 1.12396,0.5566 0.16934,0.2868 0.28351,0.8565 0.51534,1.3156 0.23182,0.4592 1.06283,0.3991 1.1013,-0.2673 0.0293,-0.4344 -0.0442,-1.1561 0.003,-1.5151 0.0456,-0.3539 0.0839,-0.256 0.42479,-0.4961 0.55038,-0.3877 1.91257,-1.1858 2.64281,-2.0998 0.73029,-0.9141 1.54397,-2.2322 1.58395,-4.1277 0.0399,-1.8954 -0.30302,-2.5179 -0.49373,-3.0153 -0.19071,-0.4973 -0.73409,-1.299 -0.77902,-1.2555 -0.0624,0.5587 -0.12529,0.823 -0.39373,1.2969 -0.25592,0.4526 -0.81565,0.7771 -1.05253,0.7837 -0.18896,0.01 0.12144,-0.4224 0.18649,-0.5725 0.13449,-0.3103 0.21457,-0.8373 0.1224,-1.295 -0.210402,-1.0447 -0.542792,-1.4715 -1.361301,-1.9158 -0.41289,-0.2241 -0.89531,-0.3624 -1.30755,-0.4016 -1.19452,-0.1137 -2.50463,0.09 -2.91879,0.1425 z"
         id="path1778"
         inkscape:connector-curvature="0" />
      <text
         id="text1784"
         y="157.9991"
         x="57.382534"
         style="font-style:normal;font-variant:normal;font-weight:500;font-stretch:normal;font-size:14.32174587px;line-height:1.25;font-family:inter;-inkscape-font-specification:'inter Medium';letter-spacing:-0.34395832px;word-spacing:0px;fill:#000000;fill-opacity:1;stroke:none;stroke-width:0.71974331"
         xml:space="preserve"><tspan
           style="font-style:normal;font-variant:normal;font-weight:500;font-stretch:normal;font-family:inter;-inkscape-font-specification:'inter Medium';letter-spacing:-0.34395832px;word-spacing:0px;stroke-width:0.71974331"
           y="157.9991"
           x="57.382534"
           id="tspan1782"
           sodipodi:role="line">Flamous</tspan></text>
    </g>
  </g>
</svg>
