<?xml version="1.0" encoding="UTF-8" standalone="no"?>
<!-- Created with Inkscape (http://www.inkscape.org/) -->

<svg
   xmlns:dc="http://purl.org/dc/elements/1.1/"
   xmlns:cc="http://creativecommons.org/ns#"
   xmlns:rdf="http://www.w3.org/1999/02/22-rdf-syntax-ns#"
   xmlns:svg="http://www.w3.org/2000/svg"
   xmlns="http://www.w3.org/2000/svg"
   xmlns:xlink="http://www.w3.org/1999/xlink"
   xmlns:sodipodi="http://sodipodi.sourceforge.net/DTD/sodipodi-0.dtd"
   xmlns:inkscape="http://www.inkscape.org/namespaces/inkscape"
   width="77.770279mm"
   height="19.181667mm"
   viewBox="0 0 77.77028 19.181668"
   version="1.1"
   id="svg1818"
   inkscape:version="0.92.4 5da689c313, 2019-01-14"
   sodipodi:docname="flamous_logo_new_small.svg">
  <defs
     id="defs1812">
    <linearGradient
       inkscape:collect="always"
       xlink:href="#linearGradient1597"
       id="linearGradient1780"
       gradientUnits="userSpaceOnUse"
       gradientTransform="matrix(1.7499422,-0.23786218,0.23786218,1.7499422,-1890.1388,-1590.3082)"
       x1="951.22632"
       y1="1118.3276"
       x2="954.56744"
       y2="1132.2797" />
    <linearGradient
       id="linearGradient1597"
       inkscape:collect="always">
      <stop
         id="stop1593"
         offset="0"
         style="stop-color:#406eff;stop-opacity:1" />
      <stop
         id="stop1595"
         offset="1"
         style="stop-color:#4fc3ff;stop-opacity:1" />
    </linearGradient>
  </defs>
  <sodipodi:namedview
     id="base"
     pagecolor="#ffffff"
     bordercolor="#666666"
     borderopacity="1.0"
     inkscape:pageopacity="0.0"
     inkscape:pageshadow="2"
     inkscape:zoom="0.9899495"
     inkscape:cx="99.78204"
     inkscape:cy="154.79948"
     inkscape:document-units="mm"
     inkscape:current-layer="g2384"
     showgrid="false"
     inkscape:window-width="1600"
     inkscape:window-height="836"
     inkscape:window-x="0"
     inkscape:window-y="27"
     inkscape:window-maximized="1"
     fit-margin-top="0"
     fit-margin-left="0"
     fit-margin-right="0"
     fit-margin-bottom="0" />
  <metadata
     id="metadata1815">
    <rdf:RDF>
      <cc:Work
         rdf:about="">
        <dc:format>image/svg+xml</dc:format>
        <dc:type
           rdf:resource="http://purl.org/dc/dcmitype/StillImage" />
        <dc:title />
      </cc:Work>
    </rdf:RDF>
  </metadata>
  <g
     inkscape:label="Layer 1"
     inkscape:groupmode="layer"
     id="layer1"
     transform="translate(-34.423533,-143.8909)">
    <g
       id="g2384">
      <path
         sodipodi:nodetypes="cccccssccccsccccccssccccccsszcscsczccccsscsssssscc"
         style="color:#000000;font-style:normal;font-variant:normal;font-weight:normal;font-stretch:normal;font-size:medium;line-height:normal;font-family:sans-serif;font-variant-ligatures:normal;font-variant-position:normal;font-variant-caps:normal;font-variant-numeric:normal;font-variant-alternates:normal;font-feature-settings:normal;text-indent:0;text-align:start;text-decoration:none;text-decoration-line:none;text-decoration-style:solid;text-decoration-color:#000000;letter-spacing:normal;word-spacing:normal;text-transform:none;writing-mode:lr-tb;direction:ltr;text-orientation:mixed;dominant-baseline:auto;baseline-shift:baseline;text-anchor:start;white-space:normal;shape-padding:0;clip-rule:nonzero;display:inline;overflow:visible;visibility:visible;opacity:1;isolation:auto;mix-blend-mode:normal;color-interpolation:sRGB;color-interpolation-filters:linearRGB;solid-color:#000000;solid-opacity:1;vector-effect:none;fill:url(#linearGradient1780);fill-opacity:1;fill-rule:nonzero;stroke:none;stroke-width:1.34355295;stroke-linecap:round;stroke-linejoin:miter;stroke-miterlimit:4;stroke-dasharray:none;stroke-dashoffset:0;stroke-opacity:1;color-rendering:auto;image-rendering:auto;shape-rendering:auto;text-rendering:auto;enable-background:accumulate"
         d="m 42.409095,144.10132 h 0.02538 c 0.145352,0.0316 0.282688,0.0717 0.417984,0.10808 0.0012,-1.3e-4 0.0024,-3.6e-4 0.0036,-4.9e-4 0.006,2.5e-4 0.01239,2.5e-4 0.01857,0 1.104424,0.38157 2.843288,0.52269 2.882379,2.05112 0.03352,1.30937 -1.512718,2.25722 -1.996049,2.41435 -1.126442,0.36627 -4.862677,0.24398 -4.452841,-0.32193 1.685502,-0.0182 2.747774,-0.18702 3.464392,-0.41144 0.568146,-0.19722 0.677623,-0.26899 1.129781,-0.48759 h -3.87e-4 c 0.482397,-0.38787 0.941113,-0.94431 0.472111,-1.31276 -0.533802,-0.41933 -1.262916,-0.56822 -1.820398,-0.74066 -0.0049,-1.2e-4 -0.0097,-1.2e-4 -0.01409,0 h -0.01822 c -0.01397,-0.001 -0.02805,-0.001 -0.04202,0 -0.0024,-6.1e-4 -0.0049,0 -0.0073,0 -0.342088,-0.0777 -0.653265,-0.0971 -0.939148,-0.12728 -0.616793,-0.0376 -1.132234,0.0924 -1.772684,0.27823 -1.228172,0.3574 -3.456074,1.48716 -4.649599,2.78267 -0.376161,0.40829 -0.645174,0.95623 -0.685043,1.43762 -0.02077,0.46584 0.126103,0.8474 0.242795,1.1561 -0.01093,0.0231 -0.01882,0.04 -0.02817,0.0644 0.07323,0.0619 0.149772,0.12022 0.231574,0.16589 0.08671,0.0473 0.143044,0.062 0.21841,0.0959 0.0049,0 0.01093,0.0122 0.01591,0.0171 0.710169,0.26936 1.621661,0.62688 2.381451,0.74334 0.907582,0.13917 1.61871,0.23292 2.141158,0.29182 0.594764,0.0668 1.402911,0.11658 1.581185,0.17743 0.178274,0.0607 -0.23223,0.33019 -0.389167,0.358 -0.317711,0.0619 -1.951723,0.051 -3.1183,-0.0511 -0.435885,-0.0377 -2.424514,-0.30955 -2.536797,-0.24773 1.003459,3.68566 2.928104,5.30828 4.069788,5.94809 0.709327,0.39751 1.908287,1.05082 3.52629,1.33976 1.149613,0.20402 1.534547,0.22758 1.740207,0.57588 0.205646,0.34828 0.556577,1.74774 0.838112,2.30527 0.281523,0.55765 1.396842,0.48466 1.443561,-0.32461 0.03558,-0.52753 -0.265965,-2.11158 -0.208682,-2.54755 0.05538,-0.42977 0.101888,-0.31089 0.515864,-0.60247 0.668382,-0.47082 1.544253,-0.9447 2.431056,-2.05466 0.886865,-1.11009 1.805275,-2.56144 2.029692,-4.2343 0.291365,-2.17189 -0.02733,-4.49535 -1.088992,-6.49457 -0.005,0.75809 -0.0427,1.03385 -0.368692,1.60936 -0.31079,0.54963 -0.990527,0.9437 -1.278194,0.95172 -0.229472,0.0122 0.147477,-0.51297 0.226474,-0.69525 0.163325,-0.37682 0.260574,-1.01681 0.148642,-1.57265 -0.255512,-1.26868 -0.659166,-1.78699 -1.653164,-2.32654 -0.501414,-0.27214 -1.087265,-0.4401 -1.587889,-0.48771 -1.450625,-0.13807 -3.041623,0.1093 -3.54458,0.17306 z"
         id="path1778"
         inkscape:connector-curvature="0" />
      <g
         aria-label="Flamous"
         style="font-style:normal;font-variant:normal;font-weight:500;font-stretch:normal;font-size:14.32174587px;line-height:1.25;font-family:inter;-inkscape-font-specification:'inter Medium';letter-spacing:-0.34395832px;word-spacing:0px;fill:#000000;fill-opacity:1;stroke:none;stroke-width:0.71974331"
         id="text1784">
        <path
           d="m 58.52685,157.9991 v -10.41582 h 6.459026 v 1.35284 h -4.8875 v 3.17357 h 4.424688 v 1.34775 h -4.424688 v 4.54166 z"
           style="font-style:normal;font-variant:normal;font-weight:500;font-stretch:normal;font-family:inter;-inkscape-font-specification:'inter Medium';letter-spacing:-0.34395832px;word-spacing:0px;stroke-width:0.71974331"
           id="path820" />
        <path
           d="M 67.973148,147.58328 V 157.9991 H 66.45248 v -10.41582 z"
           style="font-style:normal;font-variant:normal;font-weight:500;font-stretch:normal;font-family:inter;-inkscape-font-specification:'inter Medium';letter-spacing:-0.34395832px;word-spacing:0px;stroke-width:0.71974331"
           id="path822" />
        <path
           d="m 71.934359,158.17202 q -0.742534,0 -1.342664,-0.27464 -0.60013,-0.27972 -0.951053,-0.80865 -0.345838,-0.52893 -0.345838,-1.29689 0,-0.66116 0.254293,-1.08837 0.254292,-0.42721 0.686589,-0.67642 0.432297,-0.2492 0.966311,-0.37635 0.534014,-0.12715 1.088371,-0.19326 0.701847,-0.0814 1.13923,-0.13223 0.437383,-0.0559 0.635731,-0.17801 0.198348,-0.12206 0.198348,-0.39669 v -0.0356 q 0,-0.66624 -0.376353,-1.03242 -0.371266,-0.36618 -1.108714,-0.36618 -0.767963,0 -1.210432,0.34075 -0.437383,0.33566 -0.605216,0.74762 l -1.429123,-0.3255 q 0.254293,-0.71202 0.742534,-1.1494 0.493327,-0.44247 1.134144,-0.64081 0.640817,-0.20344 1.347749,-0.20344 0.467898,0 0.991741,0.11189 0.528928,0.1068 0.986654,0.3967 0.462812,0.28989 0.757791,0.82899 0.294979,0.53401 0.294979,1.38844 v 5.18756 h -1.485067 v -1.06803 h -0.06103 q -0.14749,0.29498 -0.442469,0.57979 -0.294979,0.28481 -0.757791,0.47298 -0.462812,0.18818 -1.108715,0.18818 z m 0.33058,-1.2206 q 0.630645,0 1.0782,-0.24921 0.45264,-0.24921 0.686589,-0.65099 0.239035,-0.40687 0.239035,-0.86968 v -1.007 q -0.08137,0.0814 -0.315323,0.15258 -0.228863,0.0661 -0.523842,0.11697 -0.294979,0.0458 -0.574701,0.0865 -0.279721,0.0356 -0.467898,0.061 -0.442468,0.0559 -0.808649,0.18818 -0.361095,0.13223 -0.579787,0.38144 -0.213605,0.24412 -0.213605,0.65099 0,0.56452 0.417039,0.85442 0.41704,0.28481 1.062942,0.28481 z"
           style="font-style:normal;font-variant:normal;font-weight:500;font-stretch:normal;font-family:inter;-inkscape-font-specification:'inter Medium';letter-spacing:-0.34395832px;word-spacing:0px;stroke-width:0.71974331"
           id="path824" />
        <path
           d="m 77.456925,157.9991 v -7.81186 h 1.459638 v 1.27146 h 0.09663 q 0.244121,-0.6459 0.798478,-1.007 0.554357,-0.36618 1.327406,-0.36618 0.783221,0 1.312149,0.36618 0.534014,0.36618 0.788306,1.007 h 0.08137 q 0.279721,-0.62556 0.890023,-0.99683 0.610302,-0.37635 1.454552,-0.37635 1.062942,0 1.734274,0.66625 0.676418,0.66624 0.676418,2.00891 v 5.23842 h -1.520668 v -5.09602 q 0,-0.79339 -0.432297,-1.1494 -0.432297,-0.35601 -1.032427,-0.35601 -0.742534,0 -1.154488,0.45773 -0.411953,0.45264 -0.411953,1.16466 v 4.97904 h -1.515583 v -5.19265 q 0,-0.63573 -0.396696,-1.02226 -0.396696,-0.38652 -1.032427,-0.38652 -0.432297,0 -0.798478,0.22886 -0.361095,0.22378 -0.584872,0.62556 -0.218692,0.40178 -0.218692,0.93071 v 4.8163 z"
           style="font-style:normal;font-variant:normal;font-weight:500;font-stretch:normal;font-family:inter;-inkscape-font-specification:'inter Medium';letter-spacing:-0.34395832px;word-spacing:0px;stroke-width:0.71974331"
           id="path826" />
        <path
           d="m 93.046926,158.15676 q -1.098543,0 -1.917365,-0.5035 -0.818821,-0.5035 -1.271462,-1.40878 -0.45264,-0.90528 -0.45264,-2.11571 0,-1.21552 0.45264,-2.12588 0.452641,-0.91037 1.271462,-1.41387 0.818822,-0.5035 1.917365,-0.5035 1.098543,0 1.917364,0.5035 0.818821,0.5035 1.271462,1.41387 0.45264,0.91036 0.45264,2.12588 0,1.21043 -0.45264,2.11571 -0.452641,0.90528 -1.271462,1.40878 -0.818821,0.5035 -1.917364,0.5035 z m 0.0051,-1.27655 q 0.712019,0 1.179917,-0.37635 0.467898,-0.37635 0.691675,-1.00191 0.228863,-0.62556 0.228863,-1.37827 0,-0.74762 -0.228863,-1.37317 -0.223777,-0.63065 -0.691675,-1.01209 -0.467898,-0.38144 -1.179917,-0.38144 -0.717104,0 -1.190088,0.38144 -0.467898,0.38144 -0.696761,1.01209 -0.223777,0.62555 -0.223777,1.37317 0,0.75271 0.223777,1.37827 0.228863,0.62556 0.696761,1.00191 0.472984,0.37635 1.190088,0.37635 z"
           style="font-style:normal;font-variant:normal;font-weight:500;font-stretch:normal;font-family:inter;-inkscape-font-specification:'inter Medium';letter-spacing:-0.34395832px;word-spacing:0px;stroke-width:0.71974331"
           id="path828" />
        <path
           d="m 102.97638,154.75942 v -4.57218 h 1.52576 v 7.81186 h -1.49524 v -1.35284 h -0.0814 q -0.26955,0.62556 -0.86459,1.0426 -0.58996,0.41196 -1.46981,0.41196 -0.752707,0 -1.332494,-0.33058 -0.5747,-0.33567 -0.90528,-0.99174 -0.325495,-0.65608 -0.325495,-1.62239 v -4.96887 h 1.520669 v 4.78578 q 0,0.79848 0.442469,1.27146 0.442471,0.47299 1.149401,0.47299 0.42721,0 0.84934,-0.21361 0.42721,-0.2136 0.70693,-0.6459 0.28481,-0.4323 0.27972,-1.09854 z"
           style="font-style:normal;font-variant:normal;font-weight:500;font-stretch:normal;font-family:inter;-inkscape-font-specification:'inter Medium';letter-spacing:-0.34395832px;word-spacing:0px;stroke-width:0.71974331"
           id="path830" />
        <path
           d="m 112.04124,152.09443 -1.37827,0.24412 q -0.13223,-0.39669 -0.49332,-0.72219 -0.35601,-0.32549 -1.06803,-0.32549 -0.6459,0 -1.0782,0.28989 -0.4323,0.28481 -0.4323,0.73745 0,0.39161 0.2899,0.63064 0.28989,0.23904 0.93579,0.39161 l 1.24095,0.28481 q 1.0782,0.24921 1.60713,0.76796 0.52892,0.51876 0.52892,1.34775 0,0.70185 -0.40686,1.25112 -0.40179,0.54419 -1.12398,0.85442 -0.7171,0.31024 -1.66307,0.31024 -1.31215,0 -2.14114,-0.55944 -0.82899,-0.56453 -1.01717,-1.60204 l 1.46981,-0.22378 q 0.13732,0.5747 0.56453,0.86968 0.42721,0.28989 1.1138,0.28989 0.74762,0 1.19517,-0.31023 0.44756,-0.31533 0.44756,-0.76797 0,-0.74253 -1.10363,-0.99174 l -1.32232,-0.28989 q -1.09346,-0.24921 -1.6173,-0.79339 -0.51876,-0.54419 -0.51876,-1.37827 0,-0.69167 0.38653,-1.21043 0.38652,-0.51876 1.06803,-0.80865 0.6815,-0.29498 1.56135,-0.29498 1.26638,0 1.99365,0.54927 0.72728,0.54419 0.96123,1.45964 z"
           style="font-style:normal;font-variant:normal;font-weight:500;font-stretch:normal;font-family:inter;-inkscape-font-specification:'inter Medium';letter-spacing:-0.34395832px;word-spacing:0px;stroke-width:0.71974331"
           id="path832" />
      </g>
    </g>
  </g>
</svg>
