<?xml version="1.0" encoding="UTF-8" standalone="no"?>
<svg
   xmlns:dc="http://purl.org/dc/elements/1.1/"
   xmlns:cc="http://creativecommons.org/ns#"
   xmlns:rdf="http://www.w3.org/1999/02/22-rdf-syntax-ns#"
   xmlns:svg="http://www.w3.org/2000/svg"
   xmlns="http://www.w3.org/2000/svg"
   xmlns:sodipodi="http://sodipodi.sourceforge.net/DTD/sodipodi-0.dtd"
   xmlns:inkscape="http://www.inkscape.org/namespaces/inkscape"
   id="svg1428"
   version="1.1"
   viewBox="0 0 36.945827 8.7725753"
   height="33.156189"
   width="139.63777"
   sodipodi:docname="flamous_logo_new_small.svg"
   inkscape:version="0.92.2 2405546, 2018-03-11">
  <sodipodi:namedview
     pagecolor="#ffffff"
     bordercolor="#666666"
     borderopacity="1"
     objecttolerance="10"
     gridtolerance="10"
     guidetolerance="10"
     inkscape:pageopacity="0"
     inkscape:pageshadow="2"
     inkscape:window-width="1600"
     inkscape:window-height="836"
     id="namedview1632"
     showgrid="false"
     inkscape:zoom="1.46875"
     inkscape:cx="-37.9952"
     inkscape:cy="27.357352"
     inkscape:window-x="0"
     inkscape:window-y="27"
     inkscape:window-maximized="1"
     inkscape:current-layer="g1537"
     fit-margin-top="0"
     fit-margin-left="0"
     fit-margin-right="0"
     fit-margin-bottom="0" />
  <defs
     id="defs1422" />
  <metadata
     id="metadata1425">
    <rdf:RDF>
      <cc:Work
         rdf:about="">
        <dc:format>image/svg+xml</dc:format>
        <dc:type
           rdf:resource="http://purl.org/dc/dcmitype/StillImage" />
        <dc:title></dc:title>
      </cc:Work>
    </rdf:RDF>
  </metadata>
  <g
     transform="matrix(0.51873154,0,0,0.51873154,-267.20928,-400.2636)"
     id="g1537">
    <g
       aria-label="Flamous"
       style="font-style:normal;font-variant:normal;font-weight:normal;font-stretch:normal;font-size:14.78230762px;line-height:1.25;font-family:'Roboto Condensed';-inkscape-font-specification:'Roboto Condensed, ';letter-spacing:0.33963081px;word-spacing:0px;fill:#000000;fill-opacity:1;stroke:none;stroke-width:1.38750637"
       id="text1442">
      <path
         d="m 541.03473,781.29631 h -3.55122 v 4.64113 h -1.32088 v -10.5093 h 5.47119 v 1.14043 h -4.15031 v 3.59453 h 3.55122 z"
         style="font-style:normal;font-variant:normal;font-weight:normal;font-stretch:normal;font-family:'Roboto Condensed';-inkscape-font-specification:'Roboto Condensed, ';letter-spacing:0.33963081px;word-spacing:0px;stroke-width:1.38750637"
         id="path862" />
      <path
         d="m 544.80288,785.93744 h -1.27758 v -11.08673 h 1.27758 z"
         style="font-style:normal;font-variant:normal;font-weight:normal;font-stretch:normal;font-family:'Roboto Condensed';-inkscape-font-specification:'Roboto Condensed, ';letter-spacing:0.33963081px;word-spacing:0px;stroke-width:1.38750637"
         id="path864" />
      <path
         d="m 551.16226,785.93744 q -0.11549,-0.25263 -0.16602,-0.85172 -0.67848,0.99608 -1.7323,0.99608 -1.06103,0 -1.66012,-0.59187 -0.59187,-0.59909 -0.59187,-1.68178 0,-1.19096 0.80841,-1.89109 0.8084,-0.70014 2.2159,-0.71458 h 0.93833 v -0.83006 q 0,-0.70014 -0.31037,-0.99607 -0.31037,-0.29594 -0.94555,-0.29594 -0.57743,0 -0.93833,0.34646 -0.3609,0.33924 -0.3609,0.86615 h -1.27757 q 0,-0.59908 0.35368,-1.14043 0.35368,-0.54856 0.95277,-0.85893 0.59908,-0.31037 1.33531,-0.31037 1.19818,0 1.81892,0.59908 0.62796,0.59187 0.64239,1.73231 v 3.94098 q 0.007,0.90224 0.24541,1.56629 v 0.11549 z m -1.70343,-1.01773 q 0.46916,0 0.89502,-0.25984 0.42586,-0.25985 0.62074,-0.64962 v -1.86222 h -0.72179 q -0.90946,0.0144 -1.43637,0.41142 -0.52691,0.38977 -0.52691,1.09713 0,0.66404 0.26706,0.9672 0.26707,0.29593 0.90225,0.29593 z"
         style="font-style:normal;font-variant:normal;font-weight:normal;font-stretch:normal;font-family:'Roboto Condensed';-inkscape-font-specification:'Roboto Condensed, ';letter-spacing:0.33963081px;word-spacing:0px;stroke-width:1.38750637"
         id="path866" />
      <path
         d="m 555.76046,778.12765 0.0289,0.72179 q 0.71458,-0.86615 1.88388,-0.86615 1.30645,0 1.82614,1.13321 0.73622,-1.13321 2.04989,-1.13321 2.15816,0 2.20868,2.69228 v 5.26187 h -1.27035 v -5.13916 q 0,-0.85172 -0.30316,-1.26314 -0.30315,-0.41864 -1.02494,-0.41864 -0.57744,0 -0.93833,0.44751 -0.3609,0.44751 -0.41864,1.14043 v 5.233 h -1.28479 v -5.19691 q -0.0217,-1.62403 -1.32088,-1.62403 -0.9672,0 -1.36419,0.9672 v 5.85374 h -1.27035 v -7.80979 z"
         style="font-style:normal;font-variant:normal;font-weight:normal;font-stretch:normal;font-family:'Roboto Condensed';-inkscape-font-specification:'Roboto Condensed, ';letter-spacing:0.33963081px;word-spacing:0px;stroke-width:1.38750637"
         id="path868" />
      <path
         d="m 565.74324,781.67165 q 0,-1.70343 0.82284,-2.69229 0.83006,-0.99607 2.18703,-0.99607 1.35697,0 2.17982,0.9672 0.83006,0.9672 0.85171,2.63454 v 0.82284 q 0,1.69622 -0.82284,2.68507 -0.82285,0.98886 -2.19425,0.98886 -1.35697,0 -2.17982,-0.95999 -0.81562,-0.95998 -0.84449,-2.59845 z m 1.27757,0.73622 q 0,1.2054 0.46917,1.89832 0.47638,0.6857 1.27757,0.6857 1.68899,0 1.73952,-2.43966 v -0.88058 q 0,-1.19818 -0.47639,-1.8911 -0.47638,-0.70014 -1.27757,-0.70014 -0.78675,0 -1.26313,0.70014 -0.46917,0.69292 -0.46917,1.88388 z"
         style="font-style:normal;font-variant:normal;font-weight:normal;font-stretch:normal;font-family:'Roboto Condensed';-inkscape-font-specification:'Roboto Condensed, ';letter-spacing:0.33963081px;word-spacing:0px;stroke-width:1.38750637"
         id="path870" />
      <path
         d="m 577.75425,785.25174 q -0.63518,0.83006 -1.855,0.83006 -1.06104,0 -1.60238,-0.72901 -0.54135,-0.73623 -0.54857,-2.13651 v -5.08863 h 1.27036 v 4.9948 q 0,1.82613 1.09712,1.82613 1.16209,0 1.60238,-1.03938 v -5.78155 h 1.27757 v 7.80979 h -1.21261 z"
         style="font-style:normal;font-variant:normal;font-weight:normal;font-stretch:normal;font-family:'Roboto Condensed';-inkscape-font-specification:'Roboto Condensed, ';letter-spacing:0.33963081px;word-spacing:0px;stroke-width:1.38750637"
         id="path872" />
      <path
         d="m 585.0664,783.93807 q 0,-0.41142 -0.31038,-0.70735 -0.31037,-0.29594 -1.19817,-0.69292 -1.03216,-0.42586 -1.45802,-0.72901 -0.41864,-0.30316 -0.62796,-0.68571 -0.20932,-0.38976 -0.20932,-0.92389 0,-0.95277 0.69292,-1.58073 0.70014,-0.63517 1.78283,-0.63517 1.14043,0 1.83335,0.66405 0.69292,0.66405 0.69292,1.70343 h -1.27035 q 0,-0.52691 -0.35368,-0.89503 -0.35368,-0.37533 -0.90224,-0.37533 -0.563,0 -0.88781,0.29594 -0.31759,0.28871 -0.31759,0.77953 0,0.38977 0.23098,0.62796 0.23819,0.23819 1.13321,0.62796 1.42193,0.55578 1.93441,1.08991 0.51247,0.52691 0.51247,1.34253 0,1.01773 -0.70014,1.63125 -0.70014,0.60631 -1.87666,0.60631 -1.21983,0 -1.97771,-0.70014 -0.75788,-0.70014 -0.75788,-1.77561 h 1.28479 q 0.0217,0.64961 0.39698,1.01773 0.37533,0.36811 1.05382,0.36811 0.63518,0 0.9672,-0.2815 0.33203,-0.28872 0.33203,-0.77232 z"
         style="font-style:normal;font-variant:normal;font-weight:normal;font-stretch:normal;font-family:'Roboto Condensed';-inkscape-font-specification:'Roboto Condensed, ';letter-spacing:0.33963081px;word-spacing:0px;stroke-width:1.38750637"
         id="path874" />
    </g>
    <path
       style="opacity:1;fill:#007aff;fill-opacity:1;stroke:none;stroke-width:3.57040811;stroke-linecap:round;stroke-linejoin:round;stroke-miterlimit:4;stroke-dasharray:none;stroke-dashoffset:0;stroke-opacity:1"
       d="m 523.57637,771.61999 c -4.67003,-5e-5 -8.45586,3.78578 -8.45581,8.45581 0.001,4.3657 3.32585,8.01273 7.67279,8.41696 0.0138,-0.29459 0.024,-0.59831 0.0239,-0.83084 0.006,-0.87494 -0.0272,-2.2396 -0.0309,-2.27035 -0.0212,-0.42344 -0.0411,-0.85473 -0.0448,-0.95835 0,0 -0.0251,-0.48512 -0.0518,-0.66348 -0.0267,-0.17836 -0.19773,-0.42062 -0.30384,-0.62761 -0.0812,-0.15842 -0.28503,-0.14953 -0.69436,-0.22315 -1.0273,-0.19653 -2.03963,-0.59159 -2.71665,-1.39469 -0.86204,-1.02265 -1.02394,-1.79255 -1.00717,-3.13009 5.6e-4,-0.046 0.0191,-0.0914 0.0448,-0.1305 0.0529,-0.0743 0.0934,-0.14188 0.14445,-0.22016 -0.038,-0.15292 -0.0848,-0.34181 -0.0428,-0.55987 0.0422,-0.21918 0.18659,-0.43835 0.42937,-0.61466 l 0.006,-0.009 0.003,-0.01 c 0.85451,-0.5718 1.55435,-0.91103 3.19384,-1.11874 0.004,-0.002 0.008,-0.002 0.0139,-0.011 0.008,-0.0814 0.0297,-0.15888 0.0897,-0.23809 0.0538,-0.072 0.13541,-0.10853 0.21518,-0.13648 0.0377,-0.0112 0.082,-0.0166 0.1305,-0.0259 v 0.0159 c 0.0483,-0.003 0.1003,-0.0116 0.15342,-0.012 0.13255,-0.004 2.04723,0.0306 2.85115,0.39051 0.68585,0.30696 1.23812,0.81813 1.59293,1.54312 h 10e-4 c 0.004,-0.005 0.006,-0.006 0.0119,-0.0149 l 10e-4,-10e-4 c 0.009,-0.0103 0.0183,-0.0156 0.0279,-0.0249 0.0112,-0.008 0.0235,-0.0166 0.0359,-0.0259 h 0.002 c 0.0125,-0.007 0.0253,-0.01 0.0389,-0.0189 0.0156,-0.002 0.0309,-0.0109 0.0468,-0.0109 0.007,0 0.0134,-0.009 0.0199,-0.01 0.004,-0.009 0.007,2.7e-4 0.01,0 0.0409,-0.004 0.0825,9.2e-4 0.12154,0.0139 0.003,2.7e-4 0.005,9e-5 0.006,0 0.13518,0.05 0.2122,0.19466 0.17633,0.33472 -0.0528,0.33185 0.14217,0.50762 0.0558,1.48834 -0.0864,0.98062 -0.0584,1.18187 -1.04701,2.16575 -0.98858,0.98416 -2.35126,1.38014 -2.57918,1.48834 -0.22788,0.10819 -0.22318,0.15479 -0.27994,0.35365 -0.0491,0.17069 -0.0727,0.30042 -0.0708,0.70428 0.002,0.40386 0.0692,1.23122 0.10968,1.85299 0.008,0.0686 0.0117,0.14856 0.008,0.17931 -0.0119,0.0982 0.0507,0.0991 0.1833,0 0.15457,-0.11564 0.31652,-0.20748 0.42538,-0.24009 0.0729,-0.0219 0.0804,-0.0384 0.12054,-0.25902 0.0239,-0.13139 0.0811,-0.31438 0.12851,-0.41342 0.0998,-0.20857 0.40138,-0.67786 0.61068,-0.94939 0.0809,-0.10494 0.20687,-0.27476 0.27993,-0.37756 0.52175,-0.73441 1.21618,-1.24189 1.8121,-1.32296 0.0683,-0.0102 0.13405,-0.01 0.20423,-0.01 l -0.003,0.002 c 0.0701,0.003 0.14495,0.0119 0.23311,0.0269 0.30387,0.0529 0.41822,0.1307 0.61864,0.4204 0.29565,0.4273 0.56651,0.46252 1.21538,0.1594 0.25028,-0.11747 0.41197,-0.0982 0.47021,0.0548 0.0568,0.15003 0.0242,0.26561 -0.12154,0.42637 -0.1379,0.15198 -0.33567,0.26081 -0.64853,0.35764 -0.11312,0.035 -0.20461,0.0917 -0.29388,0.17832 -0.0713,0.0698 -0.1758,0.16348 -0.23013,0.20821 -0.0609,0.0503 -0.12302,0.14374 -0.16337,0.24308 -0.1274,0.3131 -0.52095,0.6899 -1.16756,1.11575 -0.55987,0.36897 -0.84742,0.5016 -1.29009,0.59973 -0.25761,0.0578 -0.80525,0.1072 -0.96632,0.0887 -0.13827,-0.0158 -0.53021,0.0216 -0.63359,0.0608 -0.22084,0.0838 -0.45781,0.35379 -0.65052,0.73819 l -0.11357,0.22614 v 0.48216 c -7.2e-4,0.26559 -0.009,0.62079 -0.0169,0.789 -0.004,0.0956 -3.3e-4,0.1274 0,0.19027 0.0282,0.001 0.0564,0.003 0.0847,0.004 4.67003,6e-5 8.45585,-3.78577 8.45581,-8.4558 10e-6,-4.67001 -3.78581,-8.45584 -8.45585,-8.45579 z m 0.14246,4.27373 c 0.12045,0.0612 0.23827,0.13257 0.34867,0.22216 0.432,0.34899 0.57814,0.83939 0.42439,1.23031 -0.15374,0.39093 -0.58109,0.63786 -1.06694,0.59872 -0.8157,-0.0656 -1.39954,-0.32049 -1.59294,-0.38852 -0.19334,-0.0679 -0.0376,-0.38836 0.17135,-0.37158 0.20895,0.0168 1.10042,0.14859 1.33293,0.10759 0.2325,-0.0407 0.47108,-0.15367 0.52699,-0.29587 0.056,-0.14221 -0.02,-0.28473 -0.3148,-0.52301 -0.60562,-0.48971 -1.37608,-0.30352 -2.19664,0.0677 -0.38194,0.17286 -0.48193,0.33458 -0.51902,0.54891 -0.0367,0.21452 0.34867,0.71746 0.85574,1.01613 0.47601,0.28031 0.90664,0.40617 1.13269,0.41641 0.50169,0.0228 0.33312,0.44175 -0.0339,0.49114 -0.48073,0.0659 -0.64127,-2.3e-4 -0.93146,-0.0757 -0.36332,-0.0949 -1.47365,-0.7316 -1.59991,-1.21637 -0.0956,-0.36688 0.11129,-1.02985 0.20821,-1.16954 -0.61403,0.18237 -1.06636,0.40947 -1.37477,0.62063 -0.49947,0.34219 -0.17784,0.87317 -0.1046,0.95238 0.10573,0.11425 0.3017,0.32494 0.4981,0.46025 0.3149,0.21703 0.61547,0.38113 0.93445,0.51802 0.31897,0.1369 0.4082,0.16913 0.85375,0.264 0.69467,0.14407 1.54302,-0.069 2.15081,0 0.40464,0.0459 0.37705,0.71729 0.64255,0.55887 0.28496,-0.16997 0.68943,-0.38039 0.97429,-0.64654 0.58812,-0.54944 1.01879,-1.06394 1.20741,-1.87785 -0.0631,-0.47694 -0.72127,-0.94365 -1.27714,-1.19246 -0.36093,-0.16158 -0.78423,-0.26155 -1.25024,-0.3158 z m 2.90395,2.69674 0.002,0.01 c -0.0254,-0.003 -0.0471,0.01 -0.0697,0.0189 -0.0113,0.006 -0.0212,0.0159 -0.0329,0.0159 -0.008,0.006 -0.0145,0.009 -0.0229,0.0179 -0.18616,0.31674 -0.33179,0.48812 -0.59474,0.74914 -0.0673,0.0433 -0.23423,0.20394 -0.30384,0.24308 -0.0698,0.0393 -0.1983,0.12161 -0.34867,0.22813 -0.1504,0.10661 -0.92225,0.56939 -1.51424,0.78103 -0.2981,0.10651 -0.48507,0.2236 -0.60071,0.34269 -0.23405,0.4104 -0.18751,0.13069 -0.14445,0.77505 0.002,0.0103 0.009,0.0774 0.009,0.0877 0.4705,-0.0827 2.02368,-0.45346 2.74256,-1.08388 0.71889,-0.63032 1.05189,-0.95875 1.00418,-2.08307 -9.2e-4,0 -0.005,-0.01 -0.006,-0.01 -9.2e-4,-0.0121 -0.005,-0.0228 -0.009,-0.0349 -0.002,-0.0103 -0.007,-0.0196 -0.0149,-0.0299 -0.004,-0.009 -0.007,-0.01 -0.012,-0.01 -0.003,-0.009 -0.007,-0.009 -0.01,-0.009 h -0.007 c -0.0215,-0.009 -0.0438,-0.009 -0.0657,-0.009 z m -8.02645,0.12851 -9.9e-4,0.008 c -0.0231,0.0261 -0.0271,0.0302 -0.0279,0.0488 -0.008,1.17529 0.46216,1.79542 1.2612,2.40086 0.53283,0.38785 1.50594,0.5537 2.3919,0.53596 0.0126,-0.0112 0.0263,-0.0198 0.0369,-0.0329 0.0203,-0.0261 0.0388,-0.0549 0.0508,-0.0857 0.0142,-0.0369 0.0171,-0.0774 0.0189,-0.11656 -10e-4,-0.006 0.0526,-0.16338 0.0498,-0.16338 0.0444,-0.25794 0.15759,-0.50845 0.35366,-0.71029 0.0885,-0.0911 0.19388,-0.17145 0.3128,-0.24507 0.0108,-0.0168 0.022,-0.034 0.0349,-0.0498 -9.2e-4,-0.008 -0.002,-0.0126 -0.002,-0.0219 0,0 0.003,-0.01 0.003,-0.01 -4.4e-4,0 -8.1e-4,-0.009 -10e-4,-0.009 -0.008,-0.008 -0.0145,-0.0146 -0.0229,-0.0239 -0.008,-0.007 -0.0145,-0.007 -0.0219,-0.0159 -0.0243,-0.0149 -0.0512,-0.0269 -0.0787,-0.0269 -0.0217,-0.009 -0.0439,-0.01 -0.0657,-0.01 -0.0149,-9.2e-4 -0.0245,-0.006 -0.0329,-0.0149 -1.15905,0.12543 -2.42945,-0.0446 -3.67702,-0.92548 -0.1253,-0.0885 -0.29998,-0.2593 -0.58278,-0.53197 z m 8.73176,4.07548 c -0.31024,-0.0358 -0.96953,0.3569 -1.31898,0.78601 -0.46244,0.5677 -0.98648,1.14938 -1.00716,1.44052 -0.0154,0.21702 0.0214,0.2724 0.14943,0.33074 0.0972,0.0442 0.18479,0.0392 0.43634,-0.0139 0.44736,-0.0944 0.71448,-0.21354 1.21238,-0.53896 0.46841,-0.30613 0.68912,-0.48235 0.94441,-0.75512 0.13509,-0.14426 0.29532,-0.30989 0.35664,-0.3686 0.0947,-0.0901 0.098,-0.13905 0.0667,-0.15043 -0.0312,-0.0112 -0.45676,-0.36889 -0.54193,-0.47718 -0.0852,-0.10829 -0.20682,-0.24096 -0.29787,-0.25204 z"
       id="circle1444"
       inkscape:connector-curvature="0"
       sodipodi:nodetypes="cccccczccccccccccccccccccccccccccsccccccccczccccccccccccccccccccccccccccccccccccccccccccccccccccccccccccccccccccccccccccccccsccccccccccccccccccccccccccccccccccc" />
  </g>
</svg>
