<?xml version="1.0" encoding="UTF-8" standalone="no"?>
<!-- Created with Inkscape (http://www.inkscape.org/) -->

<svg
   xmlns:dc="http://purl.org/dc/elements/1.1/"
   xmlns:cc="http://creativecommons.org/ns#"
   xmlns:rdf="http://www.w3.org/1999/02/22-rdf-syntax-ns#"
   xmlns:svg="http://www.w3.org/2000/svg"
   xmlns="http://www.w3.org/2000/svg"
   xmlns:sodipodi="http://sodipodi.sourceforge.net/DTD/sodipodi-0.dtd"
   xmlns:inkscape="http://www.inkscape.org/namespaces/inkscape"
   width="40"
   height="40"
   viewBox="0 0 40.000001 40.000001"
   version="1.1"
   id="svg8"
   inkscape:version="0.92.4 5da689c313, 2019-01-14"
   sodipodi:docname="profile_placeholder.svg">
  <defs
     id="defs2" />
  <sodipodi:namedview
     id="base"
     pagecolor="#ffffff"
     bordercolor="#666666"
     borderopacity="1.0"
     inkscape:pageopacity="0.0"
     inkscape:pageshadow="2"
     inkscape:zoom="5.6000001"
     inkscape:cx="32.767689"
     inkscape:cy="16.173661"
     inkscape:document-units="px"
     inkscape:current-layer="layer1"
     showgrid="false"
     units="px"
     inkscape:window-width="1600"
     inkscape:window-height="834"
     inkscape:window-x="0"
     inkscape:window-y="214"
     inkscape:window-maximized="1"
     inkscape:pagecheckerboard="false"
     borderlayer="true"
     fit-margin-top="0"
     fit-margin-left="0"
     fit-margin-right="0"
     fit-margin-bottom="0" />
  <metadata
     id="metadata5">
    <rdf:RDF>
      <cc:Work
         rdf:about="">
        <dc:format>image/svg+xml</dc:format>
        <dc:type
           rdf:resource="http://purl.org/dc/dcmitype/StillImage" />
        <dc:title></dc:title>
      </cc:Work>
    </rdf:RDF>
  </metadata>
  <g
     inkscape:label="Layer 1"
     inkscape:groupmode="layer"
     id="layer1"
     transform="translate(231.29647,-334.85314)">
    <path
       style="opacity:1;fill:#1a1a1a;fill-opacity:1;stroke:none;stroke-width:2.03179026;stroke-linecap:round;stroke-linejoin:bevel;stroke-miterlimit:1;stroke-dasharray:none;stroke-dashoffset:0;stroke-opacity:1"
       d="m -211.29647,344.84617 c -2.74953,0 -4.99992,2.25039 -4.99993,4.99993 0,2.74953 2.2504,4.99992 4.99993,4.99992 2.74953,0 4.99991,-2.25039 4.99991,-4.99992 0,-2.74954 -2.25038,-4.99993 -4.99991,-4.99993 z m 0,1.99997 c 1.66867,0 2.99996,1.33128 2.99995,2.99996 0,1.66867 -1.33128,2.99995 -2.99995,2.99995 -1.66867,0 -2.99996,-1.33128 -2.99996,-2.99995 0,-1.66868 1.33129,-2.99996 2.99996,-2.99996 z m -3.99995,9.99986 c -2.74953,0 -4.99991,2.25038 -4.99992,4.99991 v 1.99998 c -0.0191,1.3523 2.0191,1.3523 1.99997,0 v -1.99998 c 0,-1.66867 1.33129,-2.99995 2.99995,-2.99995 h 7.99988 c 1.66868,0 2.99996,1.33128 2.99996,2.99995 v 1.99998 c -0.0191,1.3523 2.01909,1.3523 1.99997,0 v -1.99998 c 0,-2.74953 -2.25039,-4.99991 -4.99993,-4.99991 z"
       id="path825"
       inkscape:connector-curvature="0"
       sodipodi:nodetypes="scsssscsssscccssscccsss" />
  </g>
</svg>
