<?xml version="1.0" encoding="UTF-8" standalone="no"?>
<!-- Created with Inkscape (http://www.inkscape.org/) -->

<svg
   xmlns:dc="http://purl.org/dc/elements/1.1/"
   xmlns:cc="http://creativecommons.org/ns#"
   xmlns:rdf="http://www.w3.org/1999/02/22-rdf-syntax-ns#"
   xmlns:svg="http://www.w3.org/2000/svg"
   xmlns="http://www.w3.org/2000/svg"
   xmlns:sodipodi="http://sodipodi.sourceforge.net/DTD/sodipodi-0.dtd"
   xmlns:inkscape="http://www.inkscape.org/namespaces/inkscape"
   width="48"
   height="48"
   viewBox="0 0 12.7 12.7"
   version="1.1"
   id="svg8"
   inkscape:version="0.92.2 2405546, 2018-03-11"
   sodipodi:docname="song_placeholder.svg">
  <defs
     id="defs2" />
  <sodipodi:namedview
     id="base"
     pagecolor="#ffffff"
     bordercolor="#666666"
     borderopacity="1.0"
     inkscape:pageopacity="0.0"
     inkscape:pageshadow="2"
     inkscape:zoom="7.9195959"
     inkscape:cx="7.8450189"
     inkscape:cy="33.279252"
     inkscape:document-units="px"
     inkscape:current-layer="layer1"
     showgrid="false"
     units="px"
     inkscape:window-width="1600"
     inkscape:window-height="836"
     inkscape:window-x="0"
     inkscape:window-y="27"
     inkscape:window-maximized="1"
     inkscape:pagecheckerboard="true"
     borderlayer="true" />
  <metadata
     id="metadata5">
    <rdf:RDF>
      <cc:Work
         rdf:about="">
        <dc:format>image/svg+xml</dc:format>
        <dc:type
           rdf:resource="http://purl.org/dc/dcmitype/StillImage" />
        <dc:title />
      </cc:Work>
    </rdf:RDF>
  </metadata>
  <g
     inkscape:label="Layer 1"
     inkscape:groupmode="layer"
     id="layer1"
     transform="translate(0,-284.29999)">
    <path
       style="color:#000000;font-style:normal;font-variant:normal;font-weight:normal;font-stretch:normal;font-size:medium;line-height:normal;font-family:sans-serif;font-variant-ligatures:normal;font-variant-position:normal;font-variant-caps:normal;font-variant-numeric:normal;font-variant-alternates:normal;font-feature-settings:normal;text-indent:0;text-align:start;text-decoration:none;text-decoration-line:none;text-decoration-style:solid;text-decoration-color:#000000;letter-spacing:normal;word-spacing:normal;text-transform:none;writing-mode:lr-tb;direction:ltr;text-orientation:mixed;dominant-baseline:auto;baseline-shift:baseline;text-anchor:start;white-space:normal;shape-padding:0;clip-rule:nonzero;display:inline;overflow:visible;visibility:visible;opacity:1;isolation:auto;mix-blend-mode:normal;color-interpolation:sRGB;color-interpolation-filters:linearRGB;solid-color:#000000;solid-opacity:1;vector-effect:none;fill:#000000;fill-opacity:0.39215687;fill-rule:nonzero;stroke:none;stroke-width:2.00000024;stroke-linecap:round;stroke-linejoin:round;stroke-miterlimit:1;stroke-dasharray:none;stroke-dashoffset:0;stroke-opacity:1;color-rendering:auto;image-rendering:auto;shape-rendering:auto;text-rendering:auto;enable-background:accumulate"
       d="M 0.90039062 0.00390625 A 1.0001001 1.0001001 0 0 0 0 1 L 0 47.003906 A 1.0001001 1.0001001 0 0 0 0.99609375 48 L 47 48 A 1.0001001 1.0001001 0 0 0 47.996094 47.003906 L 47.996094 1 A 1.0001001 1.0001001 0 0 0 47 0.00390625 L 0.99609375 0.00390625 A 1.0001001 1.0001001 0 0 0 0.90039062 0.00390625 z M 2 2.0039062 L 45.996094 2.0039062 L 45.996094 46 L 2 46 L 2 2.0039062 z M 24 7.4257812 A 16.57279 16.57279 0 0 0 7.4277344 23.998047 A 16.57279 16.57279 0 0 0 24 40.570312 A 16.57279 16.57279 0 0 0 40.572266 23.998047 A 16.57279 16.57279 0 0 0 24 7.4257812 z M 22.212891 11.548828 A 1.0367374 1.0367374 0 0 1 22.359375 13.607422 C 18.637018 14.193891 15.518854 16.724078 14.173828 20.244141 A 1.0367374 1.0367374 0 1 1 12.238281 19.505859 C 13.847112 15.29539 17.590533 12.26398 22.042969 11.5625 A 1.0367374 1.0367374 0 0 1 22.212891 11.548828 z M 24 16.921875 A 7.0782971 7.0782971 0 0 1 31.078125 24 A 7.0782971 7.0782971 0 0 1 24 31.078125 A 7.0782971 7.0782971 0 0 1 16.921875 24 A 7.0782971 7.0782971 0 0 1 24 16.921875 z M 24 21.326172 A 2.6740233 2.6740233 0 0 0 21.326172 24 A 2.6740233 2.6740233 0 0 0 24 26.673828 A 2.6740233 2.6740233 0 0 0 26.673828 24 A 2.6740233 2.6740233 0 0 0 24 21.326172 z M 35.603516 23.019531 A 0.96853732 0.96853732 0 0 1 36.583984 24.001953 C 36.583984 27.461128 35.156005 30.763982 32.642578 33.140625 C 30.129151 35.517268 26.750622 36.759918 23.296875 36.566406 A 0.969373 0.969373 0 0 1 23.408203 34.630859 C 26.331179 34.794513 29.187289 33.74967 31.314453 31.738281 C 33.441617 29.726854 34.650391 26.9295 34.650391 24.001953 A 0.96853732 0.96853732 0 0 1 35.603516 23.019531 z "
       transform="matrix(0.26458333,0,0,0.26458333,0,284.29999)"
       id="rect855" />
    <circle
       r="4.2522321"
       cy="290.64957"
       cx="-14.816657"
       id="circle846"
       style="fill:#cccccc;fill-opacity:1;stroke:#cccccc;stroke-width:0.5291667;stroke-linecap:round;stroke-linejoin:round;stroke-miterlimit:1;stroke-dasharray:none;stroke-dashoffset:0;stroke-opacity:1" />
    <circle
       r="2.1011031"
       cy="290.64999"
       cx="-14.816667"
       id="circle848"
       style="fill:#ffffff;fill-opacity:1;stroke:#cccccc;stroke-width:0.56029409;stroke-linecap:round;stroke-linejoin:round;stroke-miterlimit:1;stroke-dasharray:none;stroke-dashoffset:0;stroke-opacity:1" />
    <circle
       r="0.8125329"
       cy="290.64999"
       cx="-14.816667"
       id="circle850"
       style="fill:#cccccc;fill-opacity:1;stroke:none;stroke-width:0.3899959;stroke-linecap:round;stroke-linejoin:round;stroke-miterlimit:1;stroke-dasharray:none;stroke-dashoffset:0;stroke-opacity:1" />
    <path
       d="m -11.507976,290.64957 a 3.3086812,3.3086812 0 0 1 -1.484202,2.76019 3.3086812,3.3086812 0 0 1 -3.121044,0.28386"
       sodipodi:open="true"
       sodipodi:end="1.9734571"
       sodipodi:start="0"
       sodipodi:ry="3.3086812"
       sodipodi:rx="3.3086812"
       sodipodi:cy="290.64957"
       sodipodi:cx="-14.816657"
       sodipodi:type="arc"
       style="fill:none;fill-opacity:1;stroke:#ffffff;stroke-width:0.41174701;stroke-linecap:round;stroke-linejoin:round;stroke-miterlimit:1;stroke-dasharray:none;stroke-dashoffset:0;stroke-opacity:1"
       id="path852" />
    <path
       d="m -18.145325,289.38637 a 3.5602946,3.5602946 0 0 1 2.996676,-2.28159"
       sodipodi:open="true"
       sodipodi:end="4.6190048"
       sodipodi:start="3.5042939"
       sodipodi:ry="3.5602946"
       sodipodi:rx="3.5602946"
       sodipodi:cy="290.64957"
       sodipodi:cx="-14.816657"
       sodipodi:type="arc"
       style="fill:none;fill-opacity:1;stroke:#ffffff;stroke-width:0.44305894;stroke-linecap:round;stroke-linejoin:round;stroke-miterlimit:1;stroke-dasharray:none;stroke-dashoffset:0;stroke-opacity:1"
       id="path854" />
    <rect
       y="325.91516"
       x="-1.842634"
       height="16.489212"
       width="16.394718"
       id="rect843"
       style="fill:#cccccc;fill-opacity:1;stroke:#ffffff;stroke-width:0.52916664;stroke-linecap:round;stroke-linejoin:round;stroke-miterlimit:1;stroke-dasharray:none;stroke-dashoffset:0;stroke-opacity:1" />
    <circle
       r="4.9194231"
       cy="333.83334"
       cx="6.3500099"
       id="circle845"
       style="fill:#ffffff;fill-opacity:1;stroke:none;stroke-width:0.61219496;stroke-linecap:round;stroke-linejoin:round;stroke-miterlimit:1;stroke-dasharray:none;stroke-dashoffset:0;stroke-opacity:1" />
    <circle
       r="2.1011031"
       cy="333.83377"
       cx="6.3499999"
       id="circle847"
       style="fill:#cccccc;fill-opacity:1;stroke:none;stroke-width:0.5291667;stroke-linecap:round;stroke-linejoin:round;stroke-miterlimit:1;stroke-dasharray:none;stroke-dashoffset:0;stroke-opacity:1" />
    <circle
       r="0.79374999"
       cy="333.83377"
       cx="6.3499999"
       id="circle849"
       style="fill:#ffffff;fill-opacity:1;stroke:none;stroke-width:0.38098058;stroke-linecap:round;stroke-linejoin:round;stroke-miterlimit:1;stroke-dasharray:none;stroke-dashoffset:0;stroke-opacity:1" />
    <path
       d="m 3.1460372,332.60953 a 3.4298906,3.4298906 0 0 1 2.6701587,-2.16386"
       sodipodi:open="true"
       sodipodi:end="4.5561208"
       sodipodi:start="3.506576"
       sodipodi:ry="3.4298906"
       sodipodi:rx="3.4298906"
       sodipodi:cy="333.83377"
       sodipodi:cx="6.3499999"
       sodipodi:type="arc"
       style="fill:none;fill-opacity:1;stroke:#cccccc;stroke-width:0.54855204;stroke-linecap:round;stroke-linejoin:round;stroke-miterlimit:1;stroke-dasharray:none;stroke-dashoffset:0;stroke-opacity:1"
       id="path851" />
    <path
       d="m 9.7979333,333.83377 a 3.4479334,3.4479334 0 0 1 -1.0789985,2.50527 3.4479334,3.4479334 0 0 1 -2.5616707,0.93727"
       sodipodi:open="true"
       sodipodi:end="1.6267244"
       sodipodi:start="0"
       sodipodi:ry="3.4479334"
       sodipodi:rx="3.4479334"
       sodipodi:cy="333.83377"
       sodipodi:cx="6.3499999"
       sodipodi:type="arc"
       style="fill:none;fill-opacity:1;stroke:#cccccc;stroke-width:0.51246643;stroke-linecap:round;stroke-linejoin:round;stroke-miterlimit:1;stroke-dasharray:none;stroke-dashoffset:0;stroke-opacity:1"
       id="path853" />
    <rect
       style="fill:none;fill-opacity:1;stroke:#ffffff;stroke-width:0.5291667;stroke-linecap:round;stroke-linejoin:round;stroke-miterlimit:1;stroke-dasharray:none;stroke-dashoffset:0;stroke-opacity:1"
       id="rect869"
       width="12.170834"
       height="12.170834"
       x="49.976715"
       y="284.56458" />
    <path
       id="path871"
       d="m 56.062132,286.26473 a 4.384884,4.384884 0 0 0 -4.384745,4.38474 4.384884,4.384884 0 0 0 4.384745,4.38475 4.384884,4.384884 0 0 0 4.384745,-4.38475 4.384884,4.384884 0 0 0 -4.384745,-4.38474 z m -0.472839,1.09089 a 0.27430343,0.27430343 0 0 1 0.03876,0.54467 c -0.984874,0.15517 -1.809888,0.82461 -2.165759,1.75596 a 0.27430343,0.27430343 0 1 1 -0.512114,-0.19533 c 0.42567,-1.11402 1.416117,-1.91609 2.594157,-2.10169 a 0.27430343,0.27430343 0 0 1 0.04496,-0.004 z m 0.472839,1.42162 a 1.8727994,1.8727994 0 0 1 1.872754,1.87275 1.8727994,1.8727994 0 0 1 -1.872754,1.87275 1.8727994,1.8727994 0 0 1 -1.872754,-1.87275 1.8727994,1.8727994 0 0 1 1.872754,-1.87275 z m 0,1.1653 a 0.70750199,0.70750199 0 0 0 -0.70745,0.70745 0.70750199,0.70750199 0 0 0 0.70745,0.70745 0.70750199,0.70750199 0 0 0 0.70745,-0.70745 0.70750199,0.70750199 0 0 0 -0.70745,-0.70745 z m 3.070097,0.44803 a 0.25625883,0.25625883 0 0 1 0.259415,0.25994 c 0,0.91524 -0.377819,1.78912 -1.04283,2.41794 -0.665011,0.62882 -1.558913,0.9576 -2.472717,0.9064 a 0.25647994,0.25647994 0 0 1 0.02945,-0.51211 c 0.773371,0.0433 1.52905,-0.23315 2.091862,-0.76533 0.562812,-0.53219 0.882634,-1.27232 0.882634,-2.0469 a 0.25625883,0.25625883 0 0 1 0.252181,-0.25994 z"
       style="fill:#ffffff;fill-opacity:1;stroke:none;stroke-width:0.61219496;stroke-linecap:round;stroke-linejoin:round;stroke-miterlimit:1;stroke-dasharray:none;stroke-dashoffset:0;stroke-opacity:1"
       inkscape:connector-curvature="0" />
  </g>
</svg>
