<?xml version="1.0" encoding="UTF-8" standalone="no"?>
<!-- Created with Inkscape (http://www.inkscape.org/) -->

<svg
   xmlns:dc="http://purl.org/dc/elements/1.1/"
   xmlns:cc="http://creativecommons.org/ns#"
   xmlns:rdf="http://www.w3.org/1999/02/22-rdf-syntax-ns#"
   xmlns:svg="http://www.w3.org/2000/svg"
   xmlns="http://www.w3.org/2000/svg"
   xmlns:sodipodi="http://sodipodi.sourceforge.net/DTD/sodipodi-0.dtd"
   xmlns:inkscape="http://www.inkscape.org/namespaces/inkscape"
   width="256"
   height="256"
   viewBox="0 0 67.733332 67.733335"
   version="1.1"
   id="svg8"
   inkscape:version="0.92.2 2405546, 2018-03-11"
   sodipodi:docname="album_placeholder.svg">
  <defs
     id="defs2" />
  <sodipodi:namedview
     id="base"
     pagecolor="#ffffff"
     bordercolor="#666666"
     borderopacity="1.0"
     inkscape:pageopacity="0.0"
     inkscape:pageshadow="2"
     inkscape:zoom="0.98994949"
     inkscape:cx="72.989961"
     inkscape:cy="26.69999"
     inkscape:document-units="px"
     inkscape:current-layer="layer1"
     showgrid="false"
     units="px"
     inkscape:window-width="1920"
     inkscape:window-height="1012"
     inkscape:window-x="0"
     inkscape:window-y="31"
     inkscape:window-maximized="1" />
  <metadata
     id="metadata5">
    <rdf:RDF>
      <cc:Work
         rdf:about="">
        <dc:format>image/svg+xml</dc:format>
        <dc:type
           rdf:resource="http://purl.org/dc/dcmitype/StillImage" />
        <dc:title></dc:title>
      </cc:Work>
    </rdf:RDF>
  </metadata>
  <g
     inkscape:label="Layer 1"
     inkscape:groupmode="layer"
     id="layer1"
     transform="translate(0,-229.26665)">
    <rect
       style="fill:none;fill-opacity:1;stroke:#b3b3b3;stroke-width:1.0583334;stroke-linecap:round;stroke-linejoin:round;stroke-miterlimit:1;stroke-dasharray:none;stroke-dashoffset:0;stroke-opacity:1"
       id="rect815"
       width="66.674995"
       height="66.674995"
       x="0.52916902"
       y="229.79582" />
    <g
       aria-label="More to come
in the future"
       style="font-style:normal;font-weight:normal;font-size:7.00664091px;line-height:1.25;font-family:sans-serif;text-align:center;letter-spacing:0px;word-spacing:0px;text-anchor:middle;fill:#b3b3b3;fill-opacity:1;stroke:none;stroke-width:0.26458332"
       id="text819">
      <path
         d="m 17.800278,261.70526 v -3.92413 l -1.310324,2.63433 h -0.393439 l -1.296639,-2.63433 v 3.92413 h -0.602133 v -4.73496 h 0.855303 l 1.255584,2.57618 1.265848,-2.57618 h 0.827934 v 4.73496 z"
         style="text-align:center;text-anchor:middle;fill:#b3b3b3;stroke-width:0.26458332"
         id="path848" />
      <path
         d="m 22.579711,259.91939 q 0,0.93399 -0.403703,1.41296 -0.400282,0.47897 -1.170055,0.47897 -0.769772,0 -1.176896,-0.47213 -0.407124,-0.47555 -0.407124,-1.4198 0,-0.96136 0.407124,-1.43349 0.410545,-0.47213 1.176896,-0.47213 0.773194,0 1.173476,0.48239 0.400282,0.47897 0.400282,1.42323 z m -0.608976,0 q 0,-0.73214 -0.242906,-1.064 -0.239485,-0.33186 -0.721876,-0.33186 -0.496075,0 -0.73556,0.33528 -0.239485,0.33186 -0.239485,1.06058 0,0.70135 0.229221,1.04005 0.232643,0.3387 0.745824,0.3387 0.489234,0 0.725297,-0.33528 0.239485,-0.33528 0.239485,-1.04347 z"
         style="text-align:center;text-anchor:middle;fill:#b3b3b3;stroke-width:0.26458332"
         id="path850" />
      <path
         d="m 25.498004,258.69802 q -0.09579,-0.0411 -0.273697,-0.0411 -0.263433,0 -0.50976,0.12317 -0.242906,0.11974 -0.567921,0.44475 v 2.48038 h -0.588449 v -3.58885 h 0.588449 v 0.58161 q 0.246327,-0.24975 0.516603,-0.44134 0.273697,-0.19501 0.605554,-0.19501 0.222379,0 0.355806,0.0718 z"
         style="text-align:center;text-anchor:middle;fill:#b3b3b3;stroke-width:0.26458332"
         id="path852" />
      <path
         d="m 26.558579,259.98097 q 0,0.71161 0.242906,1.0161 0.242906,0.30107 0.780036,0.30107 0.239485,0 0.420809,-0.0992 0.181324,-0.10263 0.348964,-0.32843 l 0.485812,0.30106 q -0.205273,0.30791 -0.499497,0.47555 -0.294224,0.16422 -0.797142,0.16422 -0.800564,0 -1.197424,-0.46529 -0.39344,-0.46528 -0.39344,-1.40611 0,-0.98531 0.383176,-1.45402 0.386597,-0.47213 1.163212,-0.47213 0.697927,0 1.046891,0.40371 0.348963,0.40028 0.348963,1.23505 v 0.32844 z m 1.758503,-0.46186 q -0.0068,-0.48239 -0.205273,-0.74925 -0.195009,-0.26685 -0.636345,-0.26685 -0.420809,0 -0.632924,0.2429 -0.208694,0.23949 -0.277119,0.7732 z"
         style="text-align:center;text-anchor:middle;fill:#b3b3b3;stroke-width:0.26458332"
         id="path854" />
      <path
         d="m 33.50706,261.70526 q -0.342121,0.10606 -0.6774,0.10606 -0.547393,0 -0.786878,-0.28738 -0.236064,-0.28738 -0.236064,-0.9032 v -2.01168 h -0.513182 v -0.49265 h 0.513182 v -0.99899 h 0.588449 v 0.99899 h 0.910042 v 0.49265 h -0.910042 v 1.89878 q 0,0.43449 0.08553,0.62266 0.08895,0.18816 0.390018,0.18816 0.260012,0 0.482391,-0.0958 z"
         style="text-align:center;text-anchor:middle;fill:#b3b3b3;stroke-width:0.26458332"
         id="path856" />
      <path
         d="m 37.113016,259.91939 q 0,0.93399 -0.403703,1.41296 -0.400282,0.47897 -1.170054,0.47897 -0.769773,0 -1.176897,-0.47213 -0.407124,-0.47555 -0.407124,-1.4198 0,-0.96136 0.407124,-1.43349 0.410545,-0.47213 1.176897,-0.47213 0.773193,0 1.173475,0.48239 0.400282,0.47897 0.400282,1.42323 z m -0.608976,0 q 0,-0.73214 -0.242906,-1.064 -0.239485,-0.33186 -0.721875,-0.33186 -0.496076,0 -0.735561,0.33528 -0.239485,0.33186 -0.239485,1.06058 0,0.70135 0.229221,1.04005 0.232643,0.3387 0.745825,0.3387 0.489233,0 0.725296,-0.33528 0.239485,-0.33528 0.239485,-1.04347 z"
         style="text-align:center;text-anchor:middle;fill:#b3b3b3;stroke-width:0.26458332"
         id="path858" />
      <path
         d="m 42.675906,261.15102 q -0.167639,0.28739 -0.465285,0.47555 -0.297645,0.18475 -0.82109,0.18475 -0.7903,0 -1.190582,-0.47555 -0.400282,-0.47897 -0.400282,-1.41638 0,-0.93741 0.396861,-1.4198 0.39686,-0.48582 1.170054,-0.48582 0.886094,0 1.262427,0.65688 l -0.482391,0.29422 q -0.133427,-0.20869 -0.314751,-0.32501 -0.177903,-0.11633 -0.472127,-0.11633 -0.516603,0 -0.735561,0.37634 -0.215536,0.37291 -0.215536,1.0332 0,0.50292 0.102636,0.78346 0.102637,0.28054 0.318173,0.43107 0.218957,0.15054 0.554236,0.15054 0.287382,0 0.468706,-0.10606 0.181324,-0.10948 0.342121,-0.33528 z"
         style="text-align:center;text-anchor:middle;fill:#b3b3b3;stroke-width:0.26458332"
         id="path860" />
      <path
         d="m 46.487136,259.91939 q 0,0.93399 -0.403702,1.41296 -0.400282,0.47897 -1.170055,0.47897 -0.769772,0 -1.176896,-0.47213 -0.407125,-0.47555 -0.407125,-1.4198 0,-0.96136 0.407125,-1.43349 0.410545,-0.47213 1.176896,-0.47213 0.773194,0 1.173476,0.48239 0.400281,0.47897 0.400281,1.42323 z m -0.608975,0 q 0,-0.73214 -0.242906,-1.064 -0.239485,-0.33186 -0.721876,-0.33186 -0.496075,0 -0.73556,0.33528 -0.239485,0.33186 -0.239485,1.06058 0,0.70135 0.229221,1.04005 0.232643,0.3387 0.745824,0.3387 0.489233,0 0.725297,-0.33528 0.239485,-0.33528 0.239485,-1.04347 z"
         style="text-align:center;text-anchor:middle;fill:#b3b3b3;stroke-width:0.26458332"
         id="path862" />
      <path
         d="m 51.598426,261.70526 v -2.11431 q 0,-0.53371 -0.04106,-0.70477 -0.04105,-0.17106 -0.143691,-0.23606 -0.102636,-0.0684 -0.31133,-0.0684 -0.177903,0 -0.400282,0.12658 -0.222378,0.12658 -0.581606,0.46186 v 2.53512 h -0.588448 v -2.11431 q 0,-0.50634 -0.04105,-0.68424 -0.04106,-0.1779 -0.14027,-0.24975 -0.09922,-0.0753 -0.307909,-0.0753 -0.191588,0 -0.448179,0.15395 -0.256591,0.15053 -0.540551,0.43449 v 2.53512 h -0.588449 v -3.58885 h 0.588449 v 0.53371 q 0.232642,-0.25317 0.520024,-0.44476 0.287382,-0.19159 0.615818,-0.19159 0.362648,0 0.578185,0.16764 0.218957,0.16764 0.290803,0.53371 0.280539,-0.29764 0.571342,-0.49949 0.290803,-0.20186 0.646609,-0.20186 0.328436,0 0.526866,0.14027 0.198431,0.13685 0.290803,0.40029 0.09237,0.26001 0.09237,0.75608 v 2.39485 z"
         style="text-align:center;text-anchor:middle;fill:#b3b3b3;stroke-width:0.26458332"
         id="path864" />
      <path
         d="m 53.750367,259.98097 q 0,0.71161 0.242906,1.0161 0.242906,0.30107 0.780036,0.30107 0.239485,0 0.420809,-0.0992 0.181324,-0.10263 0.348963,-0.32843 l 0.485812,0.30106 q -0.205272,0.30791 -0.499496,0.47555 -0.294225,0.16422 -0.797143,0.16422 -0.800563,0 -1.197424,-0.46529 -0.393439,-0.46528 -0.393439,-1.40611 0,-0.98531 0.383176,-1.45402 0.386597,-0.47213 1.163212,-0.47213 0.697927,0 1.04689,0.40371 0.348964,0.40028 0.348964,1.23505 v 0.32844 z m 1.758502,-0.46186 q -0.0068,-0.48239 -0.205272,-0.74925 -0.195009,-0.26685 -0.636346,-0.26685 -0.420809,0 -0.632924,0.2429 -0.208694,0.23949 -0.277118,0.7732 z"
         style="text-align:center;text-anchor:middle;fill:#b3b3b3;stroke-width:0.26458332"
         id="path866" />
      <path
         d="m 17.040769,265.96467 q 0,0.20527 -0.09237,0.28054 -0.09237,0.0718 -0.294224,0.0718 -0.215537,0 -0.297646,-0.0924 -0.08211,-0.0924 -0.08211,-0.26001 0,-0.18132 0.08895,-0.26343 0.08895,-0.0855 0.290803,-0.0855 0.208693,0 0.297645,0.0821 0.08895,0.0787 0.08895,0.26686 z m -0.680821,4.49889 v -3.58885 h 0.588449 v 3.58885 z"
         style="text-align:center;text-anchor:middle;fill:#b3b3b3;stroke-width:0.26458332"
         id="path868" />
      <path
         d="m 20.366187,270.46356 v -2.11431 q 0,-0.51318 -0.05132,-0.68424 -0.05132,-0.17106 -0.16764,-0.24633 -0.116321,-0.0787 -0.3387,-0.0787 -0.2258,0 -0.526866,0.17106 -0.301067,0.17106 -0.581606,0.41738 v 2.53512 h -0.588448 v -3.58885 h 0.588448 v 0.53371 q 0.249748,-0.24975 0.581606,-0.44134 0.331857,-0.195 0.667136,-0.195 0.520024,0 0.76293,0.29764 0.242906,0.29422 0.242906,0.99899 v 2.39485 z"
         style="text-align:center;text-anchor:middle;fill:#b3b3b3;stroke-width:0.26458332"
         id="path870" />
      <path
         d="m 25.775122,270.46356 q -0.342121,0.10606 -0.6774,0.10606 -0.547394,0 -0.786878,-0.28738 -0.236064,-0.28738 -0.236064,-0.9032 v -2.01167 h -0.513182 v -0.49266 h 0.513182 v -0.99899 h 0.588448 v 0.99899 h 0.910043 v 0.49266 h -0.910043 v 1.89877 q 0,0.43449 0.08553,0.62266 0.08895,0.18817 0.390018,0.18817 0.260012,0 0.482391,-0.0958 z"
         style="text-align:center;text-anchor:middle;fill:#b3b3b3;stroke-width:0.26458332"
         id="path872" />
      <path
         d="m 28.727628,270.46356 v -2.11431 q 0,-0.51318 -0.05132,-0.68082 -0.0479,-0.17106 -0.164218,-0.24975 -0.116321,-0.0787 -0.342121,-0.0787 -0.2258,0 -0.526866,0.17106 -0.301067,0.17106 -0.581606,0.41738 v 2.53512 h -0.588449 v -5.09418 h 0.588449 v 2.03904 q 0.249748,-0.24975 0.581606,-0.44134 0.331857,-0.195 0.667136,-0.195 0.520024,0 0.76293,0.29764 0.242906,0.29422 0.242906,0.99899 v 2.39485 z"
         style="text-align:center;text-anchor:middle;fill:#b3b3b3;stroke-width:0.26458332"
         id="path874" />
      <path
         d="m 30.88299,268.73927 q 0,0.71161 0.242906,1.0161 0.242906,0.30107 0.780036,0.30107 0.239485,0 0.420809,-0.0992 0.181324,-0.10263 0.348964,-0.32843 l 0.485812,0.30106 q -0.205273,0.30791 -0.499497,0.47555 -0.294224,0.16422 -0.797142,0.16422 -0.800564,0 -1.197424,-0.46528 -0.39344,-0.46529 -0.39344,-1.40612 0,-0.98531 0.383176,-1.45402 0.386597,-0.47212 1.163212,-0.47212 0.697927,0 1.046891,0.4037 0.348963,0.40028 0.348963,1.23506 v 0.32843 z m 1.758503,-0.46186 q -0.0068,-0.48239 -0.205273,-0.74925 -0.195009,-0.26685 -0.636345,-0.26685 -0.420809,0 -0.632924,0.2429 -0.208694,0.23949 -0.277118,0.7732 z"
         style="text-align:center;text-anchor:middle;fill:#b3b3b3;stroke-width:0.26458332"
         id="path876" />
      <path
         d="m 37.76989,265.90309 q -0.09922,-0.0513 -0.249749,-0.089 -0.150533,-0.0376 -0.270276,-0.0376 -0.297645,0 -0.413966,0.15396 -0.116321,0.15053 -0.116321,0.59529 v 0.34896 h 0.797142 v 0.49266 h -0.797142 v 3.09619 h -0.588449 v -3.09619 h -0.526866 v -0.49266 h 0.526866 v -0.34896 q 0,-0.65003 0.242906,-0.95452 0.246327,-0.30791 0.862146,-0.30791 0.386596,0 0.694505,0.13343 z"
         style="text-align:center;text-anchor:middle;fill:#b3b3b3;stroke-width:0.26458332"
         id="path878" />
      <path
         d="m 40.42817,270.46356 v -0.53371 q -0.273697,0.2737 -0.602133,0.45845 -0.328437,0.18132 -0.643188,0.18132 -0.359227,0 -0.585027,-0.13343 -0.222379,-0.13685 -0.325015,-0.40712 -0.09922,-0.2737 -0.09922,-0.75609 v -2.39827 h 0.588448 v 2.11773 q 0,0.51318 0.05132,0.68424 0.05474,0.17106 0.171061,0.24975 0.116321,0.0753 0.3387,0.0753 0.222378,0 0.523445,-0.17106 0.301067,-0.17448 0.581606,-0.41739 v -2.53854 h 0.588448 v 3.58885 z"
         style="text-align:center;text-anchor:middle;fill:#b3b3b3;stroke-width:0.26458332"
         id="path880" />
      <path
         d="m 43.975966,270.46356 q -0.342121,0.10606 -0.6774,0.10606 -0.547393,0 -0.786878,-0.28738 -0.236064,-0.28738 -0.236064,-0.9032 v -2.01167 h -0.513181 v -0.49266 h 0.513181 v -0.99899 h 0.588449 v 0.99899 h 0.910042 v 0.49266 h -0.910042 v 1.89877 q 0,0.43449 0.08553,0.62266 0.08895,0.18817 0.390018,0.18817 0.260012,0 0.482391,-0.0958 z"
         style="text-align:center;text-anchor:middle;fill:#b3b3b3;stroke-width:0.26458332"
         id="path882" />
      <path
         d="m 46.791623,270.46356 v -0.53371 q -0.273697,0.2737 -0.602133,0.45845 -0.328437,0.18132 -0.643188,0.18132 -0.359227,0 -0.585027,-0.13343 -0.222379,-0.13685 -0.325015,-0.40712 -0.09922,-0.2737 -0.09922,-0.75609 v -2.39827 h 0.588448 v 2.11773 q 0,0.51318 0.05132,0.68424 0.05474,0.17106 0.171061,0.24975 0.116321,0.0753 0.3387,0.0753 0.222378,0 0.523445,-0.17106 0.301066,-0.17448 0.581606,-0.41739 v -2.53854 h 0.588448 v 3.58885 z"
         style="text-align:center;text-anchor:middle;fill:#b3b3b3;stroke-width:0.26458332"
         id="path884" />
      <path
         d="m 50.486531,267.45632 q -0.09579,-0.0411 -0.273697,-0.0411 -0.263433,0 -0.50976,0.12317 -0.242906,0.11974 -0.567921,0.44475 v 2.48038 h -0.588449 v -3.58885 h 0.588449 v 0.58161 q 0.246327,-0.24975 0.516603,-0.44134 0.273697,-0.19501 0.605554,-0.19501 0.222379,0 0.355806,0.0718 z"
         style="text-align:center;text-anchor:middle;fill:#b3b3b3;stroke-width:0.26458332"
         id="path886" />
      <path
         d="m 51.547106,268.73927 q 0,0.71161 0.242906,1.0161 0.242906,0.30107 0.780036,0.30107 0.239485,0 0.420809,-0.0992 0.181324,-0.10263 0.348964,-0.32843 l 0.485812,0.30106 q -0.205273,0.30791 -0.499497,0.47555 -0.294224,0.16422 -0.797142,0.16422 -0.800564,0 -1.197424,-0.46528 -0.39344,-0.46529 -0.39344,-1.40612 0,-0.98531 0.383176,-1.45402 0.386597,-0.47212 1.163212,-0.47212 0.697927,0 1.046891,0.4037 0.348963,0.40028 0.348963,1.23506 v 0.32843 z m 1.758503,-0.46186 q -0.0068,-0.48239 -0.205273,-0.74925 -0.195009,-0.26685 -0.636345,-0.26685 -0.420809,0 -0.632924,0.2429 -0.208694,0.23949 -0.277119,0.7732 z"
         style="text-align:center;text-anchor:middle;fill:#b3b3b3;stroke-width:0.26458332"
         id="path888" />
    </g>
    <text
       id="text846"
       y="261.70526"
       x="-86.869354"
       style="font-style:normal;font-weight:normal;font-size:7.00664091px;line-height:1.25;font-family:sans-serif;text-align:center;letter-spacing:0px;word-spacing:0px;text-anchor:middle;fill:#b3b3b3;fill-opacity:1;stroke:none;stroke-width:0.26458332"
       xml:space="preserve"><tspan
         style="text-align:center;text-anchor:middle;fill:#b3b3b3;stroke-width:0.26458332"
         y="261.70526"
         x="-86.869354"
         id="tspan842"
         sodipodi:role="line">More to come</tspan><tspan
         id="tspan844"
         style="text-align:center;text-anchor:middle;fill:#b3b3b3;stroke-width:0.26458332"
         y="270.46356"
         x="-86.869354"
         sodipodi:role="line">in the future</tspan></text>
  </g>
</svg>
