<?xml version="1.0" encoding="UTF-8" standalone="no"?>
<!-- Created with Inkscape (http://www.inkscape.org/) -->

<svg
   xmlns:dc="http://purl.org/dc/elements/1.1/"
   xmlns:cc="http://creativecommons.org/ns#"
   xmlns:rdf="http://www.w3.org/1999/02/22-rdf-syntax-ns#"
   xmlns:svg="http://www.w3.org/2000/svg"
   xmlns="http://www.w3.org/2000/svg"
   xmlns:sodipodi="http://sodipodi.sourceforge.net/DTD/sodipodi-0.dtd"
   xmlns:inkscape="http://www.inkscape.org/namespaces/inkscape"
   width="64"
   height="64"
   viewBox="0 0 16.933333 16.933334"
   version="1.1"
   id="svg8"
   inkscape:version="0.92.2 2405546, 2018-03-11"
   sodipodi:docname="flamous_logo_safari.svg">
  <defs
     id="defs2" />
  <sodipodi:namedview
     id="base"
     pagecolor="#ffffff"
     bordercolor="#666666"
     borderopacity="1.0"
     inkscape:pageopacity="0.0"
     inkscape:pageshadow="2"
     inkscape:zoom="7.8223688"
     inkscape:cx="45.086571"
     inkscape:cy="32.635412"
     inkscape:document-units="px"
     inkscape:current-layer="layer1"
     showgrid="false"
     inkscape:window-width="1920"
     inkscape:window-height="1013"
     inkscape:window-x="0"
     inkscape:window-y="30"
     inkscape:window-maximized="1"
     units="px" />
  <metadata
     id="metadata5">
    <rdf:RDF>
      <cc:Work
         rdf:about="">
        <dc:format>image/svg+xml</dc:format>
        <dc:type
           rdf:resource="http://purl.org/dc/dcmitype/StillImage" />
        <dc:title></dc:title>
      </cc:Work>
    </rdf:RDF>
  </metadata>
  <g
     inkscape:label="Layer 1"
     inkscape:groupmode="layer"
     id="layer1"
     transform="translate(0,-280.06665)">
    <circle
       id="path62"
       cx="8.4666672"
       cy="288.53333"
       r="8.4666672"
       style="stroke-width:0.27368236;fill:#ffffff" />
    <path
       style="fill:#007aff;fill-opacity:1;stroke-width:0.09104383"
       d="M 25.351562 19.402344 C 25.410081 19.327887 25.742349 19.353796 26.628906 19.501953 C 27.288314 19.611181 27.888756 19.731736 27.960938 19.769531 C 28.188715 19.888586 28.08734 19.990687 27.681641 20.050781 C 27.16506 20.127695 25.717783 20.660456 25.333984 20.914062 C 25.009508 21.12874 24.949598 21.145014 24.896484 21.03125 C 24.853544 20.939219 25.245498 19.536517 25.351562 19.402344 z "
       id="path3797"
       transform="matrix(0.26458334,0,0,0.26458334,0,280.06665)" />
    <path
       style="fill:#007aff;fill-opacity:1;stroke-width:0.02408868"
       d="m 8.2618503,296.92847 c 0.1414819,0.007 0.2744735,0.0423 0.4175185,0.0423 0.1187259,0 0.2289109,-0.0305 0.3465681,-0.0348 l 0.00206,-0.48506 0.1255285,-0.25037 c 0.2135995,-0.42612 0.4770073,-0.72449 0.7217888,-0.81731 0.1146521,-0.0433 0.5487298,-0.0853 0.7020058,-0.0675 0.178583,0.0208 0.785543,-0.035 1.071085,-0.0982 0.490682,-0.10883 0.808631,-0.25699 1.429252,-0.66585 0.716635,-0.47212 1.152958,-0.88911 1.294171,-1.23618 0.04477,-0.11005 0.114626,-0.21295 0.182153,-0.26879 0.06025,-0.0499 0.174641,-0.15392 0.253786,-0.23128 0.09884,-0.0966 0.200658,-0.15834 0.326101,-0.19716 0.346766,-0.10734 0.565542,-0.22788 0.718377,-0.39637 0.161584,-0.17815 0.198051,-0.30649 0.135079,-0.47278 -0.0645,-0.16964 -0.243795,-0.19104 -0.521216,-0.0615 -0.719235,0.33605 -1.019015,0.29698 -1.346703,-0.17668 -0.222162,-0.32112 -0.348794,-0.40735 -0.68563,-0.46596 -0.195492,-0.0337 -0.333045,-0.0392 -0.484377,-0.0184 -0.660566,0.0902 -1.430798,0.65267 -2.009138,1.46678 -0.0809,0.11388 -0.220717,0.30257 -0.310411,0.41887 -0.232,0.30098 -0.566168,0.82021 -0.6767618,1.05131 -0.052554,0.10982 -0.1154178,0.31285 -0.1419018,0.45845 -0.044442,0.24451 -0.053668,0.26361 -0.1343972,0.2879 -0.1206774,0.0364 -0.2994109,0.13733 -0.4707321,0.26538 -0.1470603,0.10984 -0.2162258,0.10909 -0.2033015,-0.002 0.00384,-0.0335 6.287e-4,-0.12316 -0.00819,-0.1992 -0.013542,-0.11803 -0.093149,-1.46099 -0.1036972,-1.74922 -0.012606,-0.34465 -0.09941,-1.63828 -0.1296219,-1.93477 -0.041918,-0.41131 -0.091627,-0.67494 -0.1971616,-1.04789 -0.08887,-0.31404 -0.1770861,-0.84599 -0.1439487,-0.86711 0.037893,-0.0241 1.3630871,0.18243 1.5616022,0.24355 0.4182186,0.12858 1.4551526,0.16915 1.6912246,0.0661 0.350153,-0.15282 0.75021,-0.47264 1.11543,-0.89098 0.330828,-0.37883 0.410082,-0.60437 0.325419,-0.92237 -0.06198,-0.23283 -0.04224,-0.33398 0.104384,-0.52872 0.196919,-0.2615 0.300985,-0.49157 0.382044,-0.84732 0.07823,-0.34357 0.07667,-0.48996 -0.0075,-0.73748 -0.04288,-0.12599 -0.16674,-0.22437 -0.265383,-0.21011 -0.100948,0.0142 -0.250991,0.31555 -0.367035,0.73747 -0.05462,0.19857 -0.191596,0.47663 -0.328148,0.66585 -0.153555,0.21282 -0.657333,0.62636 -0.865055,0.71019 -0.188517,0.0759 -0.485933,0.0921 -0.876652,0.0477 -0.484725,-0.0549 -0.784504,0.022 -1.6311899,0.41889 -0.2051347,0.0961 -0.5194238,0.23866 -0.6979113,0.31654 -0.1784923,0.078 -0.3517554,0.17519 -0.3854541,0.21559 -0.050061,0.06 -0.087107,0.0705 -0.2005728,0.0573 -0.1801002,-0.0208 -0.2401887,-0.003 -0.2844858,0.0819 -0.01991,0.0384 -0.073334,0.0881 -0.1193886,0.11119 -0.078735,0.0395 -0.1130169,0.0317 -0.5710184,-0.13098 -0.267747,-0.0952 -0.596386,-0.21953 -0.7306577,-0.2763 -0.342118,-0.14499 -0.6441342,-0.24148 -1.0956453,-0.35066 -0.6403486,-0.15497 -0.8848978,-0.28076 -1.4606335,-0.75112 -0.171062,-0.13976 -0.4178235,-0.33643 -0.5485048,-0.43662 -0.1306677,-0.10017 -0.2423347,-0.20095 -0.2483282,-0.22446 -0.00598,-0.0234 0.08635,-0.14445 0.2053483,-0.26947 0.1190083,-0.12507 0.2560059,-0.29106 0.3042703,-0.36908 0.057546,-0.093 0.1075679,-0.13973 0.1453127,-0.13576 0.031663,0.003 0.2244542,0.20277 0.4284344,0.44207 0.7348522,0.86212 1.3038505,1.23351 2.2165331,1.44631 0.7096613,0.16544 1.219813,0.29934 1.2470983,0.32747 0.017944,0.0185 0.034961,0.0969 0.037522,0.17464 0.00499,0.14859 0.08533,0.31546 0.1555464,0.32338 0.058575,0.007 0.1601088,-0.12464 0.2217214,-0.28653 0.045112,-0.11862 0.068496,-0.14092 0.167144,-0.16033 0.1617823,-0.032 0.1821645,-0.13967 0.060718,-0.32474 -0.091264,-0.139 -0.092109,-0.14396 -0.050484,-0.40319 0.075468,-0.46989 0.1214871,-0.65241 0.1753305,-0.69517 0.097738,-0.0774 0.3329315,-0.16409 0.7306578,-0.26812 0.7920275,-0.20707 1.0777602,-0.24756 1.9238612,-0.27357 0.527901,-0.0161 0.610555,-0.0269 0.98035,-0.12825 0.51225,-0.14065 1.283954,-0.51466 1.526127,-0.73954 0.137607,-0.12777 0.153784,-0.15767 0.171237,-0.30835 0.03301,-0.28513 -0.117401,-0.42777 -0.345886,-0.3302 -0.04634,0.0199 -0.09287,0.0361 -0.103699,0.0355 -0.01096,-6.4e-4 -0.01351,-0.1486 -0.0054,-0.32816 0.02946,-0.65669 -0.01466,-0.9714 -0.191704,-1.3583 -0.201806,-0.44104 -0.438879,-0.71226 -0.82958,-0.94965 -0.423733,-0.25748 -0.624054,-0.33642 -1.139307,-0.44889 -0.267393,-0.0584 -0.801351,-0.18485 -1.1863816,-0.28109 -0.3850134,-0.0963 -0.8190366,-0.18899 -0.964659,-0.20602 -0.2643038,-0.0309 -0.2651061,-0.0307 -0.3881836,0.073 -0.1192621,0.10038 -0.1230171,0.10978 -0.1234817,0.28722 -5.589e-4,0.21703 -0.046844,0.26098 -0.1309862,0.12416 l -0.057989,-0.0942 -0.4461721,-0.0341 c -0.6702208,-0.0518 -1.3991223,-0.008 -1.856321,0.11189 -0.15435,0.0403 -0.3985974,0.0986 -0.543047,0.12963 -0.3600285,0.0768 -1.6479288,0.51669 -1.7253347,0.58944 -0.1547744,0.14532 -0.042266,0.33597 0.192386,0.32541 0.1227219,-0.005 0.1263829,-0.002 0.1507705,0.11734 0.015607,0.0768 0.1087489,0.23165 0.2483282,0.41275 0.1228425,0.1594 0.2136076,0.29908 0.2019372,0.30699 -0.011705,0.01 -0.095782,-0.0213 -0.1869282,-0.0682 -0.2497782,-0.12716 -0.4379458,-0.16453 -0.7115558,-0.13985 -0.1320545,0.0119 -0.4375263,0.007 -0.6794912,-0.0109 -0.6117041,-0.0445 -0.706981,0.002 -0.855504,0.41274 -0.071346,0.19748 -0.077918,0.23996 -0.050484,0.33633 0.051458,0.1807 0.2022306,0.36018 0.4871051,0.57989 0.2843667,0.21936 0.8190739,0.73019 0.8643731,0.82617 0.053062,0.11228 -0.2868288,0.55844 -0.6576603,0.863 -0.2008129,0.16496 -0.264374,0.27446 -0.2558327,0.43867 0.00525,0.10071 0.039772,0.15305 0.2169461,0.3302 0.1159833,0.11597 0.3288195,0.30269 0.4734608,0.41411 0.1446334,0.11149 0.3727486,0.30165 0.5062071,0.42298 0.5022419,0.45658 0.7455424,0.57493 1.7239703,0.83503 0.2641027,0.0703 0.5798599,0.17911 0.7634045,0.26334 0.6427163,0.29536 1.3308637,0.50215 1.6079929,0.48301 0.2003447,-0.0139 0.2570105,0.0469 0.1828348,0.1958 -0.088716,0.17804 -0.082179,0.29799 0.027972,0.51917 0.1206027,0.24213 0.1406799,0.37162 0.2565148,1.65847 l 0.083913,0.93124 -0.1009685,0.14053 c -0.1184074,0.1643 -0.1132063,0.22304 0.030019,0.33156 0.1148446,0.087 0.1203764,0.10364 0.1303041,0.39637 0.00389,0.11488 0.026211,0.59291 0.049802,1.06222 0.061243,1.21866 0.063163,1.16448 -0.043662,1.25596 -0.1277218,0.10936 -0.1307585,0.21624 -0.00819,0.30906 0.095902,0.0726 0.099264,0.0842 0.092782,0.32132 -0.00265,0.0958 -0.00303,0.28016 -0.00409,0.44617 z m 0.499385,-15.26945 c 0.07653,0.009 0.5594458,0.12534 1.1427185,0.27561 0.1966202,0.0507 0.5815062,0.14742 0.8548222,0.21422 0.441039,0.10799 0.52861,0.14023 0.782507,0.2879 0.213859,0.12439 0.32788,0.21582 0.450947,0.36294 0.297716,0.35585 0.360547,0.59825 0.317233,1.22322 l -0.02729,0.39705 -0.272206,0.0314 c -0.149556,0.0174 -0.289921,0.0342 -0.312456,0.0382 -0.06165,0.01 -0.04206,-0.0543 0.04571,-0.14805 0.06843,-0.0731 0.07927,-0.11071 0.08323,-0.29199 0.0051,-0.23204 -0.03201,-0.35752 -0.170556,-0.57579 -0.170334,-0.26835 -0.631549,-0.50909 -1.15568,-0.60309 -0.163866,-0.0295 -0.384427,-0.0849 -0.489835,-0.12279 -0.3386231,-0.12237 -0.7864002,-0.25844 -1.0901878,-0.33225 -0.3107671,-0.0755 -0.5734404,-0.17903 -0.6003537,-0.23673 -0.00879,-0.0187 0.033375,-0.0884 0.093464,-0.15485 0.060087,-0.0665 0.1470815,-0.1774 0.1930685,-0.24697 0.061321,-0.0927 0.1023171,-0.12331 0.1548643,-0.11803 z m -0.7559002,0.0409 c 0.089264,0.01 0.129551,0.0282 0.1262111,0.0573 -0.011953,0.10321 -0.3558628,0.39664 -0.452312,0.38477 -0.041136,-0.004 -0.1343105,0.0835 -0.1657797,0.1569 -0.047842,0.11173 0.00529,0.15375 0.2162639,0.17738 0.1746902,0.0185 0.2101082,0.0348 0.3192789,0.13986 0.1251265,0.12068 0.5629465,0.33513 0.8930263,0.43799 0.093461,0.0291 0.3575306,0.11339 0.5867094,0.18692 0.721643,0.23167 0.845209,0.26774 1.023331,0.28927 0.187319,0.0234 0.43539,0.15451 0.519169,0.27425 0.02606,0.0372 0.057,0.16131 0.06822,0.27629 0.01128,0.11487 0.02291,0.23108 0.0266,0.25789 v 6.9e-4 c 0.0075,0.0562 -0.0097,0.0549 -0.554646,-0.0239 l -0.37181,-0.0539 -0.270159,-0.35066 c -0.2259534,-0.29372 -0.2854386,-0.35366 -0.3663522,-0.36158 -0.05315,-0.007 -0.1263801,0.007 -0.1630506,0.0279 -0.1056852,0.0621 -0.1611355,0.0396 -0.2517392,-0.10441 -0.1213407,-0.19288 -0.2807623,-0.26073 -0.8452708,-0.35817 -0.4797024,-0.0827 -0.6637549,-0.1293 -0.7163311,-0.18078 -0.087298,-0.0855 -0.7419739,-0.30317 -0.8125242,-0.27017 -0.013171,0.007 -0.042564,-0.003 -0.064811,-0.0204 -0.031,-0.0245 0.012222,-0.0787 0.1848818,-0.23332 0.123825,-0.11083 0.2655259,-0.22641 0.3151858,-0.25651 0.049653,-0.03 0.2106489,-0.14804 0.3574835,-0.26197 0.2455891,-0.19067 0.2775186,-0.20597 0.3984162,-0.19171 z m -1.2430048,0.0477 c 0.1206405,0.014 0.1061486,0.0724 -0.046391,0.18831 -0.2335702,0.17764 -0.7176486,0.63418 -0.8725596,0.82275 -0.1330265,0.16192 -0.1564434,0.21089 -0.1739662,0.36226 -0.016616,0.14344 -0.00822,0.19121 0.048438,0.26606 0.068387,0.0903 0.068197,0.0955 0.00206,0.49052 h 6.987e-4 c -0.043311,0.25872 -0.079645,0.39765 -0.1023334,0.39501 -0.019242,-0.002 -0.08685,-0.0486 -0.1507704,-0.10299 -0.063925,-0.0544 -0.149996,-0.12726 -0.191022,-0.16238 C 5.2354564,283.97206 5.11874,283.8884 5.017241,283.8216 l -0.1841996,-0.12144 0.060036,-0.0894 c 0.1019527,-0.15145 0.030277,-0.36197 -0.2435523,-0.7177 -0.2004566,-0.26043 -0.3097969,-0.45396 -0.3008594,-0.53145 0.012857,-0.11107 2.1225245,-0.64767 2.4136951,-0.61401 z m -4.1635895,1.80857 c 0.098089,-0.0172 0.1128005,0.0362 0.064811,0.23264 -0.045162,0.18482 -0.1111752,0.21541 -0.1992085,0.0921 -0.087951,-0.1231 -0.015191,-0.29872 0.1343975,-0.32474 z m 1.1345322,0.1228 c 0.2619071,0.0585 1.3458535,0.82937 1.8917962,1.34534 0.1745802,0.16499 0.3763176,0.34645 0.4489011,0.40388 0.072581,0.0574 0.3383169,0.27911 0.5901203,0.49256 0.573066,0.48589 0.8588718,0.62967 1.0478902,0.52736 0.042844,-0.0223 0.084623,-0.0337 0.092782,-0.0232 0.015879,0.02 -0.1202318,0.69827 -0.1726019,0.86028 -0.026131,0.0813 -0.045561,0.0958 -0.1139308,0.0853 -0.045445,-0.007 -0.1236793,-0.0299 -0.1739661,-0.0519 C 7.248215,287.27671 6.9031245,287.1796 6.3052428,287.02594 5.7009805,286.87061 5.228564,286.60237 4.8732629,286.21273 4.7871159,286.11823 4.580481,285.8909 4.4141284,285.7079 3.8615707,285.10006 3.6314272,284.86061 3.3389499,284.58974 3.1795745,284.44213 3.0408,284.30326 3.0312684,284.28069 c -0.015544,-0.0368 0.026812,-0.11658 0.2483282,-0.46868 0.076754,-0.1211 0.2609307,-0.17608 0.4536764,-0.13304 z m 3.9207189,0.30495 c 0.2096811,0.0512 0.4518796,0.17231 0.7845533,0.37659 0.599179,0.36793 0.9800022,0.47923 2.0671278,0.60241 0.299558,0.0339 0.558904,0.0742 0.576476,0.0873 0.01755,0.0136 0.147949,0.0377 0.289944,0.0532 0.221072,0.024 0.267523,0.0394 0.322007,0.10364 0.03501,0.0414 0.06118,0.0934 0.05867,0.11598 -0.01,0.0861 -0.270828,0.14083 -0.96807,0.20262 -0.487292,0.0432 -0.947573,0.10906 -1.1952501,0.17123 -0.095548,0.0242 -0.2484321,0.0622 -0.3390635,0.0846 -0.5869672,0.1441 -0.9793849,0.2873 -1.1911565,0.43456 -0.1728978,0.12041 -0.1883628,0.12638 -0.2108058,0.0784 -0.00795,-0.017 -0.1818247,-0.17347 -0.3861368,-0.34725 -0.2043088,-0.1738 -0.4844186,-0.41988 -0.6228668,-0.54714 -0.1384568,-0.12717 -0.3502077,-0.31906 -0.4707318,-0.42639 -0.2252675,-0.20068 -0.2559979,-0.2659 -0.1453131,-0.30973 0.035025,-0.0138 0.1314393,-0.10891 0.2142171,-0.21149 0.1715913,-0.2128 0.3223907,-0.31606 0.6276424,-0.42775 0.2017919,-0.0738 0.379075,-0.0921 0.5887561,-0.0409 z m 1.7382971,0.075 c 0.01685,-0.008 0.047792,-3.9e-4 0.068904,0.0163 0.021171,0.0167 0.024384,0.0364 0.0075,0.0444 -0.01685,0.008 -0.047792,3.9e-4 -0.068905,-0.0164 -0.02117,-0.0165 -0.024384,-0.0364 -0.0075,-0.0444 z m 3.319001,3.772 c -0.0099,0.0853 -0.913639,0.87851 -1.207529,1.06017 l -0.152135,0.0942 -0.467321,-0.0382 c -0.256963,-0.0211 -0.486745,-0.0438 -0.510302,-0.0478 -0.349638,-0.0811 -0.6700746,-0.15417 -0.8145703,-0.18624 -0.098712,-0.022 -0.1777159,-0.0521 -0.1760127,-0.0669 0.00493,-0.0425 0.857851,-0.46521 0.984444,-0.48778 0.06293,-0.0112 0.335585,-0.002 0.605812,0.0212 0.702592,0.0592 0.984028,0.007 1.410831,-0.26402 0.229597,-0.14535 0.336949,-0.17279 0.326783,-0.0846 z m 0.546458,3.88865 c 0.100839,0.0116 0.14211,0.0463 0.330878,0.27903 0.144849,0.17855 0.208008,0.2813 0.191704,0.31246 -0.02669,0.0511 -0.46575,0.20462 -0.954427,0.33359 -0.172552,0.0456 -0.374029,0.10441 -0.447536,0.13099 -0.171108,0.0618 -0.457223,0.28084 -0.703369,0.5376 -0.106353,0.11094 -0.299153,0.29003 -0.427753,0.39841 -0.12859,0.10833 -0.290585,0.26388 -0.360211,0.34521 -0.06966,0.0813 -0.15189,0.16399 -0.182835,0.1842 -0.05032,0.0332 -0.05322,0.0273 -0.02524,-0.0532 0.07165,-0.20595 0.604919,-0.96779 1.117475,-1.59708 0.38737,-0.4756 1.11746,-0.91094 1.461316,-0.8712 z m 0.931231,0.81048 c 0.05762,0.0109 0.03193,0.0652 -0.073,0.16509 -0.06802,0.0647 -0.245983,0.2487 -0.395688,0.40865 -0.282993,0.30236 -0.52797,0.49842 -1.047208,0.83778 -0.551894,0.36069 -0.848152,0.49224 -1.343973,0.59693 -0.278835,0.0588 -0.491484,0.0652 -0.483695,0.015 0.0069,-0.0438 0.24627,-0.34899 0.430482,-0.54852 0.297759,-0.32245 0.5656,-0.56158 0.886203,-0.79136 0.289046,-0.20717 0.321914,-0.22191 0.789329,-0.34521 0.268214,-0.0708 0.633604,-0.1775 0.811842,-0.2381 0.227274,-0.0772 0.36808,-0.11095 0.425705,-0.10027 z"
       id="path3795"
       inkscape:connector-curvature="0" />
    <path
       style="fill:#007aff;fill-opacity:1;stroke-width:0.09104383"
       d="M 10.476562 -12.949219 C 10.399298 -13.046731 10.166113 -12.94976 10.150391 -12.814453 C 10.142344 -12.74491 10.171175 -12.683467 10.214844 -12.679688 C 10.327655 -12.666837 10.532968 -12.878542 10.476562 -12.949219 z "
       id="path859"
       transform="matrix(0.26458334,0,0,0.26458334,0,280.06665)" />
  </g>
</svg>
