<?xml version="1.0" encoding="UTF-8" standalone="no"?>
<!-- Created with Inkscape (http://www.inkscape.org/) -->

<svg
   xmlns:dc="http://purl.org/dc/elements/1.1/"
   xmlns:cc="http://creativecommons.org/ns#"
   xmlns:rdf="http://www.w3.org/1999/02/22-rdf-syntax-ns#"
   xmlns:svg="http://www.w3.org/2000/svg"
   xmlns="http://www.w3.org/2000/svg"
   xmlns:sodipodi="http://sodipodi.sourceforge.net/DTD/sodipodi-0.dtd"
   xmlns:inkscape="http://www.inkscape.org/namespaces/inkscape"
   width="64"
   height="64"
   viewBox="0 0 16.933333 16.933334"
   version="1.1"
   id="svg8"
   inkscape:version="0.92.2 2405546, 2018-03-11"
   sodipodi:docname="flamous_logo.svg">
  <defs
     id="defs2" />
  <sodipodi:namedview
     id="base"
     pagecolor="#ffffff"
     bordercolor="#666666"
     borderopacity="1.0"
     inkscape:pageopacity="0.0"
     inkscape:pageshadow="2"
     inkscape:zoom="1.9555922"
     inkscape:cx="-109.9257"
     inkscape:cy="-63.416748"
     inkscape:document-units="px"
     inkscape:current-layer="layer1"
     showgrid="false"
     inkscape:window-width="1920"
     inkscape:window-height="1013"
     inkscape:window-x="0"
     inkscape:window-y="30"
     inkscape:window-maximized="1"
     units="px" />
  <metadata
     id="metadata5">
    <rdf:RDF>
      <cc:Work
         rdf:about="">
        <dc:format>image/svg+xml</dc:format>
        <dc:type
           rdf:resource="http://purl.org/dc/dcmitype/StillImage" />
        <dc:title />
      </cc:Work>
    </rdf:RDF>
  </metadata>
  <g
     inkscape:label="Layer 1"
     inkscape:groupmode="layer"
     id="layer1"
     transform="translate(0,-280.06665)">
    <circle
       id="path62"
       cx="8.4666672"
       cy="288.53333"
       r="8.4666672"
       style="stroke-width:0.27368236;fill:#ffffff" />
    <path
       style="fill:#007aff;fill-opacity:1;stroke-width:0.02408868"
       d="m 8.1125294,303.63322 c -0.1137886,-0.0404 -0.1764488,-0.0892 -0.2025676,-0.15816 -0.038576,-0.10192 -0.058819,-0.41112 -0.038591,-0.58957 0.00919,-0.0811 0.00933,-0.21383 2.991e-4,-0.29489 -0.00903,-0.0811 -0.00989,-0.21212 -0.00194,-0.29122 0.023458,-0.23246 0.054467,-0.92617 0.049096,-1.09768 -0.018517,-0.59152 -0.019477,-1.08496 -0.00245,-1.24914 0.013302,-0.12836 0.010159,-0.20589 -0.00956,-0.23464 -0.048849,-0.0712 -0.1020796,-0.23362 -0.095434,-0.29102 0.00357,-0.0307 0.029782,-0.0632 0.060835,-0.0754 0.053752,-0.0213 0.055211,-0.0286 0.094739,-0.48557 l 0.04013,-0.46403 -0.061393,-0.11581 c -0.089318,-0.16853 -0.227186,-0.24582 -0.6055433,-0.3395 l -0.011338,-0.54384 c 0.043925,0.0336 0.4200469,0.14446 0.5643409,0.16615 l 0.1429535,0.0221 0.036016,-0.31105 c 0.040561,-0.35037 0.076825,-1.05778 0.076629,-1.49462 -7.52e-5,-0.16007 0.00215,-0.37497 0.00498,-0.4776 0.00491,-0.17959 0.0023,-0.18871 -0.070343,-0.24375 -0.092845,-0.0703 -0.090796,-0.15108 0.00595,-0.23391 0.080917,-0.0693 0.07949,-0.0283 0.0331,-0.9514 -0.01787,-0.35549 -0.0349,-0.71757 -0.037854,-0.80459 -0.00752,-0.22172 -0.011651,-0.23429 -0.098643,-0.3002 -0.1084885,-0.0822 -0.1125306,-0.12654 -0.02284,-0.25099 l 0.076737,-0.10655 -0.063521,-0.70565 c -0.087742,-0.97476 -0.1028609,-1.07255 -0.1942143,-1.25596 -0.083436,-0.16754 -0.088322,-0.25848 -0.021122,-0.39334 0.056186,-0.11277 0.012931,-0.15905 -0.138825,-0.14849 -0.2099182,0.0145 -0.7311739,-0.14198 -1.2180152,-0.36571 -0.1390305,-0.0638 -0.3781342,-0.14647 -0.578185,-0.19966 -0.7411342,-0.19702 -0.9256239,-0.28631 -1.3060592,-0.63216 -0.1010916,-0.0919 -0.2734384,-0.23623 -0.3829946,-0.32068 -0.1095621,-0.0844 -0.2710688,-0.22547 -0.3589231,-0.31331 -0.1342042,-0.13419 -0.1604904,-0.17421 -0.1644685,-0.25049 -0.00647,-0.12439 0.041998,-0.20741 0.1941086,-0.33235 0.2808954,-0.2307 0.5381924,-0.56821 0.4979989,-0.65326 -0.034313,-0.0727 -0.4394827,-0.45996 -0.6548832,-0.62612 -0.2157852,-0.16643 -0.3297391,-0.30211 -0.3687169,-0.43898 -0.02078,-0.073 -0.015899,-0.10557 0.038144,-0.25516 0.1125023,-0.31131 0.1845054,-0.34602 0.6478556,-0.31237 0.1832823,0.0136 0.4151018,0.017 0.5151298,0.008 0.2072525,-0.0187 0.3497513,0.01 0.5389519,0.10633 0.069041,0.0355 0.1327981,0.0585 0.1416633,0.0514 0.00884,-0.006 -0.060032,-0.11154 -0.1530819,-0.23229 -0.1057279,-0.13718 -0.1762784,-0.25444 -0.1880987,-0.31263 -0.018473,-0.0908 -0.021181,-0.093 -0.1141398,-0.089 -0.1777434,0.008 -0.2629952,-0.13656 -0.1457575,-0.24664 0.058633,-0.0551 1.0338946,-0.3883 1.3066069,-0.44646 0.1094169,-0.0235 0.2945659,-0.0675 0.4114822,-0.0981 0.3463163,-0.0907 0.8982953,-0.12412 1.4059704,-0.0849 l 0.3382599,0.0262 0.04359,0.0709 c 0.063736,0.10364 0.098924,0.0704 0.099353,-0.094 3.519e-4,-0.1344 0.00342,-0.14148 0.093758,-0.21749 0.093228,-0.0785 0.09374,-0.0786 0.2939432,-0.0552 0.1103055,0.0129 0.4391773,0.083 0.7308151,0.15598 0.2916507,0.0729 0.695988,0.16875 0.8985311,0.21297 0.390291,0.0852 0.541971,0.14484 0.862939,0.33988 0.295946,0.17982 0.475326,0.3852 0.628189,0.71928 0.134106,0.29307 0.167872,0.53184 0.145558,1.02927 -0.0061,0.13601 -0.0044,0.24767 0.0039,0.24814 0.0082,5.1e-4 0.04366,-0.0114 0.07876,-0.0265 0.173071,-0.0739 0.28707,0.0339 0.262067,0.24987 -0.01322,0.11414 -0.02588,0.13689 -0.130114,0.23368 -0.18344,0.17034 -0.767977,0.45355 -1.155993,0.56008 -0.280111,0.0768 -0.342535,0.0851 -0.742407,0.0973 -0.6408999,0.0197 -0.8572912,0.0505 -1.4572318,0.20735 -0.3012675,0.0788 -0.4792519,0.14398 -0.553286,0.20266 -0.040785,0.0324 -0.075706,0.17077 -0.1328718,0.52671 -0.03153,0.19636 -0.031128,0.19997 0.038002,0.30526 0.091993,0.14018 0.076798,0.22195 -0.045748,0.24615 -0.074723,0.0147 -0.092413,0.0317 -0.1265844,0.12155 -0.04667,0.12263 -0.1239186,0.22235 -0.1682881,0.21722 -0.053187,-0.006 -0.1137388,-0.13235 -0.1175212,-0.2449 -0.00194,-0.0589 -0.014724,-0.11853 -0.028316,-0.13255 -0.020668,-0.0213 -0.4071336,-0.1228 -0.9446839,-0.24812 -0.6913338,-0.16119 -1.1225515,-0.44249 -1.6791834,-1.09552 -0.1545096,-0.18127 -0.3005513,-0.33187 -0.3245371,-0.33464 -0.028591,-0.003 -0.066519,0.032 -0.1101089,0.10245 -0.036559,0.0591 -0.1402468,0.18498 -0.2303925,0.27972 -0.090138,0.0947 -0.160184,0.18669 -0.155651,0.20437 0.00454,0.0178 0.089239,0.0942 0.1882164,0.17008 0.098988,0.0759 0.2859871,0.22455 0.4155623,0.33041 0.4361049,0.35629 0.6210574,0.45141 1.106105,0.5688 0.3420081,0.0827 0.5709275,0.15608 0.8300733,0.26591 0.1017072,0.043 0.3508628,0.13732 0.5536746,0.20938 0.3469241,0.1232 0.3724999,0.12918 0.4321402,0.0993 0.034885,-0.0175 0.075745,-0.0555 0.090826,-0.0846 0.033554,-0.0647 0.079073,-0.0777 0.2154943,-0.062 0.085947,0.01 0.1136555,0.002 0.1515746,-0.0435 0.025526,-0.0306 0.1570257,-0.10385 0.2922291,-0.16291 0.1351997,-0.059 0.3729579,-0.1669 0.5283421,-0.23973 0.6413424,-0.30061 0.8684345,-0.35891 1.2356012,-0.31727 0.29596,0.0336 0.521249,0.0212 0.664046,-0.0363 0.157344,-0.0635 0.53907,-0.37673 0.655385,-0.53794 0.103434,-0.14333 0.207399,-0.35426 0.24877,-0.50467 0.0879,-0.31959 0.201384,-0.54774 0.277847,-0.55855 0.07472,-0.0108 0.168484,0.0638 0.200964,0.15924 0.06376,0.18749 0.06486,0.29853 0.0056,0.55878 -0.0614,0.26946 -0.139844,0.44368 -0.289005,0.64176 -0.111059,0.14751 -0.126212,0.22406 -0.07926,0.40043 0.06413,0.24087 0.0038,0.41197 -0.246794,0.69892 -0.276645,0.31689 -0.579601,0.55878 -0.844833,0.67453 -0.178818,0.078 -0.9641641,0.0476 -1.2809529,-0.0498 -0.1503701,-0.0463 -1.1540755,-0.20277 -1.1827782,-0.18446 -0.025101,0.016 0.041848,0.41857 0.1091649,0.65644 0.07994,0.2825 0.1174787,0.48213 0.1492302,0.79368 0.022885,0.22459 0.088358,1.20482 0.097907,1.46589 0.00799,0.21833 0.068282,1.23557 0.078539,1.32497 0.00667,0.0576 0.00958,0.12557 0.00667,0.15093 -0.00979,0.0847 0.042187,0.0852 0.1535816,0.002 0.1297715,-0.097 0.2655633,-0.17353 0.3569733,-0.20116 0.06115,-0.0184 0.067769,-0.0326 0.1014328,-0.21781 0.020061,-0.11029 0.067683,-0.26419 0.1074918,-0.34738 0.083772,-0.17505 0.3372476,-0.56869 0.5129819,-0.79667 0.067941,-0.0881 0.1736676,-0.23083 0.2349486,-0.31709 0.438078,-0.61666 1.021687,-1.04267 1.522049,-1.111 0.11463,-0.0157 0.218516,-0.0115 0.366596,0.014 0.255145,0.0444 0.351311,0.10965 0.519594,0.35288 0.248215,0.35879 0.475038,0.38859 1.01984,0.13405 0.210139,-0.0982 0.346154,-0.0821 0.395011,0.0464 0.0477,0.12596 0.01994,0.22293 -0.102455,0.35787 -0.115769,0.12763 -0.281203,0.21897 -0.543869,0.30028 -0.09502,0.0294 -0.17246,0.0762 -0.247324,0.14934 -0.05995,0.0586 -0.146337,0.13742 -0.191973,0.1752 -0.05115,0.0423 -0.10407,0.1205 -0.137983,0.20386 -0.106965,0.2629 -0.437663,0.57867 -0.980496,0.93629 -0.470104,0.3097 -0.710741,0.42181 -1.08242,0.50425 -0.216291,0.0479 -0.676456,0.0903 -0.811728,0.0746 -0.1161026,-0.0134 -0.4445951,0.0181 -0.531441,0.0509 -0.1854158,0.0703 -0.3851485,0.29629 -0.5469448,0.61906 l -0.095083,0.18971 -0.00118,0.40538 c -6.726e-4,0.22297 -0.0071,0.52091 -0.014346,0.66215 -0.00721,0.14122 -0.00764,0.26775 -8.933e-4,0.28119 0.00667,0.0136 0.058836,0.046 0.1157851,0.0724 0.1907926,0.0883 0.1972036,0.28958 0.010439,0.32727 -0.1427581,0.0288 -0.1924099,0.10364 -0.2302755,0.34694 -0.018086,0.11645 -0.030235,0.33524 -0.027088,0.48617 0.00335,0.15754 -0.020489,0.55544 -0.05603,0.93413 -0.064934,0.69198 -0.096027,1.20321 -0.096678,1.58929 -5.795e-4,0.3408 0.01415,0.89705 0.026723,1.00945 0.00603,0.0541 0.00401,0.16084 -0.00454,0.23732 -0.00855,0.0765 -0.016509,0.23926 -0.017766,0.36169 -0.00119,0.12244 -0.00898,0.38008 -0.017209,0.57253 -0.00823,0.19243 -0.010299,0.46152 -0.00462,0.59796 l 0.010353,0.24811 -0.086476,0.11896 c -0.085723,0.11792 -0.1238294,0.1348 -0.2242212,0.0992 z m 2.3611646,-9.79802 c 0.375572,-0.0793 0.600222,-0.17905 1.018267,-0.45227 0.393309,-0.25705 0.578635,-0.40527 0.792995,-0.63429 0.113398,-0.12116 0.248331,-0.2604 0.299854,-0.30944 0.158966,-0.15129 0.07704,-0.16647 -0.267269,-0.0495 -0.135011,0.0459 -0.41169,0.12721 -0.614856,0.18082 -0.354055,0.0934 -0.378879,0.10429 -0.597824,0.26121 -0.242849,0.17406 -0.445919,0.35542 -0.671464,0.59967 -0.139535,0.15113 -0.321019,0.38218 -0.326225,0.41537 -0.0059,0.0381 0.155312,0.0331 0.366522,-0.0115 z m -0.334718,-0.36486 c 0.05274,-0.0616 0.175612,-0.17914 0.273016,-0.26123 0.09741,-0.0821 0.243014,-0.21799 0.323576,-0.30203 0.18645,-0.19448 0.403524,-0.36016 0.533134,-0.40691 0.05568,-0.0201 0.20816,-0.0648 0.338864,-0.0993 0.37016,-0.0977 0.702652,-0.21398 0.72287,-0.25266 0.01235,-0.0236 -0.03527,-0.10138 -0.14499,-0.23663 -0.142986,-0.17626 -0.174285,-0.20267 -0.250669,-0.2115 -0.260463,-0.0301 -0.813702,0.29966 -1.107125,0.65992 -0.388249,0.47667 -0.791838,1.05368 -0.8461071,1.20968 -0.021201,0.061 -0.019232,0.0654 0.018887,0.0403 0.02344,-0.0153 0.08577,-0.0781 0.138532,-0.13974 z m 0.467327,-3.91255 c 0.222615,-0.1376 0.906721,-0.73878 0.9142,-0.80339 0.0077,-0.0668 -0.07333,-0.0457 -0.247244,0.0644 -0.323292,0.20458 -0.536336,0.24436 -1.068532,0.19952 -0.20469,-0.0177 -0.4112368,-0.0244 -0.4589,-0.0159 -0.09589,0.0171 -0.7422952,0.33733 -0.7460296,0.36957 -0.00129,0.0112 0.058815,0.0339 0.1335866,0.0505 0.1094516,0.0243 0.3522338,0.08 0.6170761,0.14144 0.017843,0.003 0.1917009,0.0201 0.3863439,0.0361 l 0.353903,0.0288 z m -2.9328693,-1.21652 c 0.039669,-0.12272 0.1427152,-0.63679 0.1306866,-0.65197 -0.00618,-0.008 -0.037928,10e-4 -0.070381,0.0179 -0.1431765,0.0775 -0.3596247,-0.0314 -0.7937075,-0.39945 -0.1907347,-0.16168 -0.3917743,-0.32956 -0.4467529,-0.37307 -0.05498,-0.0435 -0.2081579,-0.18139 -0.340398,-0.30637 -0.4135378,-0.39084 -1.2341699,-0.97438 -1.432558,-1.01868 -0.1459999,-0.0326 -0.2856634,0.009 -0.3438024,0.10073 -0.1677926,0.26671 -0.1996856,0.32692 -0.187912,0.35481 0.00722,0.0171 0.1119227,0.1226 0.2326452,0.2344 0.2215443,0.20518 0.3958922,0.38648 0.8144407,0.8469 0.1260078,0.13862 0.2824971,0.31055 0.3477508,0.38213 0.2691315,0.29513 0.6272667,0.4985 1.0849799,0.61616 0.4528802,0.11639 0.7139388,0.18998 0.786694,0.2217 0.038091,0.0166 0.097416,0.0343 0.1318399,0.0394 0.051788,0.008 0.06669,-0.003 0.086483,-0.0646 z m 0.3232552,-0.80988 c 0.1604116,-0.11155 0.4580963,-0.22014 0.9027089,-0.3293 0.068651,-0.017 0.1840028,-0.0455 0.2563779,-0.0638 0.1876091,-0.0471 0.5366702,-0.0973 0.9057813,-0.12997 0.528143,-0.0468 0.725556,-0.088 0.733108,-0.15327 0.0019,-0.0171 -0.0181,-0.0567 -0.04462,-0.0881 -0.04127,-0.0487 -0.07631,-0.0602 -0.243767,-0.0784 -0.107557,-0.0117 -0.206419,-0.03 -0.219713,-0.0403 -0.01331,-0.01 -0.209777,-0.0404 -0.4366847,-0.0661 -0.8234693,-0.0933 -1.1116127,-0.17785 -1.5654756,-0.45654 -0.5039834,-0.30948 -0.7344518,-0.36573 -1.0401558,-0.25389 -0.2312205,0.0846 -0.3457227,0.16253 -0.4756988,0.32373 -0.062702,0.0777 -0.135722,0.15 -0.1622523,0.16048 -0.083841,0.0332 -0.060709,0.0824 0.1099253,0.23441 0.091294,0.0813 0.2517856,0.22664 0.3566629,0.32297 0.1048712,0.0964 0.3173063,0.28286 0.4720651,0.41451 0.1547612,0.13164 0.2863063,0.24986 0.2923243,0.2627 0.017,0.0363 0.028435,0.0321 0.1594006,-0.0591 z M 3.9098273,285.6925 c 0.036351,-0.14883 0.025109,-0.1888 -0.049191,-0.17581 -0.113308,0.0197 -0.1680664,0.15232 -0.1014457,0.24557 0.066683,0.0934 0.116426,0.0703 0.150635,-0.0697 z m 2.3153631,0.0673 c 0.050107,-0.29926 0.050092,-0.30294 -0.00171,-0.37133 -0.04292,-0.0567 -0.049615,-0.093 -0.037028,-0.20165 0.013273,-0.11466 0.031106,-0.15175 0.1318703,-0.2744 0.1173411,-0.14284 0.4841266,-0.48855 0.6610501,-0.62311 0.1155451,-0.0878 0.1264162,-0.13216 0.035034,-0.14275 -0.2205541,-0.0255 -1.8186155,0.38109 -1.8283558,0.46522 -0.00677,0.0587 0.076215,0.20511 0.2280557,0.40237 0.2074177,0.26946 0.2614924,0.42903 0.1842659,0.54374 l -0.045368,0.0674 0.1397587,0.0922 c 0.076883,0.0506 0.165202,0.1138 0.1962803,0.14038 0.031076,0.0266 0.096129,0.082 0.14455,0.12319 0.048418,0.0412 0.099957,0.0763 0.1145341,0.078 0.017186,0.002 0.044304,-0.10321 0.077111,-0.29919 z m 4.7642816,0.43471 0.205974,-0.024 0.02086,-0.3007 c 0.03281,-0.4734 -0.01472,-0.65674 -0.240232,-0.92629 -0.09322,-0.11143 -0.179391,-0.18087 -0.341384,-0.2751 -0.19232,-0.11185 -0.259028,-0.13642 -0.593103,-0.2182 -0.20703,-0.0506 -0.4982663,-0.12355 -0.6472008,-0.16193 -0.4418142,-0.11383 -0.8076077,-0.20215 -0.8655771,-0.20887 -0.039803,-0.004 -0.07114,0.0192 -0.1175895,0.0894 -0.034834,0.0527 -0.1005718,0.1369 -0.1460856,0.1872 -0.045516,0.0503 -0.077325,0.1031 -0.07067,0.11726 0.020386,0.0437 0.219142,0.12177 0.4545403,0.17891 0.2301114,0.0559 0.5694425,0.15937 0.8259409,0.25206 0.079844,0.0287 0.2467211,0.0707 0.3708446,0.093 0.3970162,0.0712 0.7463992,0.25352 0.8754232,0.45678 0.104951,0.16534 0.133061,0.26025 0.129168,0.43602 -0.003,0.13731 -0.01116,0.16607 -0.06299,0.22142 -0.06648,0.071 -0.08148,0.11943 -0.03478,0.112 0.01707,-0.003 0.123556,-0.0156 0.236842,-0.0288 z m -0.639011,-0.0855 c -0.0028,-0.0203 -0.01195,-0.10816 -0.02049,-0.19517 -0.0085,-0.0871 -0.03167,-0.18129 -0.05141,-0.20946 -0.06346,-0.0907 -0.251715,-0.19002 -0.393605,-0.20774 -0.1349222,-0.0163 -0.2282813,-0.0433 -0.7749076,-0.21878 -0.1735969,-0.0557 -0.373562,-0.11943 -0.4443565,-0.14153 -0.2500271,-0.0779 -0.581618,-0.24079 -0.6763979,-0.3322 -0.082694,-0.0796 -0.1097004,-0.0916 -0.2420239,-0.10557 -0.1598119,-0.0179 -0.1999928,-0.0499 -0.1637536,-0.13453 0.023837,-0.0556 0.094377,-0.12244 0.1255361,-0.11883 0.073058,0.009 0.3338399,-0.21309 0.3428949,-0.29131 0.00253,-0.0221 -0.028197,-0.036 -0.095812,-0.0437 -0.091577,-0.0108 -0.1157423,0.001 -0.3017699,0.14543 -0.1112234,0.0863 -0.2329979,0.1756 -0.2706083,0.19837 -0.037616,0.0228 -0.1451266,0.11012 -0.2389207,0.19407 -0.1307856,0.1171 -0.1633979,0.15832 -0.1399158,0.17688 0.016851,0.0132 0.038754,0.0204 0.048731,0.0157 0.05344,-0.025 0.5495291,0.13971 0.6156554,0.20446 0.039825,0.039 0.179119,0.0743 0.5424814,0.13692 0.4276008,0.0738 0.5485616,0.1251 0.6404742,0.2712 0.06863,0.10905 0.1104418,0.12645 0.1904956,0.0794 0.027777,-0.0164 0.08346,-0.026 0.12372,-0.0213 0.06129,0.006 0.1064802,0.0514 0.2776341,0.27388 l 0.2044314,0.26546 0.2814246,0.0412 c 0.4127665,0.0597 0.4261205,0.0604 0.4204125,0.0178 z m -1.2915991,-0.19949 c -0.015992,-0.0127 -0.039508,-0.0181 -0.052271,-0.0122 -0.012785,0.006 -0.010116,0.0213 0.00592,0.0338 0.015992,0.0127 0.039508,0.0181 0.052272,0.0122 0.012785,-0.006 0.010116,-0.0211 -0.00592,-0.0338 z m -2.356115,-0.3094 c 0.1015468,-0.0671 0.4844576,-0.20778 0.6211362,-0.22813 0.1073412,-0.0159 0.1341291,-0.043 0.073863,-0.0745 -0.019098,-0.01 -0.1774562,-0.042 -0.3519246,-0.0709 -0.2345684,-0.0392 -0.3226585,-0.0461 -0.3381414,-0.0264 -0.028063,0.0355 -0.1316829,0.40664 -0.1203215,0.43099 0.014053,0.0301 0.029514,0.0259 0.115365,-0.0309 z m -4.0171836,-8.92396 c 0.00416,-0.0358 0.065976,-0.0614 0.086419,-0.0356 0.014924,0.0187 -0.039424,0.0748 -0.069272,0.0714 -0.011554,-10e-4 -0.01927,-0.0174 -0.017141,-0.0358 z"
       id="path859"
       inkscape:connector-curvature="0"
       sodipodi:nodetypes="cccccccccccccccccccccccccccsccccccccccccccccccccccccccccccccccccccccccccccccccccccccccccccccccccccccccccccccccccccccccccccccccccccccccccccccccccccccccccccccccccccccccccccccccccccccccccccccccccccccccccccccccccccccccccccccccccccccccccccccccccccccccccccccccccccccccccccccccccccccccccccccccccccccccccccccccccccccc" />
    <circle
       style="fill:none;fill-opacity:1;stroke:#007aff;stroke-width:0.5291667;stroke-linecap:round;stroke-linejoin:round;stroke-miterlimit:1;stroke-dasharray:none;stroke-dashoffset:0;stroke-opacity:1"
       id="path881"
       cx="8.4666672"
       cy="288.53333"
       r="8.2020836" />
  </g>
</svg>
