<?xml version="1.0" encoding="UTF-8" standalone="no"?>
<!-- Created with Inkscape (http://www.inkscape.org/) -->

<svg
   xmlns:dc="http://purl.org/dc/elements/1.1/"
   xmlns:cc="http://creativecommons.org/ns#"
   xmlns:rdf="http://www.w3.org/1999/02/22-rdf-syntax-ns#"
   xmlns:svg="http://www.w3.org/2000/svg"
   xmlns="http://www.w3.org/2000/svg"
   xmlns:sodipodi="http://sodipodi.sourceforge.net/DTD/sodipodi-0.dtd"
   xmlns:inkscape="http://www.inkscape.org/namespaces/inkscape"
   width="64"
   height="64"
   viewBox="0 0 16.933333 16.933334"
   version="1.1"
   id="svg8"
   inkscape:version="0.92.2 2405546, 2018-03-11"
   sodipodi:docname="flamous_logo.svg">
  <defs
     id="defs2" />
  <sodipodi:namedview
     id="base"
     pagecolor="#ffffff"
     bordercolor="#666666"
     borderopacity="1.0"
     inkscape:pageopacity="0.0"
     inkscape:pageshadow="2"
     inkscape:zoom="1.9555922"
     inkscape:cx="-109.9257"
     inkscape:cy="-63.416748"
     inkscape:document-units="px"
     inkscape:current-layer="layer1"
     showgrid="false"
     inkscape:window-width="1920"
     inkscape:window-height="1013"
     inkscape:window-x="0"
     inkscape:window-y="30"
     inkscape:window-maximized="1"
     units="px" />
  <metadata
     id="metadata5">
    <rdf:RDF>
      <cc:Work
         rdf:about="">
        <dc:format>image/svg+xml</dc:format>
        <dc:type
           rdf:resource="http://purl.org/dc/dcmitype/StillImage" />
        <dc:title></dc:title>
      </cc:Work>
    </rdf:RDF>
  </metadata>
  <g
     inkscape:label="Layer 1"
     inkscape:groupmode="layer"
     id="layer1"
     transform="translate(0,-280.06665)">
    <circle
       style="stroke-width:0.27368236;fill:#007aff;fill-opacity:1"
       r="8.4666672"
       cy="288.53333"
       cx="8.4666672"
       id="circle64" />
    <path
       style="fill:#fdfeff;fill-opacity:1;stroke:#ffffff;stroke-width:0.02523593;stroke-opacity:1"
       d="m 8.1009934,304.27584 c -0.1192079,-0.0423 -0.1848523,-0.0935 -0.2122151,-0.16569 -0.040413,-0.10678 -0.06162,-0.4307 -0.040429,-0.61765 0.00963,-0.085 0.00977,-0.22402 3.134e-4,-0.30894 -0.00946,-0.085 -0.010361,-0.22222 -0.00203,-0.30509 0.024575,-0.24353 0.057061,-0.97028 0.051434,-1.14996 -0.019399,-0.61969 -0.020405,-1.13663 -0.00257,-1.30863 0.013936,-0.13447 0.010643,-0.21569 -0.010015,-0.24581 -0.051175,-0.0746 -0.1069412,-0.24475 -0.099979,-0.30488 0.00374,-0.0322 0.0312,-0.0662 0.063732,-0.079 0.056312,-0.0223 0.057841,-0.03 0.099251,-0.5087 l 0.042041,-0.48613 -0.064317,-0.12132 c -0.093572,-0.17656 -0.238006,-0.25753 -0.6343829,-0.35567 l -0.011878,-0.56974 c 0.046017,0.0352 0.440052,0.15134 0.5912182,0.17406 l 0.1497618,0.0231 0.037731,-0.32586 c 0.042493,-0.36706 0.080484,-1.10816 0.080278,-1.56581 -7.88e-5,-0.16769 0.00225,-0.39282 0.00522,-0.50034 0.00514,-0.18814 0.00241,-0.1977 -0.073693,-0.25536 -0.097267,-0.0736 -0.09512,-0.15828 0.00623,-0.24505 0.084771,-0.0726 0.083276,-0.0297 0.034676,-0.99671 -0.018721,-0.37242 -0.036562,-0.75175 -0.039657,-0.84291 -0.00788,-0.23228 -0.012206,-0.24545 -0.103341,-0.3145 -0.1136553,-0.0861 -0.11789,-0.13257 -0.023928,-0.26294 l 0.080392,-0.11163 -0.066546,-0.73925 c -0.091921,-1.02119 -0.1077598,-1.12364 -0.203464,-1.31578 -0.08741,-0.17552 -0.092528,-0.27079 -0.022128,-0.41207 0.058862,-0.11814 0.013547,-0.16663 -0.1454367,-0.15557 -0.2199157,0.0152 -0.7659967,-0.14874 -1.2760243,-0.38312 -0.145652,-0.0668 -0.3961432,-0.15345 -0.6057216,-0.20917 -0.7764314,-0.20641 -0.9697076,-0.29995 -1.3682615,-0.66227 -0.1059062,-0.0963 -0.2864612,-0.24748 -0.4012351,-0.33595 -0.1147801,-0.0884 -0.2839787,-0.23621 -0.3760171,-0.32823 -0.1405958,-0.14058 -0.1681339,-0.18251 -0.1723015,-0.26242 -0.00678,-0.13032 0.043998,-0.21729 0.2033532,-0.34818 0.2942733,-0.24169 0.5638243,-0.59527 0.5217166,-0.68437 -0.035947,-0.0762 -0.4604135,-0.48187 -0.6860727,-0.65594 -0.2260621,-0.17436 -0.3454432,-0.3165 -0.3862774,-0.45989 -0.02177,-0.0765 -0.016656,-0.1106 0.039961,-0.26731 0.1178603,-0.32614 0.1932926,-0.3625 0.6787103,-0.32725 0.1920113,0.0142 0.4348714,0.0178 0.5396634,0.008 0.2171231,-0.0196 0.3664085,0.0105 0.56462,0.1114 0.072329,0.0372 0.1391227,0.0613 0.1484101,0.0538 0.00926,-0.006 -0.062891,-0.11685 -0.1603726,-0.24335 -0.1107633,-0.14371 -0.1846738,-0.26656 -0.197057,-0.32752 -0.019353,-0.0951 -0.02219,-0.0974 -0.1195759,-0.0932 -0.1862086,0.008 -0.2755206,-0.14306 -0.1526993,-0.25838 0.061425,-0.0577 1.0831348,-0.4068 1.3688353,-0.46773 0.114628,-0.0246 0.3085949,-0.0707 0.4310794,-0.10277 0.3628099,-0.095 0.9410775,-0.13003 1.4729311,-0.0889 l 0.3543698,0.0274 0.045666,0.0743 c 0.066771,0.10858 0.1036354,0.0738 0.1040848,-0.0985 3.687e-4,-0.14081 0.00358,-0.14822 0.098223,-0.22785 0.097668,-0.0822 0.098204,-0.0823 0.3079425,-0.0578 0.1155589,0.0135 0.4600936,0.087 0.7656209,0.16341 0.3055408,0.0764 0.7291355,0.17678 0.9413245,0.22311 0.408879,0.0893 0.567783,0.15174 0.904037,0.35607 0.310041,0.18838 0.497964,0.40354 0.658107,0.75353 0.140493,0.30703 0.175868,0.55717 0.152491,1.07829 -0.0064,0.14249 -0.0046,0.25947 0.0041,0.25996 0.0086,5.4e-4 0.04574,-0.0119 0.08251,-0.0278 0.181313,-0.0774 0.300742,0.0355 0.274548,0.26177 -0.01385,0.11958 -0.02711,0.14341 -0.136311,0.24481 -0.192177,0.17845 -0.804553,0.47515 -1.211048,0.58675 -0.293452,0.0805 -0.358849,0.0892 -0.777765,0.10194 -0.6714236,0.0206 -0.8981207,0.0529 -1.5266341,0.21722 -0.3156156,0.0826 -0.5020767,0.15084 -0.5796367,0.21231 -0.042727,0.034 -0.079312,0.17891 -0.1392,0.5518 -0.033032,0.20571 -0.03261,0.20949 0.039812,0.3198 0.096374,0.14685 0.080456,0.23252 -0.047927,0.25787 -0.078282,0.0154 -0.096814,0.0332 -0.1326131,0.12734 -0.048893,0.12847 -0.1298203,0.23294 -0.176303,0.22756 -0.05572,-0.006 -0.1191557,-0.13865 -0.1231182,-0.25656 -0.00203,-0.0617 -0.015425,-0.12417 -0.029665,-0.13886 -0.021652,-0.0223 -0.4265237,-0.12865 -0.9896754,-0.25994 -0.7242592,-0.16887 -1.176014,-0.46356 -1.7591561,-1.14769 -0.1618682,-0.18991 -0.3148653,-0.34768 -0.3399934,-0.35058 -0.029953,-0.003 -0.069687,0.0335 -0.115353,0.10733 -0.0383,0.0619 -0.1469262,0.19379 -0.2413651,0.29304 -0.094431,0.0992 -0.167813,0.19558 -0.1630641,0.2141 0.00476,0.0186 0.093489,0.0987 0.1971804,0.17818 0.1037024,0.0795 0.2996075,0.23525 0.4353539,0.34615 0.4568748,0.37326 0.6506358,0.47291 1.1587843,0.59589 0.3582965,0.0866 0.5981184,0.16351 0.8696063,0.27857 0.1065511,0.0451 0.3675729,0.14386 0.5800438,0.21936 0.3634467,0.12906 0.3902406,0.13533 0.4527213,0.10402 0.036547,-0.0183 0.079353,-0.0581 0.095152,-0.0886 0.035152,-0.0678 0.082839,-0.0814 0.2257574,-0.065 0.09004,0.0105 0.1190685,0.002 0.1587935,-0.0456 0.026742,-0.0321 0.1645042,-0.1088 0.3061468,-0.17067 0.1416387,-0.0618 0.3907204,-0.17485 0.5535049,-0.25115 0.6718869,-0.31492 0.9097945,-0.376 1.2944486,-0.33238 0.310055,0.0352 0.546074,0.0222 0.695671,-0.038 0.164838,-0.0665 0.564744,-0.39468 0.686599,-0.56356 0.10836,-0.15016 0.217276,-0.37114 0.260618,-0.52871 0.09209,-0.33481 0.210975,-0.57383 0.291079,-0.58515 0.07828,-0.0113 0.176509,0.0668 0.210535,0.16682 0.0668,0.19642 0.06795,0.31275 0.0059,0.5854 -0.06432,0.28229 -0.146504,0.46481 -0.302769,0.67232 -0.116348,0.15453 -0.132223,0.23473 -0.08304,0.4195 0.06718,0.25234 0.004,0.43159 -0.258548,0.73221 -0.28982,0.33198 -0.607205,0.58539 -0.885069,0.70665 -0.187334,0.0817 -1.0100832,0.0499 -1.3419594,-0.0522 -0.1575316,-0.0485 -1.2090394,-0.21243 -1.2391091,-0.19324 -0.026297,0.0168 0.043841,0.4385 0.114364,0.6877 0.083747,0.29595 0.1230737,0.50509 0.1563374,0.83148 0.023975,0.23529 0.092566,1.2622 0.1025699,1.5357 0.00837,0.22873 0.071534,1.29442 0.08228,1.38808 0.00699,0.0603 0.010036,0.13155 0.00699,0.15811 -0.010256,0.0887 0.044196,0.0893 0.160896,0.002 0.135952,-0.10162 0.278211,-0.1818 0.3739745,-0.21074 0.064062,-0.0193 0.070997,-0.0342 0.1062637,-0.22818 0.021016,-0.11555 0.070906,-0.27678 0.1126112,-0.36393 0.087762,-0.18339 0.3533093,-0.59577 0.5374128,-0.83461 0.07118,-0.0923 0.181938,-0.24182 0.246138,-0.33219 0.458942,-0.64603 1.070347,-1.09233 1.594538,-1.16391 0.120089,-0.0165 0.228923,-0.012 0.384056,0.0147 0.267296,0.0465 0.368042,0.11487 0.54434,0.36969 0.260036,0.37588 0.497662,0.4071 1.068411,0.14043 0.220147,-0.10287 0.362639,-0.086 0.413823,0.0486 0.04997,0.13196 0.02089,0.23355 -0.107334,0.37492 -0.121283,0.1337 -0.294596,0.22939 -0.569771,0.31458 -0.09955,0.0308 -0.180674,0.0798 -0.259104,0.15645 -0.0628,0.0614 -0.153306,0.14396 -0.201115,0.18354 -0.05359,0.0443 -0.109027,0.12624 -0.144555,0.21357 -0.112059,0.27542 -0.458507,0.60623 -1.027193,0.98088 -0.492493,0.32445 -0.744591,0.4419 -1.133971,0.52827 -0.226592,0.0502 -0.708673,0.0946 -0.8503871,0.0781 -0.1216321,-0.014 -0.4657694,0.019 -0.5567514,0.0533 -0.1942464,0.0736 -0.4034916,0.3104 -0.5729936,0.64854 l -0.099611,0.19875 -0.00124,0.42468 c -7.046e-4,0.23359 -0.00744,0.54572 -0.015029,0.69369 -0.00755,0.14794 -0.008,0.2805 -9.359e-4,0.29458 0.00699,0.0143 0.061638,0.0482 0.1212995,0.0759 0.1998793,0.0925 0.2065956,0.30337 0.010936,0.34285 -0.1495571,0.0302 -0.2015736,0.10858 -0.2412426,0.36347 -0.018947,0.12199 -0.031675,0.3512 -0.028378,0.50932 0.00351,0.16504 -0.021465,0.5819 -0.058699,0.97862 -0.068027,0.72494 -0.1006003,1.26051 -0.1012824,1.66498 -6.071e-4,0.35703 0.014824,0.93977 0.027996,1.05753 0.00632,0.0567 0.0042,0.1685 -0.00476,0.24862 -0.00896,0.0801 -0.017295,0.25066 -0.018612,0.37892 -0.00125,0.12827 -0.00941,0.39818 -0.018029,0.59979 -0.00862,0.2016 -0.01079,0.4835 -0.00484,0.62644 l 0.010846,0.25993 -0.090594,0.12462 c -0.089806,0.12354 -0.1297269,0.14122 -0.2349,0.10393 z m 2.4736176,-10.26466 c 0.393459,-0.0831 0.628808,-0.18758 1.066763,-0.47381 0.41204,-0.26929 0.606193,-0.42457 0.830762,-0.6645 0.118798,-0.12693 0.260158,-0.2728 0.314135,-0.32418 0.166536,-0.15849 0.08071,-0.1744 -0.279998,-0.0519 -0.141441,0.0481 -0.431297,0.13327 -0.644139,0.18944 -0.370918,0.0978 -0.396924,0.10925 -0.626296,0.27365 -0.254415,0.18235 -0.467157,0.37234 -0.703443,0.62823 -0.146181,0.15832 -0.336308,0.40038 -0.341762,0.43515 -0.0062,0.0399 0.162709,0.0347 0.383978,-0.012 z m -0.35066,-0.38224 c 0.05525,-0.0645 0.183976,-0.18767 0.286019,-0.27367 0.102049,-0.086 0.254588,-0.22837 0.338987,-0.31641 0.19533,-0.20375 0.422742,-0.37732 0.558525,-0.42629 0.05833,-0.0211 0.218074,-0.0679 0.355002,-0.10403 0.38779,-0.10236 0.736117,-0.22417 0.757298,-0.2647 0.01294,-0.0247 -0.03695,-0.10621 -0.151896,-0.2479 -0.149795,-0.18465 -0.182585,-0.21232 -0.262607,-0.22157 -0.272868,-0.0315 -0.852455,0.31393 -1.159853,0.69135 -0.406739,0.49937 -0.82955,1.10386 -0.886403,1.26729 -0.02221,0.0639 -0.02015,0.0685 0.01979,0.0422 0.02456,-0.016 0.08986,-0.0818 0.14513,-0.14639 z m 0.489584,-4.09889 c 0.233218,-0.14415 0.949905,-0.77396 0.95774,-0.84165 0.0081,-0.07 -0.07682,-0.0479 -0.259019,0.0675 -0.338689,0.21432 -0.56188,0.25599 -1.119422,0.20902 -0.214439,-0.0185 -0.4308225,-0.0256 -0.4807557,-0.0167 -0.1004568,0.0179 -0.7776477,0.3534 -0.7815599,0.38717 -0.00135,0.0117 0.061616,0.0355 0.1399488,0.0529 0.1146643,0.0255 0.3690092,0.0838 0.6464649,0.14817 0.018693,0.003 0.2008309,0.0211 0.4047439,0.0378 l 0.370758,0.0302 z m -3.0725496,-1.27446 c 0.041558,-0.12856 0.1495121,-0.66711 0.1369106,-0.68302 -0.00647,-0.008 -0.039734,0.001 -0.073733,0.0188 -0.1499954,0.0812 -0.3767522,-0.0329 -0.8315086,-0.41848 -0.1998186,-0.16938 -0.4104329,-0.34525 -0.4680299,-0.39084 -0.057599,-0.0456 -0.2180716,-0.19002 -0.3566098,-0.32096 -0.4332329,-0.40945 -1.2929484,-1.02078 -1.5007849,-1.06719 -0.1529533,-0.0342 -0.2992684,0.009 -0.3601763,0.10552 -0.1757839,0.27942 -0.2091958,0.34249 -0.1968615,0.37171 0.00756,0.0179 0.1172531,0.12844 0.2437251,0.24557 0.2320956,0.21495 0.414747,0.40488 0.8532292,0.88723 0.1320091,0.14522 0.2959513,0.32534 0.3643128,0.40033 0.2819491,0.30919 0.6571409,0.52224 1.1366531,0.64551 0.474449,0.12193 0.7479408,0.19902 0.824161,0.23225 0.039905,0.0174 0.1020556,0.0359 0.1381189,0.0413 0.054254,0.008 0.069866,-0.003 0.090602,-0.0677 z m 0.3386505,-0.84845 c 0.1680514,-0.11686 0.4799136,-0.23062 0.9457013,-0.34498 0.071921,-0.0178 0.1927661,-0.0477 0.2685881,-0.0668 0.1965442,-0.0493 0.5622296,-0.10193 0.9489197,-0.13616 0.553297,-0.049 0.760112,-0.0922 0.768023,-0.16057 0.002,-0.0179 -0.01896,-0.0594 -0.04675,-0.0923 -0.04323,-0.051 -0.07994,-0.0631 -0.255376,-0.0821 -0.11268,-0.0123 -0.21625,-0.0314 -0.230178,-0.0422 -0.01394,-0.0105 -0.219767,-0.0423 -0.4574817,-0.0693 -0.8626878,-0.0977 -1.1645543,-0.18632 -1.6400329,-0.47828 -0.527986,-0.32422 -0.7694307,-0.38315 -1.0896942,-0.26598 -0.2422326,0.0886 -0.362188,0.17027 -0.4983544,0.33915 -0.065688,0.0814 -0.1421859,0.15714 -0.1699797,0.16812 -0.087834,0.0348 -0.0636,0.0863 0.1151606,0.24557 0.095642,0.0852 0.2637771,0.23744 0.3736493,0.33836 0.1098658,0.10099 0.3324183,0.29633 0.4945477,0.43425 0.1621318,0.13791 0.2999419,0.26176 0.3062465,0.27521 0.01781,0.038 0.029789,0.0336 0.1669922,-0.0619 z m -4.2815022,-1.92647 c 0.038082,-0.15591 0.026305,-0.19779 -0.051534,-0.18418 -0.1187044,0.0206 -0.1760707,0.15958 -0.1062771,0.25727 0.069859,0.0978 0.1219709,0.0736 0.1578091,-0.073 z m 2.4256344,0.0705 c 0.052493,-0.31351 0.052478,-0.31737 -0.00179,-0.38902 -0.044964,-0.0594 -0.051978,-0.0974 -0.038792,-0.21125 0.013905,-0.12012 0.032587,-0.15898 0.1381507,-0.28747 0.1229296,-0.14964 0.5071836,-0.51182 0.6925333,-0.65278 0.121048,-0.092 0.1324369,-0.13846 0.036703,-0.14955 -0.2310582,-0.0267 -1.9052288,0.39924 -1.915433,0.48737 -0.00709,0.0615 0.079845,0.21488 0.2389171,0.42154 0.2172962,0.28229 0.2739462,0.44946 0.1930417,0.56963 l -0.047529,0.0706 0.1464149,0.0966 c 0.080545,0.053 0.1730699,0.11922 0.2056283,0.14707 0.032556,0.0279 0.1007072,0.0859 0.1514343,0.12906 0.050724,0.0432 0.1047176,0.0799 0.1199889,0.0817 0.018004,0.002 0.046414,-0.10812 0.080783,-0.31344 z m 4.9911849,0.45541 0.215784,-0.0251 0.02185,-0.31502 c 0.03437,-0.49595 -0.01542,-0.68802 -0.251673,-0.97041 -0.09766,-0.11673 -0.187935,-0.18948 -0.357643,-0.2882 -0.201479,-0.11718 -0.271364,-0.14292 -0.62135,-0.22859 -0.2168898,-0.053 -0.5219965,-0.12943 -0.6780242,-0.16964 -0.462856,-0.11925 -0.8460707,-0.21178 -0.906801,-0.21882 -0.041699,-0.004 -0.074528,0.0201 -0.1231898,0.0937 -0.036493,0.0552 -0.1053616,0.14342 -0.1530431,0.19611 -0.047684,0.0527 -0.081008,0.10801 -0.074036,0.12285 0.021357,0.0458 0.2295789,0.12757 0.4761882,0.18743 0.2410707,0.0586 0.5965628,0.16696 0.8652771,0.26406 0.083647,0.0301 0.2584715,0.0741 0.3885065,0.0974 0.4159243,0.0746 0.7819473,0.2656 0.9171163,0.47854 0.109949,0.17321 0.139398,0.27264 0.13532,0.45678 -0.0031,0.14385 -0.01169,0.17398 -0.06599,0.23197 -0.06965,0.0744 -0.08536,0.12512 -0.03644,0.11733 0.01788,-0.003 0.129441,-0.0163 0.248122,-0.0302 z m -0.669444,-0.0896 c -0.0029,-0.0213 -0.01252,-0.11331 -0.02147,-0.20446 -0.0089,-0.0913 -0.03318,-0.18993 -0.05386,-0.21944 -0.06648,-0.095 -0.263703,-0.19907 -0.4123505,-0.21763 -0.141348,-0.0171 -0.2391534,-0.0454 -0.8118133,-0.2292 -0.1818646,-0.0584 -0.3913533,-0.12512 -0.4655194,-0.14827 -0.2619349,-0.0816 -0.6093181,-0.25226 -0.708612,-0.34803 -0.086632,-0.0834 -0.114925,-0.096 -0.2535505,-0.11059 -0.1674231,-0.0188 -0.2095177,-0.0523 -0.1715525,-0.14094 0.024972,-0.0582 0.098872,-0.12827 0.1315148,-0.12449 0.076537,0.009 0.3497394,-0.22324 0.3592256,-0.30518 0.00265,-0.0232 -0.02954,-0.0377 -0.1003751,-0.0458 -0.095938,-0.0113 -0.1212546,0.001 -0.316142,0.15236 -0.1165205,0.0904 -0.2440946,0.18396 -0.2834962,0.20782 -0.039408,0.0239 -0.1520384,0.11536 -0.2502996,0.20331 -0.1370144,0.12268 -0.1711798,0.16586 -0.1465794,0.18531 0.017654,0.0138 0.0406,0.0214 0.051052,0.0164 0.055985,-0.0262 0.5757009,0.14637 0.6449765,0.2142 0.041722,0.0409 0.1876497,0.0778 0.5683176,0.14344 0.4479657,0.0773 0.5746874,0.13106 0.6709774,0.28412 0.071899,0.11424 0.1157017,0.13247 0.1995681,0.0832 0.0291,-0.0172 0.087435,-0.0272 0.1296123,-0.0223 0.064209,0.006 0.1115514,0.0538 0.2908567,0.28692 l 0.2141676,0.2781 0.2948279,0.0432 c 0.432425,0.0625 0.446415,0.0633 0.440435,0.0187 z m -1.3531131,-0.20899 c -0.016754,-0.0133 -0.04139,-0.019 -0.054761,-0.0128 -0.013394,0.006 -0.010598,0.0223 0.0062,0.0354 0.016754,0.0133 0.04139,0.019 0.054762,0.0128 0.013394,-0.006 0.010598,-0.0221 -0.0062,-0.0354 z m -2.4683272,-0.32414 c 0.1063831,-0.0703 0.5075303,-0.21767 0.6507184,-0.23899 0.1124534,-0.0167 0.1405171,-0.0451 0.077381,-0.0781 -0.020008,-0.0105 -0.1859077,-0.044 -0.3686854,-0.0743 -0.2457399,-0.0411 -0.3380254,-0.0483 -0.3542457,-0.0276 -0.0294,0.0372 -0.1379544,0.426 -0.1260519,0.45151 0.014722,0.0315 0.03092,0.0271 0.1208594,-0.0324 z M 2.415563,276.03492 c 0.00436,-0.0375 0.069118,-0.0643 0.090535,-0.0373 0.015635,0.0196 -0.041302,0.0784 -0.072571,0.0748 -0.012104,-0.001 -0.020188,-0.0182 -0.017957,-0.0375 z"
       id="path859"
       inkscape:connector-curvature="0"
       sodipodi:nodetypes="cccccccccccccccccccccccccccsccccccccccccccccccccccccccccccccccccccccccccccccccccccccccccccccccccccccccccccccccccccccccccccccccccccccccccccccccccccccccccccccccccccccccccccccccccccccccccccccccccccccccccccccccccccccccccccccccccccccccccccccccccccccccccccccccccccccccccccccccccccccccccccccccccccccccccccccccccccccc" />
  </g>
</svg>
