<?xml version="1.0" encoding="UTF-8" standalone="no"?>
<!-- Created with Inkscape (http://www.inkscape.org/) -->

<svg
   xmlns:dc="http://purl.org/dc/elements/1.1/"
   xmlns:cc="http://creativecommons.org/ns#"
   xmlns:rdf="http://www.w3.org/1999/02/22-rdf-syntax-ns#"
   xmlns:svg="http://www.w3.org/2000/svg"
   xmlns="http://www.w3.org/2000/svg"
   xmlns:sodipodi="http://sodipodi.sourceforge.net/DTD/sodipodi-0.dtd"
   xmlns:inkscape="http://www.inkscape.org/namespaces/inkscape"
   width="64"
   height="64"
   viewBox="0 0 16.933333 16.933334"
   version="1.1"
   id="svg8"
   inkscape:version="0.92.2 2405546, 2018-03-11"
   sodipodi:docname="flamous_logo_android.svg">
  <defs
     id="defs2" />
  <sodipodi:namedview
     id="base"
     pagecolor="#ffffff"
     bordercolor="#666666"
     borderopacity="1.0"
     inkscape:pageopacity="0.0"
     inkscape:pageshadow="2"
     inkscape:zoom="7.8223688"
     inkscape:cx="45.086571"
     inkscape:cy="32.635412"
     inkscape:document-units="px"
     inkscape:current-layer="layer1"
     showgrid="false"
     inkscape:window-width="1920"
     inkscape:window-height="1013"
     inkscape:window-x="0"
     inkscape:window-y="30"
     inkscape:window-maximized="1"
     units="px" />
  <metadata
     id="metadata5">
    <rdf:RDF>
      <cc:Work
         rdf:about="">
        <dc:format>image/svg+xml</dc:format>
        <dc:type
           rdf:resource="http://purl.org/dc/dcmitype/StillImage" />
        <dc:title></dc:title>
      </cc:Work>
    </rdf:RDF>
  </metadata>
  <g
     inkscape:label="Layer 1"
     inkscape:groupmode="layer"
     id="layer1"
     transform="translate(0,-280.06665)">
    <circle
       id="path62"
       cx="8.4666672"
       cy="288.53333"
       r="8.4666672"
       style="stroke-width:0.27368236;fill:#ffffff" />
    <path
       style="fill:#007aff;fill-opacity:1;stroke-width:0.09104383"
       d="M 25.351562 19.402344 C 25.410081 19.327887 25.742349 19.353796 26.628906 19.501953 C 27.288314 19.611181 27.888756 19.731736 27.960938 19.769531 C 28.188715 19.888586 28.08734 19.990687 27.681641 20.050781 C 27.16506 20.127695 25.717783 20.660456 25.333984 20.914062 C 25.009508 21.12874 24.949598 21.145014 24.896484 21.03125 C 24.853544 20.939219 25.245498 19.536517 25.351562 19.402344 z "
       id="path3797"
       transform="matrix(0.26458334,0,0,0.26458334,0,280.06665)" />
    <path
       style="fill:#007aff;fill-opacity:1;stroke-width:0.09104383"
       d="M 30.804688 58.880859 C 31.209736 58.898861 31.590477 59.001953 32 59.001953 C 32.3399 59.001953 32.655348 58.914767 32.992188 58.902344 L 32.998047 57.513672 L 33.357422 56.796875 C 33.968935 55.576957 34.723044 54.722732 35.423828 54.457031 C 35.752065 54.333063 36.994781 54.213026 37.433594 54.263672 C 37.944858 54.32301 39.682522 54.163461 40.5 53.982422 C 41.904771 53.670838 42.815026 53.246692 44.591797 52.076172 C 46.643449 50.724537 47.892598 49.530747 48.296875 48.537109 C 48.42505 48.222048 48.625037 47.927452 48.818359 47.767578 C 48.990842 47.624788 49.318339 47.326949 49.544922 47.105469 C 49.827872 46.829034 50.119385 46.652134 50.478516 46.541016 C 51.471269 46.233702 52.097604 45.888631 52.535156 45.40625 C 52.997752 44.896241 53.102158 44.528804 52.921875 44.052734 C 52.737219 43.567065 52.223914 43.505804 51.429688 43.876953 C 49.370593 44.838994 48.512354 44.72715 47.574219 43.371094 C 46.938189 42.451799 46.575656 42.20492 45.611328 42.037109 C 45.051656 41.940731 44.657857 41.925036 44.224609 41.984375 C 42.333477 42.24263 40.128384 43.85291 38.472656 46.183594 C 38.241043 46.509616 37.840769 47.049836 37.583984 47.382812 C 36.919792 48.244469 35.963103 49.730972 35.646484 50.392578 C 35.496026 50.706997 35.316055 51.288234 35.240234 51.705078 C 35.113001 52.405084 35.086587 52.459754 34.855469 52.529297 C 34.509982 52.633725 33.998287 52.922448 33.507812 53.289062 C 33.086794 53.603519 32.88878 53.601376 32.925781 53.28125 C 32.93678 53.185401 32.927553 52.928638 32.902344 52.710938 C 32.863577 52.373048 32.635667 48.528309 32.605469 47.703125 C 32.569378 46.716404 32.320869 43.012907 32.234375 42.164062 C 32.114369 40.986551 31.972057 40.231779 31.669922 39.164062 C 31.415496 38.265026 31.162943 36.742113 31.257812 36.681641 C 31.366295 36.612437 35.160188 37.203914 35.728516 37.378906 C 36.925828 37.747032 39.894465 37.863163 40.570312 37.568359 C 41.572764 37.130879 42.718084 36.215273 43.763672 35.017578 C 44.710799 33.933043 44.937694 33.287328 44.695312 32.376953 C 44.517856 31.710358 44.57439 31.420799 44.994141 30.863281 C 45.557899 30.114632 45.855828 29.455931 46.087891 28.4375 C 46.311865 27.453878 46.307389 27.034795 46.066406 26.326172 C 45.943647 25.965454 45.589047 25.68379 45.306641 25.724609 C 45.017647 25.765466 44.58808 26.628038 44.255859 27.835938 C 44.099497 28.404416 43.707338 29.200468 43.316406 29.742188 C 42.876791 30.351485 41.43453 31.535391 40.839844 31.775391 C 40.300139 31.992713 39.448667 32.039101 38.330078 31.912109 C 36.942361 31.75473 36.084128 31.975164 33.660156 33.111328 C 33.072877 33.386591 32.1731 33.794586 31.662109 34.017578 C 31.151104 34.240797 30.65507 34.519112 30.558594 34.634766 C 30.415277 34.806734 30.309214 34.836623 29.984375 34.798828 C 29.468767 34.73949 29.29674 34.788668 29.169922 35.033203 C 29.112923 35.143187 28.959974 35.285421 28.828125 35.351562 C 28.602713 35.464495 28.504569 35.4422 27.193359 34.976562 C 26.426827 34.70421 25.485968 34.348067 25.101562 34.185547 C 24.122114 33.770441 23.257473 33.494208 21.964844 33.181641 C 20.131593 32.737962 19.431474 32.377858 17.783203 31.03125 C 17.29347 30.631149 16.587018 30.068116 16.212891 29.78125 C 15.838803 29.494459 15.519112 29.205947 15.501953 29.138672 C 15.484821 29.07185 15.749165 28.725109 16.089844 28.367188 C 16.430552 28.009115 16.822762 27.533917 16.960938 27.310547 C 17.125687 27.044279 17.268893 26.910536 17.376953 26.921875 C 17.467608 26.932344 18.019542 27.502385 18.603516 28.1875 C 20.707321 30.655645 22.336304 31.718903 24.949219 32.328125 C 26.980905 32.801775 28.441416 33.185121 28.519531 33.265625 C 28.570903 33.318614 28.619621 33.543011 28.626953 33.765625 C 28.641249 34.191011 28.871244 34.668729 29.072266 34.691406 C 29.239961 34.710795 29.530641 34.334577 29.707031 33.871094 C 29.836183 33.531503 29.903129 33.467668 30.185547 33.412109 C 30.648713 33.320645 30.707065 33.012236 30.359375 32.482422 C 30.098096 32.084475 30.095675 32.070273 30.214844 31.328125 C 30.430903 29.98284 30.562649 29.460347 30.716797 29.337891 C 30.996611 29.116108 31.669945 28.868139 32.808594 28.570312 C 35.076086 27.977494 35.894107 27.861566 38.316406 27.787109 C 39.827733 27.740999 40.06436 27.71019 41.123047 27.419922 C 42.589564 27.017289 44.798871 25.946539 45.492188 25.302734 C 45.886143 24.936914 45.932457 24.851317 45.982422 24.419922 C 46.076921 23.603657 45.646314 23.195302 44.992188 23.474609 C 44.859526 23.53168 44.726305 23.578099 44.695312 23.576172 C 44.663942 23.574395 44.656632 23.150772 44.679688 22.636719 C 44.764024 20.756668 44.637717 19.855713 44.130859 18.748047 C 43.553109 17.485382 42.874395 16.708932 41.755859 16.029297 C 40.542752 15.292138 39.969256 15.066156 38.494141 14.744141 C 37.728623 14.57701 36.199958 14.214981 35.097656 13.939453 C 33.995403 13.663623 32.75284 13.398365 32.335938 13.349609 C 31.579264 13.261168 31.576967 13.261901 31.224609 13.558594 C 30.883174 13.845876 30.872424 13.872891 30.871094 14.380859 C 30.869472 15.002214 30.736986 15.128038 30.496094 14.736328 L 30.330078 14.466797 L 29.052734 14.369141 C 27.133962 14.220908 25.047193 14.34665 23.738281 14.689453 C 23.296393 14.805107 22.597138 14.971728 22.183594 15.060547 C 21.15287 15.280364 17.465746 16.539795 17.244141 16.748047 C 16.801038 17.164097 17.123136 17.709924 17.794922 17.679688 C 18.146262 17.664569 18.156743 17.672444 18.226562 18.015625 C 18.271238 18.235556 18.537898 18.67879 18.9375 19.197266 C 19.289185 19.653644 19.549036 20.053495 19.515625 20.076172 C 19.482119 20.103007 19.241411 20.015033 18.980469 19.880859 C 18.26538 19.516777 17.726676 19.409792 16.943359 19.480469 C 16.565301 19.514484 15.690767 19.50062 14.998047 19.449219 C 13.246802 19.322038 12.974034 19.454255 12.548828 20.630859 C 12.344571 21.196239 12.325758 21.317844 12.404297 21.59375 C 12.551615 22.111054 12.983262 22.624879 13.798828 23.253906 C 14.61294 23.881913 16.143751 25.344369 16.273438 25.619141 C 16.42535 25.940589 15.452277 27.217907 14.390625 28.089844 C 13.815719 28.562058 13.63375 28.875568 13.658203 29.345703 C 13.673238 29.634005 13.772068 29.783841 14.279297 30.291016 C 14.611345 30.623009 15.220673 31.15757 15.634766 31.476562 C 16.048836 31.795744 16.701906 32.340161 17.083984 32.6875 C 18.52185 33.99465 19.218394 34.333482 22.019531 35.078125 C 22.775629 35.279158 23.679609 35.590897 24.205078 35.832031 C 26.045108 36.677625 28.015202 37.269647 28.808594 37.214844 C 29.38216 37.174932 29.544388 37.349173 29.332031 37.775391 C 29.078047 38.285098 29.096761 38.628497 29.412109 39.261719 C 29.757382 39.954922 29.814861 40.325633 30.146484 44.009766 L 30.386719 46.675781 L 30.097656 47.078125 C 29.758668 47.548487 29.773558 47.716667 30.183594 48.027344 C 30.512382 48.276452 30.528219 48.324113 30.556641 49.162109 C 30.567805 49.491004 30.631679 50.859541 30.699219 52.203125 C 30.874551 55.692007 30.880047 55.536907 30.574219 55.798828 C 30.208565 56.111886 30.199871 56.417893 30.550781 56.683594 C 30.825337 56.891619 30.834964 56.92475 30.816406 57.603516 C 30.808844 57.877765 30.8077 58.405594 30.804688 58.880859 z M 32.234375 15.166016 C 32.453472 15.191414 33.83601 15.524855 35.505859 15.955078 C 36.068761 16.100136 37.170649 16.377115 37.953125 16.568359 C 39.215771 16.877449 39.466481 16.969838 40.193359 17.392578 C 40.805616 17.748723 41.132047 18.010488 41.484375 18.431641 C 42.336704 19.450412 42.516584 20.144365 42.392578 21.933594 L 42.314453 23.070312 L 41.535156 23.160156 C 41.106989 23.210046 40.705142 23.258193 40.640625 23.269531 C 40.464121 23.297613 40.520221 23.11405 40.771484 22.845703 C 40.967377 22.636506 40.998427 22.528733 41.009766 22.009766 C 41.024479 21.345438 40.91815 20.986235 40.521484 20.361328 C 40.033835 19.593101 38.713424 18.903868 37.212891 18.634766 C 36.743762 18.550482 36.112319 18.391676 35.810547 18.283203 C 34.841104 17.932879 33.559165 17.543307 32.689453 17.332031 C 31.799759 17.116069 31.047753 16.819462 30.970703 16.654297 C 30.94555 16.600779 31.066252 16.401048 31.238281 16.210938 C 31.410302 16.020827 31.65936 15.703087 31.791016 15.503906 C 31.966573 15.238583 32.083938 15.150898 32.234375 15.166016 z M 30.070312 15.283203 C 30.325865 15.312305 30.441203 15.363738 30.431641 15.447266 C 30.397417 15.7429 29.412843 16.582844 29.136719 16.548828 C 29.018952 16.535184 28.752202 16.787905 28.662109 16.998047 C 28.525142 17.317908 28.677237 17.438206 29.28125 17.505859 C 29.78137 17.558659 29.882768 17.6054 30.195312 17.90625 C 30.553536 18.251737 31.806969 18.865731 32.751953 19.160156 C 33.019523 19.243684 33.775526 19.484793 34.431641 19.695312 C 36.49763 20.358544 36.851386 20.461831 37.361328 20.523438 C 37.897605 20.590411 38.607807 20.965791 38.847656 21.308594 C 38.922264 21.415063 39.010843 21.770413 39.042969 22.099609 C 39.075246 22.428466 39.108558 22.761166 39.119141 22.837891 L 39.119141 22.839844 C 39.140714 23.000852 39.091312 22.997122 37.53125 22.771484 L 36.466797 22.617188 L 35.693359 21.613281 C 35.046478 20.772412 34.876178 20.600802 34.644531 20.578125 C 34.492367 20.560361 34.282718 20.596219 34.177734 20.658203 C 33.875169 20.83603 33.71642 20.771532 33.457031 20.359375 C 33.109645 19.807186 32.653238 19.612914 31.037109 19.333984 C 29.663771 19.09731 29.136848 18.963808 28.986328 18.816406 C 28.736402 18.571682 26.862134 17.948481 26.660156 18.042969 C 26.622448 18.060733 26.538298 18.034265 26.474609 17.984375 C 26.385858 17.914227 26.509598 17.758989 27.003906 17.316406 C 27.358404 16.999115 27.764079 16.668204 27.90625 16.582031 C 28.0484 16.495971 28.509316 16.158204 28.929688 15.832031 C 29.632784 15.286154 29.724195 15.242384 30.070312 15.283203 z M 26.511719 15.419922 C 26.8571 15.459947 26.815612 15.627142 26.378906 15.958984 C 25.710219 16.467558 24.324353 17.774585 23.880859 18.314453 C 23.500018 18.778012 23.432978 18.918202 23.382812 19.351562 C 23.33524 19.762208 23.359267 19.898982 23.521484 20.113281 C 23.717271 20.371763 23.716725 20.386517 23.527344 21.517578 L 23.529297 21.517578 C 23.405302 22.25829 23.301283 22.655997 23.236328 22.648438 C 23.181234 22.642012 22.987685 22.509232 22.804688 22.353516 C 22.621679 22.197837 22.375265 21.989207 22.257812 21.888672 C 22.140351 21.788212 21.806206 21.548666 21.515625 21.357422 L 20.988281 21.009766 L 21.160156 20.753906 C 21.452036 20.320357 21.246832 19.71765 20.462891 18.699219 C 19.889005 17.953669 19.575975 17.399593 19.601562 17.177734 C 19.638376 16.859763 25.678128 15.323544 26.511719 15.419922 z M 14.591797 20.597656 C 14.872616 20.54856 14.914733 20.701165 14.777344 21.263672 C 14.64805 21.792806 14.459061 21.880352 14.207031 21.527344 C 13.955236 21.174903 14.163546 20.672113 14.591797 20.597656 z M 17.839844 20.949219 C 18.589657 21.116652 21.692882 23.323591 23.255859 24.800781 C 23.755664 25.273147 24.333217 25.792622 24.541016 25.957031 C 24.748809 26.121478 25.509582 26.756113 26.230469 27.367188 C 27.871097 28.758243 28.689329 29.169867 29.230469 28.876953 C 29.353126 28.813079 29.472736 28.780311 29.496094 28.810547 C 29.541556 28.86792 29.151883 30.809614 29.001953 31.273438 C 28.927145 31.506256 28.871515 31.547814 28.675781 31.517578 C 28.545675 31.498303 28.3217 31.431881 28.177734 31.369141 C 27.902754 31.249254 26.914798 30.971149 25.203125 30.53125 C 23.473185 30.086551 22.120706 29.318577 21.103516 28.203125 C 20.856887 27.932586 20.265312 27.281731 19.789062 26.757812 C 18.207147 25.017642 17.54827 24.332124 16.710938 23.556641 C 16.254663 23.134089 15.857366 22.736505 15.830078 22.671875 C 15.785579 22.566464 15.906839 22.338116 16.541016 21.330078 C 16.760754 20.983382 17.288033 20.826006 17.839844 20.949219 z M 29.064453 21.822266 C 29.664748 21.968788 30.358137 22.315547 31.310547 22.900391 C 33.025934 23.953707 34.116191 24.27237 37.228516 24.625 C 38.08612 24.722134 38.828601 24.837205 38.878906 24.875 C 38.929151 24.913929 39.30247 24.983123 39.708984 25.027344 C 40.341893 25.096131 40.474878 25.140156 40.630859 25.324219 C 40.731092 25.442896 40.806009 25.59162 40.798828 25.65625 C 40.770285 25.90294 40.023475 26.059446 38.027344 26.236328 C 36.632278 26.359805 35.314543 26.548547 34.605469 26.726562 C 34.331925 26.795728 33.894234 26.904498 33.634766 26.96875 C 31.95434 27.381323 30.830889 27.791284 30.224609 28.212891 C 29.729621 28.557584 29.685346 28.574697 29.621094 28.4375 C 29.598349 28.388971 29.100549 27.940896 28.515625 27.443359 C 27.93071 26.945785 27.128785 26.2413 26.732422 25.876953 C 26.336035 25.512871 25.729814 24.963526 25.384766 24.65625 C 24.739849 24.081724 24.651871 23.895012 24.96875 23.769531 C 25.069022 23.729922 25.345047 23.457732 25.582031 23.164062 C 26.073279 22.554803 26.505002 22.259201 27.378906 21.939453 C 27.956615 21.728102 28.464158 21.675743 29.064453 21.822266 z M 34.041016 22.037109 C 34.089254 22.01481 34.177839 22.035984 34.238281 22.083984 C 34.29889 22.131984 34.308087 22.18826 34.259766 22.210938 C 34.211524 22.233237 34.122942 22.212062 34.0625 22.164062 C 34.001891 22.116818 33.992694 22.059787 34.041016 22.037109 z M 43.542969 32.835938 C 43.514702 33.080133 40.927317 35.351031 40.085938 35.871094 L 39.650391 36.140625 L 38.3125 36.03125 C 37.576841 35.970778 36.919001 35.90587 36.851562 35.894531 C 35.850584 35.662317 34.933207 35.453171 34.519531 35.361328 C 34.23693 35.298588 34.010749 35.212253 34.015625 35.169922 C 34.029739 35.04807 36.471565 33.838067 36.833984 33.773438 C 37.014129 33.741312 37.794728 33.767087 38.568359 33.833984 C 40.579809 34.003458 41.385531 33.851341 42.607422 33.078125 C 43.264735 32.661999 43.572071 32.583465 43.542969 32.835938 z M 45.107422 43.96875 C 45.396117 44.002123 45.514268 44.101399 46.054688 44.767578 C 46.469377 45.278759 46.650193 45.572913 46.603516 45.662109 C 46.527101 45.808301 45.270124 46.247928 43.871094 46.617188 C 43.377094 46.747581 42.800288 46.916219 42.589844 46.992188 C 42.099979 47.16888 41.280865 47.796207 40.576172 48.53125 C 40.271686 48.848881 39.719726 49.361576 39.351562 49.671875 C 38.983421 49.982136 38.519645 50.427337 38.320312 50.660156 C 38.120897 50.893126 37.885467 51.129673 37.796875 51.1875 C 37.652803 51.282366 37.64448 51.265707 37.724609 51.035156 C 37.929721 50.44555 39.45643 48.264478 40.923828 46.462891 C 42.032828 45.101278 44.122995 43.854986 45.107422 43.96875 z M 47.773438 46.289062 C 47.938412 46.31962 47.864861 46.475816 47.564453 46.761719 C 47.369721 46.947067 46.860231 47.473713 46.431641 47.931641 C 45.621461 48.797228 44.920116 49.358551 43.433594 50.330078 C 41.853581 51.362721 41.005422 51.739346 39.585938 52.039062 C 38.787663 52.207629 38.178873 52.226031 38.201172 52.082031 C 38.220848 51.956589 38.906217 51.082919 39.433594 50.511719 C 40.286047 49.588569 41.052849 48.903958 41.970703 48.246094 C 42.798212 47.65301 42.892308 47.61082 44.230469 47.257812 C 44.99834 47.055192 46.04441 46.749652 46.554688 46.576172 C 47.20535 46.355126 47.608463 46.258505 47.773438 46.289062 z "
       id="path3795"
       transform="matrix(0.26458334,0,0,0.26458334,0,280.06665)" />
    <path
       style="fill:#007aff;fill-opacity:1;stroke-width:0.09104383"
       d="M 30.724609 60.875 C 31.156839 60.894172 31.563087 61.003906 32 61.003906 C 32.326384 61.003906 32.629332 60.918931 32.953125 60.908203 C 32.971418 60.328094 32.990296 59.672031 32.992188 59.044922 L 32.992188 58.902344 C 32.655348 58.914767 32.3399 59.001953 32 59.001953 C 31.590477 59.001953 31.209736 58.898861 30.804688 58.880859 C 30.803439 59.0778 30.798745 59.232909 30.798828 59.410156 C 30.79902 59.838322 30.740832 60.350657 30.724609 60.875 z "
       id="path3791"
       transform="matrix(0.26458334,0,0,0.26458334,0,280.06665)" />
    <path
       style="fill:#007aff;fill-opacity:1;stroke-width:0.09104383"
       d="M 10.476562 -12.949219 C 10.399298 -13.046731 10.166113 -12.94976 10.150391 -12.814453 C 10.142344 -12.74491 10.171175 -12.683467 10.214844 -12.679688 C 10.327655 -12.666837 10.532968 -12.878542 10.476562 -12.949219 z "
       id="path859"
       transform="matrix(0.26458334,0,0,0.26458334,0,280.06665)" />
    <circle
       style="fill:none;fill-opacity:1;stroke:#007aff;stroke-width:0.5291667;stroke-linecap:round;stroke-linejoin:round;stroke-miterlimit:1;stroke-dasharray:none;stroke-dashoffset:0;stroke-opacity:1"
       id="path881"
       cx="8.4666672"
       cy="288.53333"
       r="7.4083333" />
  </g>
</svg>
