<?xml version="1.0" standalone="no"?>
<!DOCTYPE svg PUBLIC "-//W3C//DTD SVG 20010904//EN"
 "http://www.w3.org/TR/2001/REC-SVG-20010904/DTD/svg10.dtd">
<svg version="1.0" xmlns="http://www.w3.org/2000/svg"
 width="700.000000pt" height="700.000000pt" viewBox="0 0 700.000000 700.000000"
 preserveAspectRatio="xMidYMid meet">
<metadata>
Created by potrace 1.11, written by Peter Selinger 2001-2013
</metadata>
<g transform="translate(0.000000,700.000000) scale(0.100000,-0.100000)"
fill="#000000" stroke="none">
<path d="M3270 6994 c-25 -2 -106 -11 -180 -20 -643 -74 -1259 -331 -1775
-740 -141 -113 -436 -408 -549 -549 -409 -516 -656 -1108 -743 -1780 -25 -196
-25 -614 0 -810 87 -672 334 -1264 743 -1780 113 -141 408 -436 549 -549 514
-407 1130 -665 1770 -740 72 -8 159 -16 195 -18 l65 -3 6 75 c4 41 10 212 14
380 l8 305 -31 38 c-34 42 -33 55 5 100 18 23 23 40 23 88 0 91 -29 681 -35
707 -3 12 -19 34 -35 49 -37 33 -38 59 -3 109 l26 39 -22 250 c-33 370 -47
467 -81 553 -34 84 -36 103 -15 162 20 56 8 70 -57 70 -78 0 -238 46 -438 125
-102 41 -264 97 -360 125 -198 58 -252 79 -329 127 -65 41 -388 311 -461 385
-98 100 -92 132 49 270 104 101 155 167 167 212 6 25 -3 36 -87 119 -52 51
-137 128 -189 172 -73 62 -101 94 -124 138 l-29 58 17 52 c25 77 48 118 78
141 27 19 40 20 275 17 l247 -2 79 -31 c43 -16 80 -28 82 -26 3 2 -24 46 -59
96 -35 51 -67 105 -71 120 -8 33 -21 42 -61 42 -52 0 -76 31 -60 77 5 16 33
32 109 61 210 81 492 163 702 203 49 10 155 14 348 14 l277 0 24 -30 c13 -16
27 -27 31 -24 3 4 9 32 12 64 5 49 10 60 40 82 31 24 39 25 106 20 68 -5 385
-75 712 -157 156 -39 252 -80 355 -151 114 -79 169 -143 226 -262 56 -119 65
-164 71 -363 l6 -181 32 10 c66 20 105 -13 105 -89 0 -82 -65 -140 -271 -238
-193 -92 -305 -126 -459 -137 -69 -4 -191 -13 -271 -19 -165 -11 -295 -35
-469 -85 -211 -61 -210 -60 -240 -214 -25 -128 -25 -161 1 -205 29 -50 23 -88
-18 -99 -25 -8 -38 -21 -59 -64 -32 -62 -47 -78 -69 -69 -20 7 -45 66 -45 104
0 16 -6 35 -14 41 -7 6 -112 36 -232 67 -279 70 -330 87 -434 140 -145 75
-199 122 -473 412 -38 40 -75 72 -82 72 -8 0 -24 -15 -37 -32 -12 -18 -53 -68
-90 -111 -38 -44 -68 -85 -68 -92 0 -14 291 -250 389 -315 86 -57 153 -84 335
-135 90 -25 273 -86 407 -136 134 -51 261 -94 281 -97 32 -4 42 0 70 29 29 29
39 33 88 33 44 1 62 6 90 28 36 27 413 202 550 254 74 28 79 29 280 29 113 1
221 5 240 9 46 11 150 80 231 155 83 76 135 162 189 316 42 119 67 172 94 195
23 18 74 -14 94 -58 23 -54 20 -170 -7 -267 -22 -80 -57 -152 -121 -253 l-33
-53 12 -95 13 -95 -30 -62 c-44 -92 -196 -254 -316 -337 -77 -53 -145 -78
-226 -86 -92 -8 -305 11 -423 37 -85 19 -341 61 -439 73 l-48 6 0 -38 c0 -20
16 -107 36 -192 56 -248 62 -289 84 -590 22 -319 60 -937 60 -987 0 -43 16
-42 85 2 30 19 77 46 105 60 27 14 50 32 50 39 0 42 57 202 97 271 48 84 230
344 318 455 118 148 260 267 400 334 137 66 226 80 347 55 86 -18 123 -43 189
-127 124 -157 187 -171 398 -87 123 48 143 51 176 22 21 -18 28 -33 29 -64 2
-83 -87 -165 -243 -224 -114 -43 -209 -124 -269 -229 -23 -41 -58 -94 -77
-117 -100 -120 -429 -351 -597 -420 -145 -59 -276 -82 -504 -88 -164 -5 -204
-10 -254 -36 -63 -31 -150 -139 -212 -264 -25 -49 -25 -58 -32 -331 l-7 -282
45 -26 c51 -30 70 -57 63 -92 -4 -22 -1 -24 39 -24 63 0 333 36 449 60 541
111 1055 351 1490 696 141 113 436 408 549 549 409 516 656 1108 743 1780 25
196 25 614 0 810 -87 672 -334 1264 -743 1780 -113 141 -408 436 -549 549
-506 401 -1093 650 -1740 737 -144 19 -559 33 -675 23z"/>
<path d="M3447 5266 c-31 -41 -57 -79 -57 -85 0 -15 43 -34 150 -65 52 -15
174 -52 270 -81 96 -30 217 -64 268 -76 276 -63 403 -175 404 -355 0 -60 -4
-79 -22 -104 -12 -17 -20 -34 -17 -37 8 -7 161 7 177 17 10 6 14 47 14 172 1
149 -1 167 -21 211 -34 73 -89 144 -147 187 -104 78 -161 98 -554 196 -207 52
-383 94 -392 94 -8 0 -41 -33 -73 -74z"/>
<path d="M3149 5256 c-132 -94 -243 -187 -247 -207 -2 -12 18 -21 81 -36 47
-12 119 -37 160 -57 54 -26 113 -44 209 -62 216 -41 235 -48 296 -112 l53 -55
38 13 c21 7 48 9 60 5 12 -4 59 -52 103 -108 44 -56 86 -105 92 -108 10 -6
245 -39 274 -39 15 0 10 66 -9 142 -16 62 -82 105 -196 128 -90 18 -498 148
-593 189 -47 20 -115 57 -152 83 -43 29 -82 48 -111 52 -24 4 -53 13 -63 21
-18 13 -18 15 -2 42 9 15 23 31 30 34 7 4 26 13 43 20 16 8 50 34 74 58 42 41
43 45 26 57 -34 25 -61 15 -166 -60z"/>
<path d="M2650 5271 c-170 -39 -344 -86 -440 -119 -79 -27 -78 -42 19 -185 44
-65 86 -137 92 -159 10 -40 10 -45 -19 -99 -1 -4 28 -28 65 -55 37 -26 88 -65
112 -86 46 -40 66 -47 74 -24 3 7 13 61 22 119 15 96 15 108 1 136 -25 48 -20
110 13 162 28 44 180 196 279 278 28 24 52 50 52 58 0 23 -95 14 -270 -26z"/>
<path d="M2758 4834 c-22 -61 -37 -131 -31 -138 3 -3 35 10 72 29 36 18 107
45 156 60 50 15 96 29 104 31 9 3 11 8 5 13 -11 11 -143 38 -226 47 l-63 6
-17 -48z"/>
<path d="M1577 4739 c-27 -16 -39 -54 -25 -83 25 -56 62 -32 62 41 1 49 -8 59
-37 42z"/>
<path d="M1836 4689 c-14 -11 -45 -52 -67 -90 l-42 -70 149 -152 c82 -84 198
-206 259 -272 293 -322 363 -371 650 -450 72 -20 182 -52 245 -70 94 -28 117
-32 128 -22 14 15 49 151 58 231 l7 54 -41 -11 c-35 -9 -46 -7 -96 17 -86 42
-212 142 -530 421 -213 186 -418 339 -553 411 -59 31 -129 33 -167 3z"/>
<path d="M2997 4599 c-82 -28 -127 -59 -213 -146 -62 -63 -72 -78 -63 -92 17
-23 62 -64 255 -235 93 -82 192 -172 221 -199 l51 -49 59 36 c71 44 212 95
370 135 164 41 259 57 475 81 195 21 272 34 298 50 13 8 13 13 0 37 -14 24
-26 30 -100 45 -47 9 -170 28 -275 43 -221 30 -367 59 -445 88 -30 11 -123 57
-206 103 -230 128 -304 146 -427 103z"/>
<path d="M3725 4580 c3 -5 11 -10 16 -10 6 0 7 5 4 10 -3 6 -11 10 -16 10 -6
0 -7 -4 -4 -10z"/>
<path d="M4620 3364 c-136 -70 -184 -78 -405 -64 -125 8 -176 8 -204 -1 -62
-20 -293 -141 -284 -149 20 -20 327 -79 466 -91 l147 -12 53 36 c109 76 367
304 367 325 0 21 -33 11 -140 -44z"/>
<path d="M4840 2176 c-114 -42 -245 -131 -332 -225 -55 -59 -223 -279 -295
-386 -44 -66 -97 -165 -87 -165 3 0 87 78 187 174 190 182 260 242 315 270 18
9 101 37 185 62 185 54 263 82 277 99 12 14 -27 74 -93 143 -36 36 -47 42 -82
41 -22 0 -56 -6 -75 -13z"/>
<path d="M5165 1926 c-147 -38 -447 -130 -490 -151 -68 -33 -255 -185 -338
-275 -91 -99 -160 -191 -149 -202 24 -24 272 37 392 97 85 43 286 176 380 252
79 64 270 264 270 282 0 13 -1 13 -65 -3z"/>
</g>
</svg>
