<?xml version="1.0" standalone="no"?>
<!DOCTYPE svg PUBLIC "-//W3C//DTD SVG 20010904//EN"
 "http://www.w3.org/TR/2001/REC-SVG-20010904/DTD/svg10.dtd">
<svg version="1.0" xmlns="http://www.w3.org/2000/svg"
 width="700.000000pt" height="700.000000pt" viewBox="0 0 700.000000 700.000000"
 preserveAspectRatio="xMidYMid meet">
<metadata>
Created by potrace 1.11, written by Peter Selinger 2001-2013
</metadata>
<g transform="translate(0.000000,700.000000) scale(0.100000,-0.100000)"
fill="#000000" stroke="none">
<path d="M3470 6572 c-41 -36 -43 -41 -49 -109 -4 -40 -10 -76 -15 -80 -7 -7
-27 12 -51 51 -16 26 -396 43 -618 27 -311 -22 -758 -136 -1184 -302 -89 -35
-103 -44 -117 -74 -27 -57 1 -91 90 -109 54 -11 57 -13 73 -57 10 -25 50 -91
90 -147 77 -110 94 -139 70 -129 -8 3 -48 20 -89 38 l-75 33 -320 9 c-176 4
-334 6 -352 2 -65 -12 -112 -72 -154 -194 -24 -69 -24 -101 1 -154 31 -65 71
-108 203 -220 67 -56 170 -149 230 -207 90 -89 107 -111 107 -136 0 -47 -86
-160 -222 -292 -66 -65 -126 -129 -134 -144 -8 -15 -14 -50 -14 -77 0 -49 3
-53 68 -122 37 -40 148 -140 247 -222 99 -83 203 -171 230 -195 100 -89 220
-159 350 -205 39 -14 164 -53 278 -86 115 -34 292 -95 395 -137 304 -124 460
-171 610 -181 55 -4 86 -11 89 -19 3 -7 -3 -37 -13 -66 -24 -73 -20 -122 15
-204 51 -120 62 -193 111 -730 l32 -342 -36 -50 c-47 -65 -47 -97 0 -143 20
-18 40 -42 45 -51 10 -19 49 -752 49 -930 l0 -106 -35 -42 c-43 -52 -44 -77
-2 -119 l32 -34 5 -146 5 -146 88 -9 c51 -5 119 -5 160 0 l72 9 5 110 5 110
53 99 c80 150 180 269 258 309 44 22 159 37 291 37 220 0 450 31 603 80 151
49 361 167 583 327 221 160 335 275 409 418 30 58 61 99 112 148 94 90 134
116 263 167 128 51 209 103 258 167 42 55 49 79 42 141 -4 34 -12 53 -32 69
-42 37 -95 31 -241 -28 -275 -111 -360 -94 -512 103 -87 111 -123 141 -199
164 -250 77 -511 1 -787 -227 -116 -96 -220 -211 -371 -414 -266 -356 -378
-547 -415 -710 -29 -126 -32 -132 -92 -158 -29 -13 -88 -47 -132 -75 -43 -29
-84 -52 -92 -52 -18 0 -19 13 -54 640 -36 634 -63 1001 -85 1145 -8 55 -33
172 -54 260 -42 171 -56 239 -67 324 l-6 54 63 -7 c115 -12 392 -57 514 -82
246 -52 292 -57 515 -58 l216 -1 74 37 c194 95 471 360 544 518 36 78 41 124
21 219 -20 98 -16 122 37 203 104 159 143 254 174 416 26 141 2 270 -60 317
-81 61 -122 12 -211 -245 -59 -173 -113 -275 -190 -358 -70 -76 -197 -179
-272 -222 -76 -44 -134 -50 -403 -48 l-245 3 -105 -36 c-97 -34 -544 -230
-679 -298 -32 -16 -72 -41 -88 -55 -27 -23 -40 -26 -102 -26 -69 0 -73 -2
-104 -34 -54 -57 -65 -59 -159 -32 -46 14 -196 68 -333 121 -164 63 -336 120
-500 166 -270 76 -366 115 -483 198 -91 65 -462 361 -481 384 -16 20 -19 15
79 127 37 41 88 103 114 138 26 34 51 62 57 62 14 0 64 -51 211 -215 205 -229
342 -343 523 -435 125 -63 222 -95 565 -181 157 -39 292 -75 302 -80 10 -5 19
-28 23 -61 8 -63 38 -136 59 -144 27 -10 56 16 87 79 39 78 54 94 90 102 16 4
37 18 46 32 16 24 15 28 -21 99 l-37 74 21 122 c32 192 46 240 78 265 48 40
392 139 607 176 121 21 276 35 470 42 246 9 317 21 515 90 276 96 538 246 582
335 22 43 23 131 3 169 -22 44 -66 58 -126 39 l-49 -16 1 216 c1 268 -15 351
-102 525 -91 181 -226 306 -448 417 -118 59 -160 72 -466 145 -659 157 -747
175 -836 175 -51 0 -60 -4 -99 -38z m662 -358 c251 -63 481 -123 510 -135 161
-62 321 -194 386 -317 52 -97 65 -180 57 -362 -3 -85 -9 -165 -12 -176 -4 -20
-15 -23 -119 -34 -63 -7 -118 -10 -121 -7 -3 4 3 18 13 33 43 61 45 67 41 164
-3 81 -8 104 -33 155 -76 156 -230 246 -537 315 -73 17 -199 52 -282 79 -82
27 -224 70 -315 96 -181 50 -270 86 -270 108 0 15 7 25 98 140 52 66 54 68 90
61 20 -4 243 -58 494 -120z m-785 98 c31 -19 -72 -123 -158 -160 -52 -23 -89
-63 -89 -98 0 -29 20 -40 103 -54 54 -10 77 -20 124 -57 61 -48 165 -103 273
-146 114 -45 632 -206 728 -227 110 -23 165 -46 214 -89 40 -35 52 -72 64
-190 l7 -73 -54 7 c-187 24 -324 46 -329 52 -4 5 -42 53 -85 108 -120 154
-142 175 -186 175 -21 0 -50 -5 -65 -10 -38 -15 -55 -6 -98 51 -53 72 -106 93
-365 145 -175 36 -231 52 -296 83 -98 47 -224 90 -288 98 -26 3 -50 10 -53 14
-10 17 140 147 340 292 104 76 123 87 160 87 22 0 46 -4 53 -8z m-527 -26 c0
-8 -46 -54 -102 -102 -158 -135 -321 -305 -352 -365 -33 -67 -36 -149 -6 -194
24 -36 25 -67 5 -176 -24 -129 -36 -179 -45 -179 -5 0 -46 30 -92 66 -45 37
-113 87 -150 112 -38 25 -68 50 -68 56 0 6 7 20 15 30 23 31 18 100 -11 159
-15 29 -58 96 -96 150 -80 112 -123 191 -113 206 3 6 23 18 43 27 68 29 413
123 616 168 239 53 237 53 304 55 39 1 52 -3 52 -13z m-1714 -750 c9 -23 -25
-126 -43 -133 -22 -9 -53 32 -53 70 0 18 9 40 22 54 24 26 66 31 74 9z m459
-44 c90 -32 425 -260 610 -416 33 -28 121 -105 195 -171 304 -272 563 -479
655 -524 66 -33 122 -39 171 -21 l27 11 -7 -47 c-12 -90 -67 -319 -80 -332
-10 -10 -31 -7 -112 18 -54 17 -191 56 -302 86 -285 77 -382 116 -522 210 -91
62 -155 124 -336 324 -87 96 -259 277 -381 401 -123 124 -223 232 -223 239 0
24 110 199 132 211 60 32 105 35 173 11z m1646 -131 c71 -24 136 -57 291 -148
236 -138 357 -175 752 -229 144 -19 288 -41 321 -49 33 -7 85 -16 115 -20 88
-11 128 -24 145 -48 47 -67 11 -78 -395 -122 -306 -33 -390 -47 -583 -96 -278
-70 -412 -118 -538 -194 l-59 -37 -48 43 c-26 23 -111 98 -190 167 -97 86
-138 128 -130 134 7 4 50 17 96 29 129 35 112 48 -111 84 -64 10 -94 12 -103
4 -17 -14 -23 -9 -117 75 -125 113 -125 97 1 224 88 90 120 115 182 145 146
70 248 81 371 38z m694 -21 c3 -5 2 -10 -4 -10 -5 0 -13 5 -16 10 -3 6 -2 10
4 10 5 0 13 -4 16 -10z m1345 -1549 c0 -12 -168 -172 -275 -262 -123 -103
-252 -198 -280 -205 -13 -3 -108 2 -212 11 -143 12 -234 27 -383 61 -107 25
-198 48 -203 53 -11 11 17 28 159 98 227 113 202 108 468 96 336 -15 398 -5
579 98 94 54 147 72 147 50z m295 -1652 c25 -23 68 -73 97 -111 41 -56 49 -74
41 -87 -14 -23 -124 -63 -357 -130 -111 -32 -222 -69 -246 -81 -71 -36 -147
-96 -271 -215 -358 -341 -401 -380 -385 -340 54 128 423 625 557 749 153 142
362 252 482 255 31 1 45 -6 82 -40z m325 -310 c0 -17 -288 -305 -375 -376
-107 -86 -343 -243 -458 -303 -111 -59 -270 -114 -391 -135 -100 -17 -142 -19
-150 -6 -13 20 178 247 312 371 108 100 265 218 335 253 29 14 169 60 312 101
143 42 280 82 305 90 54 17 110 20 110 5z"/>
</g>
</svg>
