<?xml version="1.0" standalone="no"?>
<!DOCTYPE svg PUBLIC "-//W3C//DTD SVG 20010904//EN"
 "http://www.w3.org/TR/2001/REC-SVG-20010904/DTD/svg10.dtd">
<svg version="1.0" xmlns="http://www.w3.org/2000/svg"
 width="512.000000pt" height="512.000000pt" viewBox="0 0 512.000000 512.000000"
 preserveAspectRatio="xMidYMid meet">
<metadata>
Created by potrace 1.11, written by Peter Selinger 2001-2013
</metadata>
<g transform="translate(0.000000,512.000000) scale(0.100000,-0.100000)"
fill="#000000" stroke="none">
<path d="M3060 5009 c-231 -17 -540 -73 -791 -145 -68 -19 -125 -36 -126 -38
-2 -2 63 -6 144 -10 328 -15 597 -70 781 -158 91 -45 186 -137 202 -198 27
-98 -8 -251 -86 -384 -85 -145 -282 -325 -426 -391 -69 -31 -221 -70 -378 -97
-103 -18 -165 -22 -350 -22 -238 0 -356 13 -512 55 -88 24 -97 33 -105 112 -4
41 -1 57 13 75 18 22 29 23 204 32 589 31 860 86 1087 222 118 70 223 203 223
281 0 51 -30 95 -99 145 -145 107 -296 180 -493 238 -280 83 -475 91 -748 32
-596 -128 -1274 -644 -1459 -1110 -70 -175 -73 -323 -11 -456 40 -86 184 -229
293 -291 323 -182 714 -263 1262 -261 154 1 290 1 302 1 57 -2 47 -85 -18
-149 -80 -81 -241 -107 -654 -107 -258 0 -304 3 -415 23 -151 28 -349 78 -488
126 l-103 35 7 -32 c31 -144 178 -508 276 -682 240 -430 536 -725 925 -923
269 -137 507 -211 923 -287 332 -60 404 -87 458 -172 42 -65 46 -77 87 -265
19 -90 38 -173 40 -185 l5 -23 236 0 236 0 -6 58 c-18 174 -28 482 -18 547 14
86 22 94 199 189 255 137 453 285 634 474 354 368 556 813 635 1397 24 177 24
532 0 705 -30 224 -95 472 -165 634 l-22 49 -78 -116 c-100 -149 -129 -185
-221 -281 -85 -89 -208 -176 -250 -176 -17 0 -40 11 -59 29 -47 44 -42 73 30
166 145 190 208 375 197 582 -5 100 -31 175 -95 270 -110 166 -337 347 -527
418 -170 64 -401 85 -696 64z"/>
</g>
</svg>
