<?xml version="1.0" standalone="no"?>
<!DOCTYPE svg PUBLIC "-//W3C//DTD SVG 20010904//EN"
 "http://www.w3.org/TR/2001/REC-SVG-20010904/DTD/svg10.dtd">
<svg version="1.0" xmlns="http://www.w3.org/2000/svg"
 width="512.000000pt" height="512.000000pt" viewBox="0 0 512.000000 512.000000"
 preserveAspectRatio="xMidYMid meet">
<metadata>
Created by potrace 1.11, written by Peter Selinger 2001-2013
</metadata>
<g transform="translate(0.000000,512.000000) scale(0.100000,-0.100000)"
fill="#000000" stroke="none">
<path d="M3050 5114 c-236 -21 -501 -70 -710 -129 -68 -20 -125 -37 -127 -39
-2 -2 54 -6 124 -9 244 -12 504 -72 678 -156 116 -57 184 -113 215 -177 20
-40 22 -57 18 -139 -4 -80 -10 -104 -40 -167 -141 -297 -457 -443 -953 -441
-204 1 -335 17 -528 65 -140 34 -162 49 -155 105 3 28 4 28 88 35 47 3 168 12
270 18 308 18 490 51 666 119 231 89 376 259 322 376 -18 40 -148 130 -283
196 -220 107 -466 152 -719 130 -288 -25 -455 -69 -681 -180 -226 -112 -368
-215 -538 -390 -186 -191 -291 -398 -312 -611 -8 -81 14 -192 50 -254 34 -57
176 -192 247 -234 279 -165 734 -253 1215 -236 171 6 195 5 218 -10 61 -40 52
-109 -20 -151 -100 -59 -237 -78 -550 -78 -323 0 -577 34 -854 114 -57 16
-105 28 -107 27 -4 -5 79 -252 116 -343 50 -124 143 -302 219 -416 321 -485
779 -769 1449 -900 276 -53 396 -80 437 -98 53 -23 98 -76 124 -145 35 -95
114 -527 166 -909 5 -39 11 -50 36 -63 78 -40 203 -23 274 39 l38 33 -13 515
c-17 616 -17 613 0 634 19 23 105 77 187 119 308 155 621 448 809 757 286 469
384 1168 254 1810 -33 163 -123 440 -137 425 -3 -3 -25 -51 -49 -107 -93 -215
-203 -358 -353 -462 -55 -37 -128 -48 -154 -22 -29 29 -19 60 49 151 77 103
123 191 155 294 33 107 33 281 0 360 -74 177 -266 362 -483 465 -112 53 -230
75 -438 79 -96 2 -195 2 -220 0z"/>
</g>
</svg>
